<svg xmlns="http://www.w3.org/2000/svg" width="56" height="80" viewBox="0 0 56 80" fill="none"><path d="M2.93806 11.9539C2.93806 12.1006 3.10596 12.1634 3.21089 12.0587C5.09972 10.2151 7.45026 8.8114 10.1366 8.0991L10.3045 8.0572C10.5353 7.99435 10.7872 7.9315 11.018 7.8896C11.5637 7.78484 12.1094 7.6801 12.676 7.59629C12.8229 7.57534 12.8649 7.38679 12.76 7.30299L2.60227 0.0332901C2.49734 -0.0505105 2.32944 0.0332927 2.35043 0.179944L2.93806 11.9539Z" fill="#D2C049"></path><path d="M53.2648 0.033259L43.1071 7.32391C42.9811 7.40771 43.0441 7.59627 43.191 7.61722C43.7367 7.70102 44.3033 7.78482 44.849 7.91052C45.0798 7.95242 45.3317 8.01527 45.5625 8.07812L45.7304 8.12002C48.4168 8.83232 50.7673 10.215 52.6561 12.0796C52.7611 12.1843 52.929 12.1215 52.929 11.9748L53.5376 0.200861C53.5166 0.0542098 53.3697 -0.0295915 53.2648 0.033259Z" fill="#D2C049"></path><path d="M47.3886 11.1369C46.0035 10.6131 44.5344 10.236 43.0233 10.0056C43.0233 10.0056 43.0233 10.0056 43.0023 10.0056C41.911 9.83795 40.7987 9.75415 39.6654 9.75415C35.9297 9.75415 32.4249 10.676 29.3398 12.3101C28.7941 12.6034 28.2485 12.9176 27.7448 13.2528C27.2201 12.9176 26.6745 12.6034 26.1288 12.3101C23.0437 10.676 19.5389 9.75415 15.8032 9.75415C14.2502 9.75415 12.7181 9.92175 11.2491 10.236C11.0392 10.2779 10.8293 10.3198 10.6194 10.3827C10.5775 10.3827 10.5355 10.4036 10.4935 10.4036C4.82705 11.912 0.671631 17.0658 0.671631 23.1832C0.671631 23.665 0.692617 24.1469 0.755577 24.6288C1.46913 31.249 7.09364 36.4237 13.9354 36.4237C15.3625 36.4237 16.7267 36.1932 18.0278 35.7742C20.1265 35.1038 21.9944 33.9097 23.4844 32.3594C23.6523 33.1136 23.8412 33.8468 24.0931 34.5591C24.9116 37.0312 26.1708 39.3148 27.7658 41.3051C29.4238 39.231 30.7249 36.8427 31.5225 34.2658C31.7533 33.5535 31.9422 32.7993 32.0891 32.0661C33.5582 33.6792 35.405 34.9362 37.5037 35.6695C38.8889 36.1513 40.358 36.4237 41.911 36.4237C48.7318 36.4237 54.3563 31.27 55.0908 24.6288C55.1328 24.1469 55.1748 23.686 55.1748 23.1832C55.1538 17.82 51.9637 13.2109 47.3886 11.1369ZM17.755 33.8468C16.5588 34.2868 15.2786 34.5382 13.9354 34.5382C7.93312 34.5382 3.06414 29.6777 3.06414 23.686C3.06414 17.82 7.74424 13.0224 13.5786 12.8548C13.6835 12.8548 13.8095 12.8548 13.9144 12.8548C14.0193 12.8548 14.1453 12.8548 14.2502 12.8548C17.839 12.9386 21.0919 14.4679 23.4215 16.8772C23.9672 17.4429 24.4499 18.0504 24.8906 18.6999C24.6387 19.2236 24.4289 19.7683 24.219 20.334C23.3795 22.6385 22.9178 25.1316 22.9178 27.7294C22.9178 28.3579 22.9388 28.9864 23.0018 29.5939C21.8055 31.5004 19.9377 33.0088 17.755 33.8468ZM41.911 34.5382C40.4419 34.5382 39.0358 34.2449 37.7556 33.7211C35.531 32.7993 33.6631 31.1652 32.4669 29.0911C32.4879 28.6302 32.5088 28.1903 32.5088 27.7294C32.5088 25.3411 32.1311 23.0156 31.3965 20.8787C31.1867 20.2502 30.9558 19.6217 30.683 19.0351C31.1237 18.3437 31.6274 17.6943 32.194 17.0867C34.5446 14.5727 37.8605 12.9805 41.5542 12.8757C41.6592 12.8757 41.7851 12.8757 41.89 12.8757C41.9949 12.8757 42.1209 12.8757 42.2258 12.8757C48.0602 13.0643 52.7403 17.8409 52.7403 23.7069C52.7612 29.6777 47.9133 34.5382 41.911 34.5382Z" fill="#D2C049"></path><path d="M16.7267 29.4892C19.3346 29.4892 21.4488 27.6039 21.4488 25.2782C21.4488 22.9526 19.3346 21.0673 16.7267 21.0673C14.1188 21.0673 12.0046 22.9526 12.0046 25.2782C12.0046 27.6039 14.1188 29.4892 16.7267 29.4892Z" fill="#D2C049"></path><path d="M38.7631 29.4892C41.371 29.4892 43.4851 27.6039 43.4851 25.2782C43.4851 22.9526 41.371 21.0673 38.7631 21.0673C36.1552 21.0673 34.041 22.9526 34.041 25.2782C34.041 27.6039 36.1552 29.4892 38.7631 29.4892Z" fill="#D2C049"></path><path d="M15.6143 74.4482C15.3205 74.4901 15.0267 74.5111 14.7119 74.5111C14.4181 74.5111 14.1033 74.4901 13.8094 74.4482C12.2354 74.8044 10.9972 76.0614 10.7034 77.6746C10.7663 77.6746 10.8293 77.6746 10.8923 77.6746C11.1231 77.6746 11.333 77.6117 11.5219 77.5279C11.6898 77.4441 11.8996 77.4022 12.0885 77.4022C12.1515 77.4022 12.2354 77.4022 12.2984 77.4232C12.8021 77.486 13.2428 77.8422 13.4317 78.2821C13.4317 78.2821 13.4317 78.2821 13.4317 78.3031C13.6835 78.9735 14.1242 79.5601 14.6699 80C15.2156 79.5601 15.6563 78.9735 15.9081 78.3031C15.9081 78.3031 15.9081 78.3031 15.9081 78.2821C16.097 77.8212 16.5377 77.486 17.0414 77.4232C17.1044 77.4022 17.1883 77.4022 17.2513 77.4022C17.4612 77.4022 17.65 77.4441 17.8179 77.5279C18.0278 77.6117 18.2377 77.6746 18.4476 77.6746C18.5105 77.6746 18.5735 77.6746 18.6364 77.6746C18.4266 76.0824 17.1883 74.8044 15.6143 74.4482Z" fill="#D2C049"></path><path d="M42.0159 74.4482C41.7221 74.4901 41.4283 74.511 41.1135 74.511C40.8197 74.511 40.5049 74.4901 40.2111 74.4482C38.637 74.8043 37.3988 76.0613 37.105 77.6745C37.1679 77.6745 37.2309 77.6745 37.2939 77.6745C37.5247 77.6745 37.7346 77.6117 37.9235 77.5279C38.0914 77.4441 38.3012 77.4022 38.4901 77.4022C38.5531 77.4022 38.637 77.4022 38.7 77.4231C39.2037 77.486 39.6444 77.8421 39.8333 78.2821C39.8333 78.2821 39.8333 78.2821 39.8333 78.303C40.0851 78.9734 40.5259 79.56 41.0715 80C41.6172 79.56 42.0579 78.9734 42.3097 78.303C42.3097 78.303 42.3097 78.303 42.3097 78.2821C42.4986 77.8212 42.9394 77.486 43.443 77.4231C43.506 77.4022 43.59 77.4022 43.6529 77.4022C43.8628 77.4022 44.0517 77.4441 44.2196 77.5279C44.4294 77.6117 44.6393 77.6745 44.8492 77.6745C44.9121 77.6745 44.9751 77.6745 45.0381 77.6745C44.8492 76.0823 43.6109 74.8043 42.0159 74.4482Z" fill="#D2C049"></path><path d="M24.7436 58.3166C26.0765 58.3166 27.1571 57.3224 27.1571 56.0959C27.1571 54.8694 26.0765 53.8752 24.7436 53.8752C23.4106 53.8752 22.3301 54.8694 22.3301 56.0959C22.3301 57.3224 23.4106 58.3166 24.7436 58.3166Z" fill="#D2C049"></path><path d="M31.1027 58.3166C32.4356 58.3166 33.5162 57.3224 33.5162 56.0959C33.5162 54.8694 32.4356 53.8752 31.1027 53.8752C29.7698 53.8752 28.6892 54.8694 28.6892 56.0959C28.6892 57.3224 29.7698 58.3166 31.1027 58.3166Z" fill="#D2C049"></path><path d="M27.9126 64.476C29.1065 64.476 30.0743 63.5755 30.0743 62.4648C30.0743 61.354 29.1065 60.4536 27.9126 60.4536C26.7188 60.4536 25.751 61.354 25.751 62.4648C25.751 63.5755 26.7188 64.476 27.9126 64.476Z" fill="#D2C049"></path><path d="M33.3694 63.6799C34.5633 63.6799 35.5311 62.7794 35.5311 61.6687C35.5311 60.5579 34.5633 59.6575 33.3694 59.6575C32.1756 59.6575 31.2078 60.5579 31.2078 61.6687C31.2078 62.7794 32.1756 63.6799 33.3694 63.6799Z" fill="#D2C049"></path><path d="M22.4771 63.6799C23.6709 63.6799 24.6387 62.7794 24.6387 61.6687C24.6387 60.5579 23.6709 59.6575 22.4771 59.6575C21.2832 59.6575 20.3154 60.5579 20.3154 61.6687C20.3154 62.7794 21.2832 63.6799 22.4771 63.6799Z" fill="#D2C049"></path><path d="M25.5832 69.2107C26.5337 69.2107 27.3042 68.5072 27.3042 67.6394C27.3042 66.7717 26.5337 66.0682 25.5832 66.0682C24.6328 66.0682 23.8623 66.7717 23.8623 67.6394C23.8623 68.5072 24.6328 69.2107 25.5832 69.2107Z" fill="#D2C049"></path><path d="M30.2634 69.2107C31.2139 69.2107 31.9843 68.5072 31.9843 67.6394C31.9843 66.7717 31.2139 66.0682 30.2634 66.0682C29.313 66.0682 28.5425 66.7717 28.5425 67.6394C28.5425 68.5072 29.313 69.2107 30.2634 69.2107Z" fill="#D2C049"></path><path d="M20.8611 68.4984C21.8115 68.4984 22.582 67.7949 22.582 66.9271C22.582 66.0593 21.8115 65.3558 20.8611 65.3558C19.9106 65.3558 19.1401 66.0593 19.1401 66.9271C19.1401 67.7949 19.9106 68.4984 20.8611 68.4984Z" fill="#D2C049"></path><path d="M34.9643 68.4984C35.9148 68.4984 36.6853 67.7949 36.6853 66.9271C36.6853 66.0593 35.9148 65.3558 34.9643 65.3558C34.0139 65.3558 33.2434 66.0593 33.2434 66.9271C33.2434 67.7949 34.0139 68.4984 34.9643 68.4984Z" fill="#D2C049"></path><path d="M51.1453 36.0676C48.9836 37.4712 46.4022 38.2673 43.6529 38.2673C41.4703 38.2673 39.4136 37.7645 37.5877 36.8637C35.2162 39.5662 33.7681 43.1068 33.7681 46.9826C33.7681 47.653 33.81 48.3025 33.894 48.931C33.915 49.0776 33.936 49.2243 33.9569 49.3709C35.405 58.9661 40.1061 67.4718 46.9269 73.7569C50.3478 70.342 52.9711 66.1101 54.4612 61.3753C55.3636 58.5052 55.8463 55.4465 55.8463 52.283C55.8463 46.3331 54.1254 40.7604 51.1453 36.0676Z" fill="#D2C049"></path><path d="M4.70108 36.0675C6.86273 37.4712 9.44413 38.2673 12.1934 38.2673C14.3761 38.2673 16.4328 37.7645 18.2587 36.8636C20.6302 39.5662 22.0783 43.1068 22.0783 46.9825C22.0783 47.6529 22.0363 48.3024 21.9524 48.9309C21.9314 49.0775 21.9104 49.2242 21.8894 49.3708C20.4413 58.966 15.7402 67.4718 8.91946 73.7568C5.49858 70.3419 2.87521 66.11 1.38514 61.3753C0.482698 58.5051 0 55.4464 0 52.2829C0 46.3331 1.72093 40.7603 4.70108 36.0675Z" fill="#D2C049"></path></svg>