<svg xmlns="http://www.w3.org/2000/svg" width="63.486" height="63.486" viewBox="0 0 63.486 63.486">
  <g id="Digital_Graphic-Graphic_Tool-Editor-Browser-Digital" data-name="Digital Graphic-Graphic Tool-Editor-Browser-Digital" transform="translate(-4 -4)">
    <path id="Path_4126" data-name="Path 4126" d="M67.486,12H4V63.015a3.411,3.411,0,0,0,3.4,3.4H31.208V44.672a3.378,3.378,0,0,1-.487-6.167l-1.655-3.322a1.114,1.114,0,0,1,.091-1.168l5.668-7.936a1.161,1.161,0,0,1,1.837,0l5.668,7.936a1.114,1.114,0,0,1,.091,1.168l-1.655,3.322a3.378,3.378,0,0,1-.487,6.167V66.416H64.085a3.411,3.411,0,0,0,3.4-3.4ZM52.748,23.337a3.4,3.4,0,0,1-3.192-2.267H43.94a15.75,15.75,0,0,1,7.632,12.667,3.4,3.4,0,1,1-2.267.026A13.7,13.7,0,0,0,38.788,21.421a3.377,3.377,0,0,1-6.09,0A13.7,13.7,0,0,0,22.181,33.766a3.4,3.4,0,1,1-2.267-.026,15.748,15.748,0,0,1,7.632-12.671H21.93a3.4,3.4,0,1,1,0-2.267H32.55a3.381,3.381,0,0,1,6.385,0h10.62a3.4,3.4,0,1,1,3.192,4.535Z" transform="translate(0 1.069)" fill="#ec7a49"/>
    <ellipse id="Ellipse_98" data-name="Ellipse 98" cx="0.781" cy="1.172" rx="0.781" ry="1.172" transform="translate(20.448 36.854)" fill="#ec7a49"/>
    <circle id="Ellipse_99" data-name="Ellipse 99" cx="1.172" cy="1.172" r="1.172" transform="translate(49.354 36.854)" fill="#ec7a49"/>
    <ellipse id="Ellipse_100" data-name="Ellipse 100" cx="1.172" cy="0.781" rx="1.172" ry="0.781" transform="translate(51.698 20.448)" fill="#ec7a49"/>
    <ellipse id="Ellipse_101" data-name="Ellipse 101" cx="1.172" cy="0.781" rx="1.172" ry="0.781" transform="translate(34.51 20.448)" fill="#ec7a49"/>
    <path id="Path_4127" data-name="Path 4127" d="M30,41h4.535V62.54H30Z" transform="translate(3.475 4.946)" fill="#ec7a49"/>
    <ellipse id="Ellipse_102" data-name="Ellipse 102" cx="1.563" cy="0.781" rx="1.563" ry="0.781" transform="translate(17.323 20.448)" fill="#ec7a49"/>
    <path id="Path_4128" data-name="Path 4128" d="M67.486,7.4a3.411,3.411,0,0,0-3.4-3.4H7.4A3.411,3.411,0,0,0,4,7.4v3.4H67.486ZM10.8,8.535H8.535V6.267H10.8Zm4.535,0H13.069V6.267h2.267Zm4.535,0H17.6V6.267h2.267Z" fill="#ec7a49"/>
    <path id="Path_4129" data-name="Path 4129" d="M37.069,38.134A1.134,1.134,0,0,0,35.936,37h-6.8a1.134,1.134,0,0,0,0,2.267h6.8A1.134,1.134,0,0,0,37.069,38.134Z" transform="translate(3.208 4.411)" fill="#ec7a49"/>
    <path id="Path_4130" data-name="Path 4130" d="M28.16,32.621l1.655,3.3h5.4l1.655-3.3-3.22-4.5v4.4H31.38v-4.4Z" transform="translate(3.229 3.224)" fill="#ec7a49"/>
  </g>
</svg>
