<svg xmlns="http://www.w3.org/2000/svg" width="72.725" height="76.552" viewBox="0 0 72.725 76.552">
  <path id="_220c2335-ff26-490d-9248-affcc9b94f69" data-name="220c2335-ff26-490d-9248-affcc9b94f69" d="M74.042,53.587A11.483,11.483,0,1,0,85.525,65.069,11.483,11.483,0,0,0,74.042,53.587Zm5.181,12.836a1.914,1.914,0,0,1-2.706,0l-.561-.561V68.9a1.914,1.914,0,1,1-3.828,0V65.862l-.561.561a1.914,1.914,0,1,1-2.706-2.706l3.828-3.827a1.579,1.579,0,0,1,.13-.117l.042-.033q.049-.039.1-.073l.045-.03a1.18,1.18,0,0,1,.15-.084l.028-.013q.061-.031.126-.058l.049-.019.12-.042.04-.012a1.673,1.673,0,0,1,.166-.04h0c.055-.01.111-.018.167-.024h.214a1.91,1.91,0,0,1,.338.031l.049.01.112.027.061.018.106.037.054.019h0c.048.019.1.042.142.066l.052.028.1.058.049.031q.061.042.118.087l.019.015a1.668,1.668,0,0,1,.132.12l.01.009,3.828,3.828a1.914,1.914,0,0,1-.013,2.694ZM58.731,65.069a15.31,15.31,0,0,1,15.31-15.31V22.966L51.1,0H22.369A9.569,9.569,0,0,0,12.8,9.569V66.983a9.569,9.569,0,0,0,9.569,9.569H63.935a15.258,15.258,0,0,1-5.2-11.483ZM49.162,3.828,70.214,24.879H58.731a9.569,9.569,0,0,1-9.569-9.569ZM30.024,36.362h15.31a1.914,1.914,0,1,1,0,3.828H30.024a1.914,1.914,0,1,1,0-3.828Zm0,7.655H56.818a1.914,1.914,0,0,1,0,3.828H30.024a1.914,1.914,0,1,1,0-3.828ZM56.761,55.5H30.024a1.914,1.914,0,1,1,0-3.828H56.761a1.914,1.914,0,1,1,0,3.828Z" transform="translate(-12.8)" fill="#ec7a49"/>
</svg>
