<svg id="Group_8906" data-name="Group 8906" xmlns="http://www.w3.org/2000/svg" width="501.656" height="536" viewBox="0 0 501.656 536">
  <g id="freepik--character-3--inject-40" transform="translate(0 0)">
    <g id="freepik--Character--inject-40" transform="translate(0)">
      <path id="Path_9128" data-name="Path 9128" d="M401.577,240.163c1.079-7.5-14.828-48.576-23.56-67.856-7.654-16.917-13.458-15.941-26.676-16.677l-.291,29.005L377.5,240.471" transform="translate(-170.006 -58.725)" fill="#febf9d"/>
      <path id="Path_9129" data-name="Path 9129" d="M400.095,155.41l-16.4,1.3c3.715,21.985-10.667,42.943-10.667,42.943l9.76,30.1c-.257,3.989-11.831,17.859-17,35.58,11.986,16.129,60.9,21.8,80.184,7.637-.1-9.9.308-23.629-.274-29.4l3.27-28.252c24.159-19.828-5-50.031-15.735-59.62H423.176Z" transform="translate(-251.892 -58.882)" fill="#ec7a49"/>
      <path id="Path_9130" data-name="Path 9130" d="M400.095,155.41l-16.4,1.3c3.715,21.985-10.667,42.943-10.667,42.943l9.76,30.1c-.257,3.989-11.831,17.859-17,35.58,11.986,16.129,60.9,21.8,80.184,7.637-.1-9.9.308-23.629-.274-29.4l3.27-28.252c24.159-19.828-5-50.031-15.735-59.62H423.176Z" transform="translate(-251.892 -58.882)" fill="#cfd8de"/>
      <path id="Path_9131" data-name="Path 9131" d="M356.466,486.655s-4.674-54.791-1.1-80.714c3.065-22.259,6.661-31.573,7.311-36.642,0,0,5.5-52.394,5.959-96.929.205-21.129,2.055-44.33,17.893-68.712l.565-.959c1.079,8.2,13.458,13.886,24.639,15.513,10.753,1.558,24.3-.154,40.545-5.137,2.876,21.215,5.616,61.555,8.3,105.524,1.318,21.488.377,39.5.274,53.284-.137,18.7-4.606,101.895-4.606,101.895v3.082c0,3.424.736,5.8,2.945,11.3a66.162,66.162,0,0,0,11.694,19.365c1.558,1.712,12.328,11.1,13.7,13.1,4.623,5.411-4.948,8.441-12.071,7.5-7.517-1.01-19.177-3.852-22.482-8.441-2.209-3.031-3.87-13.7-6.13-16.8-7.637-10.427-10.787-14.9-10.838-18.235-.1-6.01,1.969-8.39,2.705-11.78-.616-7.106-13.407-54.586-13.7-75.252-.12-9.845,2.637-27.224,2.637-27.224l-10.273-72.136c-3.424,20.067-10.273,65.339-12.7,79.738-3.3,19.828-14.588,63.233-21.677,89.481-2.654,9.862-3.955,14.263-4.743,20.735l-.223,2.311c-.171,2.945-1.438,34.245-2.6,40.905-2.431,13.8-14.708,11.986-16.677.907-1.712-9.52.428-38.936.479-42.549Z" transform="translate(-259.27 -25.201)" fill="#febf9d"/>
      <path id="Path_9132" data-name="Path 9132" d="M424.906,368.43c-3.424,0-1.182,13.458-2.072,22.088-.959,9.246-3.99,15.992-4.863,23.577-.993,8.664-.223,12.294,2.894,19.4,2.414,5.548,14.554,13.133,19.16,5.137s5.6-16.951,5.137-25.581c-.548-8.921-1.079-15.41-1.267-22.259-.154-5.976,4.452-20.016,0-20.872l-.223,2.329c-1.61,3.219-16.985,5.445-18.834-.753Z" transform="translate(-328.104 92.837)" fill="#d4d8db"/>
      <path id="Path_9133" data-name="Path 9133" d="M379.212,371.55c-1.062,4.315,0,16.163,0,16.163s1.883,4.092,8.561,6.849l3-16.472Z" transform="translate(-206.558 95.059)" fill="#d4d8db"/>
      <path id="Path_9134" data-name="Path 9134" d="M369.83,392.389l14.691-4.811,3.544-13.047-16.506,8.356Z" transform="translate(-188.598 97.181)" fill="#edeff0"/>
      <path id="Path_9135" data-name="Path 9135" d="M376.688,364.417l.086-3.082c1.986.976,6.387,17.122,12.328,28.063,5.411,10.068,16.163,15.684,19.656,20.067,4.657,5.856-4.4,13.407-18.971,10.273-7.226-1.541-18.167-6.164-21.129-11.044s-3.972-13.835-6.4-17.413-8.184-7.722-9.417-11.8a22.26,22.26,0,0,1,0-11.266c1.147-3.716,2.14-8.2,3.424-7.808l.086,2.825c.976,1.986,4.486,4.3,11.849,4.709C371.705,368.149,375.1,367.6,376.688,364.417Z" transform="translate(-180.183 87.107)" fill="#d4d8db"/>
      <path id="Path_9136" data-name="Path 9136" d="M465.624,209.948s-4.452,7.191-33.56,6.181-32.378-13.509-32.378-13.509a161.075,161.075,0,0,0-13.972,23.149c-5.137,11.147-7.6,27.909-8.39,53.079S373.3,370.2,373.3,370.2s-4.144,15.29-5.445,23.595c0,0,10.667,13.8,40.854,9.092a155.418,155.418,0,0,0,6.849-24.656c1.558-10.393,10.924-77.358,10.924-77.358l8.253,70.886s-3.561,20.324-.908,32.789c0,0,20.444,8.664,39.039-1.712,0,0,1.935-35.066,1.8-48.85-.137-16.181-.445-30.306-2.466-66.588C470.761,260.134,465.624,209.948,465.624,209.948Z" transform="translate(-271.825 -25.258)" fill="#2f3640"/>
      <path id="Path_9137" data-name="Path 9137" d="M379.14,283.19l7.945-45.734s10.273,0,20.923-10.017c0,0-1.884,10.273-15.753,15.547l-9.691,40.494,3.63,60.253Z" transform="translate(-224.482 -7.58)" fill="#2f3640"/>
      <path id="Path_9138" data-name="Path 9138" d="M464.063,156.329a19.485,19.485,0,0,0-21.2,10.273c-3.87,7.756-29.656,52.343-35.306,64.739-1.541,3.424,4.657,23.149,15.2,17.687s31.522-46.983,31.522-46.983S475.706,177.9,464.063,156.329Z" transform="translate(-332.263 -58.499)" fill="#febf9d"/>
      <g id="freepik--Pencil--inject-40" transform="translate(0 22.978)">
        <path id="Path_9144" data-name="Path 9144" d="M570.406,385.022l-3.818-4.863L562,374.27,373.911,134.13c.154,4.931-4.674,12.67-12.174,18.954-8.749,7.311-19.331,11.609-24.947,9.674L523.679,401.34l8.8,11.232C527.241,404.987,564.91,377.489,570.406,385.022Z" transform="translate(-314.367 -97.016)" fill="#ec7a49"/>
        <path id="Path_9145" data-name="Path 9145" d="M570.406,385.022l-3.818-4.863L562,374.27,373.911,134.13c.154,4.931-4.674,12.67-12.174,18.954-8.749,7.311-19.331,11.609-24.947,9.674L523.679,401.34l8.8,11.232C527.241,404.987,564.91,377.489,570.406,385.022Z" transform="translate(-314.367 -97.016)" fill="#ec7a49"/>
        <path id="Path_9146" data-name="Path 9146" d="M375.264,270.74l8.441,10.924c2.551,3.082-2.62,10.273-9.862,17.122-9.589,8.972-22.824,17-26.214,12.91l-6.25-8.03-2.175-2.911c3.424,4.075,16.626-3.955,26.231-12.91,6.849-6.472,11.986-13.441,10.051-16.694h0a.94.94,0,0,0-.223-.411Z" transform="translate(-132.46 0.281)" fill="#ec7a49"/>
        <path id="Path_9147" data-name="Path 9147" d="M387.544,276.877c5.959,7.157-30.118,37.121-36.06,29.981l-8.561-10.924c5.959,7.157,42-22.807,36.059-29.964Z" transform="translate(-142.669 -3.117)" fill="#ec7a49"/>
        <path id="Path_9150" data-name="Path 9150" d="M451.405,123.635c5.924-3.63,6.575-6.335,6.575-6.335l44.21,28.9c1.832,9.212-6.1,19.759-16.095,25.512l-1.712-2.038Z" transform="translate(-442.663 -109.003)" fill="#ffa8a7"/>
        <path id="Path_9151" data-name="Path 9151" d="M491.081,171.963h0L473.24,121.23h0Z" transform="translate(-468.676 -106.204)" fill="#fafafa"/>
        <path id="Path_9152" data-name="Path 9152" d="M487.975,126.344,483.66,114.05l4.315,12.294Z" transform="translate(-483.411 -111.318)" fill="#e0e0e0"/>
        <path id="Path_9153" data-name="Path 9153" d="M480.69,112.806l11.986,7.859s-.445,2.774-6.575,6.335l-8.561-11.814h0a2.02,2.02,0,0,1,3.031-2.38Z" transform="translate(-477.41 -112.454)" fill="#455a64"/>
        <path id="Path_9154" data-name="Path 9154" d="M478.841,172.173h0L461,121.439a6.4,6.4,0,0,0,4.178-.479L498.241,167l1.507,1.969C492.9,172.96,485.177,174.655,478.841,172.173Z" transform="translate(-456.384 -106.396)" fill="#f28f8f"/>
        <path id="Path_9155" data-name="Path 9155" d="M489.713,125.914a4.948,4.948,0,0,1-4.178.479L481.22,114.1Z" transform="translate(-480.971 -111.282)" fill="#37474f"/>
        <path id="Path_9156" data-name="Path 9156" d="M316.524,307.1l1.712,2.02.12.154c.634.771,1.2,1.49,1.233,1.507l32.686,41.761,2.14,2.74c2.277,1.866,5.736,2.671,10.119,2.072a32.328,32.328,0,0,0,13.116-5.325,35.46,35.46,0,0,0,13.116-15.153c1.935-4.828,1.712-8.9-.377-11.626l-.257-.342L352.686,277.12s3.031,7.448-13.972,20.7c-.719.582-1.438,1.113-2.106,1.712-14.057,10.376-19.16,8.15-19.9,7.722Z" transform="translate(-101.356 4.825)" fill="#ec7a49"/>
        <path id="Path_9157" data-name="Path 9157" d="M325.01,152.2,511.848,390.766l7.619,9.76c.633.771,1.2,1.49,1.233,1.507l32.686,41.761,2.14,2.74c2.277,1.866,5.736,2.671,10.119,2.072a32.329,32.329,0,0,0,13.116-5.325l-49.124-62.924L345.916,149C339.068,152.989,331.345,154.667,325.01,152.2Z" transform="translate(-302.553 -86.426)" fill="#ec7a49"/>
        <path id="Path_9158" data-name="Path 9158" d="M456.616,222.2c-1.4-1.8-8.287-.274-10.975,2.02s-9.469,6.524-15.085,5.633a116.3,116.3,0,0,0-19.81-1.712c-5.753.257-8.561.6-8.561.6l-14.314-18.3s25.683,2.123,36.162,0,19.845-4.486,19.845-4.486Z" transform="translate(-288.038 -45.864)" opacity="0.1"/>
        <path id="Path_9159" data-name="Path 9159" d="M398.825,252.184a36.872,36.872,0,0,1-5.719,4.486,29.881,29.881,0,0,1-10.6,4.418,15.41,15.41,0,0,1-11.078-2.055,6.849,6.849,0,0,1-2.791-3.424,4.777,4.777,0,0,1,1.712-4.965c2.106-1.849,4.5-3.424,6.729-5.137a51.837,51.837,0,0,0,6.284-5.137c.462-.479.942-1.438.205-1.883s-2.4.342-3.339.6a20.548,20.548,0,0,1-4.555.839,5.94,5.94,0,0,1-2.123-.205c-.788-.24-2.123-1.2-1.883-2.192.12-.514.633-.8,1.1-1.027a28.489,28.489,0,0,0,6.2-3.424c.822-.719,1.712-1.216,2.568-1.866a21.793,21.793,0,0,1,4.931-2.859L402.25,248.5C401.137,249.787,400.024,251,398.825,252.184Z" transform="translate(-200.488 -29.91)" opacity="0.1"/>
      </g>
      <path id="Path_9160" data-name="Path 9160" d="M390.2,200c-5.445,11.369-9.109,20.752,4.606,24.177,10.41,2.6,35.957,5.137,52.035,5.325,2.517,0,7.791,2.431,11.986,1.712,12.191-2.157,18.732-9.623,23.3-6.524l3.51,4.418s4.709-2.02.428-11.2c-3.647-7.791-9.5-12.157-15.838-12.157-5.941,0-17.465,6.044-21.506,6.13s-23.355-4.64-35.357-7.106C397.4,201.575,390.2,200,390.2,200Z" transform="translate(-314.9 -27.124)" fill="#febf9d"/>
      <path id="Path_9161" data-name="Path 9161" d="M352.889,265.185c2.106-1.849,4.5-3.424,6.729-5.137a50.283,50.283,0,0,0,6.284-5.137c.462-.479.942-1.421.205-1.866s-2.4.342-3.339.582a20.54,20.54,0,0,1-4.555.839,6.352,6.352,0,0,1-2.123-.188c-.788-.257-2.123-1.216-1.883-2.209.12-.5.634-.788,1.1-1.027a27.1,27.1,0,0,0,6.2-3.424c.822-.719,1.712-1.216,2.568-1.866a22.656,22.656,0,0,1,5.873-3.253c1.884-.685,4.075-.873,5.7-2.123a12.464,12.464,0,0,0,3.424-4.846c3.87-8.647,9.075-20.547,11.489-30.324L414.632,205a77.545,77.545,0,0,1-2.123,8.356c-1.609,4.315-4.828,11.729-6.849,15.889a172.246,172.246,0,0,1-10.273,19.245A101.9,101.9,0,0,1,381.4,266.64a37.8,37.8,0,0,1-5.719,4.469,29.877,29.877,0,0,1-10.6,4.418A15.188,15.188,0,0,1,354,273.472a6.849,6.849,0,0,1-2.791-3.424A4.794,4.794,0,0,1,352.889,265.185Z" transform="translate(-183.061 -23.562)" fill="#febf9d"/>
      <path id="Path_9162" data-name="Path 9162" d="M407.6,115.2l8.561,7a5.137,5.137,0,0,0-.719-7.517,5.719,5.719,0,0,0-7.842.514Z" transform="translate(-282.688 -88.823)" fill="#292d36"/>
      <path id="Path_9163" data-name="Path 9163" d="M389.922,188.183c0-5.359-12.516-13.424-18.971-24.742s-3.253-29.861,5.616-32.721c0,0,.154-16.9,22.961-21.386s29.964-9.537,34-10.273,4.863,13.7-.5,17.43A31.864,31.864,0,0,0,443.31,109.9c3.322-3.2,4.64,13.509-2.517,19.365,0,0,5.924,3.424,5.137,12.277a14.674,14.674,0,0,1-11.352,13.7Z" transform="translate(-242.627 -99.034)" fill="#292d36"/>
      <path id="Path_9164" data-name="Path 9164" d="M424.938,114.09c5.5,2.38,10.719,10.787,10.65,34.244,0,19.947-6.181,24.981-9.28,26.471s-9.109.736-14.965-.171v11.455s4.383,4.315,2.86,7.037-7.243,5.017-16.078,2.243c-10.034-3.15-12.088-9.931-12.088-9.931l-.428-24.981s-3.424,3.544-9.3-1.712c-4.9-4.281-6.661-11.643-3-15.684s8.407-4.349,12.67.154l1.25-3.065c3.647-.685,13.886.394,19.434-3.082C418.705,129.62,423.756,121.744,424.938,114.09Z" transform="translate(-238.741 -88.311)" fill="#febf9d"/>
      <path id="Path_9166" data-name="Path 9166" d="M397.177,129.27v11.078a5.137,5.137,0,0,0,5.342-5.359A5.736,5.736,0,0,0,397.177,129.27Z" transform="translate(-249.882 -77.499)" fill="#292d36"/>
      <path id="Path_9167" data-name="Path 9167" d="M374.18,131.291a2.654,2.654,0,1,0,2.757-2.671A2.74,2.74,0,0,0,374.18,131.291Z" transform="translate(-187.469 -77.962)" fill="#263238"/>
      <path id="Path_9168" data-name="Path 9168" d="M386.145,132.063a2.894,2.894,0,0,0,2.74,3.048,2.962,2.962,0,1,0-2.74-3.048Z" transform="translate(-220.529 -77.553)" fill="#263238"/>
      <path id="Path_9169" data-name="Path 9169" d="M382.624,139.82l8.561,2.654a4.349,4.349,0,0,1-5.462,3.27,4.914,4.914,0,0,1-3.1-5.924Z" transform="translate(-213.326 -69.985)" fill="#cfd8de"/>
      <path id="Path_9170" data-name="Path 9170" d="M379.906,129.416l-6.849-2.705a3.51,3.51,0,0,1,4.726-2.089,3.784,3.784,0,0,1,2.123,4.794Z" transform="translate(-186.192 -81.018)" fill="#263238"/>
      <path id="Path_9171" data-name="Path 9171" d="M376.462,128.92l-.342,16.335L384.9,143.3Z" transform="translate(-196.207 -77.749)" fill="#cfd8de"/>
    </g>
  </g>
  <g id="freepik--character-1--inject-40" transform="translate(267.616 0.273)">
    <g id="freepik--character--inject-40-2" data-name="freepik--character--inject-40" transform="translate(0 0)">
      <g id="freepik--Botom--inject-40" transform="translate(53.939 193.364)">
        <path id="Path_9197" data-name="Path 9197" d="M93.065,405.589c-5.993,3.219-13.287,2.962-20.41,0l-2.945-38.8,23.355,3.082Z" transform="translate(44.355 -111.703)" fill="#febda7"/>
        <path id="Path_9198" data-name="Path 9198" d="M134.748,391.74c-5.137,10.941-14.177,7.91-24.468.907l1.815-38.987h24.793Z" transform="translate(-68.933 -121.054)" fill="#febda7"/>
        <path id="Path_9199" data-name="Path 9199" d="M67.4,424.04c-.651.616-.445,4.846.274,5.993s5.257,5.034,13.338,5.616c7.739.548,14.64-.5,19.177-3.424s6.729-6.061,7.157-10.462,0-8.647,2.038-11.986c1.935-3.133,5.034-6.661,5.7-8.356,1.455-3.7,0-8.972,0-8.972Z" transform="translate(26.303 -93.427)" fill="#edeff0"/>
        <path id="Path_9200" data-name="Path 9200" d="M88.516,392.139a21.5,21.5,0,0,1-.942,4.9,44.211,44.211,0,0,1-4.743,9.743,38.16,38.16,0,0,1-3.219,4.537c-2.329,2.791-5.239,5.137-7.722,7.739a15.821,15.821,0,0,0-4.76,9.486c-.325,6.061,6.25,8.133,11.318,9.023a36.846,36.846,0,0,0,16.454-.822A15.136,15.136,0,0,0,106,424.654c.274-1.712.171-3.424.377-5.137a23.732,23.732,0,0,1,4.709-10.616,31.281,31.281,0,0,0,3.613-5.77c1.592-3.75.325-7.979-.685-11.712-.873-3.236-1.866-6.849-3-6.575a4.332,4.332,0,0,1-.274,1.935,7.858,7.858,0,0,0-.89,1.918,16.217,16.217,0,0,1-.925,2.5,6.541,6.541,0,0,1-2.688,2.962c0-2.294-.154-4.572-.223-6.849a3.287,3.287,0,0,0-.531-2.02,3.219,3.219,0,0,0-1.935-.839,43.129,43.129,0,0,0-12.979-1.079,1.849,1.849,0,0,0-2.02,2.312,58.212,58.212,0,0,1-.034,6.455Z" transform="translate(26.405 -99.965)" fill="#d4d8db"/>
        <path id="Path_9201" data-name="Path 9201" d="M74.595,399.688c2.26-1.712,7.311-1.712,10.085-1.421a16.951,16.951,0,0,1,7.859,2.757,1.712,1.712,0,0,0,2.312-.171h0a1.712,1.712,0,0,0-.171-2.585,17.124,17.124,0,0,0-8.852-3.219c-6.849-.479-8.8.685-8.8.685S73.978,397.685,74.595,399.688Z" transform="translate(33.837 -91.659)" fill="#f5f5f5"/>
        <path id="Path_9202" data-name="Path 9202" d="M77.038,403.269c2.825-1.712,8.39-1.438,11.164-1.147a15.873,15.873,0,0,1,7.636,2.911,1.815,1.815,0,0,0,2.329-.188h0A1.712,1.712,0,0,0,98,402.276a17.755,17.755,0,0,0-9.041-3.544c-6.849-.479-8.561.908-8.561.908a5.616,5.616,0,0,0-3.356,3.63Z" transform="translate(26.206 -89.025)" fill="#f5f5f5"/>
        <path id="Path_9203" data-name="Path 9203" d="M83.069,391.262a17.124,17.124,0,0,0-8.561.719c-1.2.685-1.986,2.568-1.216,3.048a15.821,15.821,0,0,1,7.585-1.045,22.263,22.263,0,0,1,7.363,2.038c.582.257,1.267.616,1.866.942a1.61,1.61,0,0,0,2.243-.685h0a1.524,1.524,0,0,0-.6-1.952,21.882,21.882,0,0,0-8.681-3.065Z" transform="translate(39.317 -94.448)" fill="#f5f5f5"/>
        <path id="Path_9204" data-name="Path 9204" d="M107.853,396.068a7.379,7.379,0,0,0,.291,5.411c.753,1.575,9.006,6.215,20.136,5.479a46.231,46.231,0,0,0,23-8.047c4.246-2.808,8.664-3.339,14.177-3.647s12.739-3.065,13.938-5.633-.171-7.02-.171-7.02Z" transform="translate(-107.119 -100.435)" fill="#edeff0"/>
        <path id="Path_9205" data-name="Path 9205" d="M153.095,371.246,150.2,370.2a2.312,2.312,0,0,0-1.712-.188c-.719.257-.993,1.1-1.181,1.832a27.692,27.692,0,0,1-1.216,4.829,11.626,11.626,0,0,1-3.116,3.287,51.268,51.268,0,0,1-8.9,5.736c-3.63,1.952-7.191,3.424-10.941,5.137s-8.921,2.774-11.986,4.794c-4.366,2.945-4.931,10.273,0,13.253,4.3,2.517,15.581,5.257,27.4,1.9,6.455-1.832,13.7-8.715,22.088-9.383,5.376-.428,15.564-1.935,19.023-6.027,1.284-1.815-.428-7.551-1.832-12.516-1.541-5.411-2.123-13.886-3.9-13.407-.137,1.8-1.712,2.842-2.637,4.349a32.311,32.311,0,0,0-1.935,4.3,7.928,7.928,0,0,1-2.808,3.716,3.613,3.613,0,0,1-4.366-.257c-1.575-1.627-.634-4.5-1.712-6.472a6.849,6.849,0,0,0-3.8-2.483Z" transform="translate(-107.655 -109.823)" fill="#d4d8db"/>
        <path id="Path_9206" data-name="Path 9206" d="M123.279,378.354a4.948,4.948,0,0,1,3.972-2.654c2.449-.462,6.849,1.336,9.469,3.561a2.02,2.02,0,0,1-.291,3.322h0a2.02,2.02,0,0,1-2.294-.257A15.307,15.307,0,0,0,123.279,378.354Z" transform="translate(-91.76 -105.408)" fill="#f5f5f5"/>
        <path id="Path_9207" data-name="Path 9207" d="M126.835,380.7a5.77,5.77,0,0,1,4.709-2.414s6.4.171,10.273,3.87a1.952,1.952,0,0,1-.274,3.2h0a1.918,1.918,0,0,1-2.209-.257,15.41,15.41,0,0,0-12.5-4.4Z" transform="translate(-102.918 -103.512)" fill="#f5f5f5"/>
        <path id="Path_9208" data-name="Path 9208" d="M131.825,382.852a6.422,6.422,0,0,1,4.88-2.192,17.243,17.243,0,0,1,9.931,3.921,1.952,1.952,0,0,1-.274,3.2h0a1.918,1.918,0,0,1-2.209-.257,14.725,14.725,0,0,0-12.328-4.674Z" transform="translate(-116.281 -101.824)" fill="#f5f5f5"/>
        <path id="Path_9209" data-name="Path 9209" d="M160.984,228.272c1.4,42.463,1.3,136.533,1.3,136.533.445,5.274,2.585,16.129,4.349,37.275,2.294,27.5-2.671,87.991-2.671,87.991a28.132,28.132,0,0,1-22.259.12s-13.27-86.228-17.482-113.418c-3.7-23.971-10.958-68.934-10.958-68.934l-8.356,61.143a143.827,143.827,0,0,1-.856,34.9c-1.952,12.516-10.616,63.969-10.616,63.969a43.85,43.85,0,0,1-24.588-.925s-.822-89.156-1.044-100.747C67.547,352.956,73.66,217.81,73.66,217.81Z" transform="translate(-26.543 -217.81)" fill="#292d36"/>
        <path id="Path_9210" data-name="Path 9210" d="M132.573,289.535l-6.284-34.792s-17.4-1.524-27.019-11.232c0,0,1.712,9.52,23.594,15.222L129.148,294l-4.931,56.743Z" transform="translate(-45.766 -199.506)" fill="#263238"/>
      </g>
      <path id="Path_9211" data-name="Path 9211" d="M142.134,178.145c2.209,4.811,24.194,37.053,24.194,37.053,6.849-7.654,26.094-34.382,37.292-39.861,10.924-5.325,29.022-3.852,29.022-3.852l-26.728,42.189s-18.732,18.834-30.734,28.08c-8.287,6.318-16.506,11.4-29.4-11.592-7.722-13.7-16.386-31.762-18.629-36.265a13.527,13.527,0,0,0-9.383-7.26c-1.2-.24-2.4-.514-3.579-.822-2.62-.719-5.667-1.883-6.541-4.743-.308-.976-.36-2.02-.582-3.014-.342-1.524-1.027-2.945-1.37-4.452a6.01,6.01,0,0,1,.1-3.116c.291-.873,1.113-1.609,1.164-2.568a3.6,3.6,0,0,0-.394-1.353,5.873,5.873,0,0,1,1.044-5.873,7.55,7.55,0,0,0,1.079-1.267c.548-1.01.274-2.277.531-3.424,1.147-5.137,10.051-1.37,12.825.12.8.428,4.743,2.414,6.489,3.424a28.66,28.66,0,0,1,2.346-8.2c2.175-5.137,7.893-6.215,7.619-2.945a63.2,63.2,0,0,0,.1,11.112,60.689,60.689,0,0,1,.428,7.02C139.017,170.491,139.617,172.649,142.134,178.145Z" transform="translate(-102.632 -75.203)" fill="#ffbda7"/>
      <path id="Path_9212" data-name="Path 9212" d="M201.956,160.61c-16.369.788-19.982,1.027-30.443,10.513s-28.337,32.532-28.337,32.532L129.17,184.821a18.424,18.424,0,0,1-7.688,8.458,26.779,26.779,0,0,1-11.712,2.911s7.534,17.122,14.759,29.211,12.927,16.523,23.577,10.051,46.23-41.093,46.23-41.093Z" transform="translate(-79.189 -65.185)" fill="#ec7a49"/>
      <path id="Path_9213" data-name="Path 9213" d="M201.956,160.61c-16.369.788-19.982,1.027-30.443,10.513s-28.337,32.532-28.337,32.532L129.17,184.821a18.424,18.424,0,0,1-7.688,8.458,26.779,26.779,0,0,1-11.712,2.911s7.534,17.122,14.759,29.211,12.927,16.523,23.577,10.051,46.23-41.093,46.23-41.093Z" transform="translate(-79.189 -65.185)" fill="#fff" opacity="0"/>
      <path id="Path_9215" data-name="Path 9215" d="M73.084,193.253c1.883-13.6,3.664-31.865,24.742-32.7l27.19,1.284c6.695,1.712,32.721,4.828,32.721,4.828l.5,58.986s1.712,42.515,1.147,65.287c-19.468,12.345-61.828,16.335-88.436-3.852C70.156,268.3,71.235,206.712,73.084,193.253Z" transform="translate(30.198 -65.228)" fill="#fafafa"/>
      <path id="Path_9216" data-name="Path 9216" d="M76.88,122.791a5.736,5.736,0,0,1,3.219-5.5,10.051,10.051,0,0,1,6.643-.651,8,8,0,0,1,4.931-7.962,9.246,9.246,0,0,1,10.1,1.541c-.616-2.4,1.592-4.794,4.007-5.274a12.944,12.944,0,0,1,7.191,1.318c3.424,1.37,6.849,2.894,10.273,4.126,6.113,2.157,12.636,3.424,18.15,6.849a11.13,11.13,0,0,1,3.424,3.014,9.691,9.691,0,0,1,1.455,6.13,11.984,11.984,0,0,1-.325,2.089,5.652,5.652,0,0,1,1.507-1.13,5.137,5.137,0,0,1,7.071,2.6l-6.558,3.253a9.417,9.417,0,0,1,4.863,2.825c3.287,3.579,1.027,14.417-3.544,24.93,0,0-4.777,19.28-6.541,22.43a8.715,8.715,0,0,1-5.137,3.921l.634-11.763-49-4.332,4.9-3.424a26.951,26.951,0,0,1-15.41-25.221,26.574,26.574,0,0,1,3.424-12.4C79.62,128.133,77.257,125.513,76.88,122.791Z" transform="translate(24.57 -104.878)" fill="#ec7a49"/>
      <path id="Path_9217" data-name="Path 9217" d="M76.88,122.791a5.736,5.736,0,0,1,3.219-5.5,10.051,10.051,0,0,1,6.643-.651,8,8,0,0,1,4.931-7.962,9.246,9.246,0,0,1,10.1,1.541c-.616-2.4,1.592-4.794,4.007-5.274a12.944,12.944,0,0,1,7.191,1.318c3.424,1.37,6.849,2.894,10.273,4.126,6.113,2.157,12.636,3.424,18.15,6.849a11.13,11.13,0,0,1,3.424,3.014,9.691,9.691,0,0,1,1.455,6.13,11.984,11.984,0,0,1-.325,2.089,5.652,5.652,0,0,1,1.507-1.13,5.137,5.137,0,0,1,7.071,2.6l-6.558,3.253a9.417,9.417,0,0,1,4.863,2.825c3.287,3.579,1.027,14.417-3.544,24.93,0,0-4.777,19.28-6.541,22.43a8.715,8.715,0,0,1-5.137,3.921l.634-11.763-49-4.332,4.9-3.424a26.951,26.951,0,0,1-15.41-25.221,26.574,26.574,0,0,1,3.424-12.4C79.62,128.133,77.257,125.513,76.88,122.791Z" transform="translate(24.57 -104.878)" fill="#292d36"/>
      <path id="Path_9218" data-name="Path 9218" d="M108.537,125.181c4.5-.531,8.972-1.267,13.441-1.969a1.438,1.438,0,0,1,1.164.154,1.387,1.387,0,0,1,.394.668c2.928,8.561,2.859,17.859,5.137,26.608.205.788.7,2.14,1.712,2.26,1.712.205,2.911-1.336,3.647-2.688l1.712-3a7.86,7.86,0,0,1,1.233-1.541c2.089-1.935,8.287-4.3,11.164,2.294s-3.27,15.53-8.27,16.934c-8.561,2.4-9.708-3.116-9.708-3.116l-1.712,30.734c-7.6,7.962-32.669,5.137-27.7-1.712l.325-9.366a53.8,53.8,0,0,1-11.506.223c-6.25-1.181-10.034-6.25-11.712-13.1-2.705-10.992-3.579-19.845-.291-41.2A26.642,26.642,0,0,1,79.1,121.62C87.888,126.448,98.572,126.363,108.537,125.181Z" transform="translate(32.671 -92.955)" fill="#ffbda7"/>
      <path id="Path_9219" data-name="Path 9219" d="M88.26,161.232s14.092-2.363,19.074-4.811A16.061,16.061,0,0,0,114.3,150a21.968,21.968,0,0,1-4.092,7.773c-3.733,4.469-22.071,7.243-22.071,7.243Z" transform="translate(45.5 -72.742)" fill="#f0997a"/>
      <path id="Path_9220" data-name="Path 9220" d="M97.81,137.367a2.62,2.62,0,1,0,2.705-2.637A2.688,2.688,0,0,0,97.81,137.367Z" transform="translate(40.196 -83.617)" fill="#263238"/>
      <path id="Path_9221" data-name="Path 9221" d="M95.9,129.893l6.3,2.722a3.6,3.6,0,0,0-1.849-4.623A3.424,3.424,0,0,0,95.9,129.893Z" transform="translate(44.062 -88.592)" fill="#263238"/>
      <path id="Path_9222" data-name="Path 9222" d="M108.741,146.66l-8,2.705a4.161,4.161,0,0,0,5.291,2.791,4.4,4.4,0,0,0,2.705-5.5Z" transform="translate(29.265 -75.12)" fill="#f0997a"/>
      <path id="Path_9223" data-name="Path 9223" d="M113.3,132.355l6.284-2.4a3.253,3.253,0,0,0-4.263-1.9,3.424,3.424,0,0,0-2.02,4.3Z" transform="translate(-2.554 -88.536)" fill="#263238"/>
      <path id="Path_9224" data-name="Path 9224" d="M79.39,131.79l21.968,4.589a8.048,8.048,0,0,0-6.352,3.219l-15.53-2.962Z" transform="translate(73.427 -85.711)" fill="#263238"/>
      <path id="Path_9225" data-name="Path 9225" d="M112.2,137.457a2.671,2.671,0,0,0,2.534,2.808,2.705,2.705,0,0,0,2.722-2.654,2.637,2.637,0,1,0-5.257-.154Z" transform="translate(1.155 -83.639)" fill="#263238"/>
      <path id="Path_9226" data-name="Path 9226" d="M92.638,131.407l1.421-.154c4.64-.428,10.719-.462,14.4.736,4.606,1.507,6.25,3.133,8.8,3.185s4.4-1.524,9.263-2.842c3.887-1.062,10.376-.788,15.41-.188l1.558.205a2.586,2.586,0,0,1,1.712,2.62,5.582,5.582,0,0,1-1.421,3,4.04,4.04,0,0,0-.479,1.216c-.479,2.089-.736,6.1-1.712,8.3a10.273,10.273,0,0,1-1.9,2.962,7.926,7.926,0,0,1-.993.856l-.565.394a9.3,9.3,0,0,1-1.712.8h-.291l-.462.137-.479.1a9.944,9.944,0,0,1-1.507.223h-1.473a10.89,10.89,0,0,1-10.633-6.387c-1.712-3.185-1.3-7.654-4.212-7.705h-.531c-2.14.479-1.8,4.572-3.1,7.5a11.334,11.334,0,0,1-2,3.185,6.56,6.56,0,0,1-.479.5l-.257.223-.274.223-.257.188-.257.188-.223.137-.137.086a8.646,8.646,0,0,1-2.5.976h-.24a12.121,12.121,0,0,1-3.065.257,9.212,9.212,0,0,1-9.006-5.941,55.082,55.082,0,0,1-1.969-8.373,2.6,2.6,0,0,0-.548-1.113,5.821,5.821,0,0,1-1.387-3.1A2.251,2.251,0,0,1,92.638,131.407Zm30.512,12.362a9.743,9.743,0,0,0,2.26,4.435h0a9.024,9.024,0,0,0,6.849,2.637,7.362,7.362,0,0,0,6.558-3.082l.205-.308.188-.308.154-.308.12-.257.1-.205v-.188l.12-.308h0a7.279,7.279,0,0,0,.325-.907h0l.24-.6a4.526,4.526,0,0,1,.205-.89.754.754,0,0,1,0-.171v-.154c.445-2.209.942-6.541-.154-7.534s-4.007-2.072-8.681-1.712h-.514a18.542,18.542,0,0,0-2.14.342l-.822.188a19.72,19.72,0,0,0-2.072.651l-.634.257-.7.325a.344.344,0,0,1-.137,0l-.24.154a4.059,4.059,0,0,0-1.387,1.13C122.208,138.427,122.55,141.287,123.15,143.769Zm-27.4-1.455c.394,1.712,1.25,5.479,4.572,7.157a8.082,8.082,0,0,0,3.424.856,7.363,7.363,0,0,0,6.969-3.185h0l.12-.205.137-.223v-.137a2.123,2.123,0,0,0,.171-.342l.188-.394v-.616a12.861,12.861,0,0,0,.428-1.627c.428-2.448.634-5.308-.274-6.678s-4.4-2.928-7.756-3.424a16.923,16.923,0,0,0-2.157-.205H99.093l-1.079.171h-.428l-.257.086h-.308l-.514.205h0a3.681,3.681,0,0,0-1.147.736c-.8,1.267-.154,5.616.394,7.825Z" transform="translate(9.497 -86.287)" fill="#37474f"/>
      <path id="Path_9227" data-name="Path 9227" d="M116.655,135.825l-.445,16.609-9.28-2.671,8.561-14.074A2.432,2.432,0,0,1,116.655,135.825Z" transform="translate(10.975 -82.949)" fill="#f0997a"/>
      <path id="Path_9228" data-name="Path 9228" d="M104.554,210.294c.719-17.225,2.072-32.43,8.561-40.511s9.862-9.623,25.067-9.383v1.027a5.667,5.667,0,0,0-4.3,2.517,89.344,89.344,0,0,0-11.695,25.975c-4.418,16.746-5.137,54.106-5.394,74.242s0,36.351,0,36.351-10.273-2.38-13.338-7.465C103.338,293.046,103.818,227.519,104.554,210.294Z" transform="translate(-4.576 -65.351)" fill="#ec7a49"/>
      <path id="Path_9229" data-name="Path 9229" d="M104.554,210.294c.719-17.225,2.072-32.43,8.561-40.511s9.862-9.623,25.067-9.383v1.027a5.667,5.667,0,0,0-4.3,2.517,89.344,89.344,0,0,0-11.695,25.975c-4.418,16.746-5.137,54.106-5.394,74.242s0,36.351,0,36.351-10.273-2.38-13.338-7.465C103.338,293.046,103.818,227.519,104.554,210.294Z" transform="translate(-4.576 -65.351)" opacity="0.1"/>
      <path id="Path_9230" data-name="Path 9230" d="M104.554,210.294c.719-17.225,2.072-32.43,8.561-40.511s9.862-9.623,25.067-9.383v1.027a5.667,5.667,0,0,0-4.3,2.517,89.344,89.344,0,0,0-11.695,25.975c-4.418,16.746-5.137,54.106-5.394,74.242s0,36.351,0,36.351-10.273-2.38-13.338-7.465C103.338,293.046,103.818,227.519,104.554,210.294Z" transform="translate(-4.576 -65.351)" fill="#fff" opacity="0"/>
      <path id="Path_9231" data-name="Path 9231" d="M71.274,181.8c2.157-9.178,6.643-15.239,8.561-19.913l26.779,3.613c7,3.236,8.424,10.068,7.739,17.756l-4.983,56.5,1.387,53.421c-10.856,16.883-43.251,13.7-43.251,13.7s-.925-23.971.12-70.475C68.209,210.329,68.5,193.5,71.274,181.8Z" transform="translate(81.269 -64.273)" fill="#ec7a49"/>
      <path id="Path_9232" data-name="Path 9232" d="M71.274,181.8c2.157-9.178,6.643-15.239,8.561-19.913l26.779,3.613c7,3.236,8.424,10.068,7.739,17.756l-4.983,56.5,1.387,53.421c-10.856,16.883-43.251,13.7-43.251,13.7s-.925-23.971.12-70.475C68.209,210.329,68.5,193.5,71.274,181.8Z" transform="translate(81.269 -64.273)" fill="#fff" opacity="0"/>
      <path id="Path_9237" data-name="Path 9237" d="M68.158,178.91a399.548,399.548,0,0,1,43.371,6.849l-.137,1.592A402.009,402.009,0,0,0,67.97,180.5C68.021,179.954,68.09,179.424,68.158,178.91Z" transform="translate(82.809 -52.151)" fill="#ec7a49"/>
      <path id="Path_9238" data-name="Path 9238" d="M113.118,179.255c4.743-.565,10.119-1.044,16.026-1.336-.12.514-.257,1.062-.377,1.609-5.839.308-11.164.788-15.838,1.353C113,180.334,113.05,179.769,113.118,179.255Z" transform="translate(-11.788 -52.856)" fill="#ec7a49"/>
      <path id="Path_9239" data-name="Path 9239" d="M107.942,164.12c12.619,1.027,19.673,7.585,23.629,21.351,4.263,14.742,16.163,56.161,18.834,70.938,1.712,9.075,4.3,14.828-3.424,20.8-9.862,7.654-38.748,28.868-56.178,37.994s-44.963,9.3-44.963,9.3l19.211-11.626,5.137-6.746,49.346-44.895-15.41-53.2S93.953,175.078,107.942,164.12Z" transform="translate(79.993 -62.685)" fill="#ffbda7"/>
      <path id="Path_9240" data-name="Path 9240" d="M51.876,163.83c8.561.342,18.475-.086,25.427,17.516s15.633,53.439,19.108,68.2,5.445,21.728,0,26.505-27.618,18.971-27.618,18.971-7.637-16.728-16.506-21.762l12.225-12.311L48.537,207.081S38.178,178.487,51.876,163.83Z" transform="translate(134.244 -62.891)" fill="#ec7a49"/>
      <path id="Path_9241" data-name="Path 9241" d="M51.876,163.83c8.561.342,18.475-.086,25.427,17.516s15.633,53.439,19.108,68.2,5.445,21.728,0,26.505-27.618,18.971-27.618,18.971-7.637-16.728-16.506-21.762l12.225-12.311L48.537,207.081S38.178,178.487,51.876,163.83Z" transform="translate(134.244 -62.891)" fill="#fff" opacity="0"/>
      <path id="Path_9242" data-name="Path 9242" d="M234.017,250.206v1.712a5.034,5.034,0,0,1-2.431,4.52l-47.651,28.834a4.932,4.932,0,0,1-2.517.736,5.137,5.137,0,0,1-2.551-.616L89.214,236.235a5.137,5.137,0,0,1-2.637-4.332V230.67L181.383,282.6Z" transform="translate(-71.543 -15.286)" fill="#ec7a49"/>
      <g id="Group_8899" data-name="Group 8899" transform="translate(15.034 215.384)">
        <path id="Path_9243" data-name="Path 9243" d="M234.017,250.206v1.712a5.034,5.034,0,0,1-2.431,4.52l-47.651,28.834a4.932,4.932,0,0,1-2.517.736,5.137,5.137,0,0,1-2.551-.616L89.214,236.235a5.137,5.137,0,0,1-2.637-4.332V230.67L181.383,282.6Z" transform="translate(-86.577 -230.67)" fill="#cfd8de"/>
      </g>
      <path id="Path_9244" data-name="Path 9244" d="M86.581,243.926l51.812-31.471a3.082,3.082,0,0,1,3.031,0l92.221,50.511a.668.668,0,0,1,0,1.164l-52.291,31.728Z" transform="translate(-71.513 -28.543)" fill="#ec7a49"/>
      <g id="Group_8900" data-name="Group 8900" transform="translate(15.068 183.515)">
        <path id="Path_9245" data-name="Path 9245" d="M86.581,243.926l51.812-31.471a3.082,3.082,0,0,1,3.031,0l92.221,50.511a.668.668,0,0,1,0,1.164l-52.291,31.728Z" transform="translate(-86.581 -212.057)" fill="#cfd8de"/>
      </g>
      <path id="Path_9246" data-name="Path 9246" d="M184.43,284.122l27.944-16.951L129.365,221.66,101.25,238.543Z" transform="translate(-75.018 -21.703)" fill="#535353"/>
      <path id="Path_9247" data-name="Path 9247" d="M149.274,237.529l-.514.308-13.7,8.3-25-13.7-.514-.274,14.211-8.63Z" transform="translate(-26.129 -20.364)" fill="#37474f"/>
      <path id="Path_9248" data-name="Path 9248" d="M148.546,237.595l-13.7,8.3-25-13.7,13.715-8.321Z" transform="translate(-25.916 -20.122)" fill="#535353"/>
      <path id="Path_9249" data-name="Path 9249" d="M212.16,282.595v3.424a5.136,5.136,0,0,1-2.551-.616l-89.652-49.158a5.137,5.137,0,0,1-2.637-4.332V230.68Z" transform="translate(-102.32 -15.279)" fill="#ec7a49"/>
      <g id="Group_8901" data-name="Group 8901" transform="translate(15 215.401)" opacity="0.03">
        <path id="Path_9250" data-name="Path 9250" d="M212.16,282.595v3.424a5.136,5.136,0,0,1-2.551-.616l-89.652-49.158a5.137,5.137,0,0,1-2.637-4.332V230.68Z" transform="translate(-117.32 -230.68)" fill="#fff"/>
      </g>
      <g id="Group_8902" data-name="Group 8902" transform="translate(15 215.401)" opacity="0.4">
        <path id="Path_9251" data-name="Path 9251" d="M212.16,282.595v3.424a5.136,5.136,0,0,1-2.551-.616l-89.652-49.158a5.137,5.137,0,0,1-2.637-4.332V230.68Z" transform="translate(-117.32 -230.68)"/>
      </g>
      <path id="Path_9252" data-name="Path 9252" d="M226.576,309.726a5.958,5.958,0,0,1-5.137-.291l-89.275-48.952a5.993,5.993,0,0,1-3-4.126l-10.924-57.325a4.72,4.72,0,0,1-.1-.976,6.044,6.044,0,0,1,1.712-4.315l92.768,50.887a4.469,4.469,0,0,1,2.226,3.048Z" transform="translate(-118.14 -41.589)" fill="#ec7a49"/>
      <g id="Group_8903" data-name="Group 8903" transform="translate(0 152.151)">
        <path id="Path_9253" data-name="Path 9253" d="M226.576,309.726a5.958,5.958,0,0,1-5.137-.291l-89.275-48.952a5.993,5.993,0,0,1-3-4.126l-10.924-57.325a4.72,4.72,0,0,1-.1-.976,6.044,6.044,0,0,1,1.712-4.315l92.768,50.887a4.469,4.469,0,0,1,2.226,3.048Z" transform="translate(-118.14 -193.74)" fill="#cfd8de"/>
      </g>
      <path id="Path_9254" data-name="Path 9254" d="M225.464,309.3l-.582.36c-.274.154-.548.308-.822.428l-11.746-62.017a4.469,4.469,0,0,0-2.226-3.048L117.32,194.139a6.7,6.7,0,0,1,1.2-.959l92.905,51.059a4.469,4.469,0,0,1,2.226,3.048Z" transform="translate(-115.624 -41.988)" fill="#ec7a49"/>
      <g id="Group_8904" data-name="Group 8904" transform="translate(1.696 151.192)">
        <path id="Path_9255" data-name="Path 9255" d="M225.464,309.3l-.582.36c-.274.154-.548.308-.822.428l-11.746-62.017a4.469,4.469,0,0,0-2.226-3.048L117.32,194.139a6.7,6.7,0,0,1,1.2-.959l92.905,51.059a4.469,4.469,0,0,1,2.226,3.048Z" transform="translate(-117.32 -193.18)" fill="#cfd8de"/>
      </g>
      <path id="Path_9256" data-name="Path 9256" d="M117.32,224.5l1.387-.856a4.451,4.451,0,0,1,.873,1.866l11.814,62.1-.582.36c-.274.154-.548.308-.822.428L118.245,226.38a4.435,4.435,0,0,0-.925-1.883Z" transform="translate(-21.554 -20.293)" fill="#cfd8de"/>
      <path id="Path_9257" data-name="Path 9257" d="M163.483,236.266c-.719-3.835-4.811-8.869-9.126-11.232s-7.226-1.164-6.489,2.671,4.811,8.869,9.126,11.232S164.219,240.1,163.483,236.266Z" transform="translate(-105.866 -20.163)" fill="#535353"/>
      <path id="Path_9258" data-name="Path 9258" d="M126.922,239c-5.137,4.418-12.842.856-19.468,1.712s-12.294,2.414-17.6,2.26-7.945.925-4.229,5.137,14.417,1.815,17.293,3.1a6.215,6.215,0,0,1,1.336,9.828c-3.116,3.63,17.79-3.424,20.547-7.688S130.723,239.565,126.922,239Z" transform="translate(38.411 -9.353)" fill="#ffbda7"/>
    </g>
  </g>
</svg>
