<svg xmlns="http://www.w3.org/2000/svg" width="364.579" height="644.342" viewBox="0 0 364.579 644.342">
  <g id="Group_8891" data-name="Group 8891" transform="translate(-1205.422 -280.829)">
    <path id="Path_7241" data-name="Path 7241" d="M299.972,114.655c-3.764-2.515-8.932-.989-12.7,1.526s-6.937,5.949-11.187,7.579c-7.909,3.07-18.3-.572-24.437,5.2-3.9,3.712-4.3,9.816-7.284,14.308-5.03,7.562-17.1,10.406-18.124,19.425-.607,5.2,3.555,10.3,8.672,11.776a18.54,18.54,0,0,0,15.089-3.018c5.2-3.469,9.209-8.672,15.072-10.649s13.407-.33,18.141-4.509,4.024-11.9,7.423-17.239a34.687,34.687,0,0,1,7.2-7.041c2.549-2.2,4.978-4.926,5.411-8.273s-.937-9.053-3.243-9.175" transform="translate(1074.583 227.886)" fill="#ffe5d9"/>
    <path id="Path_7242" data-name="Path 7242" d="M212.405,326.566c.225-.121.919.572,1.578,1.561s1.023,1.925.815,2.064-.9-.555-1.578-1.561S212.2,326.7,212.405,326.566Z" transform="translate(1064.419 384.438)" fill="#1a2026"/>
    <path id="Path_7243" data-name="Path 7243" d="M208.1,317.54a11.116,11.116,0,0,1,2.064,3.85,11,11,0,0,1,1.231,4.18,21.263,21.263,0,0,1-3.3-8.03Z" transform="translate(1061.302 377.82)" fill="#1a2026"/>
    <path id="Path_7244" data-name="Path 7244" d="M205.814,307.82a21.108,21.108,0,0,1,1.578,8.533,10.718,10.718,0,0,1-1.231-4.18,10.961,10.961,0,0,1-.347-4.353Z" transform="translate(1059.564 370.683)" fill="#1a2026"/>
    <path id="Path_7245" data-name="Path 7245" d="M205.682,297.83a21.489,21.489,0,0,1-.121,8.672,10.3,10.3,0,0,1-.4-4.336,10.407,10.407,0,0,1,.52-4.336Z" transform="translate(1059.089 363.347)" fill="#1a2026"/>
    <path id="Path_7246" data-name="Path 7246" d="M207.792,288a10.823,10.823,0,0,1-.468,4.336,11.115,11.115,0,0,1-1.353,4.145,10.84,10.84,0,0,1,.468-4.336A11.237,11.237,0,0,1,207.792,288Z" transform="translate(1059.702 356.128)" fill="#1a2026"/>
    <path id="Path_7247" data-name="Path 7247" d="M212.109,278.653a20.413,20.413,0,0,1-3.469,7.909,10.945,10.945,0,0,1,1.37-4.145C211,280.214,211.883,278.531,212.109,278.653Z" transform="translate(1061.698 349.259)" fill="#1a2026"/>
    <path id="Path_7248" data-name="Path 7248" d="M218.346,270.315a11,11,0,0,1-2.22,3.764A12.505,12.505,0,0,1,213.2,277.3c-.243-.156.763-1.838,2.2-3.764S218.086,270.159,218.346,270.315Z" transform="translate(1065.017 343.132)" fill="#1a2026"/>
    <path id="Path_7249" data-name="Path 7249" d="M225.412,262.918c.191.173-1.006,1.734-2.654,3.469s-3.139,2.983-3.33,2.827,1.006-1.734,2.671-3.469S225.239,262.727,225.412,262.918Z" transform="translate(1069.606 337.694)" fill="#1a2026"/>
    <path id="Path_7250" data-name="Path 7250" d="M232.495,255.8c.191.173-1.041,1.734-2.723,3.469s-3.191,2.948-3.365,2.775,1.041-1.734,2.723-3.469S232.321,255.624,232.495,255.8Z" transform="translate(1074.733 332.467)" fill="#1a2026"/>
    <path id="Path_7251" data-name="Path 7251" d="M238.825,248.254a10.891,10.891,0,0,1-2.411,3.642c-1.526,1.873-2.914,3.243-3.1,3.07a11.585,11.585,0,0,1,2.411-3.642C237.23,249.555,238.617,248.115,238.825,248.254Z" transform="translate(1079.814 326.934)" fill="#1a2026"/>
    <path id="Path_7252" data-name="Path 7252" d="M243.272,239.67a9.434,9.434,0,0,1-1.457,4.128,9.607,9.607,0,0,1-2.515,3.59,12.382,12.382,0,0,1,1.734-4.006,12.869,12.869,0,0,1,2.237-3.712Z" transform="translate(1084.213 320.637)" fill="#1a2026"/>
    <path id="Path_7253" data-name="Path 7253" d="M244.613,230a8.827,8.827,0,0,1-.087,4.371,9.157,9.157,0,0,1-1.336,4.18,13.2,13.2,0,0,1,.451-4.319,13.528,13.528,0,0,1,.971-4.232Z" transform="translate(1087.052 313.535)" fill="#1a2026"/>
    <path id="Path_7254" data-name="Path 7254" d="M243.3,220.07a8.9,8.9,0,0,1,1.283,4.18,9.139,9.139,0,0,1,0,4.388,13.144,13.144,0,0,1-.937-4.249,13.422,13.422,0,0,1-.347-4.319Z" transform="translate(1087.117 306.243)" fill="#1a2026"/>
    <path id="Path_7255" data-name="Path 7255" d="M239.35,210.924c.208-.139,1.474,1.37,2.619,3.469a9.105,9.105,0,0,1,1.491,4.128,13.686,13.686,0,0,1-2.289-3.694A14.151,14.151,0,0,1,239.35,210.924Z" transform="translate(1084.25 299.52)" fill="#1a2026"/>
    <path id="Path_7256" data-name="Path 7256" d="M232.384,203.82a9.175,9.175,0,0,1,3.746,2.272c1.856,1.561,3.07,3.122,2.9,3.3s-1.734-1.075-3.469-2.6S232.228,204.028,232.384,203.82Z" transform="translate(1079.127 294.31)" fill="#1a2026"/>
    <path id="Path_7257" data-name="Path 7257" d="M223.29,199.767a9.036,9.036,0,0,1,4.3.8,8.915,8.915,0,0,1,3.9,2.012,13.873,13.873,0,0,1-4.2-1.162A12.816,12.816,0,0,1,223.29,199.767Z" transform="translate(1072.457 291.321)" fill="#1a2026"/>
    <path id="Path_7258" data-name="Path 7258" d="M213.35,199.732a8.672,8.672,0,0,1,4.284-.9,8.9,8.9,0,0,1,4.371.451,14.481,14.481,0,0,1-4.319.451A13.875,13.875,0,0,1,213.35,199.732Z" transform="translate(1065.157 290.575)" fill="#1a2026"/>
    <path id="Path_7259" data-name="Path 7259" d="M204.135,204.733c-.156-.208,1.335-1.509,3.469-2.654a8.325,8.325,0,0,1,4.145-1.439,15.2,15.2,0,0,1-3.729,2.22A14.481,14.481,0,0,1,204.135,204.733Z" transform="translate(1058.382 291.975)" fill="#1a2026"/>
    <path id="Path_7260" data-name="Path 7260" d="M197.26,213.087a8.828,8.828,0,0,1,2.133-3.833c1.474-1.925,3-3.191,3.174-3.018s-1.023,1.734-2.463,3.573S197.468,213.209,197.26,213.087Z" transform="translate(1053.341 296.073)" fill="#1a2026"/>
    <path id="Path_7261" data-name="Path 7261" d="M193.951,223.089a8.533,8.533,0,0,1,.33-4.371,8.671,8.671,0,0,1,1.734-4.058,14.377,14.377,0,0,1-.815,4.267,14.187,14.187,0,0,1-1.249,4.162Z" transform="translate(1050.805 302.271)" fill="#1a2026"/>
    <path id="Path_7262" data-name="Path 7262" d="M196.021,232.939a8.672,8.672,0,0,1-1.734-4.058,8.446,8.446,0,0,1-.347-4.371,15.7,15.7,0,0,1,1.231,4.162A15.072,15.072,0,0,1,196.021,232.939Z" transform="translate(1050.799 309.504)" fill="#1a2026"/>
    <path id="Path_7263" data-name="Path 7263" d="M202.294,240.914c-.191.173-1.63-1.179-3.035-3.157a9.14,9.14,0,0,1-2.029-3.885c.225-.121,1.37,1.44,2.758,3.365A13.354,13.354,0,0,1,202.294,240.914Z" transform="translate(1053.319 316.374)" fill="#1a2026"/>
    <path id="Path_7264" data-name="Path 7264" d="M210.373,246.993a9.73,9.73,0,0,1-3.729-2.289c-1.89-1.509-3.191-2.983-3.018-3.174a12.781,12.781,0,0,1,3.573,2.48C209.055,245.5,210.529,246.785,210.373,246.993Z" transform="translate(1058.005 322.002)" fill="#1a2026"/>
    <path id="Path_7265" data-name="Path 7265" d="M219.455,251.317a20.812,20.812,0,0,1-7.735-3.937,11.237,11.237,0,0,1,4.076,1.561,10.875,10.875,0,0,1,3.659,2.376Z" transform="translate(1063.96 326.298)" fill="#1a2026"/>
    <path id="Path_7266" data-name="Path 7266" d="M229.262,253.6a9.5,9.5,0,0,1-4.353-.52,9.28,9.28,0,0,1-4.058-1.648,13.232,13.232,0,0,1,4.284.781,12.348,12.348,0,0,1,4.128,1.387Z" transform="translate(1070.665 329.272)" fill="#1a2026"/>
    <path id="Path_7267" data-name="Path 7267" d="M239.332,253.317a15.8,15.8,0,0,1-8.672.173,12.748,12.748,0,0,1,4.319-.382A13.2,13.2,0,0,1,239.332,253.317Z" transform="translate(1077.869 330.438)" fill="#1a2026"/>
    <path id="Path_7268" data-name="Path 7268" d="M248.731,250.62a15.505,15.505,0,0,1-8.151,2.931,12.969,12.969,0,0,1,3.989-1.734,12.73,12.73,0,0,1,4.162-1.2Z" transform="translate(1085.153 328.678)" fill="#1a2026"/>
    <path id="Path_7269" data-name="Path 7269" d="M256.532,245.15c.173.191-1.145,1.734-3.07,3.122a9.384,9.384,0,0,1-3.8,2.168c-.139-.225,1.37-1.422,3.261-2.879A13.7,13.7,0,0,1,256.532,245.15Z" transform="translate(1091.817 324.66)" fill="#1a2026"/>
    <path id="Path_7270" data-name="Path 7270" d="M262.342,237.594a9.4,9.4,0,0,1-2.133,3.816c-1.439,1.942-2.879,3.278-3.07,3.122s.937-1.734,2.359-3.659S262.117,237.455,262.342,237.594Z" transform="translate(1097.298 319.105)" fill="#1a2026"/>
    <path id="Path_7271" data-name="Path 7271" d="M265.833,228.59a9.193,9.193,0,0,1-1.058,4.249c-.9,2.255-1.96,3.92-2.185,3.8a12.9,12.9,0,0,1,1.335-4.128A13.338,13.338,0,0,1,265.833,228.59Z" transform="translate(1101.316 312.5)" fill="#1a2026"/>
    <path id="Path_7272" data-name="Path 7272" d="M266.9,218.8a16.545,16.545,0,0,1-1.179,8.585A28.411,28.411,0,0,1,266.9,218.8Z" transform="translate(1103.613 305.311)" fill="#1a2026"/>
    <path id="Path_7273" data-name="Path 7273" d="M266.212,208.817a10.406,10.406,0,0,1,.8,4.284,11.134,11.134,0,0,1-.121,4.371,21.488,21.488,0,0,1-.676-8.672Z" transform="translate(1103.852 297.967)" fill="#1a2026"/>
    <path id="Path_7274" data-name="Path 7274" d="M264,199.05a10.6,10.6,0,0,1,1.578,4.076,10.771,10.771,0,0,1,.694,4.3,10.91,10.91,0,0,1-1.578-4.076A10.719,10.719,0,0,1,264,199.05Z" transform="translate(1102.348 290.807)" fill="#1a2026"/>
    <path id="Path_7275" data-name="Path 7275" d="M260.14,189.813c.225-.121,1.266,1.544,2.307,3.712a10.667,10.667,0,0,1,1.353,4.162A25.5,25.5,0,0,1,260.14,189.813Z" transform="translate(1099.518 284.019)" fill="#1a2026"/>
    <path id="Path_7276" data-name="Path 7276" d="M255.22,181.1c.225-.139,1.37,1.44,2.584,3.469a10.685,10.685,0,0,1,1.734,3.972,11.15,11.15,0,0,1-2.584-3.469,11.274,11.274,0,0,1-1.734-3.972Z" transform="translate(1095.904 277.622)" fill="#1a2026"/>
    <path id="Path_7277" data-name="Path 7277" d="M250.26,172.413c.225-.121,1.335,1.492,2.5,3.573a11.168,11.168,0,0,1,1.734,4.024,11.118,11.118,0,0,1-2.5-3.59A10.667,10.667,0,0,1,250.26,172.413Z" transform="translate(1092.262 271.241)" fill="#1a2026"/>
    <path id="Path_7278" data-name="Path 7278" d="M246.35,163.21a20.9,20.9,0,0,1,3.035,8.134,10.406,10.406,0,0,1-1.942-3.92A10.787,10.787,0,0,1,246.35,163.21Z" transform="translate(1089.391 264.488)" fill="#1a2026"/>
    <path id="Path_7279" data-name="Path 7279" d="M244.785,153.38a12.141,12.141,0,0,1,.763,4.284A12.642,12.642,0,0,1,245.7,162a9.209,9.209,0,0,1-1.041-4.249A9.487,9.487,0,0,1,244.785,153.38Z" transform="translate(1088.007 257.27)" fill="#1a2026"/>
    <path id="Path_7280" data-name="Path 7280" d="M246.123,143.43a13.112,13.112,0,0,1-.312,4.336,12.262,12.262,0,0,1-.954,4.249,9.678,9.678,0,0,1,0-4.388,9.4,9.4,0,0,1,1.266-4.2Z" transform="translate(1088.109 249.962)" fill="#1a2026"/>
    <path id="Path_7281" data-name="Path 7281" d="M250.157,134a12.658,12.658,0,0,1-1.387,4.128,12.99,12.99,0,0,1-1.96,3.885A16.251,16.251,0,0,1,250.157,134Z" transform="translate(1089.729 243.037)" fill="#1a2026"/>
    <path id="Path_7282" data-name="Path 7282" d="M256.557,125.715c.191.173-.954,1.734-2.411,3.625s-2.688,3.469-2.9,3.243a9.192,9.192,0,0,1,2.185-3.8C254.91,126.877,256.384,125.559,256.557,125.715Z" transform="translate(1092.989 236.944)" fill="#1a2026"/>
    <path id="Path_7283" data-name="Path 7283" d="M264.734,119.13c.139.208-1.37,1.44-3.243,2.9a12.922,12.922,0,0,1-3.625,2.411c-.173-.191,1.162-1.734,3.07-3.122a9.435,9.435,0,0,1,3.8-2.185Z" transform="translate(1097.837 232.117)" fill="#263238"/>
    <path id="Path_7284" data-name="Path 7284" d="M274.093,114.61a13.008,13.008,0,0,1-3.868,1.995,12.522,12.522,0,0,1-4.093,1.439c-.121-.225,1.526-1.3,3.746-2.255a9.106,9.106,0,0,1,4.215-1.179Z" transform="translate(1103.914 228.798)" fill="#263238"/>
    <path id="Path_7285" data-name="Path 7285" d="M279.807,112.848c0,.243-.885.624-2.047.832s-2.168.208-2.22,0,.867-.624,2.047-.85S279.807,112.605,279.807,112.848Z" transform="translate(1110.826 227.369)" fill="#263238"/>
    <path id="Path_7286" data-name="Path 7286" d="M298.38,86.856s20.361-14.534,48.562-5.2c0,0,2.307,23.344-20.292,41.9" transform="translate(1127.599 202.301)" fill="#ec7a49"/>
    <path id="Path_7287" data-name="Path 7287" d="M261.35,128.12c.867,1.3,22.98,36.838,22.98,36.838l66.374-40.9A23.24,23.24,0,0,0,357.19,90.45h0A23.223,23.223,0,0,0,325.573,85Z" transform="translate(1100.406 204.154)" fill="#ec7a49"/>
    <path id="Path_7288" data-name="Path 7288" d="M275.232,137.464l-1.492,25.009s43.012-20.812,32.276-43.983Z" transform="translate(1109.505 231.647)" fill="#2f3640"/>
    <path id="Path_7289" data-name="Path 7289" d="M301.6,98.1s-29.172-12.869-53.175,6l22.425,14.638Z" transform="translate(1090.911 213.531)" fill="#2f3640"/>
    <path id="Path_7290" data-name="Path 7290" d="M296.573,108.394l-41.5,26.015s1.422,4.475,2.532,4.093,32.138-18.731,42.249-24.715a3.122,3.122,0,0,0,.815-4.665h0a3.139,3.139,0,0,0-4.093-.728Z" transform="translate(1095.794 223.896)" fill="#2f3640"/>
    <circle id="Ellipse_999" data-name="Ellipse 999" cx="13.285" cy="13.285" r="13.285" transform="translate(1414.576 322.5) rotate(-76.76)" fill="#fafafa"/>
    <g id="freepik--Character--inject-3" transform="translate(1205.422 494.009)">
      <path id="Path_7306" data-name="Path 7306" d="M363.1,300.06a16.962,16.962,0,0,0,12.262-16.91c-.208-3.469-1.474-6.695-1.335-10.094.226-5.2,3.729-9.73,6.365-14.308s4.388-10.6,1.318-14.9c-1.977-2.792-5.5-4.041-7.909-6.469s-3.469-5.671-4.752-8.776-2.9-6.313-5.81-7.961-7.371-.937-8.568,2.2" transform="translate(-36.486 -187.976)" fill="#1a2026"/>
      <path id="Path_7307" data-name="Path 7307" d="M385.042,227.973c5.2-3.313,6.452-10.961,3.625-16.424s-8.793-8.793-14.863-9.782a28.339,28.339,0,0,0-24.4,8.082c-3.347,3.469-6.07,7.961-10.614,9.539-3.989,1.4-8.412.139-12.609.694a19.078,19.078,0,0,0-13.337,9.608,41,41,0,0,0-4.735,16.216c-.607,5.2-1.023,10.84-4.6,14.6s-9.036,4.457-13.372,7.076a18.315,18.315,0,0,0-5.446,25.009c1.734,2.5,4.2,4.8,4.388,7.839s-1.6,5.2-2.445,7.909a12.348,12.348,0,0,0,10.58,15.332c3.607.208,7.458-1.2,10.7.416s4.405,5.481,6.452,8.429a15.488,15.488,0,0,0,18.852,4.856c2.654-1.3,5.2-3.469,8.1-3.243s5.2,2.706,8.151,3.261c3.8.728,7.388-2.064,9.643-5.2s3.833-6.833,6.712-9.4c3.781-3.365,9.088-4.18,13.875-5.827a39.11,39.11,0,0,0,22.044-54.771" transform="translate(-89.925 -201.444)" fill="#1a2026"/>
      <path id="Path_7308" data-name="Path 7308" d="M377.431,225.468a8.308,8.308,0,0,1,7.406,8.446h0l-4.96,112.161c-.208,13.25-19.564,20.691-33.75,20.361h0c-14.326-.33-14.777-7.354-14.967-19.962-.295-21.055-.26-28.964-.278-28.842S312.792,314.6,309.1,290.975c-1.838-11.759-1.214-31.01-.191-46.741.937-14.17,10.406-31.531,24.472-30Z" transform="translate(-70.815 -192.124)" fill="#ffbe9d"/>
      <path id="Path_7309" data-name="Path 7309" d="M311.44,241.457a3.052,3.052,0,0,0,2.914,3.07,2.9,2.9,0,0,0,3.122-2.723,3.018,3.018,0,0,0-2.9-3.07,2.914,2.914,0,0,0-3.139,2.723Z" transform="translate(-68.232 -174.067)" fill="#263238"/>
      <path id="Path_7310" data-name="Path 7310" d="M310.861,238.614c.382.4,2.671-1.3,5.932-1.283s5.637,1.648,6,1.249-.208-.884-1.249-1.648a8.308,8.308,0,0,0-4.8-1.492,7.926,7.926,0,0,0-4.718,1.509C311.017,237.712,310.67,238.441,310.861,238.614Z" transform="translate(-68.694 -176.479)" fill="#263238"/>
      <path id="Path_7311" data-name="Path 7311" d="M330.17,241.457a3.052,3.052,0,0,0,2.914,3.07,2.9,2.9,0,0,0,3.122-2.723,3.018,3.018,0,0,0-2.914-3.07,2.9,2.9,0,0,0-3.122,2.723Z" transform="translate(-54.477 -174.067)" fill="#263238"/>
      <path id="Path_7312" data-name="Path 7312" d="M329.331,239c.382.4,2.671-1.3,5.931-1.283s5.637,1.734,6,1.249-.208-.884-1.249-1.648a8.307,8.307,0,0,0-4.8-1.492,8.047,8.047,0,0,0-4.717,1.509C329.487,238.119,329.14,238.831,329.331,239Z" transform="translate(-55.13 -176.193)" fill="#263238"/>
      <path id="Path_7313" data-name="Path 7313" d="M325.929,263.073a21.489,21.489,0,0,0-5.2-.971c-.832-.087-1.63-.26-1.734-.815a4.179,4.179,0,0,1,.572-2.463c.781-2.012,1.613-4.128,2.463-6.33,3.469-9.019,5.931-16.442,5.567-16.563s-3.469,7.059-6.937,16.06c-.815,2.237-1.613,4.353-2.359,6.382a4.752,4.752,0,0,0-.451,3.261,2.064,2.064,0,0,0,1.37,1.214,5.745,5.745,0,0,0,1.422.208,21.468,21.468,0,0,0,5.29.017Z" transform="translate(-63.608 -176.12)" fill="#263238"/>
      <path id="Path_7314" data-name="Path 7314" d="M321.11,277.342A60.148,60.148,0,0,0,352.762,269s-8.013,16.65-31.652,14.378Z" transform="translate(-61.131 -151.834)" fill="#eb996e"/>
      <path id="Path_7315" data-name="Path 7315" d="M323.406,257.041a5.9,5.9,0,0,1,5.2-2.168,5.29,5.29,0,0,1,3.694,1.995,3.468,3.468,0,0,1,.26,3.885,3.989,3.989,0,0,1-4.284,1.075,12.7,12.7,0,0,1-4.163-2.5,4.057,4.057,0,0,1-.919-.971,1.093,1.093,0,0,1,0-1.214" transform="translate(-59.733 -162.232)" fill="#ec7a49"/>
      <path id="Path_7316" data-name="Path 7316" d="M332.406,252.89c-.538,0-.555,3.469-3.59,6.018s-6.8,2.1-6.816,2.6c0,.208.833.676,2.428.728a8.672,8.672,0,0,0,5.689-1.977,7.631,7.631,0,0,0,2.775-5.03C333.013,253.757,332.614,252.873,332.406,252.89Z" transform="translate(-60.477 -163.665)" fill="#263238"/>
      <path id="Path_7317" data-name="Path 7317" d="M328.477,235.4c.312.884,3.573.468,7.388.937s6.937,1.526,7.423.728c.243-.382-.295-1.214-1.544-2.081a13.06,13.06,0,0,0-11.291-1.266C329.05,234.269,328.339,234.98,328.477,235.4Z" transform="translate(-55.733 -178.291)" fill="#263238"/>
      <path id="Path_7318" data-name="Path 7318" d="M311.573,233.234c.572.746,2.827,0,5.515,0s4.995.5,5.515-.26c.243-.382-.121-1.127-1.127-1.821a7.926,7.926,0,0,0-8.88.26C311.643,232.107,311.331,232.87,311.573,233.234Z" transform="translate(-68.192 -180.534)" fill="#263238"/>
      <path id="Path_7319" data-name="Path 7319" d="M341.051,218a22.945,22.945,0,0,1,18.714-3.469c6.3,1.734,11.516,7.492,11.742,13.875.139,4.162-1.734,8.672.191,12.366s6.088,5.03,9.175,7.631a14.083,14.083,0,0,1,3.261,17.031c-2.584,4.735-8,8.2-8.446,13.545-.434,5.03,3.8,9.279,4.839,14.222,1.127,5.446-1.89,11.083-6.209,14.707s-9.8,5.619-15.141,7.527c-4.162,1.509-8.672,3.035-12.956,2.047a13.268,13.268,0,0,1-9.712-11.065,18.055,18.055,0,0,1,4.908-14.256c3.035-3.347,7.3-6.174,8.03-10.6,1.127-6.937-7.059-12.5-6.556-19.442.26-3.573,2.792-6.539,4.891-9.487s3.937-6.643,2.636-9.99c-1.734-4.371-7.406-5.515-10.874-8.672a10.6,10.6,0,0,1-2.9-10.736,10.926,10.926,0,0,1,8.568-7.3" transform="translate(-50.044 -192.336)" fill="#1a2026"/>
      <path id="Path_7320" data-name="Path 7320" d="M371.107,216.105a16.147,16.147,0,0,1-19.078,15.956c-3.607-.659-7.562-2.48-10.684-.555s-3.469,6.937-6.33,9.487c-4.162,3.625-10.77.225-16.06,1.734-4.076,1.214-6.625,5.1-9.348,8.394s-6.764,6.4-10.857,5.2a47.922,47.922,0,0,1,1.63-10.892,16.112,16.112,0,0,1,6.174-8.862,59.555,59.555,0,0,0,5.2-3.052c3.469-2.723,4.18-7.492,6.261-11.308a17.725,17.725,0,0,1,13.493-8.949c4.648-.468,9.435.919,13.875-.225,3.347-.832,6.278-3,9.66-3.659,6.608-1.249,12.748,3.469,17.534,8.2" transform="translate(-77.551 -195.769)" fill="#1a2026"/>
      <path id="Path_7323" data-name="Path 7323" d="M256.007,385.342l41.885-3.833s25.772-67.9,57.546-84.359L376.024,333.1l-44.07,82.781H245.93Z" transform="translate(-116.339 -131.162)" fill="#ec7a49"/>
      <path id="Path_7324" data-name="Path 7324" d="M256.007,385.342l41.885-3.833s25.772-67.9,57.546-84.359L376.024,333.1l-44.07,82.781H245.93Z" transform="translate(-116.339 -131.162)" fill="#ec7a49"/>
      <path id="Path_7325" data-name="Path 7325" d="M261.28,364.552a62.7,62.7,0,0,1,7.839-13.112A66.043,66.043,0,0,1,261.28,364.552Z" transform="translate(-105.067 -91.294)" fill="#fafafa"/>
      <path id="Path_7328" data-name="Path 7328" d="M276.031,365.628a11.134,11.134,0,0,1-4.006-2.064c-2.081-1.37-3.642-2.636-3.469-2.844a11.721,11.721,0,0,1,4.006,2.081C274.539,364.154,276.169,365.42,276.031,365.628Z" transform="translate(-99.734 -84.48)" fill="#fafafa"/>
      <path id="Path_7331" data-name="Path 7331" d="M332.64,408.965l21.61-87.255a29.658,29.658,0,0,1,34.063-22.078h0A29.709,29.709,0,0,1,412.386,333.4L399.17,418.678a42.665,42.665,0,0,1-35.416,34.566l-17.17,2.671Z" transform="translate(-52.664 -129.69)" fill="#ec7a49"/>
      <path id="Path_7332" data-name="Path 7332" d="M390.1,298.41a19.669,19.669,0,0,0-7.718-3.868,20.517,20.517,0,0,0-9.3,0,25.167,25.167,0,0,0-10.111,5.2c-6.33,5.307-9.764,12.14-12.14,17.031-1.162,2.445-2.047,4.457-2.671,5.845a13.141,13.141,0,0,1-1.058,2.133,12.332,12.332,0,0,1,.728-2.255c.538-1.439,1.318-3.469,2.411-6a69.257,69.257,0,0,1,4.44-8.516,38,38,0,0,1,7.683-8.932,25.322,25.322,0,0,1,10.493-5.394,20.587,20.587,0,0,1,9.643.121,16.564,16.564,0,0,1,5.862,2.827,10.668,10.668,0,0,1,1.3,1.2A5.088,5.088,0,0,1,390.1,298.41Z" transform="translate(-42.037 -134.104)" fill="#263238"/>
      <path id="Path_7334" data-name="Path 7334" d="M452.4,330.409c-2.376-15.609-10.978-19.338-19.91-24.194-2.914-1.6-16.979-5.2-28.131-7.926-1.075-6.747-2.983-18.852-3.469-21.4-.59-3.59-56.817,5.376-57.528,6.729-.468.885-1.734,14.9-2.584,24.281l-13.459,4.7-17.5,22.338-9.14,12.973a69.79,69.79,0,0,0-11.325,24.94,135.727,135.727,0,0,0-2.515,30.212l-2.723,57.234,117.728,33.265,9.019-58.031,30.351-41.312C443.8,377.514,455.318,349.591,452.4,330.409Z" transform="translate(-88.294 -146.661)" fill="#ec7a49"/>
      <path id="Path_7350" data-name="Path 7350" d="M299.181,373.242a31.352,31.352,0,0,1-5.654-4.579,28.549,28.549,0,0,1-5.047-5.2,31.348,31.348,0,0,1,5.654,4.579,28.544,28.544,0,0,1,5.047,5.2Z" transform="translate(-85.093 -82.467)" fill="#fafafa"/>
      <path id="Path_7351" data-name="Path 7351" d="M322.23,361.56c0,.26-3.92,1.4-8.568,3.469s-8.186,4.18-8.342,3.954A27.472,27.472,0,0,1,313.3,364.2a27.04,27.04,0,0,1,8.932-2.636Z" transform="translate(-72.726 -83.863)" fill="#fafafa"/>
      <path id="Path_7365" data-name="Path 7365" d="M357.467,373.12c0,.26-4.3.676-9.574,1.561s-9.5,1.856-9.574,1.6a35.345,35.345,0,0,1,9.418-2.5,34.53,34.53,0,0,1,9.73-.659Z" transform="translate(-48.492 -75.443)" fill="#fafafa"/>
      <path id="Path_7366" data-name="Path 7366" d="M332.2,374.025a35.826,35.826,0,0,1,5.2-5.984A34.148,34.148,0,0,1,343.2,362.7a35.827,35.827,0,0,1-5.2,5.984,34.911,34.911,0,0,1-5.793,5.342Z" transform="translate(-52.987 -83.026)" fill="#fafafa"/>
      <path id="Path_7367" data-name="Path 7367" d="M323.109,385.735a58.57,58.57,0,0,1-2.341-6.781,61.369,61.369,0,0,1-2.428-6.764A27.75,27.75,0,0,1,323.109,385.735Z" transform="translate(-63.165 -76.057)" fill="#fafafa"/>
      <path id="Path_7368" data-name="Path 7368" d="M346.219,389.422a95.929,95.929,0,0,1-17.049-7.562,48.9,48.9,0,0,1,8.672,3.365A50.655,50.655,0,0,1,346.219,389.422Z" transform="translate(-55.212 -68.955)" fill="#fafafa"/>
      <path id="Path_7369" data-name="Path 7369" d="M307.76,389.661a23.411,23.411,0,0,1,1.63-6.348,24.139,24.139,0,0,1,2.48-6.053,23.571,23.571,0,0,1-1.63,6.348,25.305,25.305,0,0,1-2.48,6.053Z" transform="translate(-70.934 -72.333)" fill="#fafafa"/>
      <path id="Path_7370" data-name="Path 7370" d="M337.782,388.714c0,.26-4.978-.538-11.117-.85s-11.117,0-11.135-.347a39.489,39.489,0,0,1,11.187-.555A39.007,39.007,0,0,1,337.782,388.714Z" transform="translate(-65.228 -65.333)" fill="#fafafa"/>
      <path id="Path_7377" data-name="Path 7377" d="M257.98,426.44s-18.852,4.076-35.676,1.544c-15.783-2.359-51.111.087-51.094,20.812,0,23.188,47.122,17.465,65.489,13.788s36.682-6.937,36.682-6.937Z" transform="translate(-171.21 -36.218)" fill="#ec7a49"/>
      <path id="Path_7385" data-name="Path 7385" d="M217.89,427.446l11.95,29.918,9.261-1.717L221.359,426.44Z" transform="translate(-136.931 -36.218)" opacity="0.4"/>
      <path id="Path_7386" data-name="Path 7386" d="M407.637,400.811c-1.925.624-125.359-33.959-175.274-47.99a47.365,47.365,0,0,0-38.607,5.845l-.607.382A47.382,47.382,0,0,0,172.736,409.6h0a47.452,47.452,0,0,0,21.4,29.692c32.953,20.17,102.587,62.593,104.72,61.76,2.792-1.075,89.787-3.33,89.787-3.33L283.977,422.438l49.793,32.19,73.866-53.765Z" transform="translate(-171.002 -91.583)" fill="#1a2026"/>
      <path id="Path_7387" data-name="Path 7387" d="M250.3,363.83l26.241-13.58,25.738,16.129,96.326,3.157,13.875,46.827L273.041,384.035s-25.374,2.255-27.281-3.469S250.3,363.83,250.3,363.83Z" transform="translate(-116.724 -92.168)" fill="#ffbe9d"/>
      <path id="Path_7388" data-name="Path 7388" d="M299.233,416.239,286.26,458.87l1.613,12.99h0a66.651,66.651,0,0,0,87.9,5.914h0a65.3,65.3,0,0,0,25.53-52.031l-.191-44.5Z" transform="translate(-86.723 -69.411)" fill="#1a2026"/>
      <path id="Path_7390" data-name="Path 7390" d="M273.326,355.15a103.889,103.889,0,0,1-12.834,4.6,107.541,107.541,0,0,1-13.112,3.729,102.59,102.59,0,0,1,12.834-4.6A106.5,106.5,0,0,1,273.326,355.15Z" transform="translate(-115.274 -88.57)" fill="#eb996e"/>
      <path id="Path_7391" data-name="Path 7391" d="M276.233,359.769a25.456,25.456,0,0,1-4.475.85c-2.758.451-6.556,1.127-10.718,2.081s-7.874,2.012-10.562,2.81a28.217,28.217,0,0,1-4.388,1.2,19.69,19.69,0,0,1,4.18-1.734,97.157,97.157,0,0,1,10.562-3.087,96.183,96.183,0,0,1,10.84-1.838A21.628,21.628,0,0,1,276.233,359.769Z" transform="translate(-116.222 -85.194)" fill="#eb996e"/>
      <path id="Path_7392" data-name="Path 7392" d="M274.515,364a118.327,118.327,0,0,1-14.447,3.33,122.226,122.226,0,0,1-14.638,2.445,122.129,122.129,0,0,1,14.465-3.33A122.876,122.876,0,0,1,274.515,364Z" transform="translate(-116.706 -82.071)" fill="#eb996e"/>
      <path id="Path_7393" data-name="Path 7393" d="M294.418,322.531l24.194,79.641a2.324,2.324,0,0,0,2.029,1.63l65.905,4.943a2.307,2.307,0,0,1,2.151,2.307v4.11a2.307,2.307,0,0,1-2.359,2.307L205.966,414a2.307,2.307,0,0,1-2.116-1.492l-31.7-83.058a2.307,2.307,0,0,1,2.047-3.139l117.78-5.5A2.324,2.324,0,0,1,294.418,322.531Z" transform="translate(-170.637 -113.791)" fill="#d4d8db"/>
      <path id="Path_7394" data-name="Path 7394" d="M214.8,341.74a5.723,5.723,0,0,0-3.573,4.058,5.48,5.48,0,0,0,2.341,4.96,5.932,5.932,0,0,0,6.591.243,5.481,5.481,0,0,0,1.734-6.642c-.8-2.2-4.822-3.746-7.146-2.619" transform="translate(-141.837 -92.695)" fill="#e0e0e0"/>
      <path id="Path_7395" data-name="Path 7395" d="M238.2,508.471,219.12,477.114,359.256,367.277a56.3,56.3,0,0,1,30.611-12.539h0a56.315,56.315,0,0,1,61.223,60.7l-2.237,26.8-92.927,29.952Z" transform="translate(-136.027 -89.042)" fill="#1a2026"/>
      <path id="Path_7399" data-name="Path 7399" d="M330.518,438.67c-6.712-3.573-14.256-1.457-20.691.711-4.284,1.439-8.672,3.729-13.077,2.5-3.139-.885-5.481-3.469-7.891-5.637a49.5,49.5,0,0,0-36.213-12.99,14.88,14.88,0,0,0-9.955,4.492c-6.608,7.163-1.63,16.459,4.284,22.547a65.159,65.159,0,0,0,39.387,19.078c12.3,1.283,29.206-.416,41.624-5.758,7.683-3.3,11.62-12.366,7.6-19.685A12.643,12.643,0,0,0,330.518,438.67Z" transform="translate(-121.025 -38.614)" fill="#ec7a49"/>
      <g id="Group_8788" data-name="Group 8788" transform="translate(118.872 390.287)" opacity="0.4">
        <path id="Path_7400" data-name="Path 7400" d="M330.37,441.97c-6.729-3.573-14.274-1.457-20.708.711-4.284,1.44-8.672,3.729-13.077,2.5-3.139-.885-5.481-3.469-7.891-5.637a49.5,49.5,0,0,0-36.213-12.99,14.881,14.881,0,0,0-9.955,4.492,11.654,11.654,0,0,0-2.775,5.03,26.206,26.206,0,0,0,7.059,11.724A65.16,65.16,0,0,0,286.2,466.875c12.3,1.283,29.206-.416,41.624-5.758a15.21,15.21,0,0,0,8.863-10.562,12.834,12.834,0,0,0-6.365-8.516Z" transform="translate(-239.75 -426.477)"/>
      </g>
    </g>
  </g>
</svg>
