<svg xmlns="http://www.w3.org/2000/svg" width="351.69" height="411.114" viewBox="0 0 351.69 411.114">
  <g id="Group_8864" data-name="Group 8864" transform="translate(-385.59 -1621.997)">
    <g id="freepik--Game--inject-4" transform="translate(603.358 1666.939)">
      <path id="Path_8878" data-name="Path 8878" d="M325,134.177l-.463-9.992a9.681,9.681,0,0,0-9.536-9.406H292.323a9.7,9.7,0,0,0-9.543,9.406l-.463,9.992s-.449,6.736,5.622,6.736c0,0,2.807.723,4.942-2.438l3.82-5.108,6.96-.116,6.967.116,3.82,5.108c2.134,3.133,4.942,2.438,4.942,2.438C325.5,140.913,325,134.177,325,134.177Z" transform="translate(-282.31 -114.78)" fill="#ec7a49"/>
      <path id="Path_8879" data-name="Path 8879" d="M294.53,122.219V123.9a.557.557,0,0,0,.253.47l1.4,1.035,1.447-1.064a.586.586,0,0,0,.21-.449v-1.686a.572.572,0,0,0-.572-.572H295.1a.572.572,0,0,0-.572.579Z" transform="translate(-285.688 -116.677)" fill="#fff"/>
      <path id="Path_8880" data-name="Path 8880" d="M297.851,133.431v-1.679a.571.571,0,0,0-.253-.478l-1.411-1.035-1.447,1.071a.586.586,0,0,0-.21.449v1.679a.572.572,0,0,0,.572.579h2.171a.572.572,0,0,0,.579-.586Z" transform="translate(-285.688 -119.054)" fill="#fff"/>
      <path id="Path_8881" data-name="Path 8881" d="M290.169,129.734h1.686a.557.557,0,0,0,.47-.253l1.035-1.4-1.071-1.447a.572.572,0,0,0-.441-.21h-1.686a.572.572,0,0,0-.572.572v2.171a.572.572,0,0,0,.579.572Z" transform="translate(-284.323 -117.998)" fill="#fff"/>
      <path id="Path_8882" data-name="Path 8882" d="M301.651,126.37h-1.679a.572.572,0,0,0-.478.253l-1.035,1.411,1.071,1.447a.572.572,0,0,0,.441.21h1.686a.564.564,0,0,0,.572-.572v-2.171a.572.572,0,0,0-.579-.579Z" transform="translate(-286.775 -117.984)" fill="#fff"/>
      <path id="Path_8883" data-name="Path 8883" d="M324.52,122.219V123.9a.557.557,0,0,0,.253.47l1.4,1.035,1.447-1.064a.586.586,0,0,0,.21-.449v-1.686a.572.572,0,0,0-.572-.572h-2.171a.572.572,0,0,0-.572.579Z" transform="translate(-293.98 -116.677)" fill="#fff"/>
      <path id="Path_8884" data-name="Path 8884" d="M327.841,133.431v-1.679a.572.572,0,0,0-.253-.478l-1.411-1.035-1.447,1.071a.564.564,0,0,0-.21.449v1.679a.572.572,0,0,0,.572.579h2.171a.572.572,0,0,0,.579-.586Z" transform="translate(-293.98 -119.054)" fill="#fff"/>
      <path id="Path_8885" data-name="Path 8885" d="M320.159,129.734h1.679a.572.572,0,0,0,.478-.253l1.035-1.4-1.071-1.447a.572.572,0,0,0-.441-.21h-1.686a.572.572,0,0,0-.572.572v2.171a.572.572,0,0,0,.579.572Z" transform="translate(-292.614 -117.998)" fill="#fff"/>
      <path id="Path_8886" data-name="Path 8886" d="M331.641,126.37h-1.679a.572.572,0,0,0-.478.253l-1.035,1.411,1.071,1.447a.572.572,0,0,0,.441.21h1.686a.572.572,0,0,0,.572-.572v-2.171a.571.571,0,0,0-.579-.579Z" transform="translate(-295.067 -117.984)" fill="#fff"/>
    </g>
    <path id="Path_8887" data-name="Path 8887" d="M319.754,36.043a10.209,10.209,0,1,1-11.113-9.21,10.209,10.209,0,0,1,11.113,9.21Z" transform="translate(318.2 1595.21)" fill="#ec7a49"/>
    <g id="Group_8856" data-name="Group 8856" transform="translate(617.586 1622.042)" opacity="0.1">
      <path id="Path_8888" data-name="Path 8888" d="M308.643,26.85a10.209,10.209,0,0,0-9.21,11.113s7.17-.347,8.617-3.386S308.643,26.85,308.643,26.85Z" transform="translate(-299.388 -26.85)" fill="#fff"/>
    </g>
    <path id="Path_8889" data-name="Path 8889" d="M318.009,37.005a7.756,7.756,0,1,1-2.769-5.263,7.763,7.763,0,0,1,2.769,5.263Z" transform="translate(317.334 1594.335)" fill="#ec7a49"/>
    <g id="Group_8857" data-name="Group 8857" transform="translate(619.848 1624.288)" opacity="0.2">
      <path id="Path_8890" data-name="Path 8890" d="M318.009,37.005a7.756,7.756,0,1,1-2.769-5.263,7.763,7.763,0,0,1,2.769,5.263Z" transform="translate(-302.514 -29.953)"/>
    </g>
    <path id="Path_8891" data-name="Path 8891" d="M318.432,37.459A7.648,7.648,0,1,1,315.7,32.28,7.655,7.655,0,0,1,318.432,37.459Z" transform="translate(317.156 1594.177)" fill="#ec7a49"/>
    <g id="Group_8858" data-name="Group 8858" transform="translate(620.313 1624.7)" opacity="0.2">
      <path id="Path_8892" data-name="Path 8892" d="M318.432,37.459A7.648,7.648,0,1,1,315.7,32.28,7.655,7.655,0,0,1,318.432,37.459Z" transform="translate(-303.156 -30.523)" fill="#fff"/>
    </g>
    <path id="Path_8893" data-name="Path 8893" d="M312.864,38.5l-.181-1.953h0a4.031,4.031,0,0,1,1.064.174,3.277,3.277,0,0,1,.514.26V36.92l.232-.724.058-.174-.383-.333-.159.094a3.617,3.617,0,0,0-1.447-.275l-.1-1.071L312.1,34.2v.268l-.456.043.1,1.093c-1.49.282-2.127,1.208-2.033,2.171.123,1.339,1.31,1.577,2.4,1.744l.181,1.932a3.74,3.74,0,0,1-2-.557l-.347,1.02a4.3,4.3,0,0,0,2.445.579l.072.81-.376.043.405.217.789-.072-.1-1.085c1.5-.3,2.171-1.216,2.055-2.171C315.165,38.9,313.964,38.664,312.864,38.5Zm-.774-.109c-.579-.109-1.013-.282-1.056-.724s.217-.8.9-.97ZM312.719,36.573Zm.449,4.833-.159-1.715c.593.116,1.042.3,1.085.767s-.268.752-.962.926Z" transform="translate(315.345 1593.16)" fill="#ec7a49"/>
    <g id="Group_8859" data-name="Group 8859" transform="translate(625.053 1627.36)" opacity="0.3">
      <path id="Path_8894" data-name="Path 8894" d="M312.864,38.5l-.181-1.953h0a4.031,4.031,0,0,1,1.064.174,3.277,3.277,0,0,1,.514.26V36.92l.232-.724.058-.174-.383-.333-.159.094a3.617,3.617,0,0,0-1.447-.275l-.1-1.071L312.1,34.2v.268l-.456.043.1,1.093c-1.49.282-2.127,1.208-2.033,2.171.123,1.339,1.31,1.577,2.4,1.744l.181,1.932a3.74,3.74,0,0,1-2-.557l-.347,1.02a4.3,4.3,0,0,0,2.445.579l.072.81-.376.043.405.217.789-.072-.1-1.085c1.5-.3,2.171-1.216,2.055-2.171C315.165,38.9,313.964,38.664,312.864,38.5Zm-.774-.109c-.579-.109-1.013-.282-1.056-.724s.217-.8.9-.97ZM312.719,36.573Zm.449,4.833-.159-1.715c.593.116,1.042.3,1.085.767s-.268.752-.962.926Z" transform="translate(-309.708 -34.2)"/>
    </g>
    <path id="Path_8895" data-name="Path 8895" d="M312.759,42.2l.1,1.078-.789.08-.1-1.078a4.189,4.189,0,0,1-2.446-.579l.347-1.013a3.74,3.74,0,0,0,2,.55l-.181-1.932c-1.093-.159-2.279-.4-2.4-1.744-.094-.984.543-1.91,2.033-2.171l-.072-1.121.8-.072.1,1.071a4.124,4.124,0,0,1,2.011.405l-.3,1.013a4.016,4.016,0,0,0-1.613-.369l.181,1.946c1.1.166,2.3.391,2.424,1.736C314.908,40.987,314.264,41.905,312.759,42.2Zm-1.179-4.059-.159-1.722c-.673.166-.933.543-.89.97s.478.637,1.049.752Zm2.011,2.062c-.051-.478-.492-.658-1.085-.767l.188,1.707c.666-.166.933-.528.9-.941Z" transform="translate(315.464 1593.16)" fill="#ec7a49"/>
    <path id="Path_8896" data-name="Path 8896" d="M310.105,39.161a.608.608,0,0,1-.246-.2,1.215,1.215,0,0,1-.289-.724,1.259,1.259,0,0,1,.2-.724A.724.724,0,0,1,310,37.28a1.848,1.848,0,0,0-.174.26,1.251,1.251,0,0,0-.174.724,1.266,1.266,0,0,0,.253.68C310.011,39.082,310.112,39.154,310.105,39.161Z" transform="translate(315.383 1592.309)" fill="#fff"/>
    <path id="Path_8897" data-name="Path 8897" d="M312.277,35.327a.673.673,0,0,1-.065-.311.645.645,0,0,1,0-.326,1.6,1.6,0,0,1,.065.637Z" transform="translate(314.658 1593.025)" fill="#fff"/>
    <path id="Path_8898" data-name="Path 8898" d="M311,29.641h-.926l-.463.065a3.069,3.069,0,0,0-.528.1,10.129,10.129,0,0,0-1.165.369,9.872,9.872,0,0,0-1.107.543l-.449.289c-.137.094-.268.188-.376.275l-.3.246-.217.2a1.13,1.13,0,0,1-.188.159,2.227,2.227,0,0,1,.167-.181l.21-.2a3.8,3.8,0,0,1,.3-.253c.116-.094.239-.2.376-.289s.289-.2.449-.3a7.615,7.615,0,0,1,1.114-.55,7.817,7.817,0,0,1,1.179-.369,5.215,5.215,0,0,1,.535-.094,4.041,4.041,0,0,0,.463-.058h.687a1.122,1.122,0,0,1,.246.051Z" transform="translate(316.569 1594.435)" fill="#fff"/>
    <g id="freepik--Comments--inject-4" transform="translate(626.953 1720.742)">
      <path id="Path_8910" data-name="Path 8910" d="M278.209,191.07H266.091a2.171,2.171,0,0,0-2.171,2.171v8a2.171,2.171,0,0,0,2.171,2.171h9.095l2.72,2.417-.246-2.417h.224a2.171,2.171,0,0,0,2.171-2.171v-8.364a1.809,1.809,0,0,0-1.845-1.809Z" transform="translate(-263.92 -185.955)" fill="#ec7a49"/>
      <path id="Path_8911" data-name="Path 8911" d="M270.532,198.989a1.266,1.266,0,1,1-1.266-1.259,1.266,1.266,0,0,1,1.266,1.259Z" transform="translate(-265.048 -187.796)" fill="#fff"/>
      <path id="Path_8912" data-name="Path 8912" d="M275.682,198.989a1.266,1.266,0,1,1-1.266-1.259A1.266,1.266,0,0,1,275.682,198.989Z" transform="translate(-266.472 -187.796)" fill="#fff"/>
      <path id="Path_8913" data-name="Path 8913" d="M281.172,198.989a1.266,1.266,0,1,1-1.266-1.259,1.266,1.266,0,0,1,1.266,1.259Z" transform="translate(-267.99 -187.796)" fill="#fff"/>
      <path id="Path_8914" data-name="Path 8914" d="M291.189,184H279.613a2.243,2.243,0,0,0-2.243,2.243v1.765a.109.109,0,0,0,.1.109h5.159a2.243,2.243,0,0,1,2.25,2.243v5.788a.1.1,0,0,0,.1.1h3.581a.109.109,0,0,1,.065,0l2.489,2.214a.109.109,0,0,0,.174-.094l-.2-2.026a.109.109,0,0,1,.109-.123h0a2.243,2.243,0,0,0,2.243-2.243v-7.705a2.243,2.243,0,0,0-2.25-2.272Z" transform="translate(-267.639 -184)" fill="#ec7a49"/>
    </g>
    <path id="Path_8915" data-name="Path 8915" d="M233.884,136.678a3.784,3.784,0,0,0,2.25-3.5,3.552,3.552,0,1,0-7.09,0,3.769,3.769,0,0,0,2.265,3.531c-5.462.818-5.209,6.75-5.209,6.75l12.9.058S239.3,137.5,233.884,136.678Z" transform="translate(338.462 1566.839)" fill="#ec7a49"/>
    <path id="Path_8916" data-name="Path 8916" d="M248,137.893a3.393,3.393,0,0,0,2.026-3.147,3.2,3.2,0,1,0-6.381,0,3.415,3.415,0,0,0,2.033,3.176,7.408,7.408,0,0,0-2.395.854c2.076,1.715,1.838,4.971,1.831,5.245H252.6S252.867,138.631,248,137.893Z" transform="translate(333.711 1566.304)" fill="#ec7a49"/>
    <path id="Path_8921" data-name="Path 8921" d="M237.956,54.181l1.512,3.082a1.013,1.013,0,0,0,.774.557l3.393.492a1.027,1.027,0,0,1,.572,1.751l-2.46,2.395a1.028,1.028,0,0,0-.289.9l.579,3.386a1.027,1.027,0,0,1-1.49,1.078L237.508,66.2a1.042,1.042,0,0,0-.948,0l-3.06,1.628a1.027,1.027,0,0,1-1.447-1.078l.586-3.386a1.049,1.049,0,0,0-.3-.9l-2.46-2.395a1.027,1.027,0,0,1,.572-1.751l3.393-.492a1.013,1.013,0,0,0,.774-.557l1.519-3.082a1.027,1.027,0,0,1,1.816,0Z" transform="translate(337.501 1587.787)" fill="#ec7a49"/>
    <g id="Group_8863" data-name="Group 8863" transform="translate(-1 18.982)">
      <rect id="Rectangle_5656" data-name="Rectangle 5656" width="6.649" height="12.763" transform="translate(668.617 1657.061)" fill="#ec7a49"/>
      <rect id="Rectangle_5657" data-name="Rectangle 5657" width="6.649" height="17.053" transform="translate(678.674 1652.771)" fill="#ec7a49"/>
      <rect id="Rectangle_5658" data-name="Rectangle 5658" width="6.649" height="20.627" transform="translate(688.557 1649.196)" fill="#ec7a49"/>
      <path id="Path_8930" data-name="Path 8930" d="M391.884,55.36a5.511,5.511,0,0,1-.673.637l-1.888,1.664c-1.613,1.4-3.842,3.306-6.323,5.4l-.376.318-.094.08-.094-.087-2.807-2.612h.166l-4.131,3.4-1.194.962a2.6,2.6,0,0,1-.449.318,2.82,2.82,0,0,1,.391-.383l1.15-1.02,4.059-3.48.094-.08.087.08c.875.81,1.823,1.686,2.822,2.6h-.188l.376-.318c2.474-2.1,4.732-3.987,6.374-5.34l1.953-1.6a4.789,4.789,0,0,1,.745-.543Z" transform="translate(297.563 1587.31)" fill="#263238"/>
      <path id="Path_8931" data-name="Path 8931" d="M396.7,59.959a7.337,7.337,0,0,1-.1-1.4c0-.868-.036-2.069-.043-3.415l.145.145h-.246c-1.389,0-2.655,0-3.574-.043a6.866,6.866,0,0,1-1.447-.1,8.27,8.27,0,0,1,1.447-.1c.919,0,2.171-.036,3.574-.036h.391v.137c0,1.346,0,2.547-.043,3.415A7.342,7.342,0,0,1,396.7,59.959Z" transform="translate(292.75 1587.407)" fill="#263238"/>
    </g>
    <g id="freepik--Character--inject-4" transform="translate(331.35 1560.213)">
      <path id="Path_8938" data-name="Path 8938" d="M142.24,275.48c-3.65-17.09-6.94-41.13-12.72-49.79-4.7-7-16.17-14.44-19.12-27.43-1.58-6.94-3.21-12.45-4.38-16.08a7.08,7.08,0,0,0-6.74-4.9H65.78a6.29,6.29,0,0,0-6.29,6.7c.49,7.74,1,20-.49,24.63-2.21,6.95-5.81,19.72-4.43,25.79.55,2.4,9.41,28.78,14.47,44.27a119.419,119.419,0,0,1,5,22.73L79.6,347l79.85-1.75S145,288.29,142.24,275.48ZM82.93,218.7c-.49.37-1.17,0-1.65-.4A27.08,27.08,0,0,1,73,207.54a26.53,26.53,0,0,1-1.45-8.13,32.359,32.359,0,0,1,.14-8.46,10.76,10.76,0,0,1,4.31-7,3.38,3.38,0,0,1,3.33-.5c1.15.62,1.45,2.1,1.63,3.39l1.68,19.33c.18,3.66.5,8,.61,11.35a1.41,1.41,0,0,1-.32,1.18Zm18.45-11.91a27.14,27.14,0,0,1-6.52,11.89c-.42.45-1,.94-1.57.64s-.48-.71-.54-1.15c-.4-3.38-.74-7.66-1.11-11.31L90.35,187.5c0-1.3.06-2.81,1.1-3.6a3.38,3.38,0,0,1,3.37,0,10.73,10.73,0,0,1,5.33,6.3,32.1,32.1,0,0,1,1.42,8.34,26.89,26.89,0,0,1-.19,8.25Z" fill="#d4d8db"/>
      <path id="Path_8939" data-name="Path 8939" d="M146.4,275.48c-3.64-17.09-6.94-41.13-12.72-49.79-4.7-7-16.16-14.44-19.12-27.43-1.58-6.94-3.2-12.45-4.38-16.08a7.06,7.06,0,0,0-6.73-4.9H69.94a6.3,6.3,0,0,0-6.29,6.7c.49,7.74,1,20-.48,24.63-2.22,6.95-5.82,19.72-4.44,25.79.55,2.4,9.42,28.78,14.47,44.27a120.21,120.21,0,0,1,5,22.73L83.76,347l79.86-1.75S149.13,288.29,146.4,275.48ZM87.09,218.7c-.49.37-1.17,0-1.65-.4a23.1,23.1,0,0,1-9.7-18.89,32.36,32.36,0,0,1,.14-8.46,10.76,10.76,0,0,1,4.31-7,3.39,3.39,0,0,1,3.33-.5c1.15.62,1.45,2.1,1.63,3.39l1.68,19.33c.18,3.66.5,8,.61,11.35A1.41,1.41,0,0,1,87.09,218.7Zm18.45-11.91A27.14,27.14,0,0,1,99,218.68c-.42.45-1,.94-1.57.64a1.39,1.39,0,0,1-.53-1.15c-.41-3.38-.74-7.66-1.12-11.31L94.51,187.5c0-1.3.06-2.81,1.11-3.6a3.36,3.36,0,0,1,3.36,0,10.73,10.73,0,0,1,5.33,6.3,32.1,32.1,0,0,1,1.42,8.34,26.89,26.89,0,0,1-.19,8.25Z" fill="#80848f"/>
      <path id="Path_8941" data-name="Path 8941" d="M166,356.07s-16.76-67.56-19.49-80.37c-3.64-17.09-6.94-41.13-12.72-49.79-4.7-7-16.16-14.44-19.12-27.43-1.58-6.94-3.2-12.45-4.38-16.08a7.07,7.07,0,0,0-6.73-4.9" fill="none"/>
      <path id="Path_8942" data-name="Path 8942" d="M103.58,177.5h.5a6.84,6.84,0,0,1,1.45.23,7.11,7.11,0,0,1,4.36,3.44c1.88,4.57,3.52,11.51,5.74,19.94a33.7,33.7,0,0,0,2.89,6.18,47.579,47.579,0,0,0,4.38,6c1.65,2,3.49,3.89,5.39,5.87a57.426,57.426,0,0,1,5.57,6.42,33.92,33.92,0,0,1,3.71,8.13c1,2.89,1.78,5.88,2.52,8.95,1.49,6.14,2.71,12.56,4,19.12s2.45,13,3.91,19.12,2.86,12.05,4.19,17.69c2.73,11.26,5.18,21.4,7.25,29.92l4.89,20.17c.56,2.37,1,4.21,1.3,5.49l.33,1.43c.07.33.09.49.09.49l-.14-.47-.38-1.42c-.33-1.27-.8-3.11-1.4-5.47-1.2-4.77-2.93-11.65-5-20.13s-4.59-18.65-7.36-29.9L147.46,281c-1.47-6.13-2.67-12.56-3.92-19.13s-2.47-13-4-19.1c-.73-3.06-1.53-6-2.49-8.91a33.24,33.24,0,0,0-3.64-8,56.619,56.619,0,0,0-5.49-6.37c-1.9-2-3.74-3.93-5.4-5.91a48.562,48.562,0,0,1-4.39-6.06,33.47,33.47,0,0,1-2.89-6.27c-.67-2.11-1.08-4.15-1.55-6.07s-.92-3.72-1.38-5.39-.9-3.24-1.32-4.67a26.6,26.6,0,0,0-1.32-3.83,7,7,0,0,0-4.21-3.44A8.6,8.6,0,0,0,103.58,177.5Z" fill="#455a64"/>
      <path id="Path_8943" data-name="Path 8943" d="M161.74,356.07s-17-67.56-19.69-80.37c-3.64-17.09-6.94-41.13-12.72-49.79-4.7-7-16.16-14.44-19.12-27.43-1.57-6.94-3.2-12.45-4.38-16.08a7.07,7.07,0,0,0-6.73-4.9" fill="none"/>
      <rect id="Rectangle_5659" data-name="Rectangle 5659" width="7.69" height="84.71" transform="translate(166.02 373.14)" fill="#d4d8db"/>
      <rect id="Rectangle_5660" data-name="Rectangle 5660" width="14.43" height="61.01" transform="translate(162.5 390.53)" fill="#d4d8db"/>
      <path id="Path_8944" data-name="Path 8944" d="M88.29,359.45S135,374.4,168.71,374.4s72.61-14.95,72.61-14.95H86.17" fill="#d4d8db"/>
      <path id="Path_8945" data-name="Path 8945" d="M78.94,338.92v15.43a6.15,6.15,0,0,0,6.15,6.15h153.3a6.15,6.15,0,0,0,6.15-6.15V347a6.15,6.15,0,0,0-6.071-6.15L78.94,338.92" fill="#80848f"/>
      <path id="Path_8946" data-name="Path 8946" d="M96.17,453.25s30.73-29.17,74.27-28.53,73.13,28.53,73.13,28.53l-4.27,4.81s-34.71-19.88-71.42-18.28-68,18.28-68,18.28Z" fill="#80848f"/>
      <path id="Path_8947" data-name="Path 8947" d="M105.22,457.18c7.39,9.71-3.59,20.69-13.3,13.29C84.53,460.76,95.5,449.79,105.22,457.18Z" fill="#80848f"/>
      <path id="Path_8948" data-name="Path 8948" d="M178.77,463.31a9.07,9.07,0,1,1-2.66-6.417,9.08,9.08,0,0,1,2.66,6.417Z" fill="#80848f"/>
      <path id="Path_8949" data-name="Path 8949" d="M255,463.31a9.07,9.07,0,1,1-9.07-9.07A9.07,9.07,0,0,1,255,463.31Z" fill="#455a64"/>
      <path id="Path_8950" data-name="Path 8950" d="M141.71,293.26l1,4.34H234.6a3.71,3.71,0,0,0,3.66-3.11h0a3.69,3.69,0,0,0-2.12-4c-5.83-2.67-21.89-8.48-50.56-8.14-40.65.47-43.87,6.87-43.87,6.87Z" fill="#263238"/>
      <path id="Path_8951" data-name="Path 8951" d="M207.28,294c-.18,1.4-15.37,53-15.37,53H176.2l15.17-53Z" fill="#263238"/>
      <path id="Path_8952" data-name="Path 8952" d="M236.18,297.6c0,.14-20.67.26-46.17.26s-46.16-.12-46.16-.26,20.66-.27,46.16-.27S236.18,297.45,236.18,297.6Z" fill="#455a64"/>
      <path id="Path_8955" data-name="Path 8955" d="M176.37,111.75c.26-4.46,3.33-4.78,5.6-4a7.9,7.9,0,0,1,9.63,1.45,7,7,0,0,1,9.78,7.08,5.88,5.88,0,0,1,3.8,10.49,5.65,5.65,0,0,1-3.79,10.58l-25.57-20.78C174.35,114.65,176.23,114.14,176.37,111.75Z" fill="#263238"/>
      <path id="Path_8956" data-name="Path 8956" d="M202.1,138.2a24,24,0,0,0-20.82-25l-1.23-.16c-13.37-1-21.66,9.85-22.25,23.24l-3.88,44.44-.71,8.44L183,199.35l2-17.55s13-.31,14.85-13C200.73,162.61,201.52,149.8,202.1,138.2Z" fill="#ffbf9d"/>
      <path id="Path_8957" data-name="Path 8957" d="M185.11,181.8A31.23,31.23,0,0,1,169,174.72s2.73,9.69,15.61,10.21Z" fill="#ff9a6c"/>
      <path id="Path_8958" data-name="Path 8958" d="M198,149.18a1.84,1.84,0,0,1-2,1.61,1.76,1.76,0,0,1-1.66-1.89,1.84,1.84,0,0,1,2-1.61,1.76,1.76,0,0,1,1.66,1.89Z" fill="#263238"/>
      <path id="Path_8959" data-name="Path 8959" d="M198.6,144.75c-.26.2-1.5-1-3.46-1.25s-3.53.54-3.71.27.2-.52.88-.89a5.05,5.05,0,0,1,3-.51,4.85,4.85,0,0,1,2.72,1.29C198.58,144.2,198.73,144.65,198.6,144.75Z" fill="#263238"/>
      <path id="Path_8960" data-name="Path 8960" d="M180.61,147a1.83,1.83,0,0,1-2,1.61,1.76,1.76,0,0,1-1.67-1.89,1.86,1.86,0,0,1,2-1.61,1.76,1.76,0,0,1,1.67,1.89Z" fill="#263238"/>
      <path id="Path_8961" data-name="Path 8961" d="M179.89,142c-.26.21-1.51-1-3.47-1.24s-3.52.54-3.7.27c-.09-.12.19-.52.88-.89a5,5,0,0,1,3-.51,4.85,4.85,0,0,1,2.71,1.28C179.86,141.47,180,141.92,179.89,142Z" fill="#263238"/>
      <path id="Path_8962" data-name="Path 8962" d="M184.44,157.39a12.331,12.331,0,0,1,3.26-.16c.5,0,1,0,1.12-.36a2.56,2.56,0,0,0-.14-1.52l-1-4c-1.34-5.69-2.25-10.35-2-10.4s1.51,4.52,2.85,10.22c.32,1.4.63,2.74.92,4a3,3,0,0,1,0,2,1.3,1.3,0,0,1-.92.63,3.6,3.6,0,0,1-.87,0,13,13,0,0,1-3.22-.41Z" fill="#263238"/>
      <path id="Path_8963" data-name="Path 8963" d="M178.49,158c.32,0,0,2.16,1.67,3.9s3.92,1.82,3.9,2.12c0,.13-.56.34-1.52.24a5.31,5.31,0,0,1-3.27-1.64,4.61,4.61,0,0,1-1.26-3.25C178,158.45,178.35,158,178.49,158Z" fill="#263238"/>
      <path id="Path_8964" data-name="Path 8964" d="M180.65,136.42c-.3.48-1.93-.2-4-.44s-3.82,0-4-.56c-.06-.26.34-.67,1.12-1A6.22,6.22,0,0,1,177,134a5.89,5.89,0,0,1,2.9,1.17C180.52,135.69,180.78,136.19,180.65,136.42Z" fill="#263238"/>
      <path id="Path_8965" data-name="Path 8965" d="M198.86,139.31c-.37.43-1.7-.1-3.34-.2s-3,.16-3.33-.33c-.13-.23.11-.67.74-1.07a4.85,4.85,0,0,1,5.37.43C198.86,138.63,199,139.1,198.86,139.31Z" fill="#263238"/>
      <path id="Path_8966" data-name="Path 8966" d="M201.64,132.19s-2.31-8.43-5.92-10.8c-4.37-2.86-7,2-11.32.16S176,117,171,119.82c-5.46,3.11-3.48,6.05-4.53,11.67-4.26,22.78-9.3,28.72-9.07,17.75,0-1.2-3.14-2.57-3-7.64.22-6.56,1-14.47,3.06-18.89,1.72-3.72,4.29-6.11,8.64-8.54,6.88-3.84,15.49-2.82,21.25-1.46S203.49,122.26,201.64,132.19Z" fill="#263238"/>
      <path id="Path_8967" data-name="Path 8967" d="M158.22,149a3.49,3.49,0,0,0-3.3-3.82c-2.41-.09-5.23.91-5.72,5.85-.87,8.76,8.1,7.82,8.14,7.57S157.89,152.67,158.22,149Z" fill="#ffbf9d"/>
      <path id="Path_8968" data-name="Path 8968" d="M155.76,155.12a2.706,2.706,0,0,1-.43.18,1.51,1.51,0,0,1-1.14-.09c-.89-.43-1.53-2-1.41-3.56a4.88,4.88,0,0,1,.64-2.14,1.79,1.79,0,0,1,1.26-1.06.78.78,0,0,1,.86.51c.09.26,0,.43.07.45s.2-.13.16-.5a1,1,0,0,0-.29-.58,1.17,1.17,0,0,0-.82-.31,2.16,2.16,0,0,0-1.73,1.2,5.36,5.36,0,0,0-.77,2.39c-.11,1.77.63,3.51,1.86,4a1.63,1.63,0,0,0,1.41-.09C155.73,155.33,155.79,155.13,155.76,155.12Z" fill="#ff9a6c"/>
      <path id="Path_8969" data-name="Path 8969" d="M160.6,132.13a8.43,8.43,0,0,0,3.47,2.19,2.86,2.86,0,0,0,3.42-1.58c.18-.6.13-1.32.59-1.74s1.4-.2,2.12,0a5.62,5.62,0,0,0,6.3-3.23,2.41,2.41,0,0,0,3.1.7,12.719,12.719,0,0,0,2.71-2.23,3.6,3.6,0,0,1,3.18-1.1,8.75,8.75,0,0,0,1.85.67c1.15,0,1.89-1.22,2.21-2.34s.63-2.42,1.68-2.91,2.1,0,3.13.32,2.43.23,2.83-.77a2,2,0,0,0-.18-1.63,5.69,5.69,0,0,0-6.38-3,7.72,7.72,0,0,0-13.87-3.33,7.84,7.84,0,0,0-12.79,1.2,5.68,5.68,0,0,0-7.42,7.36,5.38,5.38,0,0,0-3.5,3.87c-.27,1.8,1.25,3.83,3.06,3.58a3.146,3.146,0,1,0,5,3.82" fill="#263238"/>
      <path id="Path_8971" data-name="Path 8971" d="M234.15,420.35l-8.87,26.71s24.17,18,23,23.09l-52.4-15.35L208,412.61Z" fill="#d4d8db"/>
      <path id="Path_8973" data-name="Path 8973" d="M209.73,440a2.23,2.23,0,0,0-2.19,2,2.14,2.14,0,0,0,2,2.2,2.35,2.35,0,0,0,2.31-2.14,2.22,2.22,0,0,0-2.3-2.06" fill="#e0e0e0"/>
      <g id="Group_8861" data-name="Group 8861" opacity="0.6">
        <path id="Path_8974" data-name="Path 8974" d="M195.88,454.8l1.38-4.2L247,466.88s2,1.7,1.29,3.27Z" fill="#fff"/>
      </g>
      <path id="Path_8975" data-name="Path 8975" d="M226.2,447c-.08.26-1.39,0-2.89.45s-2.49,1.33-2.7,1.16.61-1.53,2.44-2S226.33,446.82,226.2,447Z" fill="#e0e0e0"/>
      <path id="Path_8976" data-name="Path 8976" d="M231,450.93c0,.26-1.25.37-2.43,1.2s-1.77,1.9-2,1.81,0-1.58,1.51-2.58S231.1,450.68,231,450.93Z" fill="#e0e0e0"/>
      <path id="Path_8977" data-name="Path 8977" d="M232.23,458.42c-.25,0-.23-1.4.84-2.61s2.43-1.41,2.47-1.17-.91.78-1.77,1.79S232.49,458.47,232.23,458.42Z" fill="#e0e0e0"/>
      <path id="Path_8978" data-name="Path 8978" d="M227.55,440.73c-.18.2-1.25-.5-2.72-.82s-2.74-.2-2.81-.46,1.29-.85,3-.44S227.73,440.57,227.55,440.73Z" fill="#e0e0e0"/>
      <path id="Path_8979" data-name="Path 8979" d="M242.5,427.25l-1.11,28.13s28.22,10.57,28.52,15.79L215.3,471l-.08-43.9Z" fill="#d4d8db"/>
      <path id="Path_8980" data-name="Path 8980" d="M224.51,453a2.24,2.24,0,0,0-1.55,2.54,2.14,2.14,0,0,0,2.51,1.56,2.34,2.34,0,0,0,1.62-2.7,2.22,2.22,0,0,0-2.78-1.33" fill="#e0e0e0"/>
      <g id="Group_8862" data-name="Group 8862" opacity="0.6">
        <path id="Path_8981" data-name="Path 8981" d="M215.3,471l.16-4.42,52.3,1.83s2.43,1.06,2.15,2.78Z" fill="#fff"/>
      </g>
      <path id="Path_8982" data-name="Path 8982" d="M242.28,455.1c0,.27-1.35.39-2.66,1.24s-2,2-2.26,1.86.15-1.64,1.76-2.65S242.34,454.86,242.28,455.1Z" fill="#fff"/>
      <path id="Path_8983" data-name="Path 8983" d="M248,457.49c.06.26-1.1.71-2,1.83s-1.17,2.32-1.44,2.31-.43-1.52.73-2.9S248,457.24,248,457.49Z" fill="#fff"/>
      <path id="Path_8984" data-name="Path 8984" d="M251.23,464.36c-.24.05-.61-1.28.08-2.74s1.94-2,2.05-1.81-.66,1-1.21,2.21S251.49,464.33,251.23,464.36Z" fill="#fff"/>
      <path id="Path_8985" data-name="Path 8985" d="M241.82,448.66c-.11.25-1.34-.13-2.84,0s-2.69.57-2.83.34,1-1.17,2.78-1.26S242,448.46,241.82,448.66Z" fill="#fff"/>
      <path id="Path_8986" data-name="Path 8986" d="M176.19,287.44s64,14.85,72.15,26.18c6.87,9.58-12.5,115.37-12.5,115.37l-35.25-2.51,4.72-92.86L132,310.31l11.08-28.16Z" fill="#292d36"/>
      <path id="Path_8987" data-name="Path 8987" d="M181.77,297.47s66.91,16.26,73.68,27.82c3.16,5.39,1.08,23.09-.09,31.44-.8,5.63-12.63,84.4-12.63,84.4H213.8l.64-89h0l-69.53-14s-37.32,2.84-38.77-13.08L121.71,304l36.77-18.17Z" fill="#292d36"/>
      <path id="Path_8989" data-name="Path 8989" d="M186,194.81s8.34,3.39,13.09,14.93c3.34,8.11,21.89,33.72,21.89,33.72l49.34,10.95L272,270.15l-78.92-.65-11-34.92Z" fill="#ec7a49"/>
      <path id="Path_8990" data-name="Path 8990" d="M184,190.45l7.62,8.3-15.77,81,6.73,9.26-76.45,36.08s-5.83-33-2.91-55.29c2.91-22.12,10.46-47.14,18.81-66.55,3.48-8.07,13.85-15.89,22-19.29l11.14-3.08,28.3,15.78Z" fill="#ec7a49"/>
      <path id="Path_8996" data-name="Path 8996" d="M269.34,255.19c.43-.64,6-7,7.45-7s3.19,1.7,3.19,1.7a5.54,5.54,0,0,1,3.19-.43c1.27.43,7.23,5.53,7.23,7.45v3.19a8.4,8.4,0,0,1,0,2.55c-.22,1.49-3.83,4-3.83,4H266.16s-3.9-2.63-3.41-5.1S269.34,255.19,269.34,255.19Z" fill="#ffbf9d"/>
      <path id="Path_8997" data-name="Path 8997" d="M280,249.87a8.676,8.676,0,0,1,1.27.72l3.37,2.13a10.588,10.588,0,0,1,1.12.76,3,3,0,0,1,.82,1.28,6.079,6.079,0,0,1,.19,1.57c0,.53.05,1.07.08,1.62.11,2.24.23,4.68.35,7.24l.06,1.16v.2l-.19.05-1.25.31h-.06a2.64,2.64,0,0,1-1.6-.6,4.42,4.42,0,0,1-1-1.23,10.56,10.56,0,0,1-1.07-2.75,24.711,24.711,0,0,1-.71-4.9l.11.15-3.56-1.41a8,8,0,0,1-1.28-.57,7.568,7.568,0,0,1,1.34.4l3.62,1.26h.11v.12a25.682,25.682,0,0,0,.78,4.81,10.729,10.729,0,0,0,1.05,2.61,2.77,2.77,0,0,0,2.23,1.59h-.06l1.25-.31-.19.25a9.085,9.085,0,0,0-.05-1.16c-.11-2.56-.22-5-.31-7.24a12.391,12.391,0,0,0-.07-1.62,5.611,5.611,0,0,0-.14-1.47,2.59,2.59,0,0,0-.69-1.12c-.31-.28-.71-.5-1.05-.75l-3.29-2.26A7.642,7.642,0,0,1,280,249.87Z" fill="#ff9a6c"/>
      <path id="Path_8998" data-name="Path 8998" d="M266.16,265.94a6.583,6.583,0,0,1,1.37-.18l3.72-.3h.06a41.867,41.867,0,0,0,4.2.76,23.576,23.576,0,0,0,2.45.2,2.72,2.72,0,0,0,2.24-.64,2,2,0,0,0,.36-1.25c0-.46-.07-.93-.09-1.43a1.75,1.75,0,0,0-.55-1.05,4.611,4.611,0,0,0-1-.76,7.76,7.76,0,0,0-4.38-.77,3.44,3.44,0,0,1-2.89-1.16c-.45-.64-.41-1.1-.38-1.09a2.767,2.767,0,0,0,3.27,1.93,7.93,7.93,0,0,1,4.6.72,4.9,4.9,0,0,1,1.13.83,2.19,2.19,0,0,1,.7,1.37c0,.44.09.93.09,1.45a2.53,2.53,0,0,1-.46,1.55,2.2,2.2,0,0,1-1.29.73,5.662,5.662,0,0,1-1.35.08,21.725,21.725,0,0,1-2.5-.22,36.4,36.4,0,0,1-4.24-.85h.06l-3.73.14A6.282,6.282,0,0,1,266.16,265.94Z" fill="#ff9a6c"/>
      <path id="Path_8999" data-name="Path 8999" d="M287,265.85a33.86,33.86,0,0,1,1.64-3.7,16.881,16.881,0,0,1,1.88-3.6,17.631,17.631,0,0,1-1.43,3.8A11.53,11.53,0,0,1,287,265.85Z" fill="#ff9a6c"/>
      <path id="Path_9000" data-name="Path 9000" d="M133,220.82s36,49,41.6,49h52.55V249.87l-39.74-9.37s-19.57-40.5-23.9-45.69-15.91-12.17-24.56-4.38S133,220.82,133,220.82Z" fill="#ec7a49"/>
      <path id="Path_9001" data-name="Path 9001" d="M227.07,251.79l8.61-.69s.19-3.19,2.07-4.32,1.69-3.57,2.82-3.38a4.87,4.87,0,0,0,1.88,0l7.14-6,6-3.94,4.7-.94s2.82.75,0,3.38l-3,1.69-2.63,2.63,6-2.95a2,2,0,0,1,1.77,0,25.272,25.272,0,0,1,4.62,2.59,1.3,1.3,0,0,1,0,1.88L269.7,244s.56,3-2.45,2.26l-2.44-.57-3.19,3.2s10.9-2.26,11.65-1.88a2.14,2.14,0,0,1,0,3.57c-1.69,1.5-8.27,1.13-9.77,2.63s-11.45,10.58-13.89,11.15-22.5,5.46-22.5,5.46Z" fill="#ffbf9d"/>
      <path id="Path_9002" data-name="Path 9002" d="M269.7,244a11,11,0,0,1-1.48-1.05c-.45-.33-1-.72-1.6-1.13a9.1,9.1,0,0,0-1-.62,2.21,2.21,0,0,0-1-.42,6.23,6.23,0,0,0-2.1.88c-.64.35-1.22.68-1.7,1a9,9,0,0,1-1.59.88,5.43,5.43,0,0,1,1.4-1.17c.46-.32,1-.69,1.67-1.07.32-.19.66-.38,1-.57a3,3,0,0,1,1.28-.4,1.131,1.131,0,0,1,.39.05l.33.13c.2.1.38.21.55.31.35.22.68.45,1,.67.6.44,1.12.86,1.55,1.23C269.29,243.37,269.76,243.91,269.7,244Z" fill="#ff9a6c"/>
      <path id="Path_9003" data-name="Path 9003" d="M243.3,242.67c.08.12-.82.89-1.85,1.89s-1.9,1.84-2,1.74a6.58,6.58,0,0,1,1.66-2.09,5.44,5.44,0,0,1,2.19-1.54Z" fill="#ff9a6c"/>
      <path id="Path_9010" data-name="Path 9010" d="M90.1,293.26l1,4.34H183a3.71,3.71,0,0,0,3.66-3.11h0a3.69,3.69,0,0,0-2.12-4c-5.83-2.67-21.89-8.48-50.56-8.14-40.65.47-43.87,6.87-43.87,6.87Z" fill="#263238"/>
      <path id="Path_9011" data-name="Path 9011" d="M155.67,294c-.18,1.4-15.37,53-15.37,53H124.59l15.17-53Z" fill="#263238"/>
    </g>
    <g id="freepik--Desk--inject-4" transform="translate(331.35 1560.213)">
      <path id="Path_9013" data-name="Path 9013" d="M357.06,204.14c-.1.55,17.44,64.95,17.44,64.95l-28,.09-.13,2.93H380l-19.09-74.7Z" fill="#cfd8de"/>
      <rect id="Rectangle_5661" data-name="Rectangle 5661" width="121.57" height="7.14" transform="translate(338.766 244.645) rotate(-72.67)" fill="#cfd8de"/>
      <rect id="Rectangle_5662" data-name="Rectangle 5662" width="72.08" height="5.34" transform="translate(244.06 266.67)" fill="#cfd8de"/>
      <rect id="Rectangle_5663" data-name="Rectangle 5663" width="11.17" height="188.07" transform="translate(134.55 284.25)" fill="#292d36"/>
      <rect id="Rectangle_5664" data-name="Rectangle 5664" width="11.17" height="191.8" transform="translate(348.86 280.52)" fill="#292d36"/>
      <rect id="Rectangle_5665" data-name="Rectangle 5665" width="351.69" height="11.72" transform="translate(54.24 272.01)" fill="#292d36"/>
    </g>
  </g>
</svg>
