<svg xmlns="http://www.w3.org/2000/svg" width="556.818" height="311.086" viewBox="0 0 556.818 311.086">
  <g id="About_us_page-pana_1_" data-name="About us page-pana (1)" transform="translate(-183.019 -211.733)">
    <g id="freepik--character-1--inject-4" transform="translate(183.019 212.412)">
      <path id="Path_6919" data-name="Path 6919" d="M236.906,244.829c-.2,3.76-5.1,8.774-3.585,12.218,2.788,6.349,1.171,13.952-2.437,19.915s-9.008,10.543-14.315,14.971a119.886,119.886,0,0,0-2.4-27.588c-.586-2.835-1.546-6-4.135-7.286-3.362-1.663-7.626.738-11.07-.738-3.667-1.593-4.4-6.607-7.5-9.137-2.8-2.284-6.912-2.038-10.344-.89s-6.584,3.081-10.11,3.866-7.778.082-9.735-2.964c-1.171-1.874-.34-.726-1.488-2.636,0,0-6.876.234-9.243-7.767,0,0-3.233-8.891,3.924-12.816,0,0,1.628-16.072,17.783-8.844,4.686,2.085,10.145-4.616,14.678-2.343,3.772,1.909,4.885,7.158,8.657,9.079,4.334,2.2,9.372-1.078,14.221-1.277a11.715,11.715,0,0,1,11.715,11.715s.761-3.21,6.021-1.8S237.281,237.5,236.906,244.829Z" transform="translate(-71.567 -212.313)" fill="#2f3640"/>
      <path id="Path_6920" data-name="Path 6920" d="M228.177,267.527a11.363,11.363,0,0,0-.984-5.3c-.679-1.371-3.221-4.487-6.01-4.686l.41-16.553a6.6,6.6,0,0,0-5.857-6.677L183.3,230.9a19.762,19.762,0,0,0-21.8,18.415c-.785,12.476-1.253,27.74.223,37.041,2.975,18.743,17.314,21.086,17.314,21.086l-.351,13.073c-.551,13.929,9.875,22.316,20.629,22.316s20.688-9.29,20.372-23.078l1.054-42.172a7.38,7.38,0,0,0,4.744-2.343A11.844,11.844,0,0,0,228.177,267.527Z" transform="translate(-69.691 -209.145)" fill="#ffbe9d"/>
      <path id="Path_6921" data-name="Path 6921" d="M167.53,255.588a2.413,2.413,0,0,0,2.343,2.425,2.3,2.3,0,1,0-2.343-2.425Z" transform="translate(-68.53 -205.266)" fill="#263238"/>
      <path id="Path_6922" data-name="Path 6922" d="M164.178,253.749c.293.316,2.109-1.031,4.686-1.031s4.475,1.3,4.756.984c.129-.141-.176-.7-1-1.3a6.56,6.56,0,0,0-3.807-1.171,6.232,6.232,0,0,0-3.737,1.171C164.3,253.046,163.979,253.608,164.178,253.749Z" transform="translate(-69.114 -205.641)" fill="#263238"/>
      <path id="Path_6923" data-name="Path 6923" d="M188.81,256a2.4,2.4,0,0,0,2.343,2.425,2.343,2.343,0,0,0,2.472-2.167,2.4,2.4,0,0,0-2.343-2.425A2.343,2.343,0,0,0,188.81,256Z" transform="translate(-64.881 -205.195)" fill="#263238"/>
      <path id="Path_6924" data-name="Path 6924" d="M185.846,254.159c.293.316,2.109-1.031,4.686-1.019s4.475,1.289,4.756.972c.129-.141-.164-.7-1-1.3a6.56,6.56,0,0,0-3.807-1.171,6.314,6.314,0,0,0-3.737,1.171C185.963,253.456,185.694,254.018,185.846,254.159Z" transform="translate(-65.396 -205.57)" fill="#263238"/>
      <path id="Path_6925" data-name="Path 6925" d="M178.787,273.288a17.748,17.748,0,0,0-4.194-.761c-.656-.059-1.277-.2-1.394-.644a3.432,3.432,0,0,1,.445-1.956l1.945-5c2.718-7.158,4.686-13.038,4.381-13.144s-2.718,5.6-5.424,12.757c-.656,1.757-1.277,3.444-1.863,5.049a3.831,3.831,0,0,0-.351,2.589,1.663,1.663,0,0,0,1.089.961,4.686,4.686,0,0,0,1.171.164,16.189,16.189,0,0,0,4.194-.012Z" transform="translate(-67.721 -205.546)" fill="#263238"/>
      <path id="Path_6926" data-name="Path 6926" d="M176.332,297.209A47.655,47.655,0,0,0,201.4,290.52s-6.49,14.057-25.221,12.335Z" transform="translate(-67.047 -198.904)" fill="#eb996e"/>
      <path id="Path_6927" data-name="Path 6927" d="M184.842,250.215c.258.7,2.835.375,5.857.738s5.482,1.171,5.857.562c.176-.3-.246-.961-1.23-1.64a10.248,10.248,0,0,0-8.95-1C185.3,249.336,184.736,249.887,184.842,250.215Z" transform="translate(-65.564 -206.148)" fill="#263238"/>
      <path id="Path_6928" data-name="Path 6928" d="M163.82,248.633c.457.586,2.226,0,4.37,0s3.948.387,4.37-.223c.187-.3-.105-.89-.89-1.441a6.338,6.338,0,0,0-7.029.223C163.867,247.743,163.62,248.341,163.82,248.633Z" transform="translate(-69.177 -206.535)" fill="#263238"/>
      <path id="Path_6929" data-name="Path 6929" d="M178.32,282.815c0-.059.176-.375.7-.7a4.534,4.534,0,0,1,2.343-.633,4.591,4.591,0,0,1,2.343.609c.527.328.761.633.715.691a11.361,11.361,0,0,0-3.022-.679,10.378,10.378,0,0,0-3.081.715Z" transform="translate(-66.68 -200.454)" fill="#eb996e"/>
      <path id="Path_6930" data-name="Path 6930" d="M210.87,267.794a15.043,15.043,0,0,0,1.781-.867,4.8,4.8,0,0,0,2.167-3.842,4.909,4.909,0,0,0-1.945-3.995,4.111,4.111,0,0,0-1.781-.691c-.059-.07.867-.387,2.027.328a5.072,5.072,0,0,1,2.343,4.358,4.814,4.814,0,0,1-.867,2.683,5,5,0,0,1-1.687,1.535A2.917,2.917,0,0,1,210.87,267.794Z" transform="translate(-61.099 -204.434)" fill="#eb996e"/>
      <path id="Path_6931" data-name="Path 6931" d="M158.435,227.189c-3.022,8.083,4.159,13.94,9.758,15.229,7.825,1.827,16.143-3.116,21.5-1.019,3.995,1.57,7.767,4.686,12.007,4.041,2.062-.3,4.1-1.488,6.1-.949,2.565.7,3.608,3.819,3.514,6.478-.07,3.28-1.171,6.537-.761,9.793s3.315,6.619,6.49,5.752a7.8,7.8,0,0,0,5.318-7.029c.375-4.51-.457-9.875-.234-14.4.2-3.983.211-8.364-2.343-11.445s-6.865-3.913-10.836-4.451a301.506,301.506,0,0,0-50.56-2.671" transform="translate(-70.212 -209.902)" fill="#263238"/>
      <path id="Path_6935" data-name="Path 6935" d="M180.58,256.434a25.981,25.981,0,0,0-.492-2.917,11.829,11.829,0,0,0-21.016-4.088,11.715,11.715,0,0,0,0,13.882,10.743,10.743,0,0,0,2.483,2.507,10.894,10.894,0,0,0,2.964,1.6,11.808,11.808,0,0,0,11.176-1.64,12.066,12.066,0,0,0,4.393-6.5,26.6,26.6,0,0,0,.492-2.905,9.3,9.3,0,0,1-.258,2.964,12.007,12.007,0,0,1-4.428,6.888,12.218,12.218,0,0,1-11.621,1.827,11.352,11.352,0,0,1-3.128-1.663,11.713,11.713,0,0,1-2.612-2.612,12.242,12.242,0,0,1,0-14.6,12.269,12.269,0,0,1,12.207-4.791,12.2,12.2,0,0,1,9.524,9.114A9.371,9.371,0,0,1,180.58,256.434Z" transform="translate(-70.486 -206.85)" fill="#263238"/>
      <path id="Path_6936" data-name="Path 6936" d="M204.01,256.434a22.922,22.922,0,0,0-.492-2.917,11.833,11.833,0,0,0-21.016-4.088,11.715,11.715,0,0,0,0,13.882,10.964,10.964,0,0,0,2.483,2.507,11.129,11.129,0,0,0,2.975,1.6,11.89,11.89,0,0,0,15.533-8.083,23.423,23.423,0,0,0,.492-2.905,8.891,8.891,0,0,1-.258,2.964,11.972,11.972,0,0,1-4.334,6.83,12.218,12.218,0,0,1-11.621,1.827,11.352,11.352,0,0,1-3.128-1.663,11.808,11.808,0,0,1-2.624-2.612,12.289,12.289,0,0,1,0-14.6,12.488,12.488,0,0,1,5.752-4.288,12.347,12.347,0,0,1,6.466-.5,12.207,12.207,0,0,1,9.512,9.114A8.962,8.962,0,0,1,204.01,256.434Z" transform="translate(-66.457 -206.85)" fill="#263238"/>
      <path id="Path_6937" data-name="Path 6937" d="M181.042,252.962h0v.117h0v-.211h0v.234a7.979,7.979,0,0,1-1.968.187c-1.171,0-2.144-.141-2.144-.3s.961-.3,2.144-.3a7.427,7.427,0,0,1,1.968.187v.234h0v-.211h0v.117h0Z" transform="translate(-66.918 -205.393)" fill="#263238"/>
      <path id="Path_6938" data-name="Path 6938" d="M214.943,255.342a43.634,43.634,0,0,1-7.38-.223,43.984,43.984,0,0,1-7.333-.832,46.788,46.788,0,0,1,7.38.223A45.527,45.527,0,0,1,214.943,255.342Z" transform="translate(-62.923 -205.126)" fill="#263238"/>
      <path id="Path_6939" data-name="Path 6939" d="M188.228,269.59a3.175,3.175,0,0,1,.082,1.886,6.455,6.455,0,0,1-6.63,5.424,3.163,3.163,0,0,1-1.839-.457c0-.094.726.094,1.839,0a6.619,6.619,0,0,0,6.209-5.072A13.419,13.419,0,0,0,188.228,269.59Z" transform="translate(-66.419 -202.493)" fill="#263238"/>
      <path id="Path_6940" data-name="Path 6940" d="M148.143,341.38a1.568,1.568,0,0,1,0,.375v1.1c0,1.007,0,2.437.059,4.241,0,3.714,0,9.02.082,15.569,0,13.144-.4,31.3-1.417,51.333s-2.073,38.131-2.788,51.3c-.328,6.525-.6,11.832-.785,15.545q-.141,2.706-.211,4.217c0,.457-.059.82-.07,1.1a1.922,1.922,0,0,1,0,.375,1.335,1.335,0,0,1,0-.375v-1.1c0-1.007.059-2.425.105-4.229.105-3.678.293-9,.586-15.557.551-13.132,1.617-31.266,2.612-51.3s1.535-38.178,1.6-51.321c0-6.537.082-11.843.105-15.557,0-1.8,0-3.233.059-4.241v-1.1A1.57,1.57,0,0,1,148.143,341.38Z" transform="translate(-72.736 -190.184)" fill="#263238"/>
      <path id="Path_6941" data-name="Path 6941" d="M248.862,325.134c-6.3-7.275-18.614-8.341-24.073-4.393S216.3,331.39,215.745,338.1s1.171,13.448,3.725,19.669c4.112,9.981,10.192,18.064,19.27,28.349l23.429,30.716-45.16,44.093,18.743,29.532,38.389-30.926,31.746-33.644" transform="translate(-60.281 -194.111)" fill="#ec7a49"/>
      <path id="Path_6942" data-name="Path 6942" d="M104.61,405.3a7.357,7.357,0,0,1,2.437-1.171,17.244,17.244,0,0,1,6.455-.879,17.443,17.443,0,0,1,6.338,1.57,7.287,7.287,0,0,1,2.343,1.429c0,.082-.937-.433-2.46-1.031a19.985,19.985,0,0,0-6.2-1.359,20.348,20.348,0,0,0-6.3.679C105.594,404.976,104.657,405.4,104.61,405.3Z" transform="translate(-79.318 -179.58)" fill="#263238"/>
      <path id="Path_6943" data-name="Path 6943" d="M277.68,334.235h0c-15.756-20.9-32.719-19.177-41.364-19.423V305.64c-6.384,0-15.112,5.752-19.622,9.864l-4.463,6.127h0a22.75,22.75,0,0,0-14.573-14.3,45,45,0,0,0-7.462-1.687v8.2c-21.18.6-32.508,6.384-46.659,22.761-.726.844-2.167,2.284-3.819,3.913h0l-41.868,49.2c-8.552,9.465-16.4,22.492-14.561,35.144h0c2,14.245,10.309,23.617,26.205,34.359l44.047,28.548-.211,4.908H258.445s71.283-52.586,73.028-72.068C332.832,405.214,308.279,372.589,277.68,334.235ZM155.31,445.886l-30.821-23,33.293-34.452Zm100.932,1.828-.832-17.021,4.475-44.714c8.786,10.075,25.046,30.071,25.046,33.058Z" transform="translate(-83.019 -196.312)" fill="#2f3640"/>
      <path id="Path_6956" data-name="Path 6956" d="M210.988,467.626l3.257,1.628h18.743l3.784-3.093L223.136,443.6c-1.675.738-9.032,1.886-11.41,2.718a19.082,19.082,0,0,1-6.384,1.078,34.737,34.737,0,0,1-7.228-.6l-.515-.164a2.589,2.589,0,0,0-1.007-.211c-2.027-.176-3.632,1.945-2.5,3.62s6.677,3.913,13.753,3.714h.34c6.209,0,.515,5.2-3.175,8.294a4.9,4.9,0,0,0-1.781,4.44,2.085,2.085,0,0,0,.832,1.523C205.634,469.009,210.988,467.626,210.988,467.626Z" transform="translate(-64.04 -172.658)" fill="#ffbe9d"/>
      <path id="Path_6960" data-name="Path 6960" d="M191.463,410.016c-.059-.059.609-.34,1.335.293a1.722,1.722,0,0,1,.562,1.476,1.64,1.64,0,0,1-1.417,1.347,1.675,1.675,0,0,1-1.781-.808,1.769,1.769,0,0,1,.07-1.593c.48-.832,1.171-.773,1.171-.7a2.028,2.028,0,0,0-.773.89,1.335,1.335,0,0,0,0,1.171,1.171,1.171,0,0,0,2.144-.363,1.336,1.336,0,0,0-.328-1.078C192.014,410.016,191.463,410.1,191.463,410.016Z" transform="translate(-64.676 -178.435)" fill="#263238"/>
    </g>
    <g id="freepik--character-3--inject-4" transform="translate(493.986 214.003)">
      <path id="Path_6991" data-name="Path 6991" d="M679.644,387.1l-41.329-48.732-.094.094c-1.628-1.6-3.057-3.034-3.784-3.866C620.123,318,608.748,312.335,586.83,312.03h0l-42.594.914c-7.919.656-25.889-2.729-42.512,19.306h0c-30.282,37.943-54.566,70.217-53.2,85.446,1.722,19.27,75.219,74.212,75.219,74.212l101.026-.082-.211-7.7,43.59-28.291c15.721-10.625,23.933-19.915,25.924-33.972C695.822,409.354,688.067,396.468,679.644,387.1ZM494.554,416.1c0-2.964,15.932-21.648,24.6-31.629l4.51,43.145-.773,16.857Zm128.169,26.557-2.4-56.862h0l32.941,34.078Z" transform="translate(-448.473 -196.807)" fill="#2f3640"/>
      <rect id="Rectangle_5573" data-name="Rectangle 5573" width="91.315" height="62.497" rx="3.42" transform="matrix(0.896, -0.443, 0.443, 0.896, 32.85, 252.789)" fill="#e0e0e0"/>
      <path id="Path_6992" data-name="Path 6992" d="M523.324,432.29a4.627,4.627,0,1,1-1.534,6.361A4.627,4.627,0,0,1,523.324,432.29Z" transform="translate(-436.019 -176.304)" fill="#fff"/>
      <path id="Path_6994" data-name="Path 6994" d="M514.028,319.064c5.389-3.924,11.656-2.741,17.056,1.171s8.4,10.543,8.938,17.185-1.171,13.3-3.69,19.458c-4.065,9.875-10.074,17.865-19.06,28.033l-23.148,30.4,44.691,43.625L520.3,488.151l-37.416-30.118C470.1,447.244,459.228,436.209,451.25,424.8" transform="translate(-447.997 -196.015)" fill="#2f3640"/>
      <path id="Path_6995" data-name="Path 6995" d="M451.24,424.852l.269.351.785,1.054c.691.925,1.722,2.343,3.116,4.053a162.82,162.82,0,0,0,12.886,14.28q4.393,4.375,9.993,9.372c3.725,3.327,7.919,6.619,12.371,10.192l29.755,23.874-.41.07c5.752-9.079,12-18.942,18.5-29.228v.375l-23.054-22.492-21.625-21.086-.187-.176.152-.211c8.2-10.719,15.955-20.91,23.171-30.387h0A151.456,151.456,0,0,0,529.2,369.524a69.925,69.925,0,0,0,8.048-15.8,40.015,40.015,0,0,0,2.624-15.557,25.607,25.607,0,0,0-3.948-12.581,20.359,20.359,0,0,0-7.942-7.122,14.749,14.749,0,0,0-7.72-1.71,11.9,11.9,0,0,0-4.744,1.406c-1.007.539-1.476.9-1.488.879l.351-.269a8.779,8.779,0,0,1,1.089-.691,11.9,11.9,0,0,1,4.78-1.5,14.807,14.807,0,0,1,7.849,1.663,20.359,20.359,0,0,1,8.095,7.158,25.913,25.913,0,0,1,4.077,12.769,40.52,40.52,0,0,1-2.484,15.545,70.147,70.147,0,0,1-8.06,15.943,152.4,152.4,0,0,1-12.242,15.44h0c-7.216,9.477-14.983,19.68-23.136,30.458v-.4l21.637,21.086,23.042,22.5.176.176-.129.2c-6.513,10.285-12.769,20.137-18.532,29.2l-.164.269-.246-.2-29.7-23.956c-4.44-3.585-8.657-6.912-12.347-10.238s-7.029-6.455-9.969-9.372A157.862,157.862,0,0,1,455.293,430.4c-1.371-1.757-2.343-3.163-3.046-4.112-.328-.457-.574-.82-.75-1.078S451.24,424.852,451.24,424.852Z" transform="translate(-447.998 -196.033)" fill="#263238"/>
      <path id="Path_6996" data-name="Path 6996" d="M639.342,403.706A17.35,17.35,0,0,1,637,402.98a16.2,16.2,0,0,0-11.4.6,18.753,18.753,0,0,1-2.261.972,6.888,6.888,0,0,1,2.074-1.371,14.479,14.479,0,0,1,11.714-.609A7.111,7.111,0,0,1,639.342,403.706Z" transform="translate(-418.491 -181.447)" fill="#263238"/>
      <path id="Path_6997" data-name="Path 6997" d="M537.549,465.331l-8.13,4.042a11.457,11.457,0,0,1-12.347-1.382L512,463.855l14.057-22.105c1.652.715,8.446,1.675,10.789,2.507a18.742,18.742,0,0,0,6.314,1.054,34.943,34.943,0,0,0,7.158-.586c.152-.059.363-.105.5-.164a2.344,2.344,0,0,1,1.007-.176c2-.187,3.6,1.921,2.472,3.514s-6.607,3.866-13.612,3.667h-.328c-6.15,0-.5,5.143,3.139,8.2a4.826,4.826,0,0,1,1.757,4.393,2.038,2.038,0,0,1-.82,1.511C542.844,466.7,537.549,465.331,537.549,465.331Z" transform="translate(-437.581 -174.566)" fill="#a36853"/>
      <path id="Path_6998" data-name="Path 6998" d="M553.136,345.63c-10.777,0-20.465-9.184-20.372-22.867L530.82,244.85h.223a6.513,6.513,0,0,1,5.857-6.607l32.121-3.4a19.552,19.552,0,0,1,21.567,18.228c.773,12.335,1.242,27.435-.223,36.643-2.975,18.544-17.162,20.91-17.162,20.91l.34,12.886c.551,13.776-9.77,22.07-20.407,22.07Z" transform="translate(-434.354 -210.059)" fill="#a36853"/>
      <path id="Path_6999" data-name="Path 6999" d="M576.373,259.314a2.343,2.343,0,0,1-2.284,2.343,2.261,2.261,0,0,1-2.448-2.144,2.372,2.372,0,0,1,4.733-.2Z" transform="translate(-427.355 -206.213)" fill="#263238"/>
      <path id="Path_7000" data-name="Path 7000" d="M580.383,257.487c-.293.316-2.085-1.019-4.686-1.007s-4.416,1.277-4.686.972.164-.7.984-1.3a6.572,6.572,0,0,1,3.76-1.171,6.3,6.3,0,0,1,3.7,1.171C580.278,256.8,580.547,257.346,580.383,257.487Z" transform="translate(-427.477 -206.588)" fill="#263238"/>
      <path id="Path_7001" data-name="Path 7001" d="M555.331,259.714a2.43,2.43,0,1,1-2.448-2.144A2.343,2.343,0,0,1,555.331,259.714Z" transform="translate(-430.973 -206.144)" fill="#263238"/>
      <path id="Path_7002" data-name="Path 7002" d="M558.946,257.9c-.293.316-2.1-1.019-4.686-1.019s-4.428,1.289-4.686.972c-.141-.129.164-.691.984-1.289a6.478,6.478,0,0,1,3.76-1.171,6.3,6.3,0,0,1,3.7,1.171C558.829,257.194,559.1,257.756,558.946,257.9Z" transform="translate(-431.144 -206.518)" fill="#263238"/>
      <path id="Path_7003" data-name="Path 7003" d="M565.665,276.827a16.331,16.331,0,0,1,4.147-.75c.656-.07,1.277-.2,1.382-.644a3.328,3.328,0,0,0-.433-1.933c-.621-1.581-1.253-3.233-1.933-4.967-2.683-7.029-4.615-12.886-4.334-13s2.694,5.541,5.365,12.617c.656,1.745,1.265,3.409,1.851,5a3.749,3.749,0,0,1,.34,2.565,1.664,1.664,0,0,1-1.066.949,4.579,4.579,0,0,1-1.113.152A17.045,17.045,0,0,1,565.665,276.827Z" transform="translate(-428.585 -206.494)" fill="#263238"/>
      <path id="Path_7004" data-name="Path 7004" d="M570.63,300.489a47.162,47.162,0,0,1-24.8-6.619s6.419,13.929,24.94,12.195Z" transform="translate(-431.781 -199.92)" fill="#8f5039"/>
      <path id="Path_7005" data-name="Path 7005" d="M560.262,253.99c-.246.7-2.8.363-5.8.726s-5.424,1.171-5.857.562c-.187-.3.234-.961,1.171-1.628a10.133,10.133,0,0,1,8.856-.972C559.817,253.158,560.379,253.662,560.262,253.99Z" transform="translate(-431.312 -207.086)" fill="#263238"/>
      <path id="Path_7006" data-name="Path 7006" d="M579.483,251.19c-.445.586-2.214,0-4.323,0s-3.913.387-4.323-.223c-.187-.293.105-.867.879-1.417a5.951,5.951,0,0,1,3.514-.949,5.857,5.857,0,0,1,3.444,1.171C579.436,250.311,579.682,250.909,579.483,251.19Z" transform="translate(-427.502 -207.683)" fill="#263238"/>
      <path id="Path_7007" data-name="Path 7007" d="M533.02,266.163c3.151-.562,5.67.41,6.56,3.514,1.324,4.627.422,6.912.644,10.1l4.686-1.406c-1.171-10.672,1.488-18.568.328-29.286,6.513,2.109,15.463-1.921,18.24-8.669a18.134,18.134,0,0,0,19.329,1.359,7.45,7.45,0,0,0,7.954,3.725c3.514-1,7.24-6,8.259-9.547,1.827-6.384.937-15.545-4.241-19.7s-15.557-3.163-19.587,2.12c-1.593,2.085-1.781,5.939-4.346,6.466-2.284.469-4.358-1.171-6.443-2.249-6.5-3.221-15.487,1.054-17.092,8.13-5.436-3.245-12.019-5.365-18.1-3.62s-10.93,8.493-8.856,14.467c.855,2.507,2.788,4.686,3,7.3.41,5.1-5.7,9.711-3.749,14.432,1.089,2.647,4.287,3.819,5.728,6.291,1.617,2.765.609,6.256.75,9.454.211,5.342,2.952,13.249,8.071,14.772" transform="translate(-436.343 -213.671)" fill="#2f3640"/>
      <path id="Path_7008" data-name="Path 7008" d="M532.065,258.43a4.416,4.416,0,0,0-3.514,2.823,9.7,9.7,0,0,0-.949,4.557,10.18,10.18,0,0,0,2.226,6.794,5.857,5.857,0,0,0,6.607,1.675" transform="translate(-434.908 -205.996)" fill="#a36853"/>
      <path id="Path_7009" data-name="Path 7009" d="M534.762,269.7a2.179,2.179,0,0,1-1.781-.07,3.808,3.808,0,0,1-1.6-1.171,4.358,4.358,0,0,1-.855-2.343,4.417,4.417,0,0,1,.48-2.343,4.252,4.252,0,0,1,1.312-1.488c.961-.633,1.71-.6,1.7-.527a10.55,10.55,0,0,0-1.429.879,4.088,4.088,0,0,0-1.453,3.514,3.678,3.678,0,0,0,2.027,3.1A10.806,10.806,0,0,0,534.762,269.7Z" transform="translate(-434.407 -205.433)" fill="#8f5039"/>
      <path id="Path_7010" data-name="Path 7010" d="M558.917,282.721c2.343,1.6,6.771.761,8.434-1.617a45.149,45.149,0,0,1-9.793-7.2S554.231,279.429,558.917,282.721Z" transform="translate(-429.966 -203.344)" fill="#fafafa"/>
      <path id="Path_7011" data-name="Path 7011" d="M565.871,286.244a10.429,10.429,0,0,0-2.975-.7,11.129,11.129,0,0,0-2.975.668,1.848,1.848,0,0,1,.7-.679,4.569,4.569,0,0,1,4.557,0C565.707,285.869,565.941,286.185,565.871,286.244Z" transform="translate(-429.365 -201.455)" fill="#aa6550"/>
    </g>
    <g id="freepik--character-4--inject-4" transform="translate(354.416 211.733)">
      <path id="Path_7012" data-name="Path 7012" d="M545.267,357.125a216.626,216.626,0,0,0,13.46-22.726c4.838-9.231,4.018-9.7,2.858-10.11-3.116-1.113-9.126,15.9-9.922,11.445s9.723-19.915,6.419-20.9c-4.311-1.335-10.274,16.6-10.883,18.076s-2.753.574-2.12-.726c.9-1.863,9.875-21.766,5.646-23.113-2.343-.738-3.186,3.643-3.186,3.643s-7.029,19.27-9.008,18.568,1.757-12.171,3.292-15.943.387-6.01-1.8-5.354c-1.5.445-6.478,11.879-7.907,15.639s-5.178,14.175-7.45,7.439c0-.105-.082-.2-.129-.3-2.05-6.7-5.857-11.176-7.837-11.715s-3.421,1.64-2.6,3.514a2.343,2.343,0,0,0,.515.879c.105.117.211.293.316.422a35.137,35.137,0,0,1,2.858,6.584,19.082,19.082,0,0,1,1.019,6.326c0,2.5,1.171,9.758,1.078,11.55" transform="translate(-297.692 -195.059)" fill="#ffad9d"/>
      <path id="Path_7013" data-name="Path 7013" d="M550.348,347.008l-28.337,56.23s-16.025-46.354-24.671-64.793c-3.292-7.029-9.9-11.9-16.236-15.135v-.129l-1.324-.527a67.1,67.1,0,0,0-14.245-4.932c-29.9-8.563-58.057-5.576-90.659,5.857,0,0-16.928,4.545-25.139,26.627-7.38,19.915-15.662,50.372-17.08,55.761C322.5,440.15,337,459.187,357.187,456.844c8.317-1.312,15.393-8.2,18.521-10.871l10.672-10.028.234,7.767L374.63,491.683l122.7-.258-22.14-56.8,4.92-26.041,8.423,20.008a35.062,35.062,0,0,0,64.278.832L581.5,357.188Z" transform="translate(-329.33 -194.407)" fill="#ec7a49"/>
      <path id="Path_7025" data-name="Path 7025" d="M491.051,282.122c-2.015-2.636-5.213-4.686-5.857-7.907-.808-4.323,3.514-8.376,2.729-12.71-.515-2.964-3.245-5.049-6.033-6.2s-5.857-1.7-8.411-3.233a17,17,0,0,1-6.712-8.27,28.276,28.276,0,0,1-1-2.847,30.206,30.206,0,0,0-1.417-6.08c-.105-.515-.2-1.031-.293-1.546l.129,1.171a12.311,12.311,0,0,0-1.523-2.741c-2.144-2.858-6.431-4.452-9.372-2.448l1.406-.937a27.049,27.049,0,0,0-20.887-16.4,25.011,25.011,0,0,0-5.3-.176c-6.314-.328-15.44,1.511-19.294,3.96-4.92,3.116-9.957,7.392-12.429,12.675-1.324,2.847-2.226,6.138-4.686,8.036-3.35,2.53-8.048,1.546-12.23,2.015-6.888.785-12.886,6.068-15.229,12.593a25.1,25.1,0,0,0,1.921,20.114c.726,1.347,1.581,2.905,1.007,4.323a5.435,5.435,0,0,1-2.636,2.343,14.163,14.163,0,0,0-6.373,6.666c-1.171,2.917-.726,6.607,1.64,8.669a7.122,7.122,0,0,0,7.146,1.019,15.545,15.545,0,0,0-1.089,5.541,11.6,11.6,0,0,0,5.752,10.3c3.667,1.91,8.8.9,10.953-2.624a14.409,14.409,0,0,0,22.258,12.16c1.734-1.171,3.514-2.718,5.564-2.343s3.21,2.343,4.616,3.772c3.749,3.9,10.145,4.346,15.077,2.132s8.563-6.642,11.176-11.375a8.716,8.716,0,0,0,15.545-2.179,14.573,14.573,0,0,0,26.088-8.27,11.972,11.972,0,0,0,7.767-19.106Zm-117.813,3.62v-.07l.117-.059Z" transform="translate(-324.424 -211.733)" fill="#263238"/>
      <path id="Path_7026" data-name="Path 7026" d="M442.029,311.734s15.006-2.483,18.111-22.058c1.546-9.735,1.054-25.69.234-38.728a20.676,20.676,0,0,0-22.8-19.27l-33.972,3.6a6.888,6.888,0,0,0-6.162,7.029l3.573,85.024c-2.472.527-8.083,1.745-10.836,2.542,0,0,26.264,58.7,32.7,58.022s32.133-56.23,32.133-56.23a134.285,134.285,0,0,0-13.612-3.339,161.9,161.9,0,0,1,.633-16.588Z" transform="translate(-318.897 -208.333)" fill="#ffad9d"/>
      <path id="Path_7027" data-name="Path 7027" d="M444.352,257.542a2.507,2.507,0,0,1-2.413,2.53,2.343,2.343,0,0,1-2.589-2.261,2.507,2.507,0,0,1,2.413-2.53,2.4,2.4,0,0,1,2.589,2.261Z" transform="translate(-310.467 -204.268)" fill="#263238"/>
      <path id="Path_7028" data-name="Path 7028" d="M448.6,255.612c-.316.328-2.214-1.078-4.92-1.066s-4.686,1.359-4.967,1.031c-.152-.152.164-.738,1.031-1.371A7.029,7.029,0,0,1,443.741,253a6.654,6.654,0,0,1,3.913,1.265C448.427,254.874,448.755,255.472,448.6,255.612Z" transform="translate(-310.582 -204.658)" fill="#263238"/>
      <path id="Path_7029" data-name="Path 7029" d="M422.1,257.972a2.507,2.507,0,0,1-2.425,2.53,2.343,2.343,0,0,1-2.589-2.261,2.507,2.507,0,0,1,2.425-2.53,2.4,2.4,0,0,1,2.589,2.261Z" transform="translate(-314.284 -204.194)" fill="#263238"/>
      <path id="Path_7030" data-name="Path 7030" d="M425.932,256.046c-.3.328-2.214-1.078-4.908-1.066s-4.686,1.359-4.979,1.031c-.141-.152.176-.738,1.043-1.371a6.959,6.959,0,0,1,3.983-1.23,6.677,6.677,0,0,1,3.913,1.265C425.8,255.273,426.084,255.905,425.932,256.046Z" transform="translate(-314.468 -204.588)" fill="#263238"/>
      <path id="Path_7031" data-name="Path 7031" d="M433.034,276.054a17.686,17.686,0,0,1,4.393-.785c.679-.07,1.335-.211,1.453-.679a3.514,3.514,0,0,0-.457-2.05c-.656-1.663-1.324-3.421-2.038-5.248-2.835-7.474-4.885-13.624-4.58-13.741s2.835,5.857,5.67,13.343l1.956,5.283a3.936,3.936,0,0,1,.351,2.706,1.71,1.71,0,0,1-1.171,1.008,5.181,5.181,0,0,1-1.171.164,17.865,17.865,0,0,1-4.4,0Z" transform="translate(-311.766 -204.564)" fill="#263238"/>
      <path id="Path_7032" data-name="Path 7032" d="M438.275,301.029A49.764,49.764,0,0,1,412.07,294s6.361,13.437,25.948,11.609Z" transform="translate(-315.144 -197.628)" fill="#ed9482"/>
      <path id="Path_7033" data-name="Path 7033" d="M426.729,276.5a5.307,5.307,0,0,1,1.98-.855,1.745,1.745,0,0,1,1.839.867,4.361,4.361,0,0,0,.281.679c.4.539,1.23.34,1.863.527a1.968,1.968,0,0,1,1.043,2.589,3.96,3.96,0,0,1-2.343,2.015,8.4,8.4,0,0,1-4.194.574,3.514,3.514,0,0,1-2.589-1.289,3.069,3.069,0,0,1,.2-3.35,8.937,8.937,0,0,1,2.683-2.343" transform="translate(-313.064 -200.78)" fill="#ed9482"/>
      <path id="Path_7034" data-name="Path 7034" d="M426.137,274.36c.433,0,.445,2.905,2.952,4.979s5.623,1.757,5.646,2.167c0,.187-.691.574-2.015.609a7.31,7.31,0,0,1-4.686-1.64,6.4,6.4,0,0,1-2.343-4.182C425.61,275.11,425.938,274.337,426.137,274.36Z" transform="translate(-312.811 -200.996)" fill="#263238"/>
      <path id="Path_7035" data-name="Path 7035" d="M427.323,251.926c-.269.726-2.964.387-6.127.761s-5.74,1.253-6.15.586c-.187-.3.258-1,1.289-1.71a10.766,10.766,0,0,1,9.372-1.031C426.854,251,427.44,251.575,427.323,251.926Z" transform="translate(-314.641 -205.189)" fill="#263238"/>
      <path id="Path_7036" data-name="Path 7036" d="M447.646,250.4c-.48.621-2.343,0-4.58,0s-4.123.41-4.557-.234c-.2-.3.105-.925.925-1.5a6.63,6.63,0,0,1,7.368.223C447.6,249.5,447.857,250.132,447.646,250.4Z" transform="translate(-310.621 -205.574)" fill="#263238"/>
      <path id="Path_7037" data-name="Path 7037" d="M450.844,230.49a26.545,26.545,0,0,1-32.121,20.348,25.222,25.222,0,0,1-14.866,19.8,53.723,53.723,0,0,1,6.314,32.227c-.574,4.686-1.945,9.688-5.506,12.886-5.436,4.873-14.6,3.69-19.821-1.394-5.014-4.885-6.783-12.523-5.365-19.376s5.717-12.886,11.117-17.291a12.406,12.406,0,0,1-6.4-21.274c1.535-1.453,3.514-2.53,4.686-4.3s1.359-3.737,2.027-5.623c1.745-4.932,6.15-8.341,10.344-11.48,3.514-2.647,7.45-5.412,11.879-5.4,2.343,0,4.686.82,7.029.5,3.221-.433,5.74-2.882,8.4-4.686a18.3,18.3,0,0,1,12.886-3.514c4.534.715,8.763,4.1,9.618,8.6" transform="translate(-320.813 -210.006)" fill="#263238"/>
      <path id="Path_7038" data-name="Path 7038" d="M438.948,230.987c-.691,3.784,1.171,7.661,4.006,10.309s6.338,4.288,9.84,5.857a44.609,44.609,0,0,0-5.072-10.543,14.9,14.9,0,0,0-9.512-6.42" transform="translate(-310.662 -208.569)" fill="#263238"/>
      <path id="Path_7040" data-name="Path 7040" d="M390.2,346.58l1.242,31.208,3.139,29.872,33.187-1.417-2.39-58.983Z" transform="translate(-318.894 -188.613)" fill="#263238"/>
      <path id="Path_7041" data-name="Path 7041" d="M386.04,346.49l1.242,31.313,3.139,29.872,33.187-1.417-2.39-59.076Z" transform="translate(-319.607 -188.629)" fill="#455a64"/>
      <path id="Path_7042" data-name="Path 7042" d="M384.8,408.558a216.5,216.5,0,0,0,26.276-2.812c10.285-1.652,10.18-2.577,9.817-3.76-.984-3.163-18.2,2.2-15.112-1.1s21.754-4.1,20.582-7.357c-1.511-4.252-19.446,1.7-20.992,2.085s-2.109-1.851-.691-2.132c2.038-.4,23.347-5.108,21.894-9.3-.8-2.343-4.815-.375-4.815-.375s-19.657,5.857-20.278,3.9,10.813-5.857,14.749-6.912,5.049-3.292,3.21-4.686c-1.253-.925-13.39,1.921-17.255,3.034s-14.456,4.323-10.426-1.535c.07-.094.117-.187.176-.281,4.135-5.646,5.436-11.375,4.686-13.3s-3.362-1.745-4.358,0a2.5,2.5,0,0,0-.4.937,2.32,2.32,0,0,1-.152.515,35.142,35.142,0,0,1-3.514,6.22,18.743,18.743,0,0,1-4.463,4.6c-2,1.464-7.029,6.83-8.61,7.778" transform="translate(-321.479 -185.857)" fill="#ffad9d"/>
      <path id="Path_7043" data-name="Path 7043" d="M378.555,379.48,396.1,405.674l-28.923,29.5.984-47.842Z" transform="translate(-322.841 -182.973)" fill="#ec7a49"/>
    </g>
  </g>
</svg>
