<svg xmlns="http://www.w3.org/2000/svg" width="443.46" height="483" viewBox="0 0 443.46 483">
  <g id="Writing_a_letter-pana_2_" data-name="Writing a letter-pana (2)" transform="translate(-76.641 -52.582)">
    <g id="freepik--Plant--inject-60" transform="translate(414.187 190.588)">
      <path id="Path_5958" data-name="Path 5958" d="M402.355,400.157s-13.056-63.766,0-99.207h14.456s11.091,37.372,0,99.207Z" transform="translate(-372.789 -158.448)" fill="#1a2026"/>
      <g id="Group_8728" data-name="Group 8728" transform="translate(23.763 142.502)" opacity="0.7">
        <path id="Path_5959" data-name="Path 5959" d="M402.355,400.157s-13.056-63.766,0-99.207h14.456s11.091,37.372,0,99.207Z" transform="translate(-396.552 -300.95)" fill="#fff"/>
      </g>
      <path id="Path_5960" data-name="Path 5960" d="M411.244,273.2a27.535,27.535,0,0,1,23.492-13.643,26.089,26.089,0,0,1-24.4,14.389" transform="translate(-371.005 -163.804)" fill="#455a64"/>
      <path id="Path_5961" data-name="Path 5961" d="M415.2,251.118a27.546,27.546,0,0,1-6.663-26.338,26.055,26.055,0,0,1,7.127,27.411" transform="translate(-371.366 -168.305)" fill="#455a64"/>
      <path id="Path_5962" data-name="Path 5962" d="M404.455,250.59a24.034,24.034,0,0,1-14.8-18.85,22.769,22.769,0,0,1,15.563,19.55" transform="translate(-373.681 -167.404)" fill="#455a64"/>
      <path id="Path_5963" data-name="Path 5963" d="M399.637,225.27a17.574,17.574,0,0,1,5.252-16.67,16.613,16.613,0,0,1-5.353,17.393" transform="translate(-372.442 -170.399)" fill="#455a64"/>
      <path id="Path_5964" data-name="Path 5964" d="M408.548,295.309a17.517,17.517,0,0,1,10.165-14.219,16.6,16.6,0,0,1-10.492,14.9" transform="translate(-371.279 -161.018)" fill="#455a64"/>
      <path id="Path_5965" data-name="Path 5965" d="M394.533,199.73s2.609,9.769,5.647,25.818c.373,2.01.768,4.111,1.129,6.3s.734,4.518,1.129,6.855c.8,4.732,1.457,9.826,2.191,15.179,1.333,10.707,2.485,22.532,3.2,35.012s.791,24.327.644,35.125c-.147,5.4-.237,10.526-.531,15.326-.124,2.394-.2,4.71-.361,6.935s-.316,4.359-.474,6.392c-1.276,16.286-2.8,26.281-2.8,26.281v-.463c0-.3.079-.779.135-1.367.136-1.22.316-2.97.565-5.229.124-1.129.26-2.394.418-3.772l.407-4.518c.282-3.23.666-6.9.9-10.978q.2-3.049.429-6.392c.147-2.259.226-4.518.339-6.935.271-4.789.35-9.916.486-15.315.124-10.786,0-22.656-.689-35.091s-1.841-24.237-3.151-34.944c-.711-5.353-1.355-10.436-2.146-15.168-.384-2.372-.7-4.664-1.129-6.855s-.768-4.3-1.129-6.3c-.678-4.032-1.457-7.635-2.089-10.82-.328-1.581-.621-3.061-.9-4.427s-.576-2.586-.824-3.7c-.486-2.259-.87-3.942-1.129-5.139l-.282-1.333A1.877,1.877,0,0,0,394.533,199.73Z" transform="translate(-373.053 -171.547)" fill="#263238"/>
      <path id="Path_5966" data-name="Path 5966" d="M424.955,220.31a2.847,2.847,0,0,1-.09.35c-.079.248-.181.565-.3.983-.294.892-.712,2.168-1.231,3.784l-.892,2.722c-.3,1.016-.632,2.1-.994,3.275-.689,2.349-1.547,5-2.315,8-.4,1.491-.824,3.049-1.254,4.676s-.824,3.332-1.254,5.094c-.892,3.512-1.66,7.319-2.5,11.294-1.57,8-3.016,16.851-4.066,26.2s-1.525,18.319-1.739,26.473c0,4.077-.124,7.906,0,11.576,0,1.807,0,3.558.113,5.24s.147,3.3.215,4.834c.09,3.083.35,5.873.52,8.312.079,1.22.169,2.36.248,3.388s.192,1.988.282,2.857c.158,1.694.282,3.016.373,3.953a9.824,9.824,0,0,0,.079,1.028,1.128,1.128,0,0,1,0,.35,1.731,1.731,0,0,1,0-.339l-.136-1.028-.474-3.953c-.09-.858-.2-1.807-.328-2.846s-.181-2.191-.282-3.388c-.192-2.44-.474-5.229-.6-8.312-.079-1.536-.158-3.162-.248-4.845s-.09-3.388-.135-5.252c-.124-3.625,0-7.511,0-11.588.181-8.166.689-17.144,1.694-26.518s2.519-18.229,4.111-26.236c.858-4,1.638-7.793,2.552-11.294.44-1.762.836-3.467,1.276-5.094s.881-3.185,1.3-4.676c.791-2.982,1.672-5.647,2.383-7.974l1.028-3.264c.35-.994.655-1.9.949-2.722.553-1.6.994-2.857,1.31-3.75.147-.407.271-.723.35-.971a2.119,2.119,0,0,1,.056-.339Z" transform="translate(-371.322 -168.883)" fill="#263238"/>
      <path id="Path_5967" data-name="Path 5967" d="M421.4,231.033c-3.174-2.677-3.388-7.657-1.807-11.5s4.518-6.935,6.946-10.289,4.518-7.352,3.964-11.463a8.923,8.923,0,0,1-.2-2.936c.215-.96,1.129-1.864,2.112-1.581s1.129,1.242,1.344,2.1a28.428,28.428,0,0,1,.486,8.064,11.17,11.17,0,0,1,7.262-6.551,9.6,9.6,0,0,1-2.6,8.877c2.1-.87,4.348-1.762,6.584-1.333s4.235,2.812,3.388,4.924c-.949,2.406-4.235,2.451-6.776,2.914a12.288,12.288,0,0,0-7.262,4.269c-2.259,2.812-3.23,6.483-5.094,9.6s-5.444,5.828-8.9,4.71" transform="translate(-369.932 -172.39)" fill="#1a2026"/>
      <path id="Path_5968" data-name="Path 5968" d="M399.713,213.722c3.524-2.191,4.416-7.093,3.388-11.125s-3.479-7.5-5.432-11.159-3.456-7.906-2.259-11.9a8.888,8.888,0,0,0,.61-2.88c-.068-.983-.892-2.022-1.864-1.864s-1.333,1.129-1.626,1.886a28.459,28.459,0,0,0-1.615,7.906,11.125,11.125,0,0,0-6.268-7.5,9.623,9.623,0,0,0,1.321,9.16c-1.954-1.129-4.055-2.36-6.336-2.259s-4.574,2.18-4.043,4.393c.61,2.519,3.851,3.027,6.3,3.84a12.209,12.209,0,0,1,6.6,5.252c1.886,3.095,2.259,6.867,3.693,10.165s4.574,6.539,8.143,5.918" transform="translate(-375.512 -174.776)" fill="#1a2026"/>
      <path id="Path_5969" data-name="Path 5969" d="M393.27,251.71a3.714,3.714,0,0,1,.361.633l.937,1.841c.407.8.892,1.8,1.4,2.959s1.129,2.485,1.751,3.975,1.288,3.106,1.931,4.89,1.321,3.682,2.01,5.647c1.3,4.055,2.575,8.561,3.648,13.35s1.8,9.419,2.327,13.643c.226,2.112.463,4.122.587,6.008s.237,3.648.3,5.252.079,3.061.1,4.337,0,2.383,0,3.275a17.529,17.529,0,0,1-.068,2.067,5.19,5.19,0,0,1,0,.723,3.264,3.264,0,0,1,0-.723q0-.779,0-2.067c0-.858,0-2-.056-3.264s-.056-2.733-.169-4.326-.192-3.388-.373-5.24-.4-3.885-.632-5.986c-.553-4.2-1.31-8.809-2.36-13.553s-2.327-9.272-3.591-13.316c-.678-2.01-1.288-3.93-1.954-5.647s-1.276-3.388-1.875-4.9-1.129-2.824-1.672-4-.949-2.168-1.333-2.982l-.847-1.886a4.621,4.621,0,0,1-.429-.711Z" transform="translate(-373.214 -164.82)" fill="#263238"/>
      <path id="Path_5970" data-name="Path 5970" d="M397.1,262.369c1.751-1.423,1.9-4.134,1.129-6.246a28.655,28.655,0,0,0-3.693-5.647c-1.31-1.841-2.406-4.043-2.067-6.279a4.517,4.517,0,0,0,.135-1.592c-.1-.531-.621-1.028-1.129-.881s-.655.666-.757,1.129a15.508,15.508,0,0,0-.328,4.393,6.088,6.088,0,0,0-3.9-3.637,5.229,5.229,0,0,0,1.333,4.868,6.426,6.426,0,0,0-3.6-.791c-1.208.215-2.327,1.491-1.886,2.654s2.259,1.367,3.671,1.638a6.776,6.776,0,0,1,3.919,2.394c1.231,1.547,1.705,3.558,2.688,5.274s2.914,3.219,4.811,2.643" transform="translate(-374.64 -166.116)" fill="#1a2026"/>
    </g>
    <g id="freepik--Desk--inject-60" transform="translate(88.632 432.045)">
      <path id="Path_5971" data-name="Path 5971" d="M457.3,388.783c0,.146-96.6.263-215.725.263s-215.744-.117-215.744-.263,96.576-.253,215.744-.253S457.3,388.647,457.3,388.783Z" transform="translate(-25.83 -388.53)" fill="#263238"/>
    </g>
    <g id="freepik--Letter--inject-60" transform="translate(243.792 436.928)">
      <path id="Path_5972" data-name="Path 5972" d="M232.693,438.21l-5.873,6.313,193.162,3.32-4.868-39.3L247.533,421.122Z" transform="translate(-224.358 -390.865)" fill="#e0e0e0"/>
      <path id="Path_5973" data-name="Path 5973" d="M265.333,393.344l-40.263,46.7s146.823,3.208,179.576,2.993c3.829,0,18.07,0,20.691-6.675h0L413.218,393.05Z" transform="translate(-224.584 -392.869)" fill="#fafafa"/>
      <path id="Path_5974" data-name="Path 5974" d="M265.389,393.364h10.9l30.494-.136,106.435-.339h.215l.056.2c3.829,13.688,7.906,28.235,12.13,43.313v.192a8.052,8.052,0,0,1-2.88,3.388,16.038,16.038,0,0,1-4.021,1.852,40.07,40.07,0,0,1-8.764,1.479c-2.982.215-5.986.158-9.035.169h-9.092c-33.035-.3-64.376-.937-92.69-1.479l-74.066-1.57h-.429l.282-.328,29.647-34.221,8-9.193,2.067-2.36.712-.791s-.226.294-.689.847l-2.044,2.406L254.7,406.07,225.272,440.19l-.147-.328,74.066,1.446c28.235.508,59.655,1.129,92.679,1.412h9.092c3.016,0,6.02,0,8.967-.169a39.161,39.161,0,0,0,8.629-1.446,16.039,16.039,0,0,0,3.863-1.784,7.386,7.386,0,0,0,2.665-3.083v.181c-4.213-15.066-8.279-29.636-12.1-43.324l.26.2-106.334.1H266.112C265.637,393.387,265.389,393.364,265.389,393.364Z" transform="translate(-224.64 -392.89)" fill="#263238"/>
      <path id="Path_5975" data-name="Path 5975" d="M296.31,428.286a5.568,5.568,0,0,1,.136-1.423,17.516,17.516,0,0,1,1.129-3.727,18.58,18.58,0,0,1,3.016-4.913c.7-.836,1.638-1.592,1.242-2.654a16.721,16.721,0,0,0-.689-1.6,3.241,3.241,0,0,1-.271-.971,1.491,1.491,0,0,1,.339-1.129c.531-.587,1.22-.644,1.615-.96a2.406,2.406,0,0,0,.836-1.31c.3-1.073.565-2.191.836-3.208a17.116,17.116,0,0,1,.915-2.936,4.02,4.02,0,0,1,.836-1.186,2.259,2.259,0,0,1,1.265-.576l-.113.373a2.428,2.428,0,0,1-.768-2.259,2.88,2.88,0,0,1,.734-1.592,2.078,2.078,0,0,1,.937-.587.993.993,0,0,1,.384,0,2.541,2.541,0,0,0-1.728,2.259,2.112,2.112,0,0,0,.7,1.841l.407.316-.508.056a2.338,2.338,0,0,0-1.705,1.559,16.488,16.488,0,0,0-.824,2.857c-.26,1.039-.5,2.1-.824,3.253a2.993,2.993,0,0,1-1.039,1.615c-.576.384-1.208.486-1.5.858a1.435,1.435,0,0,0,0,1.434,15.176,15.176,0,0,1,.712,1.672,2.858,2.858,0,0,1,.079.983,2.259,2.259,0,0,1-.373.892,14.669,14.669,0,0,1-1.129,1.288,19.2,19.2,0,0,0-3.038,4.732A31.541,31.541,0,0,0,296.31,428.286Z" transform="translate(-215.366 -392.28)" fill="#263238"/>
      <path id="Path_5976" data-name="Path 5976" d="M315.285,397.73a4.934,4.934,0,0,1-.181,1.288c-.158.824-.4,2.022-.723,3.479a75.809,75.809,0,0,1-3.332,11.294c-1.66,4.314-4.021,7.782-5.274,10.481a35.009,35.009,0,0,0-1.705,4.518,3.985,3.985,0,0,1,.181-1.3,18.394,18.394,0,0,1,1.129-3.388c1.129-2.79,3.467-6.268,5.094-10.515a97.364,97.364,0,0,0,3.479-11.136l.915-3.388A5.648,5.648,0,0,1,315.285,397.73Z" transform="translate(-214.361 -392.264)" fill="#263238"/>
      <path id="Path_5977" data-name="Path 5977" d="M322.951,396.27a5.31,5.31,0,0,1-.407,1.344l-1.3,3.6c-1.129,3.038-2.6,7.24-4.179,11.9s-2.959,8.775-4.021,11.96c-.508,1.434-.926,2.643-1.265,3.614a6.868,6.868,0,0,1-.531,1.3,6.36,6.36,0,0,1,.316-1.378c.237-.87.61-2.123,1.129-3.671.949-3.083,2.259-7.352,3.874-12.017s3.14-8.855,4.337-11.859c.61-1.5,1.129-2.711,1.48-3.535a7.9,7.9,0,0,1,.565-1.265Z" transform="translate(-213.432 -392.453)" fill="#263238"/>
      <path id="Path_5978" data-name="Path 5978" d="M328.056,398.52a6.772,6.772,0,0,1-.068,1.355c-.09.87-.226,2.123-.531,3.659a19.276,19.276,0,0,1-.644,2.485c-.271.892-.7,1.784-.994,2.733a5.015,5.015,0,0,0-.248,1.48,9.194,9.194,0,0,0,.2,1.581,3.817,3.817,0,0,1,0,1.818,4.156,4.156,0,0,1-1.039,1.57c-.836.858-1.852,1.547-2.146,2.485a2.259,2.259,0,0,0,.135,1.446,3.388,3.388,0,0,1,.136,1.683,15.807,15.807,0,0,1-.983,2.8l-.983,2.349c-.576,1.344-1.05,2.473-1.446,3.388a5.311,5.311,0,0,1-.61,1.22,6.649,6.649,0,0,1,.4-1.3l1.276-3.456.915-2.383a16.465,16.465,0,0,0,.9-2.7,2.745,2.745,0,0,0-.147-1.434,2.823,2.823,0,0,1-.147-1.773,7.646,7.646,0,0,1,2.259-2.733,3.727,3.727,0,0,0,.892-1.344,3.105,3.105,0,0,0,0-1.547,9.038,9.038,0,0,1-.2-1.683,5.837,5.837,0,0,1,.294-1.626c.339-1.005.768-1.875,1.05-2.733a20.087,20.087,0,0,0,.7-2.417C327.672,400.429,327.887,398.5,328.056,398.52Z" transform="translate(-212.45 -392.162)" fill="#263238"/>
      <path id="Path_5979" data-name="Path 5979" d="M327.359,433.441a5.566,5.566,0,0,1-.3-1.4,15.391,15.391,0,0,1,0-3.908,15.813,15.813,0,0,1,1.807-5.523,17.437,17.437,0,0,0,1.57-2.925c.35-1.039-.294-2.157-.339-3.512a12.31,12.31,0,0,1,.757-3.648c.3-1.129.6-2.259.892-3.264.542-2.067,1.039-3.942,1.468-5.557s.768-2.744,1.039-3.738a6.2,6.2,0,0,1,.463-1.355,6.877,6.877,0,0,1-.237,1.4c-.226,1.016-.52,2.259-.858,3.795s-.813,3.49-1.355,5.647c-.271,1.05-.565,2.157-.87,3.3a12.638,12.638,0,0,0-.712,3.467,8.354,8.354,0,0,0,.3,1.762,3.772,3.772,0,0,1,0,1.909,15.934,15.934,0,0,1-1.649,3.038,16.172,16.172,0,0,0-1.864,5.32A24.553,24.553,0,0,0,327.359,433.441Z" transform="translate(-211.403 -392.15)" fill="#263238"/>
      <path id="Path_5980" data-name="Path 5980" d="M334.9,433.408a7.68,7.68,0,0,1,.158-1.423c.169-1.016.384-2.259.644-3.817l2.2-12.6c.418-2.462.791-4.811,1.129-6.946s.531-4.032.757-5.647.407-2.812.565-3.84a6.7,6.7,0,0,1,.282-1.4,5.916,5.916,0,0,1,0,1.423c-.1,1.028-.226,2.327-.373,3.863s-.407,3.6-.632,5.726-.655,4.518-1.073,6.968c-.824,4.936-1.705,9.374-2.372,12.582-.328,1.6-.61,2.891-.824,3.784a5.85,5.85,0,0,1-.463,1.333Z" transform="translate(-210.372 -392.264)" fill="#263238"/>
      <path id="Path_5981" data-name="Path 5981" d="M342.19,434.761a9.162,9.162,0,0,1,.181-1.525l.7-4.111c.621-3.467,1.5-8.256,2.53-13.553.508-2.632,1.005-5.139,1.446-7.431a12.424,12.424,0,0,0,.271-3.219c-.079-.994-.361-1.943-.384-2.869a4.517,4.517,0,0,1,1.818-3.75,3.885,3.885,0,0,1,1.016-.553,1.266,1.266,0,0,1,.384-.09,9.782,9.782,0,0,0-1.254.825,4.359,4.359,0,0,0-1.547,3.558c0,.847.339,1.762.452,2.835a13.156,13.156,0,0,1-.215,3.388c-.44,2.259-.915,4.823-1.412,7.454-1.028,5.286-1.976,10.052-2.7,13.553-.35,1.638-.644,3-.881,4.077a7.286,7.286,0,0,1-.407,1.412Z" transform="translate(-209.428 -392.273)" fill="#263238"/>
      <path id="Path_5982" data-name="Path 5982" d="M351.931,433.288a1.683,1.683,0,0,0,.892-1.129,3.242,3.242,0,0,0-.09-1.683,8.628,8.628,0,0,0-1.129-2.044,3.8,3.8,0,0,1-.678-2.88c.339-1.129,1.468-1.751,2.089-2.6a1.773,1.773,0,0,0,.339-1.468c-.1-.553-.361-1.129-.52-1.773a2.5,2.5,0,0,1,.373-2.044c.384-.587.892-1.039,1.265-1.547a1.92,1.92,0,0,0,.452-1.6,4.065,4.065,0,0,0-.9-1.513,17.224,17.224,0,0,1-1.186-1.468,2.733,2.733,0,0,1-.542-1.841c.192-1.333,1.129-2.089,1.423-3a5.071,5.071,0,0,0-.1-2.7,10.593,10.593,0,0,1-.429-2.349,4.01,4.01,0,0,1,.35-1.8c.486-.949,1.129-1.039,1.129-1.016a2.722,2.722,0,0,0-.937,1.129,4,4,0,0,0-.226,1.694,11.064,11.064,0,0,0,.508,2.259,5.331,5.331,0,0,1,.158,2.948c-.328,1.129-1.242,1.886-1.344,2.914s.813,1.931,1.626,2.88a4.258,4.258,0,0,1,1.028,1.762,2.507,2.507,0,0,1-.542,2.089c-.429.553-.915,1.005-1.254,1.5a1.954,1.954,0,0,0-.294,1.615c.124.565.4,1.129.508,1.8a2.259,2.259,0,0,1-.452,1.875c-.779.983-1.8,1.513-2.056,2.417a3.388,3.388,0,0,0,.565,2.541,8.55,8.55,0,0,1,1.039,2.157,3.389,3.389,0,0,1,0,1.841,1.536,1.536,0,0,1-.723.9A.7.7,0,0,1,351.931,433.288Z" transform="translate(-208.305 -392.122)" fill="#263238"/>
      <path id="Path_5983" data-name="Path 5983" d="M360.035,434.154a16.477,16.477,0,0,0,1.129-5.026,31.89,31.89,0,0,0-.35-5.647c-.294-2.1-.655-4.439-.847-6.9a70.6,70.6,0,0,1,.1-12.638c.158-1.615.361-2.914.508-3.806a6.9,6.9,0,0,1,.3-1.367,5.959,5.959,0,0,1-.079,1.4c-.079.9-.215,2.191-.316,3.806a83.572,83.572,0,0,0,.068,12.559c.192,2.44.531,4.755.791,6.878a28.88,28.88,0,0,1,.226,5.7,11.9,11.9,0,0,1-.87,3.75,5.97,5.97,0,0,1-.463.937A1.517,1.517,0,0,1,360.035,434.154Z" transform="translate(-207.158 -392.129)" fill="#263238"/>
      <path id="Path_5984" data-name="Path 5984" d="M367.77,398.27a1.783,1.783,0,0,1,.237.282,5.475,5.475,0,0,1,.463.96,8.9,8.9,0,0,1,.5,3.851,39.031,39.031,0,0,1-1.028,5.647,22.914,22.914,0,0,0-.339,6.889c.192,2.451.576,4.8.847,6.935l.734,5.647q.248,2.259.44,3.829a6.05,6.05,0,0,1,.079,1.412,6.905,6.905,0,0,1-.3-1.378c-.169-1.016-.384-2.259-.632-3.806s-.542-3.558-.858-5.647-.689-4.461-.892-6.957a22.836,22.836,0,0,1,.4-7.047,47.2,47.2,0,0,0,1.129-5.557,9.623,9.623,0,0,0-.3-3.761C368,398.722,367.724,398.293,367.77,398.27Z" transform="translate(-206.231 -392.194)" fill="#263238"/>
      <path id="Path_5985" data-name="Path 5985" d="M283.147,449.25,254.11,479.62,362.8,484.013l18.048-31.239Z" transform="translate(-220.826 -385.597)" fill="#ebebeb"/>
      <path id="Path_5986" data-name="Path 5986" d="M283.2,449.253h1.852l5.387.158,20.228.655,70.238,2.417h.44l-.215.373-18.07,31.251-.079.147h-.169l-8.471-.35-100.223-4.134h-.44l.361-.3,21.346-22.182,5.805-6,1.513-1.547.52-.508s-.158.2-.5.565l-1.491,1.592L275.5,457.5l-21.165,22.261-.124-.339,100.223,3.976,8.471.35-.248.135,18.07-31.239.226.4L310.817,450.4l-20.262-.813-5.41-.226-1.4-.079Z" transform="translate(-220.882 -385.599)" fill="#263238"/>
      <path id="Path_5987" data-name="Path 5987" d="M372.157,452.331c0,.147-11.294,3.388-25.355,7.307s-25.457,6.912-25.5,6.776,11.294-3.388,25.355-7.307S372.112,452.184,372.157,452.331Z" transform="translate(-212.132 -385.199)" fill="#263238"/>
      <path id="Path_5988" data-name="Path 5988" d="M302.939,464.949c-.09.124-5.331-3.287-11.712-7.624s-11.486-7.906-11.407-8.075,5.331,3.287,11.723,7.624S303.029,464.78,302.939,464.949Z" transform="translate(-217.499 -385.597)" fill="#263238"/>
      <path id="Path_5989" data-name="Path 5989" d="M354.072,481.892s-34.729-22.294-41.506-24.463A54.062,54.062,0,0,0,298.9,455.17Z" transform="translate(-215.03 -384.831)" opacity="0.3"/>
      <path id="Path_5990" data-name="Path 5990" d="M254.11,478.974s43.855-25.005,47.311-24.734S362.8,483.334,362.8,483.334Z" transform="translate(-220.826 -384.951)" fill="#f5f5f5"/>
      <path id="Path_5991" data-name="Path 5991" d="M362.795,483.363a1.6,1.6,0,0,1-.294-.113l-.836-.4-3.174-1.559-11.667-5.76-17.336-8.5c-6.539-3.162-13.722-6.652-21.38-10.029a60.657,60.657,0,0,0-5.749-2.259,2.666,2.666,0,0,0-1.367-.169,11.036,11.036,0,0,0-1.4.429c-.926.35-1.841.745-2.733,1.129-3.591,1.638-6.98,3.388-10.165,5.071-6.426,3.388-12.164,6.517-16.941,9.171l-11.384,6.3-3.095,1.717-.813.429-.282.136a1.29,1.29,0,0,1,.26-.181l.779-.486,3.049-1.8c2.654-1.547,6.505-3.772,11.294-6.471s10.515-5.873,16.941-9.272c3.219-1.694,6.607-3.456,10.165-5.116a29.57,29.57,0,0,1,2.767-1.129,10.423,10.423,0,0,1,1.491-.463,3.264,3.264,0,0,1,1.626.181,58.958,58.958,0,0,1,5.805,2.259c7.68,3.388,14.863,6.889,21.391,10.074s12.423,6.133,17.28,8.617l11.554,5.929,3.14,1.649.8.44Z" transform="translate(-220.817 -384.981)" fill="#263238"/>
    </g>
    <g id="freepik--Character--inject-60" transform="translate(76.641 52.581)">
      <path id="Path_5992" data-name="Path 5992" d="M323.981,237.039,274.05,208.25,152.187,219.917l-3.117,50.812L160.68,409.4l126.143,2.767H333.1l.52-15.834,2.823-41.02Z" transform="translate(-67.268 -32.437)" fill="#1a2026"/>
      <path id="Path_5993" data-name="Path 5993" d="M259.73,208.25s41.178-.4,62.388,28.235c6.517,8.787,73.841,92.769,71.435,133.5-1.129,19.437-14.592,42.217-14.592,42.217H317.917l-33.6-165.074L259.73,208.25" transform="translate(-52.948 -32.437)" fill="#1a2026"/>
      <path id="Path_5994" data-name="Path 5994" d="M306.453,403.348a1.4,1.4,0,0,1,.079-.373c.079-.282.181-.632.3-1.129.294-.983.712-2.383,1.231-4.167l.9-3.016c.3-1.129.565-2.338.881-3.637.587-2.62,1.412-5.557,1.909-8.9l.915-5.229c.3-1.807.452-3.727.7-5.647.565-3.93.712-8.177.983-12.627a163.457,163.457,0,0,0-8.143-57.193c-1.491-4.2-2.824-8.233-4.518-11.847-.791-1.83-1.468-3.625-2.259-5.286l-2.338-4.755c-1.412-3.072-3.027-5.647-4.314-8.019-.678-1.129-1.265-2.259-1.864-3.241l-1.705-2.643-2.338-3.671c-.248-.4-.452-.712-.6-.96a1.422,1.422,0,0,1-.192-.339,2.166,2.166,0,0,1,.237.3c.169.237.384.542.644.937.587.847,1.4,2.056,2.44,3.6.531.791,1.129,1.66,1.751,2.62s1.22,2.067,1.909,3.23c1.321,2.338,2.959,4.924,4.4,8l2.372,4.755c.813,1.649,1.5,3.456,2.259,5.274,1.66,3.625,3.016,7.657,4.518,11.87a161.731,161.731,0,0,1,8.166,57.385c-.282,4.461-.463,8.719-1.039,12.661-.26,1.976-.418,3.885-.745,5.715s-.644,3.558-.949,5.218c-.531,3.388-1.378,6.3-2,8.911-.339,1.3-.61,2.53-.926,3.637s-.666,2.089-.949,2.993c-.576,1.773-1.028,3.162-1.344,4.156l-.361,1.129a1.321,1.321,0,0,1-.023.282Z" transform="translate(-49.537 -25.653)" fill="#263238"/>
      <g id="Group_8729" data-name="Group 8729" transform="translate(255.651 321.619)" opacity="0.3">
        <path id="Path_5995" data-name="Path 5995" d="M312.668,337.35A120.677,120.677,0,0,1,303,395.458l11.294-.282A102.313,102.313,0,0,0,312.668,337.35Z" transform="translate(-303 -337.35)"/>
      </g>
      <path id="Path_6000" data-name="Path 6000" d="M263.569,188.032,295.949,184l33.024,23.356s5.647,41.585,6.7,44.962,10.413,21.459,10.413,21.459a12.887,12.887,0,0,0-11.226,2.259c-4.777,3.58-17.212,14.942-21.143,16.422,0,0-6.1-18.488-6.031-26.338s-2.123-25.807-2.123-25.807l-2.8-11.667-8.651-9.8-11.565-1.288s-3.3,6.776-8.279,3.49l-4.71-4.292,8.12-6.065s-10.165,7.228-13.959,1.468l-1.3-2.575,7.409-3.716s-6.878,2.733-7.906-.9l8.5-9.035S261.321,193.916,263.569,188.032Z" transform="translate(-52.665 -35.575)" fill="#ffbe9d"/>
      <path id="Path_6001" data-name="Path 6001" d="M269,195.988a4.824,4.824,0,0,1,.926-.915A12.583,12.583,0,0,1,273,193.289c2.8-1.062,6.686-2.259,11-3.7s8.166-2.677,11.091-3.388a4.348,4.348,0,0,1,3.512.587c.7.542.813,1.05.779,1.05a3.524,3.524,0,0,0-.926-.824,4.235,4.235,0,0,0-3.264-.339c-2.79.836-6.686,2.259-10.989,3.591l-11.023,3.512A20.735,20.735,0,0,0,269,195.988Z" transform="translate(-51.749 -35.309)" fill="#eb996e"/>
      <path id="Path_6002" data-name="Path 6002" d="M313.69,205.843a12.131,12.131,0,0,1-1.931-.9c-1.208-.621-2.948-1.57-5.037-2.835s-4.518-2.846-7.16-4.732c-1.333-.937-2.609-2.044-4.3-2.2a36.3,36.3,0,0,0-5.353-.2,16.59,16.59,0,0,0-5.2,1.028,30.912,30.912,0,0,0-4.427,2.315c-2.778,1.649-5.263,3.14-7.409,4.326a56.989,56.989,0,0,1-5.173,2.586,15.261,15.261,0,0,1-1.468.565,1.92,1.92,0,0,1-.542.147,17.709,17.709,0,0,1,1.9-.949c1.208-.61,2.948-1.536,5.048-2.778s4.518-2.756,7.319-4.439a31.34,31.34,0,0,1,4.518-2.406,16.827,16.827,0,0,1,5.41-1.129,35.006,35.006,0,0,1,5.478.226,6.189,6.189,0,0,1,2.541.915c.745.452,1.389.971,2.044,1.446,2.586,1.9,4.992,3.512,7.047,4.823s3.738,2.327,4.913,3.016a14.085,14.085,0,0,1,1.784,1.186Z" transform="translate(-52.177 -34.254)" fill="#eb996e"/>
      <path id="Path_6003" data-name="Path 6003" d="M313.216,217.243a7.805,7.805,0,0,1-1.468-.8l-3.84-2.372-5.647-3.6-3.332-2.146a32.588,32.588,0,0,0-3.614-2.146c-2.564-1.242-5.421-.915-7.906-.531s-4.8.474-6.652.813a16.343,16.343,0,0,0-5.647,2.259,1.983,1.983,0,0,1,.3-.3,8.408,8.408,0,0,1,.994-.734,12.3,12.3,0,0,1,4.247-1.683c1.9-.407,4.179-.508,6.641-.96a22.306,22.306,0,0,1,3.987-.384,9.95,9.95,0,0,1,4.269.926,31.95,31.95,0,0,1,3.671,2.259l3.309,2.18,5.568,3.727,3.727,2.552a7.8,7.8,0,0,1,1.389.949Z" transform="translate(-50.958 -32.903)" fill="#eb996e"/>
      <path id="Path_6004" data-name="Path 6004" d="M334.876,254.51l42.692,77.466a27.7,27.7,0,0,1-6.63,34.9c-5.794,4.71-13.813,12.785-21.222,12.6-22.328-.576-33.238-23.9-33.238-23.9l-12.9-89.336Z" transform="translate(-47.274 -26.451)" fill="#ffbe9d"/>
      <path id="Path_6005" data-name="Path 6005" d="M306.388,260.646c-5.455-1.547-8.538-7.4-9.7-12.954s-1.062-11.418-3.174-16.681c-1.863-4.653-5.286-8.459-8.516-12.3a12.1,12.1,0,0,1-3.038-5.274c-.373-2.022.576-4.439,2.552-5,1.5-.418,3.072.316,4.427,1.129a41.686,41.686,0,0,1,18.319,49.863" transform="translate(-50.082 -32.429)" fill="#ffbe9d"/>
      <path id="Path_6006" data-name="Path 6006" d="M306.629,270.606a3.086,3.086,0,0,1-.169-.7c-.09-.463-.215-1.129-.35-2.033-.26-1.773-.576-4.337-.791-7.533s-.407-6.991-.734-11.192a64.759,64.759,0,0,0-2.259-13.474c-.294-1.129-.745-2.146-1.129-3.208a19.548,19.548,0,0,0-1.412-2.982,54.9,54.9,0,0,0-3.388-5.263c-2.372-3.253-4.4-6.426-5.184-9.51l.192.158-8.335-.621-2.259-.2a4.066,4.066,0,0,1-.791-.113,3.84,3.84,0,0,1,.791,0l2.259.079,8.346.44h.147v.147c.8,2.982,2.812,6.065,5.207,9.306a52.491,52.491,0,0,1,3.5,5.3c.553.971.96,2.01,1.446,3.049a18.769,18.769,0,0,1,1.129,3.253,63.383,63.383,0,0,1,2.259,13.553c.316,4.224.429,8.019.621,11.215s.418,5.749.6,7.533q.158,1.254.237,2.033A3.175,3.175,0,0,1,306.629,270.606Z" transform="translate(-50.323 -31.704)" fill="#eb996e"/>
      <path id="Path_6007" data-name="Path 6007" d="M262.281,131.661c.158,0-.158,1.129-1.321,1.931s-2.338.587-2.259.44a16.958,16.958,0,0,0,1.976-.937C261.659,132.429,262.123,131.582,262.281,131.661Z" transform="translate(-53.082 -42.349)" fill="#eb996e"/>
      <path id="Path_6008" data-name="Path 6008" d="M151.157,126.313c4.224-21.346,12.367-43.279,29.444-56.753,15.213-12.051,37.846-17.178,57.216-16.422,9.532.361,20.329,4.732,28.642,9.408,11.407,6.415,16.263,19.471,21.8,31.33,11.079,23.718,9.781,55.985,2.349,64.963L191.341,211.65c-17.63-9.1-36.819-21.538-41.54-40.805C146.594,157.721,148.526,139.56,151.157,126.313Z" transform="translate(-67.39 -52.519)" fill="#2f3640"/>
      <path id="Path_6009" data-name="Path 6009" d="M184.666,85.641l62.513-18.613c20.149-2.993,34.661,21.357,36.8,41.607,2.383,22.509,4.4,50.078,2.44,67.03-3.942,34.085-29.6,43.053-29.6,43.053l.2,8.7,3.885,21.673c-14.513,15.3-63.721,7.714-77.669-14.626h0l-8.719-136.3a11.915,11.915,0,0,1,10.153-12.525Z" transform="translate(-63.979 -50.744)" fill="#ffbe9d"/>
      <path id="Path_6010" data-name="Path 6010" d="M263.3,128.791a4.337,4.337,0,0,1-4,4.518,4.156,4.156,0,0,1-4.642-3.727,4.337,4.337,0,0,1,4-4.518,4.145,4.145,0,0,1,4.642,3.727Z" transform="translate(-53.605 -43.206)" fill="#263238"/>
      <path id="Path_6011" data-name="Path 6011" d="M268.638,117.223c-.508.587-3.908-1.705-8.572-1.491s-8.007,2.688-8.538,2.146c-.26-.248.248-1.3,1.694-2.44A11.881,11.881,0,0,1,260,113.022a11.362,11.362,0,0,1,6.855,1.9C268.367,115.958,268.9,116.963,268.638,117.223Z" transform="translate(-54.018 -44.762)" fill="#263238"/>
      <path id="Path_6012" data-name="Path 6012" d="M225.75,130.121a4.348,4.348,0,0,1-4,4.518,4.156,4.156,0,0,1-4.642-3.727,4.348,4.348,0,0,1,4-4.518,4.145,4.145,0,0,1,4.642,3.727Z" transform="translate(-58.464 -43.034)" fill="#263238"/>
      <path id="Path_6013" data-name="Path 6013" d="M227.968,119.724c-.52.587-3.908-1.705-8.583-1.491s-8,2.688-8.527,2.135c-.26-.237.237-1.288,1.694-2.44a11.96,11.96,0,0,1,6.776-2.417,11.554,11.554,0,0,1,6.855,1.9C227.731,118.459,228.262,119.453,227.968,119.724Z" transform="translate(-59.281 -44.439)" fill="#263238"/>
      <path id="Path_6014" data-name="Path 6014" d="M242.789,153.731c0-.26,2.857-.892,7.533-1.683,1.129-.181,2.259-.463,2.473-1.288s-.3-2.135-.949-3.5l-3.908-8.934c-5.444-12.728-9.442-23.221-8.934-23.435s5.353,9.927,10.8,22.656c1.31,3.14,2.575,6.133,3.772,9.035.508,1.333,1.344,2.835.813,4.653a2.993,2.993,0,0,1-1.886,1.83,8.153,8.153,0,0,1-2.022.361C245.781,153.855,242.822,154,242.789,153.731Z" transform="translate(-55.636 -44.519)" fill="#263238"/>
      <path id="Path_6016" data-name="Path 6016" d="M229.1,158.006a7.533,7.533,0,0,1,6.1-3.659,9.747,9.747,0,0,1,9.035,4.032c.836.915.881,3.6.587,4.36s-.056.384-.621.915c-2.01,1.943-4.134,3.874-6.776,4.631a7.341,7.341,0,0,1-7.906-2.519A7.5,7.5,0,0,1,229.1,158.006Z" transform="translate(-57.026 -39.42)" fill="#eb996e"/>
      <path id="Path_6017" data-name="Path 6017" d="M230.372,152.66c.757-.079.983,4.992,5.478,8.414s9.871,2.632,9.939,3.332c.079.316-1.129,1.039-3.388,1.2a12.627,12.627,0,0,1-8.279-2.5,11,11,0,0,1-4.269-7.07C229.514,153.925,230.033,152.649,230.372,152.66Z" transform="translate(-56.829 -39.631)" fill="#263238"/>
      <path id="Path_6018" data-name="Path 6018" d="M229.853,106.269c-.407,1.288-5.094.892-10.549,1.784s-9.826,2.575-10.605,1.468c-.339-.531.373-1.762,2.112-3.072a18.613,18.613,0,0,1,16.117-2.473C228.972,104.71,230.034,105.659,229.853,106.269Z" transform="translate(-59.563 -46.039)" fill="#e0e0e0"/>
      <path id="Path_6019" data-name="Path 6019" d="M266.385,103.02c-.779,1.129-4.043.124-7.906.237s-7.115,1.016-7.906,0c-.35-.531.113-1.615,1.5-2.677a11.486,11.486,0,0,1,12.762-.147C266.226,101.4,266.723,102.444,266.385,103.02Z" transform="translate(-54.148 -46.63)" fill="#e0e0e0"/>
      <path id="Path_6020" data-name="Path 6020" d="M185.972,130.871c-.474-.2-19.064-5.387-18.229,13.553s19.64,14.163,19.652,13.621S185.972,130.871,185.972,130.871Z" transform="translate(-64.855 -42.553)" fill="#ffbe9d"/>
      <path id="Path_6021" data-name="Path 6021" d="M180.744,150.375c-.079-.056-.316.248-.858.531a3.3,3.3,0,0,1-2.462.158c-2.022-.644-3.851-3.738-4.088-7.138a10.819,10.819,0,0,1,.712-4.755,3.806,3.806,0,0,1,2.36-2.643,1.683,1.683,0,0,1,1.988.824c.271.508.169.892.271.926s.4-.339.2-1.129a2.089,2.089,0,0,0-.791-1.129,2.519,2.519,0,0,0-1.841-.407,4.631,4.631,0,0,0-3.309,3.083,11.193,11.193,0,0,0-.915,5.32c.294,3.806,2.406,7.285,5.173,7.906a3.558,3.558,0,0,0,2.982-.632C180.732,150.838,180.812,150.409,180.744,150.375Z" transform="translate(-64.303 -41.841)" fill="#eb996e"/>
      <path id="Path_6022" data-name="Path 6022" d="M279.444,114.732c-2.744-5.387-7.838-9.2-13.2-12.006s-11.125-4.777-16.455-7.623A56.888,56.888,0,0,1,223.2,64.225c9.137-5.128,20.736-4.992,30.279-.678S270.545,75.971,275.2,85.4s6.6,19.934,6.867,30.415" transform="translate(-57.675 -51.577)" fill="#2f3640"/>
      <path id="Path_6023" data-name="Path 6023" d="M179.917,81.268C193.47,67.5,219.571,59.222,238.014,64.8c-2.146,16-13.553,34.3-23.638,46.882s-15.812,34.4-39.236,27.919c-1.615-.452-3.388,1.062-4.856.271a5.873,5.873,0,0,1-2.349-3.388,54.211,54.211,0,0,1,11.983-55.217Z" transform="translate(-65.216 -51.228)" fill="#2f3640"/>
      <path id="Path_6024" data-name="Path 6024" d="M274.6,136.743a6.923,6.923,0,0,0,3.309-.3,12.943,12.943,0,0,0,7.081-5.647c2.18-3.275,3.016-8.109,2.394-13.158a47.71,47.71,0,0,0-1.6-7.8,82.2,82.2,0,0,0-18.319-33.453,76.8,76.8,0,0,0-6.449-6.347l-1.931-1.513a3.05,3.05,0,0,0-.712-.486,25.609,25.609,0,0,0,2.372,2.259c1.5,1.5,3.727,3.637,6.189,6.528a88.093,88.093,0,0,1,15.258,25.242c1.016,2.711,1.954,5.376,2.665,8.007a49.769,49.769,0,0,1,1.638,7.657c.644,4.913-.09,9.543-2.1,12.695a12.966,12.966,0,0,1-6.618,5.647A15.811,15.811,0,0,1,274.6,136.743Z" transform="translate(-53.124 -50.582)" fill="#2f3640"/>
      <path id="Path_6025" data-name="Path 6025" d="M129,86.733c-.248-8.877,1.864-18.15,7.669-24.847,8.143-9.329,22.7-11.881,33.8-6.573s18.138,17.754,17.833,30.076-7.544,24.034-17.98,30.562l-7.827-.6c-7.68,4.393-18.07,1.841-24.3-4.416S129.3,95.576,129,86.733Z" transform="translate(-69.868 -52.581)" fill="#2f3640"/>
      <path id="Path_6030" data-name="Path 6030" d="M231.468,150.108a13.878,13.878,0,0,1-1.976,0,13.993,13.993,0,0,0-4.518.937,13.553,13.553,0,0,0-3.987,2.428c-.9.8-1.378,1.389-1.457,1.333a4.416,4.416,0,0,1,1.129-1.626,11.588,11.588,0,0,1,4.055-2.688,11.385,11.385,0,0,1,4.8-.791,4.281,4.281,0,0,1,1.954.407Z" transform="translate(-58.15 -40.015)" fill="#eb996e"/>
      <path id="Path_6031" data-name="Path 6031" d="M220.508,136.279a4.4,4.4,0,0,1-5.478-1.129,27.488,27.488,0,0,0,2.654.994C219.186,136.438,220.451,136.11,220.508,136.279Z" transform="translate(-58.733 -41.896)" fill="#eb996e"/>
      <path id="Path_6038" data-name="Path 6038" d="M233.258,390.167,161.541,363.66l-7.68,15.45S135.915,386.632,135,410.5l10.921,16.862,85.869,3.32Z" transform="translate(-69.089 -12.326)" fill="#ffbe9d"/>
      <path id="Path_6039" data-name="Path 6039" d="M294.346,403.685c-4.947-5.094-18.432-9.894-25.366-11.475l8.233,17.562c2.259,1.751,10.955,4.834,13.824,4.913s5.941-1.807,6.3-4.653C297.656,407.626,296.041,405.424,294.346,403.685Z" transform="translate(-51.751 -8.631)" fill="#ffbe9d"/>
      <path id="Path_6040" data-name="Path 6040" d="M226.281,352.065a4.348,4.348,0,0,0,0,6.054l30.731,31.172,38.965,39.439,9.329,4-3.32-10.086-69.526-70.61a4.326,4.326,0,0,0-6.212,0Z" transform="translate(-57.436 -14.001)" fill="#ec7a49"/>
      <path id="Path_6041" data-name="Path 6041" d="M222.594,387.657l1.22-.136,27.106-3.038,6.776-2.056a11.735,11.735,0,0,1,8.877.847c6.923,3.625,20.07,11.192,24.79,18.511a8.437,8.437,0,0,1,.531,8.1l-1.9,4.122s4.145,3.174,1.22,9.521-7.635,5.365-7.635,5.365a15.631,15.631,0,0,1-10.424,5.128h-6.6a10.854,10.854,0,0,1-6.584,3.659c-4.393.734-21.538-2.959-23.254-3.535-.836-.271-19.313-7.533-19.313-7.533Z" transform="translate(-58.425 -9.963)" fill="#ffbe9d"/>
      <path id="Path_6042" data-name="Path 6042" d="M271.9,389.86a14.277,14.277,0,0,1,3.388,1.988,53.654,53.654,0,0,1,7.194,6.087,17.684,17.684,0,0,1,1.739,2.1,7.42,7.42,0,0,1,1.005,2.372,10.7,10.7,0,0,1,.248,4.28,9.543,9.543,0,0,1-.8,2.767,2.631,2.631,0,0,1-.542.9,18,18,0,0,0,.937-3.716,9.7,9.7,0,0,0-3-8.3,68.992,68.992,0,0,0-7.025-6.155C273.142,390.707,271.866,389.939,271.9,389.86Z" transform="translate(-51.373 -8.936)" fill="#eb996e"/>
      <path id="Path_6043" data-name="Path 6043" d="M284.171,411a3.221,3.221,0,0,1-1.129.124,17.084,17.084,0,0,1-3.072-.181,27.785,27.785,0,0,1-9.544-3.332,54.9,54.9,0,0,1-8.279-5.805c-1.005-.824-1.784-1.5-2.327-1.988a4.29,4.29,0,0,1-.791-.8,35.233,35.233,0,0,1,3.388,2.462,68.693,68.693,0,0,0,8.312,5.647,30.741,30.741,0,0,0,9.329,3.445C282.567,410.992,284.171,410.9,284.171,411Z" transform="translate(-53.039 -7.75)" fill="#eb996e"/>
      <path id="Path_6044" data-name="Path 6044" d="M280.422,424.349a2.608,2.608,0,0,1-1.005.068,13.622,13.622,0,0,1-2.711-.373,50.356,50.356,0,0,1-8.358-3.32c-3.2-1.457-6.065-2.8-8.132-3.795a22.145,22.145,0,0,1-3.287-1.739,24.593,24.593,0,0,1,3.467,1.355c2.1.9,5,2.191,8.188,3.648a66.759,66.759,0,0,0,8.222,3.445C279,424.27,280.433,424.248,280.422,424.349Z" transform="translate(-53.311 -5.658)" fill="#eb996e"/>
      <path id="Path_6045" data-name="Path 6045" d="M260.462,427.653a10.48,10.48,0,0,1-4.213-1.5,10.616,10.616,0,0,1-3.569-2.7c.1-.135,1.705,1.028,3.851,2.18S260.518,427.461,260.462,427.653Z" transform="translate(-53.861 -4.59)" fill="#eb996e"/>
      <path id="Path_6046" data-name="Path 6046" d="M232.1,385.93a11.062,11.062,0,0,1-2.688.768,56.979,56.979,0,0,1-6.686,1.028,55.227,55.227,0,0,1-6.776.237,11.768,11.768,0,0,1-2.79-.248,14.941,14.941,0,0,1,2.79-.169c1.717,0,4.088-.158,6.7-.4s4.958-.587,6.663-.858A14.5,14.5,0,0,1,232.1,385.93Z" transform="translate(-58.975 -9.444)" fill="#eb996e"/>
      <path id="Path_6047" data-name="Path 6047" d="M193.985,391.662c.847-4.845-15.326-19.979-26.507-14.264l1.276-7.443L163.615,218.4S122.008,221.788,105,268.534s-31.872,103.013-27.625,125.8,12.695,39.947,25.457,47.514,47.717,7.556,47.717,7.556Z" transform="translate(-76.641 -31.123)" fill="#1a2026"/>
    </g>
  </g>
</svg>
