<svg id="freepik--character-2--inject-3" xmlns="http://www.w3.org/2000/svg" width="233.745" height="507" viewBox="0 0 233.745 507">
  <path id="Path_6673" data-name="Path 6673" d="M474.3,350.6c1.5-.331,13.625,56.7,12.031,78.881S474.3,528.735,474.3,528.735H349.58s-15.6-74.971-12.813-97.68,17.6-82.415,17.6-82.415Z" transform="translate(-311.284 -21.735)" fill="#2f3640"/>
  <path id="Path_6674" data-name="Path 6674" d="M297.972,321.9l17.822-80.235,1.038-13.295s4.076-29.778,4.106-32.68c0-3.369,1.654-4.166,2.9-4.061,1.925.15,3.264,2.542,3.339,5.429,0,.993-.286,16.754-.286,16.754a38.215,38.215,0,0,1,3.1-4.226c2.361-2.918,7.851-4.512,13.535-4.3s7.159.8,7.174,3.008a2.782,2.782,0,0,1-1.128,2.105,5.444,5.444,0,0,1-3.715,1.233c-9.024-.256-11.475,4.512-11.475,4.512l-.135,1.729s5.519-3.85,9.851-2.151a5.5,5.5,0,0,1,1.73,1.1,7.053,7.053,0,0,1,6.016,10.528,3.008,3.008,0,0,1-2.857,1.729,3.745,3.745,0,0,1-1.579-.993,6.5,6.5,0,0,0-.8-.6l-1.053,4.828s-3.008,10.678-3.715,15.475l-4.873,79.573a19.762,19.762,0,0,1-21.251,18.513h0A19.747,19.747,0,0,1,297.972,321.9Z" transform="translate(-119.013 -100.86)" fill="#ffbe9d"/>
  <path id="Path_6675" data-name="Path 6675" d="M309.368,231a4.061,4.061,0,0,0,4.256-2.166c.917-1.5,1.308-3.173,2.105-4.677,2.391-4.512,8.091-6.647,10.257-11.279.3-.647.481-1.5-.09-1.97s-1.278-.105-1.85.211l-14.934,8.061" transform="translate(-109.986 -91.257)" fill="#ffbe9d"/>
  <path id="Path_6683" data-name="Path 6683" d="M400.18,232.94c-6.527,0-22.213,18.543-24.95,46.712-1.248,12.9-7.715,65.737-10.843,91.138A25.341,25.341,0,0,0,374.7,394.4c16.889,12.257,50.682,31.582,95.65,31.011l27.281-22.845L409.2,365.376v-2.015l-3.85-4.226,11.039-67.677S426.65,232.94,400.18,232.94Z" transform="translate(-364.2 -80.04)" fill="#ec7a49"/>
  <path id="Path_6684" data-name="Path 6684" d="M405.6,153.79c-.331,9.159-12.528,14.693-12.377,23.852,0,3.94,2.512,7.52,3.008,11.37.647,5.234-2.286,10.182-3.369,15.355-2.241,10.663,3.955,21.9,13.144,27.732s20.739,6.948,31.582,5.459" transform="translate(-346.563 -119.926)" fill="#263238"/>
  <path id="Path_6685" data-name="Path 6685" d="M392.372,152.3c-.361,4.918,2.888,9.294,6.151,12.979s6.918,7.52,7.625,12.407c1.248,8.648-7.219,16.664-5.474,25.221.947,4.587,4.692,8.272,5.369,12.9s-1.76,8.858-4.737,12.272-6.422,2.9-9.024,6.587a36.906,36.906,0,0,1-11.415,10.152c-9.49,5.189-20.859-2.316-25.431-3.67" transform="translate(-259.66 -120.677)" fill="#263238"/>
  <path id="Path_6686" data-name="Path 6686" d="M365.99,167.65c-.12-4.512,4-7.9,8.151-9.52s8.753-2.256,12.452-4.737c3.279-2.211,5.474-5.64,8.242-8.452a27.432,27.432,0,0,1,46.186,12.588c1.594,6.347.511,13.851-4.512,18.047-5.805,4.9-14.408,3.8-21.837,2.286s-15.866-3.008-22.078,1.354c-3.745,2.632-5.9,6.918-8.181,10.873s-5.158,8.016-9.49,9.5-10.212-1.083-10.377-5.655" transform="translate(-308.79 -128.522)" fill="#263238"/>
  <path id="Path_6687" data-name="Path 6687" d="M410.061,264.188c0-10.227.12-20.2.12-20.138s16.242-2.737,19.551-23.942c1.639-10.527,1.083-27.823.15-41.96-.827-12.708-9.279-28.289-21.957-26.92L368.387,161.3a7.52,7.52,0,0,0-6.662,7.52h0l3.624,96.011a22.348,22.348,0,0,0,22.785,21.506h0a22.348,22.348,0,0,0,21.927-22.153Z" transform="translate(-293.621 -121.259)" fill="#ffbe9d"/>
  <path id="Path_6688" data-name="Path 6688" d="M372.209,177.984a2.737,2.737,0,0,1-2.617,2.752,2.6,2.6,0,0,1-2.812-2.451,2.737,2.737,0,0,1,2.617-2.752,2.617,2.617,0,0,1,2.812,2.451Z" transform="translate(-242.654 -108.973)" fill="#263238"/>
  <path id="Path_6689" data-name="Path 6689" d="M375.563,176.058c-.331.346-2.391-1.173-5.324-1.158s-5.068,1.5-5.384,1.128.2-.8,1.128-1.5a7.369,7.369,0,0,1,4.3-1.354,7.2,7.2,0,0,1,4.241,1.369C375.427,175.26,375.728,175.922,375.563,176.058Z" transform="translate(-243.015 -110.16)" fill="#263238"/>
  <path id="Path_6690" data-name="Path 6690" d="M391.1,178.474a2.707,2.707,0,0,1-2.617,2.737,2.6,2.6,0,0,1-2.812-2.436,2.737,2.737,0,0,1,2.617-2.752,2.6,2.6,0,0,1,2.812,2.451Z" transform="translate(-289.954 -108.727)" fill="#263238"/>
  <path id="Path_6691" data-name="Path 6691" d="M394.684,176.447c-.331.361-2.391-1.158-5.324-1.143s-5.068,1.5-5.384,1.128.181-.812,1.128-1.5a7.52,7.52,0,0,1,4.3-1.338,7.2,7.2,0,0,1,4.241,1.353C394.549,175.711,394.85,176.3,394.684,176.447Z" transform="translate(-290.892 -109.948)" fill="#263238"/>
  <path id="Path_6692" data-name="Path 6692" d="M373.343,198.064a19.356,19.356,0,0,1,4.752-.857c.752-.09,1.5-.241,1.579-.737a3.8,3.8,0,0,0-.5-2.226l-2.226-5.685c-3.083-8.091-5.324-14.739-4.993-14.859s3.1,6.332,6.181,14.423l2.121,5.73a4.3,4.3,0,0,1,.331,2.857,1.85,1.85,0,0,1-1.233,1.1,4.633,4.633,0,0,1-1.263.18A19.13,19.13,0,0,1,373.343,198.064Z" transform="translate(-258.888 -109.893)" fill="#263238"/>
  <path id="Path_6693" data-name="Path 6693" d="M403.829,215.44a54.006,54.006,0,0,1-28.409-7.52c.241,0,7.82,14.723,28.138,12.513Z" transform="translate(-287.268 -92.648)" fill="#eb996e"/>
  <path id="Path_6694" data-name="Path 6694" d="M386.151,195.252a5.249,5.249,0,0,0-4.722-1.94,4.783,4.783,0,0,0-3.324,1.79,3.008,3.008,0,0,0-.226,3.489,3.564,3.564,0,0,0,3.835.963,11.038,11.038,0,0,0,3.73-2.181,3.307,3.307,0,0,0,.842-.872.947.947,0,0,0,0-1.083" transform="translate(-272.914 -100.028)" fill="#ec7a49"/>
  <path id="Path_6695" data-name="Path 6695" d="M376.8,191.26c.481,0,.5,3.143,3.218,5.4s6.106,1.895,6.121,2.331c0,.2-.752.617-2.181.662a7.911,7.911,0,0,1-5.113-1.775,6.858,6.858,0,0,1-2.481-4.512C376.224,192.027,376.585,191.245,376.8,191.26Z" transform="translate(-270.943 -101.044)" fill="#263238"/>
  <path id="Path_6696" data-name="Path 6696" d="M396.352,172.82c-.286.782-3.2.421-6.632.842s-6.211,1.354-6.677.647c-.2-.346.286-1.083,1.4-1.865a11.746,11.746,0,0,1,10.136-1.143C395.781,171.813,396.352,172.429,396.352,172.82Z" transform="translate(-291.191 -111.434)" fill="#263238"/>
  <path id="Path_6697" data-name="Path 6697" d="M375.433,170.459c-.526.662-2.542,0-4.963,0s-4.512.451-4.948-.241c-.211-.331.12-1.008,1.008-1.639a6.978,6.978,0,0,1,4.03-1.1,6.828,6.828,0,0,1,3.955,1.339C375.373,169.452,375.659,170.129,375.433,170.459Z" transform="translate(-243.968 -113.029)" fill="#263238"/>
  <path id="Path_6698" data-name="Path 6698" d="M378.427,233.754c5.835,1.173,6.347-1.79,10.708-5.835a19.13,19.13,0,0,0,5.85-16.152c-.647-5.219-3.459-10.528-1.654-15.43,2.391-6.527,11.52-8.527,13.941-15.039,1.414-3.775.15-8.2,1.745-11.911,1.5-3.474,5.158-5.489,8.723-6.768s7.4-2.181,10.392-4.512,4.858-6.723,2.933-9.986a200.4,200.4,0,0,0-46.321,11.264c-3.474,1.293-7.1,2.842-9.144,5.91s-2.06,7.52-1.88,11.37l2.662,57.149" transform="translate(-312.624 -122.783)" fill="#263238"/>
  <path id="Path_6699" data-name="Path 6699" d="M447.348,181.223a16.273,16.273,0,0,0-30.785-5.625c-3.008,6.016-1.925,13.265.827,19.356,3.264,7.219,9.956,13.821,17.882,13.46,7.52-.331,13.46-6.888,15.611-14.032s1.278-14.8.391-22.213" transform="translate(-394.824 -113.505)" fill="#263238"/>
  <path id="Path_6705" data-name="Path 6705" d="M302.9,236.345l37.6-9.565h44.817s23.236,1.338,36.094,12.753a28.408,28.408,0,0,1,7.053,11.535l19.912,45.584L458.6,239.5l35.763,5.083-5.715,98.327A48.321,48.321,0,0,1,450.6,385.384l-20.378-22.92c-2.361,18.664-4.437,34.666-4.647,34.455-.5-.5-111.411-7.219-111.411-7.219L325.4,351.741Z" transform="translate(-268.739 -83.144)" fill="#ec7a49"/>
  <path id="Path_6706" data-name="Path 6706" d="M301.61,157.181A25.642,25.642,0,1,1,338.426,180c0,3.008,0,6.467,0,6.467l-22.469.241s-.181-3.64-.256-6.873a25.567,25.567,0,0,1-14.092-22.649Z" transform="translate(-125.328 -131.273)" fill="#ec7a49"/>
  <path id="Path_6708" data-name="Path 6708" d="M312.724,171.953l19.3-.2a1.5,1.5,0,0,0,1.429-1.5h0a1.5,1.5,0,0,0-1.5-1.5l-19.22.376a1.5,1.5,0,0,0-1.5,1.5h0A1.5,1.5,0,0,0,312.724,171.953Z" transform="translate(-120.335 -112.387)" fill="#263238"/>
  <path id="Path_6709" data-name="Path 6709" d="M312.753,171.806l19.28-.2a1.5,1.5,0,1,1,0,2.887h-2.121l-2.752,5.369a1.88,1.88,0,0,1-1.639,1.023l-6.9.075a1.835,1.835,0,0,1-1.654-1.008l-2.8-5.294h-1.429a1.5,1.5,0,1,1,0-2.9Z" transform="translate(-120.274 -110.976)" fill="#263238"/>
  <path id="Path_6721" data-name="Path 6721" d="M498.158,284.25s-21.6,102.854-21.6,101.5-108.974,4.677-128.48,5.534l-4.06-.993-30.77-28.319,35.387-2.9L361.3,286.686Z" transform="translate(-288.098 -54.183)" fill="#e0e0e0"/>
  <path id="Path_6726" data-name="Path 6726" d="M401.072,361.151h0l1.4-16.739a5.219,5.219,0,0,0-6.016,5.384V339.419s-6.377-1.4-7.775,6.978a59.692,59.692,0,0,1-3.384,12.9l-3.4,1.85,3.218-19.31s-6.768.6-7.971,6.978a62.025,62.025,0,0,1-3.008,10.858l-10.708,3.008s6.136-5.489,5.549-7.279-.211-1.684-1.4-1.94a11.325,11.325,0,0,0-5.715,1.5c-1.955,1.038-13.235,7.715-13.235,7.715v8.272s26.259,1.895,32.184.782l11.49-2.647A12.2,12.2,0,0,0,401.072,361.151Z" transform="translate(-245.619 -26.426)" fill="#ffbe9d"/>
  <path id="Path_6727" data-name="Path 6727" d="M356.578,319.548a7.279,7.279,0,1,0,8.467-6.783A7.685,7.685,0,0,0,356.578,319.548Z" transform="translate(-226.211 -39.837)" fill="#fafafa"/>
  <path id="Path_6729" data-name="Path 6729" d="M427.768,237.73c-.887-2.827-.09-5.865.406-8.8s.572-6.271-1.414-8.467-5.264-2.451-8.211-2.587l-36.4-1.579c-2.481-.105-5.369,0-6.918,1.895a5.309,5.309,0,0,0-1.278,4.512c1.865,6.933,1.278,12.768-1.5,17.656" transform="translate(-307.447 -88.44)" fill="#ec7a49"/>
</svg>
