<svg xmlns="http://www.w3.org/2000/svg" width="351.368" height="409.954" viewBox="0 0 351.368 409.954">
  <g id="Visual_data-pana_1_" data-name="Visual data-pana (1)" transform="translate(-70.64 -52.13)">
    <g id="freepik--back-screens--inject-16">
      <path id="Path_8643" data-name="Path 8643" d="M203.71,80.3c-37.07,2.69-77.55,7.6-107.23,19l9.38,63.43s57.52-20.59,104.33-19.16Z" fill="#ec7a49"/>
      <g id="Group_8842" data-name="Group 8842" opacity="0.8">
        <path id="Path_8644" data-name="Path 8644" d="M203.71,80.3c-37.07,2.69-77.55,7.6-107.23,19l9.38,63.43s57.52-20.59,104.33-19.16Z" fill="#fff"/>
      </g>
      <path id="Path_8645" data-name="Path 8645" d="M201,135.2l-.36.06-1.05.15-4,.5c-1.76.21-3.91.47-6.4.83s-5.33.72-8.45,1.24a493.091,493.091,0,0,0-48.43,10c-6.5,1.68-12.77,3.41-18.5,5.21l-.29.08v-.29c-2-14.54-3.94-27.08-5.43-36-.76-4.42-1.37-8-1.79-10.41-.21-1.19-.37-2.12-.49-2.78a3.659,3.659,0,0,0-.11-.72.8.8,0,0,1,0-.25,1,1,0,0,1,.07.24,3.946,3.946,0,0,0,.16.71c.13.66.32,1.58.57,2.77.48,2.41,1.15,5.94,1.93,10.38,1.58,8.88,3.58,21.42,5.62,36l-.33-.2c5.75-1.82,12-3.56,18.53-5.24a472.254,472.254,0,0,1,48.5-9.82c3.13-.49,6-.82,8.47-1.15s4.65-.57,6.41-.75l4.06-.41,1.06-.09a1.391,1.391,0,0,1,.25-.06Z" fill="#ec7a49"/>
      <path id="Path_8646" data-name="Path 8646" d="M202.3,119.78s-.14-.44-.43-1.27a13.31,13.31,0,0,0-1.91-3.27,16.61,16.61,0,0,0-4.5-3.95c-.48-.32-1.05-.56-1.6-.85a14.321,14.321,0,0,0-1.81-.65,9.9,9.9,0,0,0-4.13-.4,8.6,8.6,0,0,0-4.2,1.65,14.23,14.23,0,0,0-3.36,3.65c-2,2.89-3.21,6.41-4.71,10.06a12.49,12.49,0,0,1-3.49,5,6.55,6.55,0,0,1-2.89,1.39,5.87,5.87,0,0,1-3.26-.38c-4.22-1.67-6.1-6.54-10.37-8a8.37,8.37,0,0,0-6.33.52,8.1,8.1,0,0,0-2.51,1.94,13,13,0,0,0-1.67,2.68c-.95,1.88-1.67,4-3.28,5.45a4.88,4.88,0,0,1-2.88,1.29,5.75,5.75,0,0,1-3-.64,10.87,10.87,0,0,1-4.14-4.07,36,36,0,0,1-2.19-5,23.531,23.531,0,0,0-2.17-4.51,9,9,0,0,0-3.31-3.08,8.6,8.6,0,0,0-7.6-.22,12.85,12.85,0,0,0-4.83,3.48,9.37,9.37,0,0,0-1.81,3.31c-.26.83-.29,1.3-.33,1.29a5.66,5.66,0,0,1,.23-1.32,9,9,0,0,1,1.75-3.41,13,13,0,0,1,4.87-3.62,8.88,8.88,0,0,1,7.89.17,9.34,9.34,0,0,1,3.48,3.18,23.719,23.719,0,0,1,2.23,4.58,36.141,36.141,0,0,0,2.19,4.91,10.33,10.33,0,0,0,4,3.88,5.27,5.27,0,0,0,2.75.59,4.45,4.45,0,0,0,2.59-1.18c1.48-1.35,2.2-3.39,3.15-5.3a13.45,13.45,0,0,1,1.74-2.8,8.58,8.58,0,0,1,2.67-2.06,8.87,8.87,0,0,1,6.73-.55c2.27.75,3.9,2.5,5.41,4.08a15.13,15.13,0,0,0,5,4,5.37,5.37,0,0,0,3,.35,6.14,6.14,0,0,0,2.67-1.28,12.18,12.18,0,0,0,3.36-4.8c1.49-3.61,2.8-7.18,4.8-10.11a14.17,14.17,0,0,1,3.48-3.74,9.08,9.08,0,0,1,4.39-1.69,10.3,10.3,0,0,1,4.26.45,14.441,14.441,0,0,1,1.85.69,17.24,17.24,0,0,1,6.13,5,12.829,12.829,0,0,1,1.85,3.37,9.288,9.288,0,0,1,.26,1Q202.314,119.685,202.3,119.78Z" fill="#ec7a49"/>
      <path id="Path_8647" data-name="Path 8647" d="M104.05,111.45c0,.14-.46.35-1.08.47s-1.15.1-1.17,0,.45-.35,1.07-.47S104,111.31,104.05,111.45Z" fill="#ec7a49"/>
      <path id="Path_8648" data-name="Path 8648" d="M105.69,123c.06.14-.3.43-.81.67s-1,.32-1,.19.31-.42.82-.66S105.63,122.9,105.69,123Z" fill="#ec7a49"/>
      <path id="Path_8649" data-name="Path 8649" d="M107.74,135.69c0,.14-.33.39-.84.57s-1,.21-1,.08.33-.39.84-.57S107.69,135.56,107.74,135.69Z" fill="#ec7a49"/>
      <path id="Path_8650" data-name="Path 8650" d="M110.2,148.13c0,.14-.39.4-1,.57s-1.06.22-1.1.08.38-.39.94-.57S110.15,148,110.2,148.13Z" fill="#ec7a49"/>
      <path id="Path_8651" data-name="Path 8651" d="M180.11,88.36a5.19,5.19,0,0,1,1.21-.28c.8-.13,2-.31,3.45-.52,3-.42,7.21-1,12.26-1.59h.24v.24c.39,4.26.85,9.16,1.33,14.36v.47h-.25l-16.57,2h-.23v-.22c-.46-4.35-.85-8-1.13-10.59-.12-1.22-.21-2.19-.29-2.93a8.4,8.4,0,0,1-.06-1,9,9,0,0,1,.18,1.06c.11.74.24,1.73.41,3,.33,2.58.78,6.16,1.33,10.46l-.25-.2,16.57-2.11-.23.28v-.21c-.46-5.2-.89-10.11-1.27-14.37l.26.21Z" fill="#ec7a49"/>
      <path id="Path_8652" data-name="Path 8652" d="M195.51,90.88c0,.16-2.85.15-6.33.53s-6.27,1-6.31.81A30.76,30.76,0,0,1,195.51,90.88Z" fill="#ec7a49"/>
      <path id="Path_8653" data-name="Path 8653" d="M195.69,94.6c0,.15-2.66.25-5.91.57s-5.89.72-5.92.57a23.181,23.181,0,0,1,5.87-1.09,22.82,22.82,0,0,1,5.96-.05Z" fill="#ec7a49"/>
      <path id="Path_8654" data-name="Path 8654" d="M191.72,97.84a10.94,10.94,0,0,1-3.38.69,11.67,11.67,0,0,1-3.43.18,11.28,11.28,0,0,1,3.37-.69,11.739,11.739,0,0,1,3.44-.18Z" fill="#ec7a49"/>
      <path id="Path_8655" data-name="Path 8655" d="M384.43,99c-36.3-11.06-66.93-20.51-108-20.25l-6.28,64.63c42.71,3.78,57,6.58,96.42,20.85Z" fill="#ec7a49"/>
      <g id="Group_8843" data-name="Group 8843" opacity="0.8">
        <path id="Path_8656" data-name="Path 8656" d="M384.43,99c-36.3-11.06-66.93-20.51-108-20.25l-6.28,64.63c42.71,3.78,57,6.58,96.42,20.85Z" fill="#fff"/>
      </g>
      <path id="Path_8657" data-name="Path 8657" d="M302.25,110.07l1.6-13.71a16.05,16.05,0,0,0-11.19,3.1A16.82,16.82,0,0,0,285.78,113a19.664,19.664,0,0,0,.05,2h0l16-1.8Z" fill="#ec7a49"/>
      <path id="Path_8658" data-name="Path 8658" d="M318.8,107.83A15.51,15.51,0,0,0,307.39,97l-.48-.1-.31-.07-.94-.14h-.08L304,110.34l-.38,3.22,15.12,5.52h0a17.322,17.322,0,0,0,.78-3.51A18.87,18.87,0,0,0,318.8,107.83Z" fill="#ec7a49"/>
      <g id="Group_8844" data-name="Group 8844" opacity="0.3">
        <path id="Path_8659" data-name="Path 8659" d="M318.8,107.83A15.51,15.51,0,0,0,307.39,97l-.48-.1-.31-.07-.94-.14h-.08L304,110.34l-.38,3.22,15.12,5.52h0a17.322,17.322,0,0,0,.78-3.51A18.87,18.87,0,0,0,318.8,107.83Z"/>
      </g>
      <path id="Path_8660" data-name="Path 8660" d="M302.48,115.1l-16,1.8c.67,7.76,6.33,14.19,13.93,15.13s14.73-4,17.23-11.4l-15.12-5.52" fill="#ec7a49"/>
      <path id="Path_8661" data-name="Path 8661" d="M370.4,111.28a8.622,8.622,0,0,1-1.41-.57c-.89-.41-2.19-1-3.81-1.65a116.378,116.378,0,0,0-12.88-4.52,117.56,117.56,0,0,0-13.34-3c-1.72-.28-3.13-.48-4.1-.61a7.76,7.76,0,0,1-1.5-.26,9.779,9.779,0,0,1,1.53.06c1,.07,2.39.22,4.13.45a96.28,96.28,0,0,1,26.31,7.5c1.6.72,2.88,1.34,3.75,1.8a9,9,0,0,1,1.32.8Z" fill="#ec7a49"/>
      <path id="Path_8662" data-name="Path 8662" d="M369.3,118a9.489,9.489,0,0,1-1.41-.58c-.89-.4-2.19-1-3.81-1.64a113.36,113.36,0,0,0-26.22-7.48c-1.72-.28-3.13-.48-4.1-.61a10.4,10.4,0,0,1-1.5-.26,7.389,7.389,0,0,1,1.53.06c1,.06,2.39.21,4.13.44a96.62,96.62,0,0,1,13.42,2.82,98.253,98.253,0,0,1,12.89,4.69c1.6.72,2.88,1.34,3.75,1.8a7.43,7.43,0,0,1,1.32.76Z" fill="#ec7a49"/>
      <path id="Path_8663" data-name="Path 8663" d="M368.2,124.77a8.62,8.62,0,0,1-1.41-.57c-.89-.4-2.19-1-3.81-1.65A118.49,118.49,0,0,0,350.1,118a119.787,119.787,0,0,0-13.34-3c-1.72-.27-3.12-.48-4.1-.61a7.76,7.76,0,0,1-1.5-.26,9.78,9.78,0,0,1,1.53.06c1,.07,2.39.22,4.13.45a96.619,96.619,0,0,1,13.42,2.82,95.418,95.418,0,0,1,12.89,4.69c1.6.72,2.88,1.34,3.75,1.8a7.91,7.91,0,0,1,1.32.82Z" fill="#ec7a49"/>
      <path id="Path_8664" data-name="Path 8664" d="M366,131.52a9.821,9.821,0,0,1-1.37-.57c-.86-.41-2.12-1-3.68-1.64a107.879,107.879,0,0,0-25.44-7.49c-1.68-.28-3-.48-4-.61a7.461,7.461,0,0,1-1.46-.26,8,8,0,0,1,1.49.06c.95.06,2.32.21,4,.45a91.3,91.3,0,0,1,13.05,2.82A93.272,93.272,0,0,1,361.1,129c1.55.72,2.79,1.34,3.62,1.8a7.8,7.8,0,0,1,1.28.72Z" fill="#ec7a49"/>
      <path id="Path_8665" data-name="Path 8665" d="M361.22,136.9a7.641,7.641,0,0,1-1.23-.49l-3.31-1.47a80.57,80.57,0,0,0-22.82-6.51l-3.59-.5a8.08,8.08,0,0,1-1.31-.23,5.66,5.66,0,0,1,1.33,0c.86,0,2.09.16,3.61.33a69.5,69.5,0,0,1,22.93,6.54c1.39.66,2.49,1.22,3.25,1.63a6.3,6.3,0,0,1,1.14.7Z" fill="#ec7a49"/>
      <path id="Path_8666" data-name="Path 8666" d="M345.09,137.66a17,17,0,0,1-2.58-.53c-1.58-.37-3.77-.85-6.21-1.26s-4.67-.73-6.28-1a15.43,15.43,0,0,1-2.6-.45,12.19,12.19,0,0,1,2.64.08c1.63.14,3.87.38,6.33.81a56.451,56.451,0,0,1,6.21,1.42,11.6,11.6,0,0,1,2.49.93Z" fill="#ec7a49"/>
      <path id="Path_8667" data-name="Path 8667" d="M282.68,86.37l.84-.05,2.5-.08c2.2,0,5.4,0,9.48.21a151.6,151.6,0,0,1,33.3,6l.18.06v.19c-2.5,14.33-5.48,31.36-8.66,49.58-.13.74-.26,1.48-.39,2.2v.28l-.28-.07a216.242,216.242,0,0,0-22.23-4.59c-7.17-1.1-14-1.88-20.38-2.28h-.25v-.24c1.75-15.29,3.22-28.09,4.25-37.1.52-4.46.94-8,1.22-10.4.14-1.18.26-2.09.33-2.73a4.848,4.848,0,0,1,.09-.7c.02-.18,0-.23,0-.22a1.18,1.18,0,0,1,0,.25,2.964,2.964,0,0,1-.07.72c-.06.65-.16,1.58-.28,2.78-.25,2.44-.63,6-1.1,10.46-1,9-2.36,21.75-4,37l-.22-.25c6.39.38,13.25,1.15,20.43,2.24a217.17,217.17,0,0,1,22.29,4.58l-.32.21c.13-.72.26-1.46.39-2.2,3.21-18.22,6.21-35.24,8.73-49.56l.15.25a154.652,154.652,0,0,0-33.18-6.13c-4.06-.27-7.28-.34-9.44-.33H282.7Z" fill="#ec7a49"/>
    </g>
    <g id="freepik--Character--inject-16">
      <path id="Path_8668" data-name="Path 8668" d="M243.04,218.44l35.4,7.84,5.41-7.84-.87-10.09-5.38-4.92H259.06l-17.32,15.6" fill="#ec7a49"/>
      <g id="Group_8845" data-name="Group 8845" opacity="0.3">
        <path id="Path_8669" data-name="Path 8669" d="M243.04,218.44l35.4,7.84,5.41-7.84-.87-10.09-5.38-4.92H259.06l-17.32,15.6"/>
      </g>
      <path id="Path_8670" data-name="Path 8670" d="M297,145.54l44.69-6,7-2s16.11-3.54,17.61-4.08c1.74-.62,2.46.07,2.64.72.29,1-.69,2.17-2.17,2.75-.5.2-8.67,3-8.67,3a20,20,0,0,1,2.76.8c1.95.66,3.82,3.18,4.76,6.12s.95,3.84-.18,4.26a1.57,1.57,0,0,1-1.3-.18,3.1,3.1,0,0,1-1.34-1.68c-1.57-4.69-4.5-5.06-4.5-5.06l-.92.26s3,2.11,3,4.67a2.86,2.86,0,0,1-.24,1.09,3.87,3.87,0,0,1-4.31,5.09c-.64-.12-1.34-.5-1.43-1.14a2,2,0,0,1,.21-1,4.635,4.635,0,0,0,.16-.53l-2.68.37s-6.07.5-8.68,1l-41.84,12.6A10.84,10.84,0,0,1,288,159.22h0a10.83,10.83,0,0,1,9-13.68Z" fill="#ffbe9d"/>
      <path id="Path_8671" data-name="Path 8671" d="M342.74,140.66a2.25,2.25,0,0,0,1.93,1.78c.92.19,1.88.07,2.81.19,2.78.38,4.95,2.91,7.74,3.15.39,0,.89,0,1-.42s-.19-.67-.46-.91l-7-6.17" fill="#ffbe9d"/>
      <path id="Path_8679" data-name="Path 8679" d="M153.18,159.55s-6.52-10.57-7.68-11.47-11.49-4.68-12.37-4.4-13.4,2.41-12,3.9,10.17-.13,10.17-.13l1.18.59s-7.55,1.2-9.14,2.12-1,2.63.43,2.49,7.93-1.41,8.32-1.14-7.13,1.77-7.94,2.24c-1.09.65-1.2,2.58.18,2.49.81-.06,7.9-1.89,7.9-1.89a61.134,61.134,0,0,0-6.14,2.66,1.026,1.026,0,0,0,1,1.76c.84-.18,4.81-2.08,5.93-2.32,0,0,1,.28,2,2.4.44,1,2.46,7.15,6.15,7.07,3.27-.07,6.48,2.62,6.48,2.62Z" fill="#ffbe9d"/>
      <path id="Path_8681" data-name="Path 8681" d="M148.29,158.3a2.51,2.51,0,0,1-2.91,0c-.89-.54-1.58-1.36-2.43-2-2.54-1.8-6.21-1.37-8.67-3.29-.34-.26-.68-.7-.49-1.09s.66-.4,1.07-.39l10.31.24" fill="#ffbe9d"/>
      <path id="Path_8683" data-name="Path 8683" d="M204,393.78,201.63,420l-7.87,20.21a2.7,2.7,0,0,0,1.71,3.55h0a2.7,2.7,0,0,0,2.44-.42c4.43-3.37,20.66-15.87,20.73-17.8C218.72,423.31,223,398,223,398Z" fill="#cfd8de"/>
      <g id="Group_8846" data-name="Group 8846" opacity="0.6">
        <path id="Path_8684" data-name="Path 8684" d="M195.47,443.77l23.37-20-.12,1.11a4.1,4.1,0,0,1-1.26,2.51c-1.88,1.76-7.19,6.52-19.47,16a2.69,2.69,0,0,1-2.52.41Z" fill="#fff"/>
      </g>
      <path id="Path_8692" data-name="Path 8692" d="M228.14,409.17l19.63-155.45-6.28-36.14-37,2L199.86,406.3a2.83,2.83,0,0,0,2.3,2.87l21.56,3.33a3.87,3.87,0,0,0,4.42-3.33Z" fill="#292d36"/>
      <path id="Path_8693" data-name="Path 8693" d="M247.2,258.93l35.71,35.34-51.37,12.49,3.65,25.92,69.54-9.46a21.92,21.92,0,0,0,14.8-8.89h0a21.88,21.88,0,0,0,.34-25.12l-54.18-79.52-24.2,7.89Z" fill="#292d36"/>
      <path id="Path_8694" data-name="Path 8694" d="M245.23,249.94a20.17,20.17,0,0,1,1.24,4.44,19.48,19.48,0,0,1,.73,4.55,21.07,21.07,0,0,1-1.24-4.44,20.829,20.829,0,0,1-.73-4.55Z" fill="#455a64"/>
      <path id="Path_8697" data-name="Path 8697" d="M241.41,233.49a12,12,0,0,1,.82,2.41c.44,1.5,1,3.61,1.5,5.95s.89,4.48,1.12,6a11.58,11.58,0,0,1,.25,2.53,12.929,12.929,0,0,1-.61-2.47c-.37-1.71-.8-3.74-1.27-6s-1-4.26-1.34-6a12,12,0,0,1-.47-2.42Z" fill="#455a64"/>
      <path id="Path_8698" data-name="Path 8698" d="M243.7,230.44a1.406,1.406,0,0,1,1.45-.16,1.69,1.69,0,0,1,1.08,1.28,1.85,1.85,0,0,1-.81,1.9,1.79,1.79,0,0,1-2-.21,1.52,1.52,0,0,1-.46-1.61,1.49,1.49,0,0,1,.67-.89c.23-.13.38-.13.39-.1a2,2,0,0,0-.7,1.07,1.15,1.15,0,0,0,.41,1.16,1.36,1.36,0,0,0,1.48.13,1.42,1.42,0,0,0,.6-1.37,1.35,1.35,0,0,0-.76-1A2.67,2.67,0,0,0,243.7,230.44Z" fill="#455a64"/>
      <path id="Path_8700" data-name="Path 8700" d="M216.25,111.61l-20.5,9.9,8.84,61.68-3.47,27.68a10.8,10.8,0,0,0,3.61,9.49h0l33.11-.65L261,207l10.65-1.8-4.36-21.07,2-29.89,24.23,12.93a8.43,8.43,0,0,0,6.09.73L344,156.37l-2.31-17.12-40.22,4.55-30.63-27.06-22.8-5.13L244,104.9H220.67L219,106.12a4.93,4.93,0,0,0-1.69,2.31Z" fill="#ec7a49"/>
      <path id="Path_8701" data-name="Path 8701" d="M195.75,121.51a24.61,24.61,0,0,0-9.23,12c-2.34,7.28-7.63,36.71-7.63,36.71L155.6,155.8l-13.42,14.11,31,27.38a15.79,15.79,0,0,0,17.29,2.39h0a15.8,15.8,0,0,0,8.79-12.09l3.81-27.91Z" fill="#ec7a49"/>
      <path id="Path_8702" data-name="Path 8702" d="M265.69,209.69l-1.44-2.12-15.33,2.83-2.82,6.53Z" fill="#ffbe9d"/>
      <path id="Path_8703" data-name="Path 8703" d="M204.73,220.36c13.7,5.51,28.33,3.48,41.37-3.43,3.94-2.09,7.59-4.68,11.55-6.74s8.34-3.57,12.79-3.26,8.93,2.76,10.71,6.85,0,9.65-4.19,11.18l1.48,1.32c6.15-2.86,9.07-11.14,6.07-17.23-2.3-4.66-7.14-7.45-10.68-11.26-5.21-5.6-5.75-16.44-5.79-24.88" fill="#ec7a49"/>
      <path id="Path_8705" data-name="Path 8705" d="M236,123.54c1.69-.73,4.19.34,5.4,1.72.8.92,1.25,2.18,2.3,2.78s4.39,1.07,5.36.33c0,0,.59-2.85.91-4a88.541,88.541,0,0,0,2.27-13.68c-3.22-1.57-2.33-3.63-8.14-3.23a14.78,14.78,0,0,1,.21,8.18" fill="#ec7a49"/>
      <path id="Path_8710" data-name="Path 8710" d="M214.91,225.38a6,6,0,0,1-1.83-1.36,13.83,13.83,0,0,1-4.17-9.93,6.259,6.259,0,0,1,.3-2.25,21.092,21.092,0,0,1,.07,2.24,15.67,15.67,0,0,0,4.07,9.69C214.28,224.78,215,225.31,214.91,225.38Z" fill="#263238"/>
      <path id="Path_8711" data-name="Path 8711" d="M214.18,217.59c.15,0-.13,1.33,0,2.9s.62,2.8.48,2.87a6,6,0,0,1-.49-5.77Z" fill="#263238"/>
      <path id="Path_8731" data-name="Path 8731" d="M284.07,210.1c-.08,0-.22-.35-.57-.87a5.17,5.17,0,0,0-4.07-2.26,5.24,5.24,0,0,1-1,0,1.626,1.626,0,0,1,1-.34,4.55,4.55,0,0,1,4.4,2.45C284.11,209.66,284.13,210.09,284.07,210.1Z" fill="#fafafa"/>
      <path id="Path_8732" data-name="Path 8732" d="M242.76,205c0,.07-1.2.68-3.13,1.79a27.051,27.051,0,0,0-6.8,5.25,14.51,14.51,0,0,0-3.61,7.64,18.06,18.06,0,0,0,.06,3.57,3,3,0,0,1-.28-.94,9.06,9.06,0,0,1-.14-2.66,14,14,0,0,1,3.58-7.95,24.539,24.539,0,0,1,7-5.24c1-.51,1.82-.89,2.39-1.14a3.15,3.15,0,0,1,.93-.32Z" fill="#fafafa"/>
      <path id="Path_8745" data-name="Path 8745" d="M219.61,74v34.51a8.35,8.35,0,0,0,2,5.39h0a25.08,25.08,0,0,0,6.94,5.74l7,3.93,5.76-5.15a8.39,8.39,0,0,0,2.79-5.91c.1-2.52.09-5,.09-5s9.76-.7,10.68-10.32c.43-4.54.57-13.82.59-22.37A18.72,18.72,0,0,0,238.2,56h-.27a17.89,17.89,0,0,0-18.32,18Z" fill="#ffbe9d"/>
      <path id="Path_8746" data-name="Path 8746" d="M244.11,107.43a23.35,23.35,0,0,1-12.23-4.75s2.52,7.3,12.21,7.23Z" fill="#eb996e"/>
      <path id="Path_8747" data-name="Path 8747" d="M252.53,80.93a1.38,1.38,0,0,1-1.44,1.28,1.32,1.32,0,0,1-1.31-1.36,1.38,1.38,0,0,1,1.44-1.28,1.31,1.31,0,0,1,1.31,1.36Z" fill="#263238"/>
      <path id="Path_8748" data-name="Path 8748" d="M252.92,78.63c-.18.16-1.16-.7-2.64-.82s-2.63.54-2.77.34.12-.39.63-.7a3.79,3.79,0,0,1,2.23-.49,3.62,3.62,0,0,1,2.09.87C252.89,78.22,253,78.55,252.92,78.63Z" fill="#263238"/>
      <path id="Path_8749" data-name="Path 8749" d="M238.57,80.23a1.38,1.38,0,0,1-1.44,1.28,1.33,1.33,0,0,1-1.32-1.36,1.39,1.39,0,0,1,1.44-1.28,1.32,1.32,0,0,1,1.32,1.36Z" fill="#263238"/>
      <path id="Path_8750" data-name="Path 8750" d="M238.35,77.7c-.19.16-1.17-.69-2.65-.81s-2.62.53-2.77.33.13-.39.63-.7A3.85,3.85,0,0,1,235.8,76a3.68,3.68,0,0,1,2.09.87C238.31,77.29,238.44,77.62,238.35,77.7Z" fill="#263238"/>
      <path id="Path_8751" data-name="Path 8751" d="M242.81,89.12a9.57,9.57,0,0,1,2.44-.24c.38,0,.75,0,.83-.3a1.91,1.91,0,0,0-.16-1.14c-.28-1-.57-1.94-.88-3a57.493,57.493,0,0,1-1.88-7.74,57.2,57.2,0,0,1,2.5,7.57c.29,1,.57,2,.83,3a2.18,2.18,0,0,1,.08,1.5,1,1,0,0,1-.67.5,2.51,2.51,0,0,1-.65,0A10.32,10.32,0,0,1,242.81,89.12Z" fill="#263238"/>
      <path id="Path_8752" data-name="Path 8752" d="M238.37,89.78c.24,0,.11,1.62,1.39,2.87s3,1.22,3,1.44-.4.29-1.13.25a4,4,0,0,1-2.51-1.12,3.49,3.49,0,0,1-1.06-2.4C238.05,90.15,238.26,89.76,238.37,89.78Z" fill="#263238"/>
      <path id="Path_8753" data-name="Path 8753" d="M239.21,71.93c-.18.39-1.64.08-3.39.14s-3.2.42-3.4,0c-.09-.18.18-.54.78-.88a5.89,5.89,0,0,1,5.18-.14C239,71.4,239.29,71.74,239.21,71.93Z" fill="#263238"/>
      <path id="Path_8754" data-name="Path 8754" d="M252.73,74.3c-.29.31-1.28-.12-2.5-.24s-2.28,0-2.49-.33c-.1-.18.1-.51.58-.79a3.64,3.64,0,0,1,4,.46C252.75,73.78,252.86,74.14,252.73,74.3Z" fill="#263238"/>
      <path id="Path_8755" data-name="Path 8755" d="M230.94,64.27h-.06A7.6,7.6,0,0,0,227.66,69v.2c-.61,2.71-.77,5.51-1.4,8.22s-.51,4.78-3.23,5.39a3.6,3.6,0,0,1-3.78-1.53A2.46,2.46,0,0,1,219,80c0-6.68-1.3-9.27-.72-16.2a5.88,5.88,0,0,1,2.82-4.56c1.54-.92,3.4-1.86,5-1s3.4,4.09,4.54,5.48" fill="#263238"/>
      <path id="Path_8756" data-name="Path 8756" d="M222.49,78.59c-.15-.08-6.45-2.5-6.79,4.1s6.37,5.58,6.39,5.39S222.49,78.59,222.49,78.59Z" fill="#ffbe9d"/>
      <path id="Path_8757" data-name="Path 8757" d="M220.2,85.47a1.907,1.907,0,0,1-.32.16,1.12,1.12,0,0,1-.86,0A2.84,2.84,0,0,1,217.83,83a3.7,3.7,0,0,1,.41-1.63,1.33,1.33,0,0,1,.91-.84.59.59,0,0,1,.66.35c.08.19,0,.32.06.33s.15-.1.11-.37a.7.7,0,0,0-.24-.43.82.82,0,0,0-.62-.2,1.61,1.61,0,0,0-1.26,1,4,4,0,0,0-.49,1.82,3,3,0,0,0,1.53,2.94,1.26,1.26,0,0,0,1.06-.12C220.18,85.63,220.22,85.49,220.2,85.47Z" fill="#eb996e"/>
      <path id="Path_8758" data-name="Path 8758" d="M225.72,59.24c-1.41-2.77,3.35-6.18,6.68-6.94s7.49,1.19,10.64,2.53c2,.84,3.94,2,6.09,2a14.74,14.74,0,0,0,4.26-.71,10.83,10.83,0,0,1,4.29-.49A4,4,0,0,1,261,58.16a2.49,2.49,0,0,1-2,3.22,3.25,3.25,0,1,1,.36,6.07c1-.64,2.34.65,2.12,1.81a3.41,3.41,0,0,1-2.45,2.31c-2.85,1-6,.33-8.78-.86s-5.28-2.9-8-4.16-7.3-3.5-10.21-2.73c-2.15.56-3.8,2.95-4.93,2.29A4,4,0,0,1,225.28,63a11.62,11.62,0,0,1,.44-3.74" fill="#263238"/>
    </g>
    <g id="freepik--Lines--inject-16">
      <path id="Path_8761" data-name="Path 8761" d="M248,268.88h-1.49l-4.36.06c-3.84.06-9.5.21-16.78.56s-16.18,1-26.47,2.2c-5.13.62-10.63,1.32-16.42,2.28s-11.89,2.08-18.24,3.53-13,3.17-19.72,5.38a131.667,131.667,0,0,0-20.45,8.43,66,66,0,0,0-9.8,6.27,31.23,31.23,0,0,0-8,8.78c-.25.44-.51.87-.74,1.32l-.56,1.41-.29.71c-.08.24-.12.49-.19.74l-.35,1.48a14.84,14.84,0,0,0,.3,6.11c1,4.05,3.65,7.54,6.72,10.48,6.26,5.89,14.25,10,22.54,13.42a185.785,185.785,0,0,0,26.27,8.31,345.789,345.789,0,0,0,57.33,8.44,457.193,457.193,0,0,0,58,.23,365.737,365.737,0,0,0,53.56-7,226.12,226.12,0,0,0,24.28-6.55,120.57,120.57,0,0,0,21.71-9.46A60.107,60.107,0,0,0,384,329.5a26.422,26.422,0,0,0,6.62-8.44l.5-1.22a7,7,0,0,0,.42-1.24l.3-1.26c.05-.21.12-.42.15-.63v-.65a12.561,12.561,0,0,0-.38-5,17.71,17.71,0,0,0-2.11-4.51,27.282,27.282,0,0,0-3.1-3.81,46.515,46.515,0,0,0-7.32-6,75.424,75.424,0,0,0-7.76-4.62,133.425,133.425,0,0,0-15.12-6.74,230.432,230.432,0,0,0-25.36-7.82c-7.07-1.76-12.62-2.88-16.39-3.6-1.88-.37-3.33-.61-4.29-.8l-1.47-.28s2,.29,5.78,1,9.33,1.77,16.42,3.51a224.907,224.907,0,0,1,25.41,7.74,133.693,133.693,0,0,1,15.18,6.71,77.146,77.146,0,0,1,7.8,4.63,47.081,47.081,0,0,1,7.39,6.07,28,28,0,0,1,3.14,3.85A18,18,0,0,1,392,311a13,13,0,0,1,.4,5.2l-.05.66a3.054,3.054,0,0,1-.15.65l-.31,1.29a7,7,0,0,1-.43,1.27l-.5,1.25a26.929,26.929,0,0,1-6.71,8.58,60,60,0,0,1-9.22,6.58A120.9,120.9,0,0,1,353.27,346a225.362,225.362,0,0,1-24.33,6.59,365.45,365.45,0,0,1-53.63,7,456.259,456.259,0,0,1-58.07-.22,345.807,345.807,0,0,1-57.42-8.47,184.629,184.629,0,0,1-26.34-8.34c-8.31-3.46-16.34-7.57-22.68-13.53-3.11-3-5.84-6.54-6.85-10.72a15.36,15.36,0,0,1-.3-6.29l.37-1.53c.06-.26.11-.51.19-.76l.29-.73.59-1.44c.23-.46.5-.91.75-1.36a31.719,31.719,0,0,1,8.15-8.9,67.18,67.18,0,0,1,9.88-6.3,131.211,131.211,0,0,1,20.52-8.43c6.78-2.2,13.4-3.92,19.76-5.36s12.48-2.58,18.28-3.49,11.3-1.65,16.44-2.25c10.3-1.15,19.21-1.76,26.49-2.11s12.95-.44,16.79-.47H248Z" fill="#cfd8de"/>
      <path id="Path_8762" data-name="Path 8762" d="M166.28,193.11s-.57.13-1.68.35-2.77.54-4.94,1c-4.34.9-10.73,2.29-18.84,4.51A193.108,193.108,0,0,0,112,209.18c-2.71,1.24-5.49,2.61-8.26,4.18a78.729,78.729,0,0,0-8.29,5.32,46.34,46.34,0,0,0-7.65,7,24.15,24.15,0,0,0-5.19,9.52,17.44,17.44,0,0,0,.83,11.19,28.76,28.76,0,0,0,6.92,9.69c5.92,5.67,13.43,10,21.42,13.67,16.11,7.32,34.5,12.23,54,15.89a451.632,451.632,0,0,0,62,6.84,534.731,534.731,0,0,0,67-1.19c22.86-1.91,45.11-5.27,66.05-10.77a197.651,197.651,0,0,0,30.08-10.32A103.773,103.773,0,0,0,404.4,263a51.89,51.89,0,0,0,11.45-9.66c3.19-3.73,5.54-8.3,5.68-13.12a13.329,13.329,0,0,0-.06-1.79,13,13,0,0,0-.19-1.77l-.39-1.74a12.773,12.773,0,0,0-.57-1.68,25.431,25.431,0,0,0-3.43-6.13,47.141,47.141,0,0,0-10.15-9.37,92.916,92.916,0,0,0-11.61-6.79,164.644,164.644,0,0,0-23.78-9.33c-7.84-2.45-15.48-4.4-22.82-6a439.413,439.413,0,0,0-70.61-9c-8.4-.43-14.94-.45-19.37-.56l-5-.11-1.71-.06h1.71l5,.06c4.43.08,11,.06,19.38.47a434.719,434.719,0,0,1,70.68,8.85c7.35,1.62,15,3.55,22.86,6a163.64,163.64,0,0,1,23.85,9.34A92.123,92.123,0,0,1,407,217.35a47.71,47.71,0,0,1,10.25,9.45,25.722,25.722,0,0,1,3.5,6.25,11.585,11.585,0,0,1,.58,1.72l.41,1.78a12.208,12.208,0,0,1,.19,1.82,12.455,12.455,0,0,1,.07,1.83,18.651,18.651,0,0,1-1.74,7.16,26.59,26.59,0,0,1-4,6.26,52.06,52.06,0,0,1-11.56,9.76,102.915,102.915,0,0,1-13.65,7.3,199,199,0,0,1-30.15,10.37c-21,5.51-43.25,8.88-66.14,10.79a533.755,533.755,0,0,1-67,1.18,452.584,452.584,0,0,1-62-6.87c-19.55-3.69-38-8.62-54.12-16-8-3.73-15.55-8.05-21.52-13.79a29.23,29.23,0,0,1-7-9.82,17.85,17.85,0,0,1-.82-11.44,24.38,24.38,0,0,1,5.27-9.64,46.25,46.25,0,0,1,7.73-7.08,78.17,78.17,0,0,1,8.33-5.32c2.78-1.57,5.57-2.94,8.29-4.18a192.22,192.22,0,0,1,28.93-10.13c8.13-2.19,14.53-3.55,18.88-4.42S166.28,193.11,166.28,193.11Z" fill="#cfd8de"/>
      <path id="Path_8763" data-name="Path 8763" d="M201.34,344l-5,.79c-3.27.52-8.08,1.35-14.23,2.69a182.585,182.585,0,0,0-22,6.21,104,104,0,0,0-13.1,5.7,56,56,0,0,0-6.64,4.06,34.339,34.339,0,0,0-6.11,5.44,19.821,19.821,0,0,0-2.42,3.48,13.91,13.91,0,0,0-1.49,4c-.05.36-.14.72-.17,1.09l-.07,1.1c0,.73.1,1.47.16,2.21a21.071,21.071,0,0,0,.58,2.17l.42,1.05.21.53.28.49a24.66,24.66,0,0,0,6,7.07,49.32,49.32,0,0,0,8.06,5.41,107.121,107.121,0,0,0,18.85,7.87,193.906,193.906,0,0,0,21,5.37,311.847,311.847,0,0,0,46.26,5.53,375.385,375.385,0,0,0,50-.87c17.08-1.48,33.7-4.09,49.27-8.49a124.068,124.068,0,0,0,22.2-8.46,55.88,55.88,0,0,0,9.65-6.23c.76-.57,1.41-1.27,2.11-1.9s1.27-1.38,1.91-2.06a18.139,18.139,0,0,0,2.84-4.75,12.74,12.74,0,0,0-.44-10.55,25.34,25.34,0,0,0-6.88-8c-5.51-4.38-11.77-7.33-17.88-9.78a151.08,151.08,0,0,0-18.19-5.83c-5.94-1.53-11.71-2.74-17.24-3.71a341.921,341.921,0,0,0-53-4.85l-19.53-.1s6.95-.09,19.53,0a338.677,338.677,0,0,1,53,4.75c5.55,1,11.32,2.17,17.27,3.7A150.321,150.321,0,0,1,344.83,355c6.12,2.45,12.4,5.4,17.95,9.81a25.649,25.649,0,0,1,7,8.11,13,13,0,0,1,.45,10.77,18.671,18.671,0,0,1-2.88,4.83c-.65.69-1.24,1.44-1.94,2.09a25.561,25.561,0,0,1-2.12,1.91,55.831,55.831,0,0,1-9.71,6.28,124.369,124.369,0,0,1-22.25,8.49,266.934,266.934,0,0,1-49.32,8.5,376.14,376.14,0,0,1-50.06.87,313.547,313.547,0,0,1-46.29-5.55,196.209,196.209,0,0,1-21-5.4,106.211,106.211,0,0,1-18.9-7.9,50,50,0,0,1-8.09-5.45,24.73,24.73,0,0,1-6.06-7.15l-.29-.5-.21-.54-.43-1.06c-.27-.72-.38-1.48-.58-2.21a8.554,8.554,0,0,1-.16-2.26l.07-1.12a7.005,7.005,0,0,1,.18-1.1,14,14,0,0,1,1.51-4.11,20.209,20.209,0,0,1,2.45-3.51,34.321,34.321,0,0,1,6.15-5.47,57.387,57.387,0,0,1,6.68-4.07A102.611,102.611,0,0,1,160,353.55a180.626,180.626,0,0,1,22.07-6.17c6.15-1.32,11-2.13,14.24-2.63S201.34,344,201.34,344Z" fill="#cfd8de"/>
      <path id="Path_8764" data-name="Path 8764" d="M331.92,435.47a10.36,10.36,0,0,0-.83-3.65c-.93-2.29-3.42-5.14-7.33-7.72-7.85-5.17-21-9.51-37.52-12.17A227.821,227.821,0,0,0,259,409.26a262.27,262.27,0,0,0-31.45.58c-5.53.43-11.18,1.07-16.91,2a160,160,0,0,0-17.36,3.67c-2.91.78-5.82,1.69-8.69,2.74a69.9,69.9,0,0,0-8.49,3.7,34.34,34.34,0,0,0-7.69,5.33c-2.27,2.12-4.12,5-4.17,8.2s1.89,6.08,4.16,8.21A34.3,34.3,0,0,0,176,449a68.379,68.379,0,0,0,8.49,3.7,90.076,90.076,0,0,0,8.69,2.75,160.148,160.148,0,0,0,17.37,3.67c5.73.91,11.38,1.55,16.91,2a260.37,260.37,0,0,0,31.46.58,227.843,227.843,0,0,0,27.32-2.7c16.54-2.66,29.67-7,37.53-12.17,3.91-2.58,6.39-5.43,7.32-7.72a10.33,10.33,0,0,0,.83-3.64,6.735,6.735,0,0,1-.07.95,4.939,4.939,0,0,1-.21,1.16,7.351,7.351,0,0,1-.52,1.54c-.92,2.31-3.4,5.18-7.31,7.78-7.86,5.2-21,9.57-37.55,12.25a229.793,229.793,0,0,1-27.3,2.7,262.646,262.646,0,0,1-31.48-.56c-5.53-.44-11.18-1.07-16.92-2a157.565,157.565,0,0,1-17.39-3.66c-2.92-.78-5.83-1.69-8.71-2.75a71.064,71.064,0,0,1-8.52-3.71,34.889,34.889,0,0,1-7.74-5.36,15.531,15.531,0,0,1-2.94-3.75,9,9,0,0,1,0-9.22,15.57,15.57,0,0,1,3-3.74,34.89,34.89,0,0,1,7.74-5.36,71.627,71.627,0,0,1,8.51-3.71c2.89-1.06,5.8-2,8.72-2.75a160.233,160.233,0,0,1,17.38-3.66c5.74-.91,11.39-1.55,16.92-2a260.51,260.51,0,0,1,31.48-.56,227.782,227.782,0,0,1,27.3,2.69c16.54,2.68,29.69,7.05,37.55,12.25,3.91,2.6,6.39,5.47,7.31,7.78a7.549,7.549,0,0,1,.52,1.54,4.942,4.942,0,0,1,.21,1.16C331.89,435.06,331.91,435.32,331.92,435.47Z" fill="#cfd8de"/>
      <circle id="Ellipse_1030" data-name="Ellipse 1030" cx="0.8" cy="0.8" r="0.8" transform="translate(160.92 150.37)" fill="#cfd8de"/>
    </g>
    <g id="freepik--front-screens--inject-16">
      <path id="Path_8770" data-name="Path 8770" d="M305.65,274c-38.77,10.26-76.14,9.48-116.87,0L184,199.52c42.09,8.19,84.34,7.15,121.63-1.76Z" fill="#ec7a49"/>
      <g id="Group_8853" data-name="Group 8853" opacity="0.8">
        <path id="Path_8771" data-name="Path 8771" d="M305.65,274c-38.77,10.26-76.14,9.48-116.87,0L184,199.52c42.09,8.19,84.34,7.15,121.63-1.76Z" fill="#fff"/>
      </g>
      <path id="Path_8772" data-name="Path 8772" d="M299.64,262.65a1,1,0,0,1-.25.12l-.73.31c-.65.26-1.59.68-2.84,1.13a107.28,107.28,0,0,1-10.73,3.36,140.27,140.27,0,0,1-36.78,4.2,214.769,214.769,0,0,1-36.86-3.94c-4.67-.89-8.42-1.71-11-2.31-1.29-.29-2.29-.54-3-.71l-.77-.2c-.17-.05-.26-.08-.25-.09h.27l.78.15,3,.61c2.59.54,6.36,1.31,11,2.14a226.311,226.311,0,0,0,36.8,3.79,145,145,0,0,0,36.69-4c4.59-1.16,8.25-2.32,10.75-3.21,1.26-.41,2.21-.8,2.87-1l.75-.26A.75.75,0,0,1,299.64,262.65Z" fill="#ec7a49"/>
      <path id="Path_8773" data-name="Path 8773" d="M242.67,265.68a25.389,25.389,0,0,1-14.92-.5v-26.5a37.48,37.48,0,0,1,14.92,0Z" fill="#ec7a49"/>
      <path id="Path_8774" data-name="Path 8774" d="M266.77,264.11a1.073,1.073,0,0,1,0-.21v-.57c0-.54,0-1.28-.07-2.22,0-1.95-.09-4.74-.16-8.23-.1-7-.25-16.87-.42-28.28l.2.24a40.33,40.33,0,0,0-15.45,0l.21-.25v.52c.16,15.66.31,29.81.41,39.91l-.15-.18a35.762,35.762,0,0,0,6.51.8,24.47,24.47,0,0,0,4.91-.41,23,23,0,0,0,3-.79l.75-.26a1.069,1.069,0,0,1,.28-.08l-.24.11-.76.33a21.162,21.162,0,0,1-3,.89,23.47,23.47,0,0,1-4.95.49,34.162,34.162,0,0,1-6.58-.72h-.14V265c-.15-10.1-.35-24.24-.57-39.9v-.75h.22a40.31,40.31,0,0,1,15.64,0l.2.05v.2c.09,11.46.16,21.35.22,28.41v10.92C266.83,264.08,266.78,264.11,266.77,264.11Z" fill="#ec7a49"/>
      <path id="Path_8775" data-name="Path 8775" d="M289.71,261c-4,2.16-9.25,2.45-14.93,2.12V219.34a31.92,31.92,0,0,1,14.93,0Z" fill="#ec7a49"/>
      <path id="Path_8776" data-name="Path 8776" d="M219,263.52s0-.41-.05-1.13,0-1.79-.06-3.06c0-2.66-.07-6.35-.11-10.74l.14.21a33.36,33.36,0,0,0-14.37-2.39h0l.24-.26v14.93l-.13-.2a27.89,27.89,0,0,0,5.76,1.64c1.77.32,3.32.5,4.61.63l3,.25a9.4,9.4,0,0,1,1.06.12,7.9,7.9,0,0,1-1.06,0,28.19,28.19,0,0,1-3-.13c-1.29-.13-2.86-.24-4.64-.53a26.759,26.759,0,0,1-5.88-1.59l-.13-.06V245.89h.26a33.13,33.13,0,0,1,14.58,2.49l.15.05v.16c0,4.45-.09,8.19-.12,10.89,0,1.25,0,2.25-.06,3A6,6,0,0,1,219,263.52Z" fill="#ec7a49"/>
      <path id="Path_8777" data-name="Path 8777" d="M226,224.79a15,15,0,0,1-2.92.18c-1.81,0-4.31,0-7.06-.17s-5.23-.42-7-.66a14.77,14.77,0,0,1-2.88-.52,18.333,18.333,0,0,1,2.91.16c1.8.14,4.28.34,7,.5s5.23.26,7,.32a19.439,19.439,0,0,1,2.95.19Z" fill="#ec7a49"/>
      <path id="Path_8778" data-name="Path 8778" d="M223.77,228.05a12.859,12.859,0,0,1-2.56,0c-1.58-.08-3.76-.22-6.17-.4s-4.59-.38-6.16-.55a12.671,12.671,0,0,1-2.53-.38,12.863,12.863,0,0,1,2.56,0c1.59.08,3.76.22,6.17.4s4.58.38,6.15.55a13.071,13.071,0,0,1,2.54.38Z" fill="#ec7a49"/>
      <path id="Path_8779" data-name="Path 8779" d="M229.23,232.32v-.93c0-.59.05-1.5.1-2.58.1-2.26.25-5.44.44-9.35l.19.21a213.705,213.705,0,0,1-27.63-1.54l.29-.24h0v.82l-.05.84c0,.56-.06,1.12-.1,1.67-.06,1.11-.12,2.2-.19,3.27-.13,2.15-.25,4.23-.37,6.22l-.21-.26c8,1,14.89,1.4,19.78,1.59l5.73.17,1.5.05h.55a2.9,2.9,0,0,1-.5,0c-.34,0-.88,0-1.55.05h-5.74c-4.9-.1-11.82-.46-19.83-1.41h-.23v-.24q.165-3,.35-6.22c.06-1.07.12-2.16.19-3.27l.09-1.67v-1.66h0l.29-.24A236.007,236.007,0,0,0,230,219.29h.2v.2c-.27,3.94-.49,7.16-.65,9.44-.08,1.06-.15,1.91-.2,2.53a4.449,4.449,0,0,1-.12.86Z" fill="#ec7a49"/>
      <path id="Path_8780" data-name="Path 8780" d="M232.64,237.93a11.83,11.83,0,0,1-1.93-2.67,9.57,9.57,0,0,1-1.48-2.94,11.829,11.829,0,0,1,1.93,2.67,9.569,9.569,0,0,1,1.48,2.94Z" fill="#ec7a49"/>
      <path id="Path_8781" data-name="Path 8781" d="M70.64,141l12.67,76.68s19.35,36.22,70.75,44.38l-8.29-68.44S98.23,178.9,70.64,141Z" fill="#ec7a49"/>
      <g id="Group_8854" data-name="Group 8854" opacity="0.8">
        <path id="Path_8782" data-name="Path 8782" d="M70.64,141l12.67,76.68s19.35,36.22,70.75,44.38l-8.29-68.44S98.23,178.9,70.64,141Z" fill="#fff"/>
      </g>
      <path id="Path_8783" data-name="Path 8783" d="M147.43,256.58l-.32-.08-1-.27-3.62-1.11c-1.57-.5-3.52-1-5.69-1.9l-3.49-1.33c-1.25-.47-2.56-1-3.89-1.6-2.67-1.22-5.64-2.48-8.66-4.18s-6.24-3.53-9.52-5.62a95.31,95.31,0,0,1-19.1-16.55,56.639,56.639,0,0,1-6.89-9.61h0l-5.8-37.5c-.7-4.68-1.27-8.43-1.66-11.06l-.42-3-.1-.77a1.09,1.09,0,0,1,0-.27,1,1,0,0,1,.06.26l.15.77.51,3c.43,2.62,1,6.37,1.81,11,1.5,9.42,3.6,22.54,6,37.47v-.07a57.26,57.26,0,0,0,6.82,9.5,96,96,0,0,0,19,16.49c3.26,2.1,6.37,4.07,9.45,5.64s5.95,3,8.61,4.22c1.32.65,2.63,1.16,3.86,1.63L137,253c2.15.91,4.09,1.45,5.64,2l3.59,1.2.93.32A1.359,1.359,0,0,1,147.43,256.58Z" fill="#ec7a49"/>
      <path id="Path_8784" data-name="Path 8784" d="M142.91,234.32s0,.06-.17.16l-.55.44-2.13,1.66L132,242.77l-.12.1-.1-.14c-2.72-3.75-6.07-8.39-9.87-13.66l.3.05-7.57,5.4-.25.18-.11-.3c-3-8-6.27-17-9.76-26.47l-1.4-3.81h.47l-6.16,12.24-.27.53-.19-.56c-5.37-15.46-9.92-28.6-12.88-37.13h.27c-.81,3.42-1.45,6.11-1.89,8-.22.9-.4,1.6-.52,2.1l-.14.54a.62.62,0,0,1-.07.18v-.19a4.008,4.008,0,0,1,.1-.54l.45-2.12c.41-1.89,1-4.59,1.76-8l.11-.48.17.47c3,8.51,7.63,21.62,13.08,37.05h-.46l6.15-12.24.27-.54.21.56,1.4,3.81c3.47,9.48,6.77,18.47,9.71,26.49l-.36-.11,7.6-5.36.17-.12.13.17L132,242.55h-.23l8.17-6.07,2.18-1.6.57-.4Z" fill="#ec7a49"/>
      <path id="Path_8785" data-name="Path 8785" d="M141.14,197.55a4.679,4.679,0,0,1-1.08-.24c-.68-.19-1.67-.49-2.87-.89A94,94,0,0,1,128,192.8a98.075,98.075,0,0,1-8.83-4.53c-1.09-.64-2-1.18-2.56-1.57a4.53,4.53,0,0,1-.89-.65,4.64,4.64,0,0,1,1,.48l2.64,1.42c2.23,1.19,5.34,2.79,8.86,4.38s6.77,2.86,9.14,3.75c1.11.4,2,.75,2.81,1A4,4,0,0,1,141.14,197.55Z" fill="#ec7a49"/>
      <path id="Path_8786" data-name="Path 8786" d="M143.18,200.73a10.35,10.35,0,0,1-2.48-.44,57.409,57.409,0,0,1-5.83-1.74,58.171,58.171,0,0,1-5.61-2.35,10.75,10.75,0,0,1-2.19-1.23,13.679,13.679,0,0,1,2.35.9c1.43.59,3.41,1.39,5.63,2.19s4.26,1.43,5.75,1.88A13.64,13.64,0,0,1,143.18,200.73Z" fill="#ec7a49"/>
      <path id="Path_8787" data-name="Path 8787" d="M122.93,229.09c0,.64-.39,1.15-.87,1.15s-.86-.51-.86-1.15.39-1.15.86-1.15S122.93,228.46,122.93,229.09Z" fill="#ec7a49"/>
      <ellipse id="Ellipse_1031" data-name="Ellipse 1031" cx="0.86" cy="1.15" rx="0.86" ry="1.15" transform="translate(102.4 203.7)" fill="#ec7a49"/>
      <path id="Path_8788" data-name="Path 8788" d="M85.13,179.56c0,.63-.39,1.15-.86,1.15s-.86-.52-.86-1.15.38-1.15.86-1.15S85.13,178.93,85.13,179.56Z" fill="#ec7a49"/>
      <path id="Path_8789" data-name="Path 8789" d="M406,154.64l-6.35,77.9S381.08,265.85,330,267.12l6.31-78.43S380.88,186.88,406,154.64Z" fill="#ec7a49"/>
      <path id="Path_8790" data-name="Path 8790" d="M405,150.58c-1.66-5.39-5.7-13.08-15.3-14.68L378.38,240.68s21.31-4.25,21.88-15.93c.05-1,4.31-53.09,5.38-66a21.111,21.111,0,0,0-.64-8.17Z" fill="#ec7a49"/>
      <g id="Group_8855" data-name="Group 8855" opacity="0.8">
        <path id="Path_8791" data-name="Path 8791" d="M406,154.64l-6.35,77.9S381.08,265.85,330,267.12l6.31-78.43S380.88,186.88,406,154.64Z" fill="#fff"/>
      </g>
      <path id="Path_8792" data-name="Path 8792" d="M404.45,174.5a46.14,46.14,0,0,0-8.13,25.19c-.05,2.59.1,5.26-.89,7.65s-3.55,4.39-6,3.71-3.77-3.8-6.05-5.24a6.75,6.75,0,0,0-6.85.15,11.53,11.53,0,0,0-4.5,5.47c-1.85,4.27-2,9.09-3.34,13.54s-4.72,8.94-9.38,9.14c-1.7.07-3.38-.44-5.08-.39-3.59.11-6.71,2.78-8.38,6s-2.18,6.83-2.66,10.39c0,0,27.22,2.6,57.77-33.48Z" fill="#ec7a49"/>
      <path id="Path_8793" data-name="Path 8793" d="M361.18,221.75c0,1-.48,1.75-1.07,1.75s-1.06-.78-1.06-1.75.47-1.75,1.06-1.75S361.18,220.79,361.18,221.75Z" fill="#ec7a49"/>
      <path id="Path_8794" data-name="Path 8794" d="M374,189.37c0,1-.48,1.75-1.07,1.75s-1.06-.79-1.06-1.75.47-1.75,1.06-1.75S374,188.4,374,189.37Z" fill="#ec7a49"/>
      <path id="Path_8795" data-name="Path 8795" d="M403.84,178.26a2.4,2.4,0,0,1-.17.44l-.58,1.27c-.54,1.13-1.29,2.73-2.24,4.75l-8.12,16.91-.11.23-.22-.14-19.25-12.18.38-.12c-.25.62-.53,1.29-.8,2L360.3,221.83l-.09.21-.19-.11c-4.8-2.7-8.72-4.87-11.44-6.35-1.37-.74-2.43-1.31-3.16-1.68l-.83-.4-.29-.13a23.22,23.22,0,0,1,4.38,2c2.76,1.42,6.7,3.54,11.53,6.2l-.28.1,12.32-30.49c.27-.67.55-1.34.8-2l.12-.29.26.17,19.22,12.24-.33.09c3.41-6.93,6.27-12.72,8.29-16.82L403,179.9l.64-1.23a2.769,2.769,0,0,1,.2-.41Z" fill="#ec7a49"/>
    </g>
  </g>
</svg>
