<svg xmlns="http://www.w3.org/2000/svg" xmlns:xlink="http://www.w3.org/1999/xlink" width="359.246" height="383.711" viewBox="0 0 359.246 383.711">
  <defs>
    <clipPath id="clip-path">
      <path id="Path_7836" data-name="Path 7836" d="M87.86,98.58l6.68,48.2,43.89-6.15-5.98-48.05Z" fill="#ec7a49"/>
    </clipPath>
  </defs>
  <g id="Resume-pana" transform="translate(-64.86 -55.34)">
    <g id="freepik--Document--inject-23">
      <path id="Path_7803" data-name="Path 7803" d="M98.94,66.79C97.6,112,93.67,281.94,92.63,327.28a11.26,11.26,0,0,0,10.92,11.52l186.24,5.69a11.27,11.27,0,0,0,11.61-11l2.9-131.34,15.77-.26a7.17,7.17,0,0,0,7.05-7.08L328.33,89a7.17,7.17,0,0,0-7.05-7.24L307,81.48l.11-10.23a11.21,11.21,0,0,0-11-11.33l-185.79-4A11.2,11.2,0,0,0,98.94,66.79Z" fill="#80848f"/>
      <path id="Path_7805" data-name="Path 7805" d="M113.09,68.73,96.66,330.4l191.91,10.75,15.49-259.7Z" fill="#cfd8de"/>
      <path id="Path_7806" data-name="Path 7806" d="M90.02,63.05,91.3,325.24,283.5,323,281.42,62.85Z" fill="#cfd8de"/>
      <path id="Path_7807" data-name="Path 7807" d="M64.86,81.09l36.28,259.67,190.18-27.88L254.52,55.34Z" fill="#fafafa"/>
      <path id="Path_7809" data-name="Path 7809" d="M242.57,141.26c.07.43-32.53,5.9-72.81,12.23s-73,11.1-73,10.68,32.53-5.9,72.81-12.23S242.5,140.84,242.57,141.26Z" fill="#263238"/>
      <path id="Path_7810" data-name="Path 7810" d="M256.5,211c.06.42-32.54,5.9-72.81,12.22s-73,11.11-73,10.68,32.52-5.9,72.81-12.22S256.43,210.56,256.5,211Z" fill="#263238"/>
      <path id="Path_7811" data-name="Path 7811" d="M258.53,236.1c.06.43-32.54,5.9-72.81,12.22s-73,11.11-73,10.68,32.52-5.9,72.81-12.22S258.46,235.67,258.53,236.1Z" fill="#263238"/>
      <path id="Path_7812" data-name="Path 7812" d="M235.17,86.17c0,.39-21.88,3.8-48.9,7.62s-49,6.6-49,6.21,21.88-3.81,48.91-7.62S235.15,85.78,235.17,86.17Z" fill="#263238"/>
      <path id="Path_7813" data-name="Path 7813" d="M238.26,100.07c0,.39-21.88,3.81-48.9,7.62s-49,6.6-49,6.21,21.87-3.8,48.9-7.62S238.25,99.68,238.26,100.07Z" fill="#263238"/>
      <path id="Path_7814" data-name="Path 7814" d="M242,114.74c0,.4-21.88,3.81-48.91,7.63s-48.94,6.59-49,6.2S166,124.77,193,121,242,114.35,242,114.74Z" fill="#263238"/>
      <path id="Path_7815" data-name="Path 7815" d="M262.26,260.48c.07.42-32.53,5.9-72.81,12.22s-73,11.11-73,10.68,32.53-5.9,72.81-12.22S262.19,260.05,262.26,260.48Z" fill="#263238"/>
      <path id="Path_7816" data-name="Path 7816" d="M266,284.86c.07.42-32.53,5.9-72.8,12.22s-73,11.11-73.06,10.68,32.53-5.9,72.82-12.22S265.93,284.43,266,284.86Z" fill="#263238"/>
      <path id="Path_7817" data-name="Path 7817" d="M127.16,155.4c.08,1,.63,5.66.63,5.66l80.39-11.52-1.25-6.73Z" fill="#ec7a49"/>
      <path id="Path_7818" data-name="Path 7818" d="M99.16,182.64c.09,1,.6,7.43.6,7.43l148.93-24.59-.71-8.1Z" fill="#ec7a49"/>
      <path id="Path_7819" data-name="Path 7819" d="M103.59,206.5c.09,1,.6,7.44.6,7.44l148.93-24.59-.71-8.11Z" fill="#ec7a49"/>
      <path id="Path_7820" data-name="Path 7820" d="M109.54,230.79c0,.37,1.46,7.55,1.46,7.55l74.63-12.14-.74-9.17Z" fill="#ec7a49"/>
      <path id="Path_7821" data-name="Path 7821" d="M87.86,98.58l6.68,48.2,43.89-6.15-5.98-48.05Z" fill="#263238"/>
      <path id="Path_7822" data-name="Path 7822" d="M87.86,98.58l6.68,48.2,43.89-6.15-5.98-48.05Z" fill="#ec7a49"/>
      <g id="Group_8809" data-name="Group 8809" clip-path="url(#clip-path)">
        <path id="Path_7823" data-name="Path 7823" d="M109.74,138.5,123,134.92c-.21-1.59-1.46-7.63-1.46-7.63s5.43-1.91,4.45-7.51-4.33-18.24-4.33-18.24h0a19.74,19.74,0,0,0-19,6.1l-.71.79Z" fill="#ffbe9d"/>
        <path id="Path_7824" data-name="Path 7824" d="M122.13,111.38A.82.82,0,1,1,123,110a.81.81,0,0,1,.27,1.13.83.83,0,0,1-1.14.25Z" fill="#263238"/>
        <path id="Path_7825" data-name="Path 7825" d="M123.25,109.85c-.07.12-.7-.2-1.47-.06s-1.25.64-1.35.56,0-.23.21-.46a1.85,1.85,0,0,1,1.06-.57,2,2,0,0,1,1.19.17C123.17,109.64,123.28,109.8,123.25,109.85Z" fill="#263238"/>
        <path id="Path_7826" data-name="Path 7826" d="M114.51,112.18a.821.821,0,1,1-1.06.47.82.82,0,0,1,1.06-.47Z" fill="#263238"/>
        <path id="Path_7827" data-name="Path 7827" d="M115,112.09c-.07.11-.7-.21-1.46-.07s-1.26.65-1.36.56,0-.22.21-.46a2,2,0,0,1,2.26-.39C114.94,111.88,115.06,112,115,112.09Z" fill="#263238"/>
        <path id="Path_7828" data-name="Path 7828" d="M119.29,117.86a3.89,3.89,0,0,1,1.19-.5c.2-.06.35-.13.35-.24a1.14,1.14,0,0,0-.26-.55l-.9-1.45a22.7,22.7,0,0,1-2.08-3.86,20.78,20.78,0,0,1,2.46,3.63l.87,1.47a1.29,1.29,0,0,1,.27.81.52.52,0,0,1-.29.39,1.41,1.41,0,0,1-.33.11,3.85,3.85,0,0,1-1.28.19Z" fill="#263238"/>
        <path id="Path_7829" data-name="Path 7829" d="M117,119.18c-.89-.33,2.43.76,4,.39a2.16,2.16,0,0,1-2.35,1.31C116.79,120.58,117,119.18,117,119.18Z" fill="#fff"/>
        <path id="Path_7830" data-name="Path 7830" d="M121.51,127.21a13.18,13.18,0,0,1-7.67-.71s2.47,3.7,8,2.15Z" fill="#eb996e"/>
        <path id="Path_7831" data-name="Path 7831" d="M102.87,113.83c-.13,0-4.22.47-2.67,5s5.66,1.5,5.63,1.37S102.87,113.83,102.87,113.83Z" fill="#ffbe9d"/>
        <path id="Path_7832" data-name="Path 7832" d="M103.88,119.12a1.564,1.564,0,0,1-.18.19.85.85,0,0,1-.59.21c-.54,0-1.21-.64-1.51-1.46a2.79,2.79,0,0,1-.16-1.22,1,1,0,0,1,.39-.82.42.42,0,0,1,.54.06c.11.11.11.21.14.21s.07-.11,0-.29a.54.54,0,0,0-.28-.22.62.62,0,0,0-.48,0,1.19,1.19,0,0,0-.59,1,2.85,2.85,0,0,0,.15,1.37,2.19,2.19,0,0,0,1.84,1.59.88.88,0,0,0,.68-.37C103.91,119.23,103.9,119.12,103.88,119.12Z" fill="#eb996e"/>
        <path id="Path_7833" data-name="Path 7833" d="M121.58,101.38c-.73,4.11-6,6.66-10.06,7.65,1.59-2,.48-1.45,1.44-2.84a17.64,17.64,0,0,1-10.58,6.35,7.57,7.57,0,0,1,3.17-10.41c1.19-.61,2.51-.9,3.74-1.43,1-.45,2-1.08,3.06-1.45,3.2-1.1,8.37-3,9.23,2.13" fill="#263238"/>
        <path id="Path_7834" data-name="Path 7834" d="M104.5,110c-.11.58-.1,7.14-.1,7.14l-2.57-5.85Z" fill="#263238"/>
        <path id="Path_7835" data-name="Path 7835" d="M83.46,161.85l11.11-16.37h0a24.65,24.65,0,0,1,8.31-7.89,19.62,19.62,0,0,1,5.71-2.24h0a24.21,24.21,0,0,0,14.32-2.67,35,35,0,0,1,11.89,1.13h0l22,4.48-3.18,19.3L142,156l2.52,17.12,6.92,25-42.36,8.36-3.76-23.17-3.08-16.69-5,7.1Z" fill="#455a64"/>
      </g>
    </g>
    <g id="freepik--Character--inject-23">
      <path id="Path_7837" data-name="Path 7837" d="M323.69,434.16l-.05-9.2,17.22-.2.22,13.45-1.07.08c-4.75.32-24.17,1.3-27.36.37C309.1,437.63,323.69,434.16,323.69,434.16Z" fill="#d4d8db"/>
      <path id="Path_7838" data-name="Path 7838" d="M334.84,438.15a6,6,0,0,1,2.15-3.7,5.79,5.79,0,0,1,4-1.3l.06,4.81Z" fill="#d4d8db"/>
      <path id="Path_7839" data-name="Path 7839" d="M316.56,436.11s-5.11,1.54-4.46,2.38,20.32.59,29-.28v-.39l-22.94.49S317.57,436.14,316.56,436.11Z" fill="#d4d8db"/>
      <path id="Path_7855" data-name="Path 7855" d="M411.71,429.41l-2.81-8.76-16.43,5.15,4,12.85,1-.25c4.62-1.17,23.38-6.27,26.13-8.14C426.66,428.18,411.71,429.41,411.71,429.41Z" fill="#ec7a49"/>
      <path id="Path_7856" data-name="Path 7856" d="M402.35,436.66a5.94,5.94,0,0,0-3.19-2.85,5.8,5.8,0,0,0-4.22,0l1.44,4.59Z" fill="#ec7a49"/>
      <path id="Path_7857" data-name="Path 7857" d="M419.09,429.05s5.34-.12,5,.88-19.13,6.86-27.64,8.72l-.08-.37,21.95-6.66S418.15,429.39,419.09,429.05Z" fill="#ec7a49"/>
      <path id="Path_7858" data-name="Path 7858" d="M396.08,438.35l.3-.06.82-.21,3-.8c2.55-.7,6.07-1.71,9.92-2.91s7.32-2.37,9.82-3.24l2.95-1.06.8-.3a1.227,1.227,0,0,0,.27-.12l-.29.08-.81.26-3,1c-2.51.84-6,2-9.83,3.18s-7.36,2.23-9.9,3l-3,.87-.81.24a1.653,1.653,0,0,0-.24.07Z" fill="#263238"/>
      <path id="Path_7859" data-name="Path 7859" d="M418.37,431.88a7.519,7.519,0,0,1,.12-1.6,6.851,6.851,0,0,1,.66-1.46,2.27,2.27,0,0,0-.87,1.41,2.41,2.41,0,0,0,.09,1.65Z" fill="#263238"/>
      <path id="Path_7860" data-name="Path 7860" d="M412.75,430.93a1.935,1.935,0,0,0,.33-.79c.13-.45.17-.83.11-.85a2.09,2.09,0,0,0-.32.8,1.921,1.921,0,0,0-.12.84Z" fill="#263238"/>
      <path id="Path_7861" data-name="Path 7861" d="M411.2,430.65a1.622,1.622,0,0,0,.46-.57c.2-.34.33-.65.28-.68s-.25.23-.46.57S411.15,430.62,411.2,430.65Z" fill="#263238"/>
      <path id="Path_7862" data-name="Path 7862" d="M409.88,429.36a3.919,3.919,0,0,0,1.72-.52,1.84,1.84,0,0,0-.89.16C410.23,429.14,409.86,429.3,409.88,429.36Z" fill="#263238"/>
      <path id="Path_7863" data-name="Path 7863" d="M409.25,428.35a1.62,1.62,0,0,0,1,0,1.78,1.78,0,0,0,.95-.44,5.533,5.533,0,0,0-1,.24A5.909,5.909,0,0,0,409.25,428.35Z" fill="#263238"/>
      <path id="Path_7864" data-name="Path 7864" d="M412.86,429.32a2.92,2.92,0,0,0,1.06-.33,7,7,0,0,0,1.05-.6,3.331,3.331,0,0,0,.56-.47.64.64,0,0,0,.16-.41.44.44,0,0,0-.3-.37,2,2,0,0,0-2.22,1.31,2.111,2.111,0,0,0-.12.82.6.6,0,0,0,.06.29,3,3,0,0,1,.2-1.05,2,2,0,0,1,.72-.87,1.73,1.73,0,0,1,1.29-.31c.2.08.2.29.05.46a3.11,3.11,0,0,1-.52.44,8,8,0,0,1-1,.63C413.26,429.17,412.85,429.29,412.86,429.32Z" fill="#263238"/>
      <path id="Path_7865" data-name="Path 7865" d="M413.15,429.29a1.1,1.1,0,0,0-.1-.77,1.73,1.73,0,0,0-.53-.68,1.11,1.11,0,0,0-1-.27.43.43,0,0,0-.17.59,1.17,1.17,0,0,0,.32.42,3.66,3.66,0,0,0,.7.48,1.5,1.5,0,0,0,.74.24,6.046,6.046,0,0,1-.67-.37,4.064,4.064,0,0,1-.64-.49c-.21-.18-.44-.55-.19-.68a1,1,0,0,1,.84.23,1.81,1.81,0,0,1,.51.59,3.079,3.079,0,0,1,.19.71Z" fill="#263238"/>
      <path id="Path_7866" data-name="Path 7866" d="M395,433.74a6.65,6.65,0,0,1,1.23-.33,5.39,5.39,0,0,1,5.38,2.08c.47.63.64,1.1.68,1.08a1.2,1.2,0,0,0-.1-.33,4.59,4.59,0,0,0-.46-.83,5.25,5.25,0,0,0-5.53-2.15,5.069,5.069,0,0,0-.9.31A1.081,1.081,0,0,0,395,433.74Z" fill="#263238"/>
      <path id="Path_7867" data-name="Path 7867" d="M394.58,426.37a57.4,57.4,0,0,0,2,6.78,32.756,32.756,0,0,0-.92-3.42A29.324,29.324,0,0,0,394.58,426.37Z" fill="#263238"/>
      <path id="Path_7868" data-name="Path 7868" d="M403.92,434.41a10.3,10.3,0,0,0,2.48-.51,9.939,9.939,0,0,0,2.34-.95c0-.05-1.08.35-2.4.75S403.91,434.35,403.92,434.41Z" fill="#263238"/>
      <path id="Path_7869" data-name="Path 7869" d="M400.7,435.41s.16.2.34.41.32.41.37.39,0-.28-.21-.53S400.72,435.36,400.7,435.41Z" fill="#263238"/>
      <path id="Path_7870" data-name="Path 7870" d="M399,434.28c0,.05.13.19.36.31s.43.17.45.12-.13-.19-.35-.31S399,434.23,399,434.28Z" fill="#263238"/>
      <path id="Path_7871" data-name="Path 7871" d="M397.06,434.13c0,.05.24,0,.51,0s.49.09.52,0-.18-.23-.51-.24S397,434.08,397.06,434.13Z" fill="#263238"/>
      <path id="Path_7872" data-name="Path 7872" d="M395.72,434.19c0,.06.12.11.27.12s.28,0,.28-.08-.11-.11-.27-.12S395.72,434.13,395.72,434.19Z" fill="#263238"/>
      <path id="Path_7873" data-name="Path 7873" d="M311.97,251.55l8.04,178.65,26.82.56L342.38,281.2l48.6,151.34,21.92-6L363.99,251.55" fill="#292d36"/>
      <path id="Path_7874" data-name="Path 7874" d="M389.83,431.53l1.25,2.4,23.23-6.77-1.41-3.9Z" fill="#455a64"/>
      <path id="Path_7875" data-name="Path 7875" d="M410.22,422.37c.14,0,.35.25.47.64s.1.76,0,.8-.34-.25-.46-.65S410.08,422.41,410.22,422.37Z" fill="#455a64"/>
      <path id="Path_7876" data-name="Path 7876" d="M408.48,416.57c.14,0,.45.57.69,1.37s.32,1.49.18,1.53-.44-.57-.68-1.38S408.34,416.61,408.48,416.57Z" fill="#455a64"/>
      <path id="Path_7877" data-name="Path 7877" d="M406.74,410.77c.14,0,.45.57.69,1.37s.32,1.49.18,1.53-.44-.58-.68-1.38S406.6,410.81,406.74,410.77Z" fill="#455a64"/>
      <path id="Path_7878" data-name="Path 7878" d="M405,405c.14,0,.45.57.69,1.37s.32,1.49.18,1.53-.44-.58-.68-1.38S404.86,405,405,405Z" fill="#455a64"/>
      <path id="Path_7879" data-name="Path 7879" d="M403.26,399.17c.14,0,.45.57.69,1.37s.32,1.49.18,1.53-.44-.58-.68-1.38S403.13,399.21,403.26,399.17Z" fill="#455a64"/>
      <path id="Path_7880" data-name="Path 7880" d="M401.52,393.37c.14-.05.45.57.69,1.37s.32,1.48.18,1.53-.44-.58-.68-1.38S401.39,393.41,401.52,393.37Z" fill="#455a64"/>
      <path id="Path_7881" data-name="Path 7881" d="M399.78,387.56c.14,0,.45.58.69,1.38s.32,1.48.18,1.53-.44-.58-.68-1.38S399.65,387.61,399.78,387.56Z" fill="#455a64"/>
      <path id="Path_7882" data-name="Path 7882" d="M398,381.76c.14,0,.45.58.69,1.38s.32,1.48.18,1.52-.44-.57-.68-1.37A2.938,2.938,0,0,1,398,381.76Z" fill="#455a64"/>
      <path id="Path_7883" data-name="Path 7883" d="M396.3,376c.14,0,.45.58.69,1.38s.32,1.48.18,1.52-.44-.57-.68-1.37S396.17,376,396.3,376Z" fill="#455a64"/>
      <path id="Path_7884" data-name="Path 7884" d="M394.56,370.16c.14,0,.45.58.69,1.38s.32,1.48.18,1.52-.44-.57-.68-1.37S394.43,370.2,394.56,370.16Z" fill="#455a64"/>
      <path id="Path_7885" data-name="Path 7885" d="M392.83,364.36c.13,0,.44.58.68,1.38s.32,1.48.19,1.52-.45-.57-.69-1.37S392.69,364.4,392.83,364.36Z" fill="#455a64"/>
      <path id="Path_7886" data-name="Path 7886" d="M391.09,358.56c.13,0,.44.57.68,1.38s.32,1.48.19,1.52-.45-.57-.69-1.37A2.877,2.877,0,0,1,391.09,358.56Z" fill="#455a64"/>
      <path id="Path_7887" data-name="Path 7887" d="M389.35,352.76c.13,0,.44.57.68,1.37s.32,1.49.19,1.53-.45-.57-.69-1.38S389.21,352.8,389.35,352.76Z" fill="#455a64"/>
      <path id="Path_7888" data-name="Path 7888" d="M387.61,347c.13,0,.44.57.68,1.37s.32,1.49.19,1.53-.45-.58-.69-1.38S387.47,347,387.61,347Z" fill="#455a64"/>
      <path id="Path_7889" data-name="Path 7889" d="M385.87,341.16c.13,0,.44.57.68,1.37s.32,1.49.19,1.53-.45-.58-.69-1.38S385.73,341.2,385.87,341.16Z" fill="#455a64"/>
      <path id="Path_7890" data-name="Path 7890" d="M384.13,335.36c.14,0,.44.57.68,1.37s.33,1.49.19,1.53-.45-.58-.69-1.38S384,335.4,384.13,335.36Z" fill="#455a64"/>
      <path id="Path_7891" data-name="Path 7891" d="M382.39,329.56c.14-.05.44.57.68,1.37s.33,1.48.19,1.53-.45-.58-.69-1.38S382.25,329.6,382.39,329.56Z" fill="#455a64"/>
      <path id="Path_7892" data-name="Path 7892" d="M380.65,323.75c.14,0,.44.58.68,1.38s.33,1.48.19,1.53-.45-.58-.69-1.38S380.51,323.8,380.65,323.75Z" fill="#455a64"/>
      <path id="Path_7893" data-name="Path 7893" d="M378.91,318c.14,0,.44.58.68,1.38s.33,1.48.19,1.52-.45-.57-.69-1.37S378.77,318,378.91,318Z" fill="#455a64"/>
      <path id="Path_7894" data-name="Path 7894" d="M377.17,312.15c.14,0,.44.58.68,1.38s.33,1.48.19,1.52-.45-.57-.69-1.37S377,312.19,377.17,312.15Z" fill="#455a64"/>
      <path id="Path_7895" data-name="Path 7895" d="M375.43,306.35c.14,0,.44.58.68,1.38s.33,1.48.19,1.52-.44-.57-.69-1.37S375.29,306.39,375.43,306.35Z" fill="#455a64"/>
      <path id="Path_7896" data-name="Path 7896" d="M373.69,300.55c.14,0,.44.58.68,1.38s.33,1.48.19,1.52-.44-.57-.68-1.37S373.55,300.59,373.69,300.55Z" fill="#455a64"/>
      <path id="Path_7897" data-name="Path 7897" d="M372,294.75c.14,0,.44.57.68,1.38s.33,1.48.19,1.52-.44-.57-.68-1.37S371.81,294.79,372,294.75Z" fill="#455a64"/>
      <path id="Path_7898" data-name="Path 7898" d="M370.21,289c.14,0,.44.57.69,1.37s.32,1.49.18,1.53-.44-.57-.68-1.38S370.07,289,370.21,289Z" fill="#455a64"/>
      <path id="Path_7899" data-name="Path 7899" d="M368.47,283.15c.14,0,.45.57.69,1.37s.32,1.49.18,1.53-.44-.58-.68-1.38S368.33,283.19,368.47,283.15Z" fill="#455a64"/>
      <path id="Path_7900" data-name="Path 7900" d="M366.73,277.35c.14,0,.45.57.69,1.37s.32,1.49.18,1.53-.44-.58-.68-1.38S366.59,277.39,366.73,277.35Z" fill="#455a64"/>
      <path id="Path_7901" data-name="Path 7901" d="M365,271.55c.14,0,.45.57.69,1.37s.32,1.49.18,1.53-.44-.58-.68-1.38S364.85,271.59,365,271.55Z" fill="#455a64"/>
      <path id="Path_7902" data-name="Path 7902" d="M363.25,265.75c.14-.05.45.57.69,1.37s.32,1.48.18,1.53-.44-.58-.68-1.38S363.11,265.79,363.25,265.75Z" fill="#455a64"/>
      <path id="Path_7903" data-name="Path 7903" d="M361.51,259.94c.14,0,.45.58.69,1.38s.32,1.48.18,1.53-.44-.58-.68-1.38S361.38,260,361.51,259.94Z" fill="#455a64"/>
      <path id="Path_7904" data-name="Path 7904" d="M360.21,255.61c.14,0,.35.24.47.64s.1.75,0,.79-.34-.24-.46-.64S360.07,255.65,360.21,255.61Z" fill="#455a64"/>
      <path id="Path_7905" data-name="Path 7905" d="M342.21,429.3c.14,0,.27.32.3.73s-.08.76-.23.77-.27-.32-.29-.74S342.06,429.31,342.21,429.3Z" fill="#455a64"/>
      <path id="Path_7931" data-name="Path 7931" d="M319.31,431.07l28.36.46-.22-4.73-28.14.15Z" fill="#80848f"/>
      <path id="Path_7933" data-name="Path 7933" d="M340.66,256.18a1.6,1.6,0,0,0-.25.67.83.83,0,0,0,.21.61.71.71,0,0,0,1.14-.46.81.81,0,0,0-.28-.58c-.31-.29-.63-.23-.64-.31s.33-.3.86,0a1.117,1.117,0,1,1-1.46,1.67,1.12,1.12,0,0,1-.22-1C340.22,256.2,340.66,256.12,340.66,256.18Z" fill="#455a64"/>
      <path id="Path_7934" data-name="Path 7934" d="M365.9,260.42a5.17,5.17,0,0,1-2.23.85,9.44,9.44,0,0,1-10-4.47,5.13,5.13,0,0,1-.86-2.23c.09,0,.36.84,1.17,2a9.79,9.79,0,0,0,9.62,4.31C365,260.71,365.87,260.34,365.9,260.42Z" fill="#455a64"/>
      <path id="Path_7935" data-name="Path 7935" d="M321.3,253.81a3.89,3.89,0,0,1-.1,1.94,7.62,7.62,0,0,1-2.4,4,7.7,7.7,0,0,1-4.3,1.86,3.84,3.84,0,0,1-1.93-.16c0-.09.75,0,1.89-.21a8.15,8.15,0,0,0,4-1.88,8.33,8.33,0,0,0,2.39-3.72C321.19,254.55,321.21,253.81,321.3,253.81Z" fill="#455a64"/>
      <path id="Path_7936" data-name="Path 7936" d="M317.31,176.14s-26.72,11.3-27.57,10.87-1.45-21.95-1.45-21.95H275s-2.52,31.92,5.49,37c10.95,7,37.46-7.56,37.46-7.56Z" fill="#ffbe9d"/>
      <path id="Path_7937" data-name="Path 7937" d="M228.08,137.59l-2.74,11.94,12.82,3.05s5.27,1.17,10.51,8.64S255.94,172,255.94,172l8.88-43.88L255.18,135a20.92,20.92,0,0,1-6.28,3c-2.75.8-6.42,1.71-8.47,1.61A94.559,94.559,0,0,1,228.08,137.59Z" fill="#292d36"/>
      <path id="Path_7938" data-name="Path 7938" d="M371.93,188.52,255.94,172l8.88-43.88,112.78,27.2a4.94,4.94,0,0,1,3.72,5.61l-3.81,23.48a5,5,0,0,1-5.58,4.11Z" fill="#ec7a49"/>
      <path id="Path_7939" data-name="Path 7939" d="M217.73,138.15a.5.5,0,0,0-.58.59,67.269,67.269,0,0,0,1.91,7.68c.27.69,6.69,1.31,6.69,1.31l1.77-7.71Z" fill="#ec7a49"/>
      <path id="Path_7940" data-name="Path 7940" d="M362.62,173.41l1.77-7.09-74.93-15.2-1.53,7.13Z" fill="#263238"/>
      <path id="Path_7941" data-name="Path 7941" d="M348.06,173.17l-16.56-1.33c-.11-1.93,0-9.41,0-9.41s-6.89-1.07-7-8,1.11-22.7,1.11-22.7h0a23.93,23.93,0,0,1,24.05,3l1,.79Z" fill="#ffbe9d"/>
      <path id="Path_7942" data-name="Path 7942" d="M327.25,143.6a1,1,0,1,0-1.41-.06,1,1,0,0,0,1.41.06Z" fill="#263238"/>
      <path id="Path_7943" data-name="Path 7943" d="M325.58,142c.11.12.79-.4,1.73-.4s1.64.48,1.75.36-.06-.27-.36-.5a2.39,2.39,0,0,0-1.39-.44,2.29,2.29,0,0,0-1.38.48C325.63,141.76,325.53,142,325.58,142Z" fill="#263238"/>
      <path id="Path_7944" data-name="Path 7944" d="M336.51,142.86a1,1,0,1,0,.759-.122A1,1,0,0,0,336.51,142.86Z" fill="#263238"/>
      <path id="Path_7945" data-name="Path 7945" d="M335.89,142.87c.1.12.78-.4,1.73-.41s1.64.49,1.74.37-.05-.27-.35-.5a2.31,2.31,0,0,0-1.4-.44,2.35,2.35,0,0,0-1.38.47C335.94,142.6,335.83,142.82,335.89,142.87Z" fill="#263238"/>
      <path id="Path_7946" data-name="Path 7946" d="M332.08,150.69a4.72,4.72,0,0,0-1.53-.32c-.25,0-.44-.08-.46-.22a1.34,1.34,0,0,1,.17-.71c.25-.62.5-1.26.76-1.93a26.64,26.64,0,0,0,1.62-5.06,26.354,26.354,0,0,0-2.13,4.87c-.24.67-.48,1.31-.71,2a1.63,1.63,0,0,0-.14,1,.66.66,0,0,0,.43.39,1.91,1.91,0,0,0,.42.06A4.45,4.45,0,0,0,332.08,150.69Z" fill="#263238"/>
      <path id="Path_7947" data-name="Path 7947" d="M335.16,151.74c1-.59-2.72,1.45-4.65,1.35a2.62,2.62,0,0,0,3.1,1C335.67,153.38,335.16,151.74,335.16,151.74Z" fill="#fff"/>
      <path id="Path_7948" data-name="Path 7948" d="M331.52,162.33a16,16,0,0,0,9-2.55s-2.12,5-9,4.34Z" fill="#eb996e"/>
      <path id="Path_7949" data-name="Path 7949" d="M350.76,142.24c.15-.05,5.13-.38,4.31,5.42s-6.42,3.06-6.41,2.89S350.76,142.24,350.76,142.24Z" fill="#ffbe9d"/>
      <path id="Path_7950" data-name="Path 7950" d="M350.73,148.76a1.531,1.531,0,0,0,.25.19,1,1,0,0,0,.76.12,2.49,2.49,0,0,0,1.47-2.08,3.52,3.52,0,0,0-.07-1.49,1.18,1.18,0,0,0-.65-.88.53.53,0,0,0-.64.19c-.1.15-.08.27-.11.28s-.11-.11,0-.35a.61.61,0,0,1,.28-.33.8.8,0,0,1,.58-.07,1.46,1.46,0,0,1,.93,1,3.56,3.56,0,0,1,.12,1.67,2.65,2.65,0,0,1-1.84,2.3,1.07,1.07,0,0,1-.9-.29C350.72,148.91,350.71,148.77,350.73,148.76Z" fill="#eb996e"/>
      <path id="Path_7951" data-name="Path 7951" d="M325.68,131.56c1.79,4.73,8.65,6.6,13.69,6.88-2.33-2.05-.89-1.62-2.33-3.06a21.38,21.38,0,0,0,14,5.21,9.2,9.2,0,0,0-6.1-11.7c-1.55-.47-3.2-.51-4.78-.88a35.43,35.43,0,0,0-4-1c-4.06-.6-10.65-1.7-10.54,4.59" fill="#263238"/>
      <path id="Path_7952" data-name="Path 7952" d="M348,138c.26.67,1.71,8.49,1.71,8.49l1.76-7.54Z" fill="#263238"/>
      <path id="Path_7953" data-name="Path 7953" d="M397.25,234.71a16.74,16.74,0,0,0-.08-22.06l-26.74-30.32-7.16,20c.49.32,20.82,22.12,20.82,22.12l-17.47,21.78a12.53,12.53,0,0,0-2.08,11.93l4.67,11.43L382,263.86l-1-1.49h-9.59l-.57-2.3h0Z" fill="#ffbe9d"/>
      <path id="Path_7954" data-name="Path 7954" d="M384.58,195.15l-16.89-17h0A30.27,30.27,0,0,0,356,170.57a24.289,24.289,0,0,0-7.31-1.4h0a29.21,29.21,0,0,1-17.65,0,42.54,42.54,0,0,0-13.92,4h0L291.91,183.4,300,205.7l13.53-4.55.8,21-2.68,31.37L364,254l-.68-28.46V204.96l7.56,7.35Z" fill="#d4d8db"/>
    </g>
  </g>
</svg>
