<svg xmlns="http://www.w3.org/2000/svg" width="482.704" height="391.5" viewBox="0 0 482.704 391.5">
  <g id="Business_Plan-rafiki" data-name="Business Plan-rafiki" transform="translate(-56.11 -58.049)">
    <g id="freepik--Shadow--inject-16" transform="translate(56.11 421.367)">
      <ellipse id="freepik--path--inject-16" cx="241.352" cy="14.091" rx="241.352" ry="14.091" transform="translate(0)" fill="#fff4e3"/>
    </g>
    <g id="freepik--Board--inject-16" transform="translate(93.353 92.568)">
      <path id="Path_8545" data-name="Path 8545" d="M269.008,140.78h-3.573l30.647,336.143a1.332,1.332,0,0,0,1.332,1.245h3.012a1.332,1.332,0,0,0,1.332-1.456l-30.472-333.79a2.315,2.315,0,0,0-2.278-2.141Z" transform="translate(-116.869 -140.78)" fill="#292d36"/>
      <path id="Path_8546" data-name="Path 8546" d="M325.581,140.78h3.585l-30.7,336.093a1.332,1.332,0,0,1-1.332,1.245h-3a1.332,1.332,0,0,1-1.332-1.456l30.472-333.778a2.315,2.315,0,0,1,2.3-2.1Z" transform="translate(-178.334 -140.78)" fill="#292d36"/>
      <path id="Path_8547" data-name="Path 8547" d="M410.957,229.993h0a.622.622,0,0,0,.573-.672l-1.245-18.336a.622.622,0,0,0-.66-.585.635.635,0,0,0-.585.672l1.245,18.336a.622.622,0,0,0,.672.585Z" transform="translate(-405.391 -123.738)" fill="#ec7a49"/>
      <path id="Path_8548" data-name="Path 8548" d="M414.191,209.9h0a.622.622,0,0,0,.573-.66l-2.788-40.381a.635.635,0,0,0-.66-.573.622.622,0,0,0-.585.66l2.788,40.369a.622.622,0,0,0,.672.585Z" transform="translate(-410.729 -134.046)" fill="#ec7a49"/>
      <path id="Path_8549" data-name="Path 8549" d="M181.312,144.33H441.7a16.294,16.294,0,0,1,15.971,14.937L470.986,351.8a13.792,13.792,0,0,1-13.9,14.937H196.7A16.294,16.294,0,0,1,180.727,351.8L167.407,159.243a13.792,13.792,0,0,1,13.9-14.913Z" transform="translate(-164.058 -139.911)" fill="#fff"/>
      <path id="Path_8550" data-name="Path 8550" d="M196.773,367.3H457.158a14.265,14.265,0,0,0,14.4-15.423L458.241,159.324A16.755,16.755,0,0,0,441.772,144H181.388a14.265,14.265,0,0,0-14.377,15.435L180.28,351.88A16.755,16.755,0,0,0,196.773,367.3Zm245-222.419a15.8,15.8,0,0,1,15.51,14.5L470.6,351.88a13.319,13.319,0,0,1-13.444,14.44H196.773a15.8,15.8,0,0,1-15.51-14.44L167.944,159.324A13.319,13.319,0,0,1,181.388,144.9Z" transform="translate(-164.134 -139.992)" fill="#ec7a49"/>
      <g id="Group_8841" data-name="Group 8841" transform="translate(148.59 112.771)" opacity="0.2">
        <ellipse id="Ellipse_1023" data-name="Ellipse 1023" cx="28.493" cy="26.589" rx="28.493" ry="26.589" transform="matrix(-0.719, -0.695, 0.695, -0.719, 40.986, 77.839)" fill="#ec7a49"/>
        <ellipse id="Ellipse_1024" data-name="Ellipse 1024" cx="22.804" cy="21.273" rx="22.804" ry="21.273" transform="matrix(-0.719, -0.695, 0.695, -0.719, 40.587, 70.064)" fill="#fff"/>
        <ellipse id="Ellipse_1025" data-name="Ellipse 1025" cx="17.103" cy="15.958" rx="17.103" ry="15.958" transform="matrix(-0.719, -0.695, 0.695, -0.719, 40.18, 62.28)" fill="#ec7a49"/>
        <path id="Path_8551" data-name="Path 8551" d="M254.456,264.807a11.987,11.987,0,0,0,11.776,11.016,10.145,10.145,0,0,0,10.257-11.016,11.987,11.987,0,0,0-11.776-11.016,10.157,10.157,0,0,0-10.257,11.016Z" transform="translate(-226.509 -225.887)" fill="#fff"/>
        <path id="Path_8552" data-name="Path 8552" d="M258.884,263.722a5.987,5.987,0,0,0,5.888,5.5,5.066,5.066,0,0,0,5.116-5.5,5.975,5.975,0,0,0-5.888-5.5,5.066,5.066,0,0,0-5.116,5.5Z" transform="translate(-225.423 -224.803)" fill="#ec7a49"/>
      </g>
      <path id="Path_8553" data-name="Path 8553" d="M203.284,306.422h13.693a3.871,3.871,0,0,0,3.921-3.361,29.626,29.626,0,0,1,4.344-12.2,31.568,31.568,0,0,0,4.979-18.386,24.373,24.373,0,0,0-23.912-22.406,20.688,20.688,0,0,0-20.9,22.406,35.514,35.514,0,0,0,7.469,18.361,34.406,34.406,0,0,1,6.05,12.224,4.506,4.506,0,0,0,4.357,3.361Zm3.037-55.069a23.1,23.1,0,0,1,22.668,21.161,30.361,30.361,0,0,1-4.78,17.651,30.659,30.659,0,0,0-4.531,12.7,2.651,2.651,0,0,1-2.689,2.278H203.3a3.224,3.224,0,0,1-3.1-2.353,35.775,35.775,0,0,0-6.224-12.672,34.306,34.306,0,0,1-7.245-17.676,19.444,19.444,0,0,1,19.655-21.161Z" transform="translate(54.351 -114.027)" fill="#ec7a49"/>
      <path id="Path_8554" data-name="Path 8554" d="M192.537,269.633c.7-.261,1.817-.149,3.3,2.091A35.687,35.687,0,0,1,199.694,281a8.712,8.712,0,0,0,1.618,0,5.054,5.054,0,0,0,3.834-1.83c-1.133-1.568-1.967-4.257-2.054-8.614-.075-3.834.411-5.626,1.581-5.614,1.668,0,2.838,4.195,3.1,7a11.713,11.713,0,0,1-1.245,7.232,3.585,3.585,0,0,0,2.49,1.083,5.415,5.415,0,0,0,1.469-.125c.261-4.581,1.158-7.743,2.689-9.448a4.369,4.369,0,0,1,3.734-1.544c2.49.149,2.826,1.867,2.826,2.577,0,2.9-4,7.867-8.228,9.274-.261,5.851.436,14.788,2.9,28.419l.087.51h-1.108v-.373c-2.2-12.124-3.2-21.572-2.95-28.269a7.47,7.47,0,0,1-1.394.087,4.643,4.643,0,0,1-3.075-1.307,6.062,6.062,0,0,1-4.444,2.054,9.172,9.172,0,0,1-1.431,0c2.639,9.7,3.921,22.232,1.83,27.809h-1.245c2.278-5.041.9-18.124-1.817-27.945a9.274,9.274,0,0,1-7.182-6.709C190.881,272.583,191.255,270.168,192.537,269.633Zm26.141,2.017c0-.56-.187-1.319-1.718-1.419h-.286a3.324,3.324,0,0,0-2.651,1.245c-1.083,1.245-2.066,3.66-2.4,8.328,3.461-1.506,7.008-5.776,7-8.153ZM205.843,278.2a9.821,9.821,0,0,0,.934-3.672c.274-4.158-1.307-8.228-1.929-8.477,0,0-.66.436-.585,4.568a16.7,16.7,0,0,0,1.519,7.581Zm-13.17-3.224a8.153,8.153,0,0,0,5.776,5.8,33.448,33.448,0,0,0-3.573-8.514c-.822-1.245-1.444-1.656-1.78-1.656h-.137C192.45,270.89,192.039,272.708,192.674,274.973Z" transform="translate(57.493 -110.387)" fill="#ec7a49"/>
      <path id="Path_8555" data-name="Path 8555" d="M195.658,303.473H210.6a1.544,1.544,0,0,0,1.568-1.668l-.124-1.8a1.842,1.842,0,0,0-1.793-1.681H195.309a1.556,1.556,0,0,0-1.568,1.68l.124,1.8a1.83,1.83,0,0,0,1.792,1.668Z" transform="translate(61.977 -102.216)" fill="#ec7a49"/>
      <path id="Path_8556" data-name="Path 8556" d="M195.779,304.258h14.937a2.141,2.141,0,0,0,1.606-.685,2.166,2.166,0,0,0,.573-1.656l-.124-1.8a2.49,2.49,0,0,0-2.4-2.253H195.43a2.154,2.154,0,0,0-1.606.7,2.129,2.129,0,0,0-.573,1.643l.124,1.8A2.49,2.49,0,0,0,195.779,304.258ZM210.43,299.1a1.245,1.245,0,0,1,1.17,1.1l.125,1.8a1.008,1.008,0,0,1-.249.722.934.934,0,0,1-.7.286H195.841a1.245,1.245,0,0,1-1.17-1.1l-.124-1.8a.971.971,0,0,1,.249-.71.946.946,0,0,1,.7-.3Z" transform="translate(61.856 -102.329)" fill="#ec7a49"/>
      <path id="Path_8557" data-name="Path 8557" d="M350.731,231.775l14.639-15.722-8.353-5.153L345.03,223.784Z" transform="translate(-279.553 -123.615)" fill="#ec7a49"/>
      <path id="Path_8558" data-name="Path 8558" d="M353.923,229.568l9.523-10.232-9.311-7-7.8,8.377Z" transform="translate(-279.247 -123.263)" fill="#ec7a49"/>
      <path id="Path_8559" data-name="Path 8559" d="M342.92,199.75l10.967,9.6a5.9,5.9,0,0,0,4.792,1.531c2.863-.548,8.564,1.419,8.564,1.419C362.588,207.5,356.862,195.443,342.92,199.75Z" transform="translate(-278.8 -126.568)" fill="#ec7a49"/>
      <path id="Path_8560" data-name="Path 8560" d="M362.558,211.32s5.539,5.514,10.307,10.294a5.888,5.888,0,0,1,1.855,4.68c-.349,2.9,2.017,8.477,2.017,8.477C371.645,230.452,359.234,225.548,362.558,211.32Z" transform="translate(-312.043 -123.513)" fill="#ec7a49"/>
      <path id="Path_8561" data-name="Path 8561" d="M359.132,209.661c-8.091-8.427-11.2-17.589-7.643-21.348s12.821-1.332,21.771,6.224l22.195,18.672a4.083,4.083,0,0,1,.573,5.863L385.111,230.81a4.058,4.058,0,0,1-5.888-.174Z" transform="translate(-317.418 -129.571)" fill="#fff"/>
      <path id="Path_8562" data-name="Path 8562" d="M382.421,232.66h0a4.357,4.357,0,0,0,3.187-1.382l10.954-11.689a4.357,4.357,0,0,0,1.158-3.286,4.979,4.979,0,0,0-1.78-3.485l-22.195-18.672c-9.062-7.618-18.8-10.245-22.63-6.124s-.548,13.693,7.655,22.207l20.091,20.9A4.979,4.979,0,0,0,382.421,232.66ZM356.368,187.3c4.369,0,10.668,2.826,16.581,7.78l22.182,18.672a3.734,3.734,0,0,1,1.344,2.614,3.1,3.1,0,0,1-.822,2.353l-10.917,11.738a3.162,3.162,0,0,1-2.29.983,3.859,3.859,0,0,1-2.689-1.158L359.667,209.37c-7.606-7.917-10.967-16.917-7.643-20.489a5.714,5.714,0,0,1,4.344-1.581Z" transform="translate(-317.505 -129.691)" fill="#ec7a49"/>
      <path id="Path_8563" data-name="Path 8563" d="M370.737,206.655a7.008,7.008,0,1,0-.672-10.22,7.232,7.232,0,0,0,.672,10.22Z" transform="translate(-325.289 -127.698)" fill="#ec7a49"/>
      <path id="Path_8564" data-name="Path 8564" d="M371.672,204.632a4.842,4.842,0,1,0-.486-7.07,4.979,4.979,0,0,0,.486,7.07Z" transform="translate(-324.755 -127.256)" fill="#fff" opacity="0.3"/>
      <ellipse id="Ellipse_1026" data-name="Ellipse 1026" cx="24.149" cy="22.531" rx="24.149" ry="22.531" transform="matrix(-0.719, -0.695, 0.695, -0.719, 120.159, 208.005)" fill="#ec7a49"/>
      <path id="Path_8565" data-name="Path 8565" d="M302.016,285.5a22.108,22.108,0,0,0,3.224,9.958,22.73,22.73,0,0,0,19.182,10.979,19.244,19.244,0,0,0,17.664-10.979,19.916,19.916,0,0,0,1.842-9.958,22.8,22.8,0,0,0-22.406-20.962A19.319,19.319,0,0,0,302.016,285.5Z" transform="translate(-204.536 -110.485)" fill="#fff"/>
      <path id="Path_8566" data-name="Path 8566" d="M303.47,290.487a22.73,22.73,0,0,0,19.182,10.979,19.244,19.244,0,0,0,17.664-10.979,34.916,34.916,0,0,0-18.809-5.577,31.269,31.269,0,0,0-18.037,5.577Z" transform="translate(-202.766 -105.499)" fill="#ec7a49" opacity="0.6"/>
      <path id="Path_8567" data-name="Path 8567" d="M311.726,277.456a10.17,10.17,0,0,0,9.958,9.336,8.6,8.6,0,0,0,8.713-9.336,10.17,10.17,0,0,0-9.958-9.336,8.6,8.6,0,0,0-8.714,9.336Z" transform="translate(-203.117 -109.609)" fill="#ec7a49" opacity="0.6"/>
      <path id="Path_8568" data-name="Path 8568" d="M262.322,213.326a23.651,23.651,0,0,1,3.261-16.406l21.348,14.24-4.768,23.987a26.6,26.6,0,0,1-6.162-2.49,27.533,27.533,0,0,1-5.415-3.946,26.875,26.875,0,0,1-8.265-15.386Z" transform="translate(-97.76 -127.038)" fill="#fff"/>
      <path id="Path_8569" data-name="Path 8569" d="M265.957,198.693a22.73,22.73,0,0,0-2.49,14.452,25.717,25.717,0,0,0,7.867,14.676,26.455,26.455,0,0,0,5.178,3.734,25.432,25.432,0,0,0,4.593,2l4.344-21.846-19.543-13.045m-.4-1.768,21.4,14.265-4.768,23.987a26.6,26.6,0,0,1-6.162-2.49,27.532,27.532,0,0,1-5.415-3.946,26.875,26.875,0,0,1-8.241-15.4,23.651,23.651,0,0,1,3.261-16.406Z" transform="translate(-97.735 -127.042)" fill="#ec7a49"/>
      <path id="Path_8570" data-name="Path 8570" d="M265.761,213.233l21.784-10.494a27.236,27.236,0,0,0-5.44-7.058c-10.294-9.635-26.141-9.635-35.115,0a21.922,21.922,0,0,0-2.49,3.311Z" transform="translate(-76.589 -129.11)" fill="#ec7a49"/>
      <path id="Path_8571" data-name="Path 8571" d="M246.777,210.424l-4.768,23.987a23.651,23.651,0,0,0,23.539-6.423c6.859-7.369,8.066-18.672,3.012-28.058Z" transform="translate(-57.605 -126.301)" fill="#e0e0e0"/>
      <path id="Path_8572" data-name="Path 8572" d="M205.747,243.937a17.566,17.566,0,0,0,0-2.577H204.5a16.918,16.918,0,0,1,0,2.4Z" transform="translate(54.95 -116.159)" fill="#ec7a49"/>
      <path id="Path_8573" data-name="Path 8573" d="M235.087,244.516l1.245-.324a40.293,40.293,0,0,0-1.8-5.129l-1.145.5A38.8,38.8,0,0,1,235.087,244.516Zm-4.07-9.7,1.083-.61c-.846-1.531-1.792-3.075-2.813-4.606l-1.033.7c1,1.494,1.929,3.012,2.763,4.519Zm-5.875-8.813.983-.772c-1.108-1.407-2.278-2.788-3.485-4.108l-.921.834c1.17,1.295,2.34,2.664,3.423,4.046Zm-7.133-7.83.859-.909c-1.332-1.245-2.7-2.49-4.07-3.548l-.772.971c1.394,1.07,2.639,2.241,3.983,3.485Zm-8.253-6.6.685-1.046a44.385,44.385,0,0,0-4.68-2.714l-.56,1.108a48.237,48.237,0,0,1,4.556,2.651Z" transform="translate(23.544 -124.369)" fill="#ec7a49"/>
      <path id="Path_8574" data-name="Path 8574" d="M236.2,207.5l.373-1.245a25.479,25.479,0,0,0-2.49-.685l-.274,1.245C234.607,207.026,235.4,207.238,236.2,207.5Z" transform="translate(-12.311 -124.92)" fill="#ec7a49"/>
      <path id="Path_8575" data-name="Path 8575" d="M372.33,235.377c.075-.834.187-1.643.324-2.415l-1.245-.212c-.149.8-.261,1.643-.349,2.49Z" transform="translate(-319.238 -118.267)" fill="#ec7a49"/>
      <path id="Path_8576" data-name="Path 8576" d="M376.909,281.954l.635-1.07c-1.32-.784-2.627-1.656-3.859-2.564l-.734,1.008C374.22,280.261,375.552,281.144,376.909,281.954Zm-7.668-5.614.834-.934c-1.145-1.021-2.266-2.116-3.324-3.249l-.909.846c1.108,1.158,2.228,2.278,3.4,3.336Zm-6.473-6.958.983-.759c-.934-1.245-1.83-2.49-2.664-3.8l-1.058.672c.859,1.332,1.78,2.639,2.739,3.884Zm-5.116-8,1.108-.573c-.71-1.369-1.382-2.788-1.979-4.207l-1.145.473C356.245,258.539,356.93,259.983,357.652,261.377Zm-3.66-8.714,1.245-.373c-.473-1.481-.884-2.987-1.245-4.481l-1.245.274c.336,1.481.759,3.025,1.245,4.531Zm-2.116-9.261,1.245-.174a45.884,45.884,0,0,1-.386-4.618H351.49a45.3,45.3,0,0,0,.386,4.743Z" transform="translate(-299.768 -116.832)" fill="#ec7a49"/>
      <path id="Path_8577" data-name="Path 8577" d="M348.683,276.5l.486-1.145c-.772-.324-1.519-.66-2.253-1.008l-.535,1.12C347.152,275.831,347.9,276.167,348.683,276.5Z" transform="translate(-265.032 -108.084)" fill="#ec7a49"/>
      <path id="Path_8578" data-name="Path 8578" d="M289.951,206.023c.8-.2,1.593-.373,2.378-.5l-.2-1.245c-.822.137-1.656.311-2.49.523Z" transform="translate(-137.563 -125.236)" fill="#ec7a49"/>
      <path id="Path_8579" data-name="Path 8579" d="M295.495,261.871l1.245-.075c0-.71-.062-1.444-.062-2.178a28.721,28.721,0,0,1,.1-2.913l-1.245-.087c-.075,1.008-.112,2.017-.112,3C295.432,260.378,295.457,261.137,295.495,261.871Zm1.892-10.257c.286-1.643.647-3.324,1.083-4.979l-1.245-.311c-.448,1.705-.822,3.436-1.108,5.116Zm2.577-9.958c.56-1.606,1.183-3.212,1.855-4.78l-1.133-.5c-.7,1.606-1.332,3.236-1.892,4.88Zm4.058-9.423c.8-1.519,1.643-3.025,2.49-4.469l-1.058-.66c-.909,1.469-1.78,3-2.577,4.556Zm5.39-8.714c1.021-1.394,2.091-2.751,3.187-4.021l-.946-.809a51.612,51.612,0,0,0-3.249,4.1Zm6.7-7.743a50.35,50.35,0,0,1,3.859-3.361l-.759-.971a50.392,50.392,0,0,0-3.958,3.436Zm8.066-6.224a36.1,36.1,0,0,1,4.519-2.328l-.486-1.145a38.72,38.72,0,0,0-4.68,2.4Z" transform="translate(-181.122 -124.795)" fill="#ec7a49"/>
      <path id="Path_8580" data-name="Path 8580" d="M320.735,257.626l1.183-.386c-.237-.747-.448-1.544-.622-2.34l-1.245.261C320.274,256.008,320.5,256.842,320.735,257.626Z" transform="translate(-205.005 -112.845)" fill="#ec7a49"/>
      <path id="Path_8581" data-name="Path 8581" d="M193.179,181.213a7.917,7.917,0,0,1,8-8.527,9,9,0,0,1,3.274.622,9.535,9.535,0,0,1,8.925-5.838,11.328,11.328,0,0,1,10.705,8.141,9.747,9.747,0,0,1,8.987,8.913v.66h0a4.519,4.519,0,0,1,4.469,4.108,3.809,3.809,0,0,1-3.859,4.145H196.279a6.9,6.9,0,0,1-6.772-6.336,5.826,5.826,0,0,1,3.672-5.888Z" transform="translate(41.875 -134.247)" fill="#ec7a49" opacity="0.2"/>
      <path id="Path_8582" data-name="Path 8582" d="M326.861,180.8a6.921,6.921,0,0,1,7-7.469,7.668,7.668,0,0,1,2.863.56,8.352,8.352,0,0,1,7.8-5.116,9.958,9.958,0,0,1,9.336,7.12,8.514,8.514,0,0,1,7.842,7.792c0,.2,0,.386,0,.573h0a3.946,3.946,0,0,1,3.884,3.622,3.348,3.348,0,0,1-3.373,3.635h-32.7a6.037,6.037,0,0,1-5.925-5.552,5.079,5.079,0,0,1,3.274-5.166Z" transform="translate(-253.069 -133.926)" fill="#ec7a49" opacity="0.2"/>
      <path id="Path_8583" data-name="Path 8583" d="M312.622,166.4a6.224,6.224,0,0,0-6.062-5.639,5.291,5.291,0,0,0-2.1.423,7.469,7.469,0,0,0-6.423-3.859,6.224,6.224,0,0,0-6.324,5.377,5.415,5.415,0,0,0-5.116,5.875,2.606,2.606,0,0,0,0,.436h0a2.49,2.49,0,0,0-2.552,2.739,2.988,2.988,0,0,0,2.925,2.739h24.721a3.859,3.859,0,0,0,3.9-4.182,4.556,4.556,0,0,0-2.963-3.909Z" transform="translate(-153.848 -136.729)" fill="#ec7a49" opacity="0.1"/>
    </g>
    <g id="freepik--Character--inject-16" transform="translate(306.673 58.049)">
      <path id="Path_8584" data-name="Path 8584" d="M81.472,170.021c2.116,2.676,4.382,5.589,6.448,8.489s4.182,5.813,6.124,8.8,3.734,6.025,5.465,9.087a87.359,87.359,0,0,1,4.394,9.3l-.274-2.017a28.157,28.157,0,0,1-.846,6.423,30.771,30.771,0,0,1-2.365,6.224,37.267,37.267,0,0,1-3.734,5.875c-.71.946-1.456,1.867-2.266,2.751a14.684,14.684,0,0,1-1.245,1.245c-.436.373-.871.871-1.245,1.183l-.237.224a2.888,2.888,0,0,0,3.336,4.643,30,30,0,0,0,3.734-2.3,39.927,39.927,0,0,0,3.336-2.651,38.725,38.725,0,0,0,5.788-6.386,35.1,35.1,0,0,0,4.17-7.817,34.232,34.232,0,0,0,2.079-8.8,4.419,4.419,0,0,0-.187-1.73l-.087-.286a84.557,84.557,0,0,0-4.469-11.016c-1.718-3.5-3.61-6.859-5.614-10.12s-4.108-6.448-6.336-9.548-4.469-6.075-7.046-9.1a5.825,5.825,0,1,0-9.013,7.382Z" transform="translate(88.168 -101.469)" fill="#febe9d"/>
      <path id="Path_8585" data-name="Path 8585" d="M102.395,213.25l-10.73,4.631,10.481,4.979s6.137-4.182,5.614-8.813Z" transform="translate(80.091 -88.521)" fill="#b55b52"/>
      <path id="Path_8586" data-name="Path 8586" d="M96.24,225.335l9.025,3.7,6.162-7.083-10.494-4.979Z" transform="translate(70.761 -87.61)" fill="#b55b52"/>
      <path id="Path_8587" data-name="Path 8587" d="M131.942,140.32c-1.319,6.809-2.639,19.232,2.1,23.576a36.1,36.1,0,0,1-16.294,14.315c-9.062-5.353-4.743-13.593-4.743-13.593,7.543-2.054,7.344-7.643,6.025-12.846Z" transform="translate(28.549 -106.373)" fill="#febe9d"/>
      <path id="Path_8588" data-name="Path 8588" d="M138.59,160.732a5.763,5.763,0,0,0-.087-3.137s-16.817-2-22.132-.71-7.332,6.6-7.332,6.6Z" transform="translate(27.49 -102.425)" fill="#cfd8de"/>
      <path id="Path_8589" data-name="Path 8589" d="M137.516,132.926c0,.921-.5,1.68-1.1,1.693s-1.083-.71-1.071-1.643.485-1.68,1.083-1.705S137.516,131.992,137.516,132.926Z" transform="translate(-4.013 -108.589)" fill="#263238"/>
      <path id="Path_8590" data-name="Path 8590" d="M138.191,131.425,136,130.84S137.108,132.545,138.191,131.425Z" transform="translate(-5.496 -108.694)" fill="#263238"/>
      <path id="Path_8591" data-name="Path 8591" d="M138.826,134.3a25.73,25.73,0,0,1-3.286,5.987,3.846,3.846,0,0,0,3.261.523Z" transform="translate(-5.559 -107.847)" fill="#febe9d"/>
      <path id="Path_8592" data-name="Path 8592" d="M137.239,129.137a.622.622,0,0,0,.386-.124.56.56,0,0,0,.087-.772,5.153,5.153,0,0,0-4.407-2.029.56.56,0,0,0-.486.61.51.51,0,0,0,.573.473,4.108,4.108,0,0,1,3.473,1.643.535.535,0,0,0,.373.2Z" transform="translate(-1.171 -109.829)" fill="#263238"/>
      <path id="Path_8593" data-name="Path 8593" d="M142.933,132.079c-.734,11.365-.809,16.182-6.51,22.17-8.577,9-22.207,6.037-24.9-5.216-2.365-10.133-.759-27.024,10.257-31.842a14.937,14.937,0,0,1,21.149,14.888Z" transform="translate(21.342 -112.373)" fill="#febe9d"/>
      <path id="Path_8594" data-name="Path 8594" d="M132.768,120.307c4.394,1.046,10.058,10.382,8.714,16.929-1.432,6.846,11.2,16.755,1.506,20.029-10.755,3.635-10.294,9.46-23.053,6.6-6.7-1.494-25.829.473-16.307-15,8.166-13.245,3.909-18.672,3.909-18.672a8.6,8.6,0,0,1-6.635-3.062c-2.788-3.311-.274-18.124,8.826-13.02C117.669,118.478,138.257,110.225,132.768,120.307Z" transform="translate(31.046 -113.049)" fill="#263238"/>
      <path id="Path_8595" data-name="Path 8595" d="M135.031,135.143a6.884,6.884,0,0,1-3.6,5.129c-2.241.809-2.826-.909-3.062-3.56-.2-2.39.548-5.987,2.863-6.286S135.28,132.628,135.031,135.143Z" transform="translate(7.173 -108.801)" fill="#febe9d"/>
      <path id="Path_8596" data-name="Path 8596" d="M118.2,216.45S111.664,301.382,111,337.531a21.712,21.712,0,0,0,.349,4.307c11.091,60.385,23.564,111,23.564,111l6.149-1.68s-1.344-69.808-9.261-114.122c7.8-38.713,15.771-120.583,15.771-120.583Z" transform="translate(16.238 -87.737)" fill="#febe9d"/>
      <path id="Path_8597" data-name="Path 8597" d="M91.953,216.45s17.228,83.4,23.24,118.193c6.224,36.161,18.373,122.973,18.373,122.973h6.311s4.979-81.086-5.216-120.583c.66-38.713-7.344-120.583-7.344-120.583Z" transform="translate(46.43 -87.737)" fill="#febe9d"/>
      <path id="Path_8598" data-name="Path 8598" d="M91.74,169.458a9.5,9.5,0,0,1,7.855-8.776c3.734-.622,8.564-1.357,13.108-1.768a146.04,146.04,0,0,1,21.012,0c2.689.162,5.3.361,7.668.635a9.772,9.772,0,0,1,8.353,12.174c-7.469,30.584-7.083,41.862-6.946,58.9,18.149,27.883,11.452,55.717,13.867,95.139-19.157,3.585-41.526-.112-61.6,2.415-4.643-47.09,1.158-89.027,3.423-97.554C93.857,194.914,91.292,177.785,91.74,169.458Z" transform="translate(31.195 -101.914)" fill="#292d36"/>
      <path id="Path_8599" data-name="Path 8599" d="M93.492,159.59c8,2.6,12.722,10.245,12.722,10.245s-10.232,15.684-11.377,20.054C90.58,178.4,93.492,159.59,93.492,159.59Z" transform="translate(80.604 -101.656)" fill="#263238"/>
      <path id="Path_8602" data-name="Path 8602" d="M148.948,222.018l-47.787,4.12c-.66,0-1.17-.871-1.245-2.178l-.187-7.954c0-1.606.647-3.087,1.444-3.162l45.858-3.734c.66,0,1.17.871,1.245,2.178l2.129,7.643C150.442,220.462,149.757,221.956,148.948,222.018Z" transform="translate(27.439 -89.534)" fill="#ec7a49"/>
      <path id="Path_8603" data-name="Path 8603" d="M164.424,167.241,161.7,188.4l-1.469,10.518c-.523,3.485-1.046,6.958-1.643,10.394l.1-.4a20.475,20.475,0,0,1-1.581,3.9,45.152,45.152,0,0,1-2.49,4.282c-1.8,2.875-3.8,5.738-5.875,8.564s-4.207,5.664-6.423,8.44-4.431,5.589-6.635,8.34h0a2.9,2.9,0,0,0,4.133,4.021c2.813-2.39,5.452-4.867,8.091-7.394s5.141-5.178,7.631-7.892a104.941,104.941,0,0,0,7.145-8.589c1.133-1.531,2.241-3.112,3.286-4.83a28.853,28.853,0,0,0,2.813-5.925v-.1l.075-.286c1.693-7.158,3.062-14.265,4.182-21.4.573-3.56,1.133-7.12,1.618-10.693s.946-7.133,1.245-10.767h0a5.826,5.826,0,0,0-11.577-1.319Z" transform="translate(-42.086 -101.042)" fill="#febe9d"/>
      <path id="Path_8604" data-name="Path 8604" d="M144.745,160.23c-9.361,1.12-11.2,8.527-11.2,8.527s11.041,13.394,13.568,20.975C153.6,168.657,144.745,160.23,144.745,160.23Z" transform="translate(-13.731 -101.499)" fill="#263238"/>
      <path id="Path_8605" data-name="Path 8605" d="M161.04,193.23l100.205,55.094,1.319-2.415L161.7,192.01Z" transform="translate(-161.04 -93.72)" fill="#263238"/>
      <path id="Path_8606" data-name="Path 8606" d="M172.533,224.85l-11.2,1.817,8.776,7.693s6.734-2.564,7.282-7.332Z" transform="translate(-76.224 -85.681)" fill="#febe9d"/>
      <path id="Path_8607" data-name="Path 8607" d="M164.894,224.682a2.191,2.191,0,1,0,3.187-.4,2.278,2.278,0,0,0-3.187.4Z" transform="translate(-71.622 -85.936)" fill="#263238"/>
      <path id="Path_8608" data-name="Path 8608" d="M166.851,229.129a4.369,4.369,0,0,0,.983-.1.62.62,0,0,0-.286-1.207c-.149,0-3.324.66-5.564-3.062a.622.622,0,0,0-.859-.212.635.635,0,0,0-.212.859A6.859,6.859,0,0,0,166.851,229.129Z" transform="translate(-66.521 -85.777)" fill="#263238"/>
      <path id="Path_8609" data-name="Path 8609" d="M168.431,235.609l2.913,2.278a3.324,3.324,0,0,0,4.033.075L180.742,234l-8.776-7.693-3.958,4.456a3.336,3.336,0,0,0,.423,4.842Z" transform="translate(-86.835 -85.324)" fill="#febe9d"/>
      <path id="Path_8610" data-name="Path 8610" d="M126.289,406.128l7.282-1.992a.872.872,0,0,1,1.008.436l3.087,6.6a1.506,1.506,0,0,1-1,2.116c-3.9,1-4.979.9-9.871,2.39-4.145,1.245-4.22,3.423-11.1,3.884-4.158.274-3.224-3.162-1.469-3.535,6.224-1.332,6.834-3.386,10.332-7.954C125.045,407.36,125.406,406.365,126.289,406.128Z" transform="translate(23.832 -41.802)" fill="#263238"/>
      <path id="Path_8611" data-name="Path 8611" d="M101.411,408.61h7.469a.784.784,0,0,1,.809.7l.909,7.257a1.606,1.606,0,0,1-1.593,1.8c-3.983-.075-2.7,0-7.718,0H94.129c-4.17,0-2.851-3.236-1.083-3.635,3.485-.759,4.456-1.992,6.224-4.693A2.763,2.763,0,0,1,101.411,408.61Z" transform="translate(77.652 -40.699)" fill="#263238"/>
    </g>
  </g>
</svg>
