<svg id="Businessman-pana_2_" data-name="Businessman-pana (2)" xmlns="http://www.w3.org/2000/svg" xmlns:xlink="http://www.w3.org/1999/xlink" width="361.43" height="416.549" viewBox="0 0 361.43 416.549">
  <defs>
    <linearGradient id="linear-gradient" x1="5.813" y1="0.108" x2="5.84" y2="0.108" gradientUnits="objectBoundingBox">
      <stop offset="0" stop-color="gray" stop-opacity="0.18"/>
      <stop offset="0.54" stop-color="gray" stop-opacity="0.09"/>
      <stop offset="1" stop-color="gray" stop-opacity="0.071"/>
    </linearGradient>
  </defs>
  <g id="freepik--Desk--inject-34" transform="translate(0 154.139)">
    <rect id="Rectangle_5629" data-name="Rectangle 5629" width="80.28" height="3.9" transform="translate(68.71 52.52)" fill="#cfd8de"/>
    <path id="Path_8244" data-name="Path 8244" d="M348.12,268.74l-15.06-56.42h62.69l13.63,56.42Z" transform="translate(-291.85 -212.32)" fill="#d4d8db"/>
    <path id="Path_8245" data-name="Path 8245" d="M405.85,264.47H349.86l-13.04-49.54h56.29Z" transform="translate(-292.08 -212.32)" fill="#fff"/>
    <path id="Path_8246" data-name="Path 8246" d="M349.52,265h57l-13-50.55H336.2Zm55.74-1h-55l-12.77-48.55h55.23Z" transform="translate(-292.13 -212.32)" fill="#cfd8de"/>
    <rect id="Rectangle_5630" data-name="Rectangle 5630" width="4.05" height="193.56" transform="translate(310.39 67.38)" fill="#cfd8de"/>
    <rect id="Rectangle_5631" data-name="Rectangle 5631" width="4.05" height="193" transform="translate(306.33 67.93)" fill="#263238"/>
    <rect id="Rectangle_5632" data-name="Rectangle 5632" width="4.05" height="193.56" transform="translate(60.62 67.38)" fill="#cfd8de"/>
    <rect id="Rectangle_5633" data-name="Rectangle 5633" width="4.05" height="193" transform="translate(56.57 67.93)" fill="#263238"/>
    <rect id="Rectangle_5634" data-name="Rectangle 5634" width="361.43" height="15.88" transform="translate(0 56.13)" fill="#292d36"/>
    <rect id="Rectangle_5635" data-name="Rectangle 5635" width="135.57" height="26.28" transform="translate(62.64 72.01)" fill="#cfd8de"/>
    <path id="Path_8247" data-name="Path 8247" d="M320.21,295.65a3,3,0,1,0,3-3,3,3,0,0,0-3,3Z" transform="translate(-195.83 -212.32)" fill="#263238"/>
    <path id="Path_8248" data-name="Path 8248" d="M207.68,284.33c0,.14,47,.26,104.9.26s104.9-.12,104.9-.26-47-.26-104.9-.26S207.68,284.19,207.68,284.33Z" transform="translate(-174.57 -212.32)" fill="#263238"/>
  </g>
  <g id="freepik--Character--inject-34" transform="translate(112.741 0)">
    <path id="Path_8249" data-name="Path 8249" d="M306.61,97.52c-.54,0-7.85,1.22-7.85,1.22l-9.89,12.46-1.49,2.36,13.34,8.53,5.89-8.72,5-3.25a5.09,5.09,0,0,0-5.28-.55,15.62,15.62,0,0,1-6.23,1.22l1.76-5,5.42-1.08Z" transform="translate(-261.142 -58.181)" fill="#eb996e"/>
    <path id="Path_8250" data-name="Path 8250" d="M286.909,88.8a1.53,1.53,0,0,0-1.9,1.25c-.81,5.11-3.26,20.49-4,25a1.46,1.46,0,0,0,1.06,1.66l11.77,3.29a1.46,1.46,0,0,0,1.85-1.23l3.22-25.53a1.54,1.54,0,0,0-1.15-1.69Z" transform="translate(-242.06 -58.181)" fill="#263238"/>
    <path id="Path_8251" data-name="Path 8251" d="M293.75,116.85l-12-3.35,3.18-21.24a2.05,2.05,0,0,1,2.56-1.68l9.61,2.55Z" transform="translate(-241.002 -58.181)" fill="#ebebeb"/>
    <path id="Path_8252" data-name="Path 8252" d="M292.5,101.31l5.39,4s-.45,1.42-1.27,1.52a33,33,0,0,1-5.16-1.1Z" transform="translate(-251.501 -58.181)" fill="#eb996e"/>
    <path id="Path_8253" data-name="Path 8253" d="M292.1,98.08l5.65,2.48s.36,1.84-1.75,1.58l1.89,1.36s-.47.82-2.83.92-4.65-3.18-4.65-3.18Z" transform="translate(-250.451 -58.181)" fill="#eb996e"/>
    <path id="Path_8254" data-name="Path 8254" d="M292.38,104.37c0,.07.69-.06,1.44-.76a15.513,15.513,0,0,1,1.3-1.09,1.84,1.84,0,0,1,1.79-.22,33.8,33.8,0,0,0,4.9,2.32,24.45,24.45,0,0,0-4.72-2.81,2.27,2.27,0,0,0-1.21-.14,2.77,2.77,0,0,0-1,.46,8.469,8.469,0,0,0-1.28,1.22,11.426,11.426,0,0,1-1.22,1.02Z" transform="translate(-256.341 -58.181)" fill="#d1734a"/>
    <path id="Path_8255" data-name="Path 8255" d="M298.926,118.45a7.72,7.72,0,0,0,.9-8.49,18.323,18.323,0,0,1,.31,4.32A18.161,18.161,0,0,1,298.926,118.45Z" transform="translate(-261.778 -58.181)" fill="#d1734a"/>
    <path id="Path_8256" data-name="Path 8256" d="M292,100.57c.07.06.37-.37,1.09-.6a3.83,3.83,0,0,1,2.87.33c1.06.51,2,1.16,2.75,1.47a2.63,2.63,0,0,0,1.29.32,10.26,10.26,0,0,0-1.12-.65,25.517,25.517,0,0,0-2.71-1.61,4.529,4.529,0,0,0-1.74-.47,3.14,3.14,0,0,0-1.47.27A1.85,1.85,0,0,0,292,100.57Z" transform="translate(-254.151 -58.181)" fill="#d1734a"/>
    <path id="Path_8257" data-name="Path 8257" d="M328.92,136l-29.39,18.87,7.79,22.28s20.11-6.21,19.74-6.86S328.92,136,328.92,136Z" transform="translate(-290.601 -58.181)" fill="#ec7a49"/>
    <path id="Path_8258" data-name="Path 8258" d="M280.318,437.58l4.63,21.29s-20.09,11.85-19.62,15.86l41.6-7.48-5.84-33.47Z" transform="translate(-234.4 -58.181)" fill="#cfd8de"/>
    <path id="Path_8259" data-name="Path 8259" d="M306.993,467.25l-.72-3.35-39.62,8.43s-1.7,1.14-1.26,2.4Z" transform="translate(-234.464 -58.181)" fill="#fafaf2"/>
    <path id="Path_8260" data-name="Path 8260" d="M244.98,439.92l.69,21.77s-21.91,8-22.17,12.05l42.27.19.32-34Z" transform="translate(-151.741 -58.181)" fill="#cfd8de"/>
    <g id="Group_8825" data-name="Group 8825" transform="translate(71.742 412.319)" opacity="0.6">
      <path id="Path_8261" data-name="Path 8261" d="M266.106,473.93l-.1-3.43-40.49,1.11s-1.89.81-1.68,2.13Z" transform="translate(-223.82 -470.5)" fill="#fafaf2"/>
    </g>
    <path id="Path_8262" data-name="Path 8262" d="M290.464,82.86l-4.31,50-25-2c-.15-2.92.06-14.22.06-14.22s-10.41-1.62-10.54-12c-.06-5.06.66-15.5,1.42-24.91A19.26,19.26,0,0,1,272.394,62h0a19.26,19.26,0,0,1,18.07,20.86Z" transform="translate(-203.356 -58.181)" fill="#eb996e"/>
    <path id="Path_8263" data-name="Path 8263" d="M266.45,116.45a24.24,24.24,0,0,0,13.57-3.86s-3.21,7.49-13.59,6.55Z" transform="translate(-208.602 -58.181)" fill="#d1734a"/>
    <path id="Path_8264" data-name="Path 8264" d="M282.13,87a1.49,1.49,0,0,0,1.44,1.5,1.42,1.42,0,0,0,1.53-1.34,1.49,1.49,0,0,0-1.43-1.5A1.43,1.43,0,0,0,282.13,87Z" transform="translate(-229.381 -58.181)" fill="#263238"/>
    <path id="Path_8265" data-name="Path 8265" d="M281.027,84.9c.18.2,1.31-.64,2.91-.63s2.77.8,2.94.61-.1-.44-.61-.81a4.13,4.13,0,0,0-2.36-.73,3.92,3.92,0,0,0-2.32.75C281.1,84.46,280.927,84.82,281.027,84.9Z" transform="translate(-230.078 -58.181)" fill="#263238"/>
    <path id="Path_8266" data-name="Path 8266" d="M266.77,87a1.48,1.48,0,0,0,1.43,1.5,1.43,1.43,0,0,0,1.54-1.34,1.5,1.5,0,0,0-1.44-1.5A1.43,1.43,0,0,0,266.77,87Z" transform="translate(-198.662 -58.181)" fill="#263238"/>
    <path id="Path_8267" data-name="Path 8267" d="M265.3,85.2c.18.19,1.31-.64,2.91-.63s2.77.8,2.94.6-.1-.43-.61-.8a4,4,0,0,0-2.36-.73,3.87,3.87,0,0,0-2.32.75C265.373,84.76,265.213,85.11,265.3,85.2Z" transform="translate(-198.635 -58.181)" fill="#263238"/>
    <path id="Path_8268" data-name="Path 8268" d="M280.3,97.06a10.711,10.711,0,0,0-2.6-.47c-.4,0-.79-.12-.86-.4a2.12,2.12,0,0,1,.27-1.21c.39-1,.79-2,1.21-3.11,1.68-4.43,2.89-8.07,2.71-8.13s-1.68,3.47-3.36,7.89c-.4,1.1-.79,2.14-1.15,3.13a2.4,2.4,0,0,0-.22,1.61,1,1,0,0,0,.68.59,2.67,2.67,0,0,0,.69.1A10.13,10.13,0,0,0,280.3,97.06Z" transform="translate(-219.456 -58.181)" fill="#263238"/>
    <path id="Path_8269" data-name="Path 8269" d="M277.1,98.17c-.26,0-.26,1.72-1.75,3s-3.33,1-3.35,1.29.41.33,1.2.35a4.32,4.32,0,0,0,2.79-1,3.74,3.74,0,0,0,1.39-2.5C277.381,98.59,277.221,98.16,277.1,98.17Z" transform="translate(-211.532 -58.181)" fill="#263238"/>
    <path id="Path_8270" data-name="Path 8270" d="M264.3,78.93c.16.44,1.76.23,3.64.46s3.39.74,3.64.35c.11-.19-.15-.6-.77-1a6.31,6.31,0,0,0-5.54-.61C264.582,78.38,264.242,78.73,264.3,78.93Z" transform="translate(-198.054 -58.181)" fill="#263238"/>
    <path id="Path_8271" data-name="Path 8271" d="M280.908,80.27c.28.37,1.39,0,2.71,0s2.45.25,2.71-.13c.11-.19-.07-.55-.56-.9a3.93,3.93,0,0,0-4.36.14C280.938,79.72,280.788,80.1,280.908,80.27Z" transform="translate(-229.38 -58.181)" fill="#263238"/>
    <path id="Path_8272" data-name="Path 8272" d="M248.41,71.45h.06a8.19,8.19,0,0,1,3,5.3v.21c.41,3,.33,6,.77,9s1.46,6,3.66,8c.9.84,2.49,1.42,3.23.44a2.46,2.46,0,0,0,.37-1.36c.56-7.17,2.52-13.53,2.5-21a6.3,6.3,0,0,0-2.59-5.16c-1.57-1.12-3.48-2.29-5.23-1.46s-4,4.09-5.35,5.47" transform="translate(-172.561 -58.181)" fill="#263238"/>
    <path id="Path_8273" data-name="Path 8273" d="M247.715,87.57c.18-.08,7.15-2.12,6.93,5s-7.33,5.42-7.33,5.22S247.715,87.57,247.715,87.57Z" transform="translate(-164.116 -58.181)" fill="#eb996e"/>
    <path id="Path_8274" data-name="Path 8274" d="M249.14,95.16a2.29,2.29,0,0,0,.32.19,1.24,1.24,0,0,0,.93.05,3.07,3.07,0,0,0,1.51-2.7,4.14,4.14,0,0,0-.29-1.79,1.44,1.44,0,0,0-.9-1,.65.65,0,0,0-.75.31c-.1.2-.06.34-.1.35s-.14-.12-.08-.41a.79.79,0,0,1,.3-.44,1,1,0,0,1,.69-.16,1.78,1.78,0,0,1,1.26,1.15,4.17,4.17,0,0,1,.36,2c-.09,1.44-.87,2.75-1.9,3a1.33,1.33,0,0,1-1.13-.23C249.14,95.33,249.11,95.17,249.14,95.16Z" transform="translate(-163.682 -58.181)" fill="#d1734a"/>
    <path id="Path_8275" data-name="Path 8275" d="M296.7,66.52c1.75-2.85-3.05-6.94-6.56-8s-8.14.6-11.63,1.76c-2.21.73-4.4,1.75-6.73,1.66a16.271,16.271,0,0,1-4.51-1.15,11.4,11.4,0,0,0-4.55-.9,4.28,4.28,0,0,0-3.74,2.37c-.59,1.44.25,3.42,1.8,3.63a3.49,3.49,0,1,0-.94,6.48c-1-.77-2.56.5-2.43,1.76a3.67,3.67,0,0,0,2.43,2.7c3,1.3,6.43.88,9.5-.15s5.92-2.64,9-3.75,8.15-3.11,11.2-2c2.25.8,3.82,3.51,5.09,2.91a4.34,4.34,0,0,0,2.25-3.2,12.53,12.53,0,0,0-.14-4" transform="translate(-214.856 -58.181)" fill="#263238"/>
    <path id="Path_8276" data-name="Path 8276" d="M257.57,65.66c.06,0,.36.52,1.13,1.35a9.75,9.75,0,0,0,3.95,2.55,9.05,9.05,0,0,0,6.79-.27c2.42-1.09,4.49-3.29,6.9-5.29a14.76,14.76,0,0,1,8-3.84,8.19,8.19,0,0,1,6.8,2.35,6.19,6.19,0,0,1,1.62,4.6,4.65,4.65,0,0,1-.31,1.31c-.13.28-.21.42-.23.41a11.229,11.229,0,0,0,.27-1.73,6.15,6.15,0,0,0-1.71-4.25,7.81,7.81,0,0,0-6.44-2.06,14.39,14.39,0,0,0-7.6,3.73c-2.34,2-4.48,4.23-7.07,5.36a9.66,9.66,0,0,1-11.21-2.69,6.341,6.341,0,0,1-.74-1.1A1.453,1.453,0,0,1,257.57,65.66Z" transform="translate(-212.492 -58.181)" fill="#455a64"/>
    <path id="Path_8277" data-name="Path 8277" d="M255.405,87.26a1.917,1.917,0,0,1-.58-.76,4.89,4.89,0,0,1-.36-2.58c.16-2.29,2.19-4.75,2.45-7.92a7.16,7.16,0,0,0-.79-4.25,5.46,5.46,0,0,0-2.64-2.28,4.65,4.65,0,0,0-2.38-.33c-.57.1-.88.23-.91.17a1.75,1.75,0,0,1,.85-.43,4.41,4.41,0,0,1,2.61.12,5.78,5.78,0,0,1,3,2.42,7.6,7.6,0,0,1,.93,4.65,13.15,13.15,0,0,1-1.37,4.48,13.54,13.54,0,0,0-1.25,3.45,5.39,5.39,0,0,0,.44,3.26Z" transform="translate(-169.987 -58.181)" fill="#455a64"/>
    <path id="Path_8278" data-name="Path 8278" d="M283.87,455.84s-21.67-106.3-21.69-108.42L300.89,327l15,124.75Z" transform="translate(-240.222 -58.181)" fill="#292d36"/>
    <path id="Path_8279" data-name="Path 8279" d="M250.53,459.4,220.6,275.17V235.43l43.34,3.1c.52,1.55,11.45,221.11,11.45,221.11l-4.22-.24H250.53" transform="translate(-158.142 -58.181)" fill="#292d36"/>
    <path id="Path_8280" data-name="Path 8280" d="M279.46,232.62l-16.97,114.8,37.94-9.2,15.46-101.86Z" transform="translate(-240.532 -58.181)" fill="#292d36"/>
    <line id="Line_483" data-name="Line 483" y1="15.63" x2="1.93" transform="translate(30.459 204.619)" fill="#ec7a49"/>
    <path id="Path_8281" data-name="Path 8281" d="M289.6,282.07s-6.6-5.67-7.25-9.94,7.91-73,7.91-73l4.37-56.82c0,1-.12-7.16,1.2-7.65,4-1.51,12.22-4.25,12.22-4.25l4.7-4.22s-8.44,36.08-10.08,45.94Z" transform="translate(-257.207 -58.181)" fill="#ec7a49"/>
    <path id="Path_8282" data-name="Path 8282" d="M227.939,122.27l7.1,4.73,26.63,10.47-11.83,44.61,1.59,25.92,1.51,16.45s7.93,40.73,14.93,65.48c0,0-7.81,14.8-14.23,16.86l-2.67,1.59-9.52-69.71-8.17-11c-.79-1.06-1.52-2.15-2.21-3.27-2-3.27-6.58-10.7-10.23-16.43-4.82-7.57-11-24.77-9.17-32.11S227.939,122.27,227.939,122.27Z" transform="translate(-141.361 -58.181)" fill="#ec7a49"/>
    <path id="Path_8283" data-name="Path 8283" d="M248.42,276.06a61,61,0,0,1-15.24-18.32" transform="translate(-143.752 -58.181)" fill="#263238"/>
    <path id="Path_8284" data-name="Path 8284" d="M286.1,122.27l-6.41,41.13a59.48,59.48,0,0,0,2.59,15.5l11.44,37s9,20.17,5.89,22.75-27.3,0-27.3,0l-32.74-4.75a2.88,2.88,0,0,1-2.45-3.12l4.86-50.22c1.64-3.47,2.31-10.57,3-13.09l10.08-41.27,2.06-.27L261.6,129l2.36.19,19.81-9.59Z" transform="translate(-199.521 -58.181)" fill="#ebebeb"/>
    <path id="Path_8286" data-name="Path 8286" d="M274.44,132.49h4.45l1.33,6.09-3.89,4.71-3.92-.39-1.28-4.37,1.05-2.44Z" transform="translate(-213.502 -58.181)" fill="#ec7a49"/>
    <path id="Path_8287" data-name="Path 8287" d="M332.518,168.05c-1.4.28-16.86,10.68-22.48,9.56s-10.17-6.42-10.77-7.13c-3.19-3.78-1.19-11.63-.27-14.59a10,10,0,0,1,.91-2.07l23.87-41,14.07,8.55L323.249,148Z" transform="translate(-297.53 -58.181)" fill="#ec7a49"/>
    <path id="Path_8288" data-name="Path 8288" d="M231.931,217.62a18.32,18.32,0,0,0-.86-15c-3.24-6.41-8.38-16.76-9.46-20.16-1.6-5.05-16.56-43.8-19.49-45l-13,43.89,15.1,31.8-17.7,33.35,14.75,15.9s27.91-38.92,30.21-43.73Q231.721,218.15,231.931,217.62Z" transform="translate(-81.813 -58.181)" fill="#ec7a49"/>
    <path id="Path_8289" data-name="Path 8289" d="M236.921,272.52a49.572,49.572,0,0,1-7.39-8.72.32.32,0,0,0,0-.27.42.42,0,0,0-.3-.18,42.691,42.691,0,0,1-2.32-4.07c2.47-1.61,5.7-4,2.19-4.54-4.33-.62-7.42-2.72-7.86-3.87s1-2.18,2.14-1.45a15.689,15.689,0,0,0,4.16,1.44,10.49,10.49,0,0,0,3.53.22c1.37-.15,7-2.59,8-2.77l10.53,11.08S241.511,268,236.921,272.52Z" transform="translate(-132.913 -58.181)" fill="#eb996e"/>
    <path id="Path_8304" data-name="Path 8304" d="M220.62,459.07a4.389,4.389,0,0,0,1,.17c.63.07,1.55.16,2.69.25,2.27.18,5.42.35,8.9.4s6.64,0,8.92-.11a26.33,26.33,0,0,0,2.69-.16,3.259,3.259,0,0,0,1-.14,30.5,30.5,0,0,0-3.69-.06c-2.28,0-5.42,0-8.9-.05s-6.61-.16-8.89-.25A27.642,27.642,0,0,0,220.62,459.07Z" transform="translate(-128.592 -58.181)" fill="#455a64"/>
    <path id="Path_8305" data-name="Path 8305" d="M262.19,455.84a6.371,6.371,0,0,0,1.27-.07l3.44-.36c2.9-.33,6.9-.83,11.32-1.4s8.42-1.12,11.31-1.54l3.42-.52a8.187,8.187,0,0,0,1.25-.25,4.811,4.811,0,0,0-1.28.05c-.81.07-2,.19-3.44.35-2.9.33-6.91.82-11.33,1.39s-8.41,1.13-11.3,1.55l-3.42.53a5.369,5.369,0,0,0-1.24.27Z" transform="translate(-218.542 -58.181)" fill="#455a64"/>
    <path id="Path_8314" data-name="Path 8314" d="M280.39,229.8l-5.37-13.16,13.43-73.74,3.92.39s-.55,76.64-.37,77.33Z" transform="translate(-229.541 -58.181)" fill="#ec7a49"/>
  </g>
  <g id="Group_8865" data-name="Group 8865" transform="translate(307.727 168.419)">
    <g id="Path_1706_1_" transform="translate(0 15.501)">
      <path id="Path_4065" data-name="Path 4065" d="M-205.541,1.249a6.033,6.033,0,0,0-6.06,6.223,6.133,6.133,0,0,0,6.142,6.142v4.831a4.578,4.578,0,0,0,4.586,4.586h14.494a4.578,4.578,0,0,0,4.586-4.586V-3.5h-23.747Zm0,9.908a3.757,3.757,0,0,1-3.767-3.767,3.757,3.757,0,0,1,3.767-3.767Z" transform="translate(211.602 3.5)" fill="url(#linear-gradient)"/>
    </g>
    <path id="Path_1709_1_" d="M256.4,165.4v19.981a4.229,4.229,0,0,1-4.258,4.258H238.958a4.229,4.229,0,0,1-4.258-4.258V165.4Z" transform="translate(-227.78 -148.777)" fill="#292d36"/>
    <path id="Path_1711_1_" d="M248.005,145.1a21.928,21.928,0,0,0-4.013.9,21.028,21.028,0,0,0-7.534,3.439,5,5,0,0,0-1.883,2.457,2.133,2.133,0,0,0,1.065,2.62c.655.246,1.474.164,1.72.737.328.737-.737,1.638-.328,2.375a1.4,1.4,0,0,0,1.065.573c1.392.246,2.7.164,4.012.491A4.725,4.725,0,0,1,245.3,160.9c1.392-1.8,3.931-2.047,5.9-3.194.819-.491,1.638-1.228,1.474-2.129-.164-1.392-2.211-1.638-3.03-2.784a2.732,2.732,0,0,1,.164-3.03,8.694,8.694,0,0,1,2.375-2.211c.491-.409.983-.983.737-1.474a1.167,1.167,0,0,0-.983-.491A15.2,15.2,0,0,0,248.005,145.1Z" transform="translate(-227.737 -145.1)" fill="#eee"/>
  </g>
</svg>
