<svg xmlns="http://www.w3.org/2000/svg" width="566.01" height="377.844" viewBox="0 0 566.01 377.844">
  <g id="Group_8917" data-name="Group 8917" transform="translate(-1003.99 -3669.156)">
    <g id="Group_8793" data-name="Group 8793" transform="translate(0 643)">
      <path id="Path_7071" data-name="Path 7071" d="M202,98.69H606.63a12.64,12.64,0,0,1,12.63,12.63V397.11a12.64,12.64,0,0,1-12.63,12.63H451.33s-9.88,30.55,20.74,46.35H326.87s34.57-11.85,25.68-46.35H202a12.64,12.64,0,0,1-12.63-12.63V111.32A12.64,12.64,0,0,1,202,98.69Z" transform="translate(814.62 2927.466)" fill="#d4d8db"/>
      <path id="Path_7072" data-name="Path 7072" d="M398.058,379.68c-5.51,7.87,3.11,16.48,11,11a2.891,2.891,0,0,0,.67-.68c5.49-7.86-3.11-16.46-11-11a2.67,2.67,0,0,0-.67.68Z" transform="translate(815.472 2927.466)" fill="#2f3640"/>
      <rect id="Screen_Shot_2021-10-31_at_08.48.44" data-name="Screen Shot 2021-10-31 at 08.48.44" width="410.77" height="243.65" rx="3.27" transform="translate(1013.97 3043.286)" fill="#fffbf8"/>
      <path id="Path_7120" data-name="Path 7120" d="M356.84,410c0,.15,22.22.26,49.62.26s49.62-.11,49.62-.26-22.21-.26-49.62-.26S356.84,409.87,356.84,410Z" transform="translate(810.33 2927.466)" fill="#525f7f"/>
      <g id="freepik--Character--inject-60" transform="translate(1373.67 3173.528)">
        <path id="Path_7121" data-name="Path 7121" d="M175.424,336.17,157.2,397.66a6.42,6.42,0,0,1-6.16,4.6l-73.92.21a6.84,6.84,0,0,1-6.84-7.2h0a6.83,6.83,0,0,1,6.83-6.47h28.26l22.66-63.07h39.6a8.13,8.13,0,0,1,7.79,10.44Z" transform="translate(3.546 -246.062)" fill="#1a2026"/>
        <path id="Path_7124" data-name="Path 7124" d="M125.57,456.9l4.5-.11V402.26h-4.5Z" transform="translate(-6.06 -246.062)" fill="#525f7f"/>
        <path id="Path_7125" data-name="Path 7125" d="M148.78,456.65H106.85l18.99-6.6h4.51Z" transform="translate(-6.05 -246.062)" fill="#525f7f"/>
        <path id="Path_7126" data-name="Path 7126" d="M167.09,311.63l-6.93,34.66,1.23,26-46.63-7.76,1.83-22.75V322.96l-11.43,22.16-8.91-17.2,16.3-29.53h0a27.561,27.561,0,0,1,10.66-6.91,22.28,22.28,0,0,1,6.69-1.28h0a26.7,26.7,0,0,0,16.14,0l2.71.31h.21a20.63,20.63,0,0,1,18,19.39Z" transform="translate(-13.76 -246.062)" fill="#ec7a49"/>
        <path id="Path_7127" data-name="Path 7127" d="M92.69,290.51s19.16.14,21.54,20.38l.32,14.84-16.5-.14Z" transform="translate(42.34 -246.062)" fill="#ec7a49"/>
        <path id="Path_7132" data-name="Path 7132" d="M153.826,331.8s-9.06.65-10.69,3.05-4.12,9.23-3.18,9.28a2.64,2.64,0,0,0,1.63-.52l2.48-4.4s-.4,4.25,1.09,4.34S154,345.1,154,345.1Z" transform="translate(-44.166 -246.062)" fill="#b78876"/>
        <path id="Path_7133" data-name="Path 7133" d="M140,321.78v23.37a8.88,8.88,0,0,1-10.76,8.19L92.7,345.81l.08-15,31.53,6.05.46-15.86Z" transform="translate(16.88 -246.062)" fill="#ec7a49"/>
        <path id="Path_7138" data-name="Path 7138" d="M185.482,449.73l-3.27,9.39s-17.82,18.82-22.57,17.33c-3.11-1,1.34-5.91,8.91-20.82l1.91-6.28Z" transform="translate(-94.542 -246.062)" fill="#ec7a49"/>
        <path id="Path_7139" data-name="Path 7139" d="M185.787,454.48l-1.25,4.21s-10.43,10.31-13.43,12.6-6.72,5.6-9.47,5-.34-3.08-.34-3.08.74,1.83,2.07,1.43,3.79-1.45,9.49-6.56,6.61-6.32,6.61-6.32-.28-2.61.83-4S183.507,454.26,185.787,454.48Z" transform="translate(-96.527 -246.062)" fill="#fff" opacity="0.4"/>
        <path id="Path_7149" data-name="Path 7149" d="M197.048,452.2l.68-6.55,17.92.33v10.56l-1.14.08c-5.08.31-25.82,1.22-29.22.23C181.448,455.75,197.048,452.2,197.048,452.2Z" transform="translate(-150.748 -246.062)" fill="#ec7a49"/>
        <g id="Group_8768" data-name="Group 8768" transform="translate(58.18 205.058)" opacity="0.5">
          <path id="Path_7150" data-name="Path 7150" d="M184.71,456.44a6.32,6.32,0,0,1,2.2-4,5.46,5.46,0,0,1,4.49-1.24v5Z" transform="translate(-184.71 -451.12)" fill="#fff"/>
        </g>
        <g id="Group_8769" data-name="Group 8769" transform="translate(33.84 208.138)" opacity="0.5">
          <path id="Path_7151" data-name="Path 7151" d="M189.52,454.2s-5.47,1.59-4.78,2.47,21.69.73,31-.13v-.4l-24.49.37S190.59,454.24,189.52,454.2Z" transform="translate(-184.68 -454.2)" fill="#fff"/>
        </g>
        <path id="Path_7166" data-name="Path 7166" d="M202.98,449.5l-18.3.05.4-3.9,17.92.33Z" transform="translate(-138.1 -246.062)" opacity="0.3"/>
        <path id="Path_7167" data-name="Path 7167" d="M163.1,361.19c17.73,1.81,41.18,4.25,41.18,4.25l-3.2,28.86s-34.54-9.13-34.29-8.39-1.6,61.41-1.6,61.41h-20.8L144,378.61a17.28,17.28,0,0,1,19.1-17.42Z" transform="translate(-98.702 -246.062)" fill="#263238"/>
        <path id="Path_7168" data-name="Path 7168" d="M180,372.84v9c0,6.09-6.94,12.55-13,12.55h-4.71c-3.71,0-9.53-2.7-12.52-4.89l-1.81-1.32-21.65,67.09s-24.79-4.49-24.79-5.27,16.78-54.95,24.53-80.09c3.16-10.27,14.16-16.24,24.32-12.75l1,.38C162.52,362,180,372.84,180,372.84Z" transform="translate(-31.94 -246.062)" fill="#263238"/>
        <path id="Path_7170" data-name="Path 7170" d="M181.68,377.26c-.13.09,1.05,1.86,2,4.26s1.43,4.48,1.58,4.45a11.319,11.319,0,0,0-1.1-4.65,11.06,11.06,0,0,0-2.48-4.06Z" transform="translate(-117.35 -246.062)" fill="#455a64"/>
        <path id="Path_7171" data-name="Path 7171" d="M182.451,380.05c-.06.14,1.73.92,3.59,2.4s3.06,3,3.18,2.92a11.31,11.31,0,0,0-6.77-5.32Z" transform="translate(-122.091 -246.062)" fill="#455a64"/>
        <path id="Path_7173" data-name="Path 7173" d="M142.648,265.63c.67-1.6,2.13-4.28,2.48-6a8.8,8.8,0,0,0-.31-5.11,5.37,5.37,0,0,0-3.74-3.3,20.65,20.65,0,0,1-3.17-.4,9.31,9.31,0,0,1-2.84-2.34,9.06,9.06,0,0,0-5.19-2.36,5.29,5.29,0,0,0-3,.43,3,3,0,0,0-1.71,2.35,14.452,14.452,0,0,0-3.63-.87,4.83,4.83,0,0,0-3.5,1,2.94,2.94,0,0,0-.81,3.39,2.39,2.39,0,0,0-3.08.87,3.06,3.06,0,0,0,.2,3.33,5.75,5.75,0,0,0,3.43,2,8.42,8.42,0,0,0,3.64-.11" transform="translate(-9.538 -246.062)" fill="#263238"/>
        <path id="Path_7174" data-name="Path 7174" d="M128.96,250.75a11.74,11.74,0,0,0-11.74,11.522,136.112,136.112,0,0,0,.13,13.838c1.17,7.33,6.79,8.27,6.79,8.27s.09,4.59.1,8.95a8,8,0,0,0,8.08,7.7h0a7.61,7.61,0,0,0,8-7.25l.34-31.16a11.74,11.74,0,0,0-11.74-11.87Z" transform="translate(-8.21 -246.062)" fill="#b78876"/>
        <path id="Path_7175" data-name="Path 7175" d="M137.09,265.4a1,1,0,0,0,.91,1,.9.9,0,0,0,1-.85.94.94,0,0,0-.9-.95.91.91,0,0,0-1.01.8Z" transform="translate(-26.51 -246.062)" fill="#263238"/>
        <path id="Path_7176" data-name="Path 7176" d="M135.512,264.71c.12.12.83-.41,1.84-.4s1.75.51,1.86.38-.06-.27-.38-.51a2.67,2.67,0,0,0-1.5-.46,2.48,2.48,0,0,0-1.46.47C135.562,264.43,135.452,264.65,135.512,264.71Z" transform="translate(-25.162 -246.062)" fill="#263238"/>
        <path id="Path_7177" data-name="Path 7177" d="M126.99,265.58a1,1,0,0,0,.91.95.9.9,0,0,0,1-.85.94.94,0,0,0-.91-.95.9.9,0,0,0-1,.85Z" transform="translate(-6.31 -246.062)" fill="#263238"/>
        <path id="Path_7178" data-name="Path 7178" d="M125.562,264.9c.11.12.83-.41,1.84-.4s1.75.5,1.86.38-.06-.28-.39-.51a2.53,2.53,0,0,0-1.49-.46,2.41,2.41,0,0,0-1.46.47C125.612,264.62,125.5,264.84,125.562,264.9Z" transform="translate(-5.262 -246.062)" fill="#263238"/>
        <path id="Path_7179" data-name="Path 7179" d="M135.092,272.4a7.251,7.251,0,0,0-1.64-.29c-.26,0-.5-.08-.55-.26a1.29,1.29,0,0,1,.18-.76l.76-2a34.691,34.691,0,0,0,1.72-5.15,33,33,0,0,0-2.13,5c-.25.69-.5,1.35-.73,2a1.48,1.48,0,0,0-.14,1,.67.67,0,0,0,.43.38,1.919,1.919,0,0,0,.44.06A6.06,6.06,0,0,0,135.092,272.4Z" transform="translate(-18.512 -246.062)" fill="#263238"/>
        <path id="Path_7180" data-name="Path 7180" d="M123.83,284.38a18.63,18.63,0,0,0,9.82-2.62s-2.39,5-9.73,4.35Z" transform="translate(-7.9 -246.062)" fill="#aa6550"/>
        <path id="Path_7181" data-name="Path 7181" d="M133.044,273.1c-.16,0-.16,1.09-1.1,1.87s-2.11.66-2.12.81.26.22.75.23a2.69,2.69,0,0,0,1.77-.62,2.38,2.38,0,0,0,.86-1.56C133.264,273.37,133.144,273.1,133.044,273.1Z" transform="translate(-13.464 -246.062)" fill="#263238"/>
        <path id="Path_7182" data-name="Path 7182" d="M124.9,260.93c.1.28,1.11.15,2.29.29s2.15.47,2.31.22-.1-.38-.49-.64a4,4,0,0,0-3.5-.39C125.069,260.59,124.849,260.8,124.9,260.93Z" transform="translate(-4.859 -246.062)" fill="#263238"/>
        <path id="Path_7183" data-name="Path 7183" d="M135.39,261.78c.18.23.88,0,1.72,0s1.54.15,1.71-.09,0-.34-.35-.56a2.48,2.48,0,0,0-2.76.08C135.41,261.43,135.31,261.67,135.39,261.78Z" transform="translate(-24.67 -246.062)" fill="#263238"/>
        <path id="Path_7184" data-name="Path 7184" d="M113.72,265.19c.1-.05,4.24-1.45,4.28,2.83s-4.26,3.44-4.27,3.31S113.72,265.19,113.72,265.19Z" transform="translate(17.86 -246.062)" fill="#b78876"/>
        <path id="Path_7185" data-name="Path 7185" d="M114.818,269.7s.08.05.2.11a.76.76,0,0,0,.56,0,1.86,1.86,0,0,0,.84-1.66,2.54,2.54,0,0,0-.22-1.06.89.89,0,0,0-.57-.57.38.38,0,0,0-.44.21c-.05.12,0,.2-.05.21s-.09-.07-.06-.25a.55.55,0,0,1,.17-.27.6.6,0,0,1,.41-.11,1,1,0,0,1,.78.66,2.52,2.52,0,0,1,.28,1.19,1.93,1.93,0,0,1-1.07,1.85.79.79,0,0,1-.69-.1C114.828,269.8,114.808,269.71,114.818,269.7Z" transform="translate(18.042 -246.062)" fill="#aa6550"/>
        <path id="Path_7186" data-name="Path 7186" d="M115.944,257.23a15.56,15.56,0,0,0,9.66-.49c3.43-1.3,7.32-1.71,8.09-1s.61,4.12,3.75,5.43c0,0-.87,6.4,1.71,6.43s2-10.08,2-10.08l-5.24-5.12-6.71-2.34-7.11,1.14-6.14,1.23Z" transform="translate(-7.574 -246.062)" fill="#263238"/>
        <path id="Path_7187" data-name="Path 7187" d="M213,350.56l-70.88.68L128.9,313.88l51.56.35,11.97,33.6,20.57.3Z" transform="translate(-92.32 -246.062)" fill="#d4d8db"/>
        <ellipse id="Ellipse_957" data-name="Ellipse 957" cx="2.87" cy="2.87" rx="2.87" ry="2.87" transform="matrix(-0.299, -0.954, 0.954, -0.299, 64.655, 90.504)" fill="#fff"/>
        <path id="Path_7188" data-name="Path 7188" d="M249.58,350.79v4.09H232.56V456.79h-3.4V354.88H74.99V456.79H71.66V354.88H53.25v-4.09Z" transform="translate(-53.25 -246.062)" fill="#263238"/>
      </g>
    </g>
    <g id="Group_8872" data-name="Group 8872" transform="translate(-2568 9342)">
      <g id="Group_8871" data-name="Group 8871" transform="translate(3776.019 -5553.923)" opacity="0.2">
        <ellipse id="Ellipse_1023" data-name="Ellipse 1023" cx="28.493" cy="26.589" rx="28.493" ry="26.589" transform="matrix(-0.719, -0.695, 0.695, -0.719, 40.986, 77.839)" fill="#ec7a49"/>
        <ellipse id="Ellipse_1024" data-name="Ellipse 1024" cx="22.804" cy="21.273" rx="22.804" ry="21.273" transform="matrix(-0.719, -0.695, 0.695, -0.719, 40.587, 70.064)" fill="#fff"/>
        <ellipse id="Ellipse_1025" data-name="Ellipse 1025" cx="17.103" cy="15.958" rx="17.103" ry="15.958" transform="matrix(-0.719, -0.695, 0.695, -0.719, 40.18, 62.28)" fill="#ec7a49"/>
        <path id="Path_8551" data-name="Path 8551" d="M254.456,264.807a11.987,11.987,0,0,0,11.776,11.016,10.145,10.145,0,0,0,10.257-11.016,11.987,11.987,0,0,0-11.776-11.016,10.157,10.157,0,0,0-10.257,11.016Z" transform="translate(-226.509 -225.887)" fill="#fff"/>
        <path id="Path_8552" data-name="Path 8552" d="M258.884,263.722a5.987,5.987,0,0,0,5.888,5.5,5.066,5.066,0,0,0,5.116-5.5,5.975,5.975,0,0,0-5.888-5.5,5.066,5.066,0,0,0-5.116,5.5Z" transform="translate(-225.423 -224.803)" fill="#ec7a49"/>
      </g>
      <path id="Path_9018" data-name="Path 9018" d="M203.284,306.422h13.693a3.871,3.871,0,0,0,3.921-3.361,29.626,29.626,0,0,1,4.344-12.2,31.568,31.568,0,0,0,4.979-18.386,24.373,24.373,0,0,0-23.912-22.406,20.688,20.688,0,0,0-20.9,22.406,35.514,35.514,0,0,0,7.469,18.361,34.406,34.406,0,0,1,6.05,12.224,4.506,4.506,0,0,0,4.357,3.361Zm3.037-55.069a23.1,23.1,0,0,1,22.668,21.161,30.361,30.361,0,0,1-4.78,17.651,30.659,30.659,0,0,0-4.531,12.7,2.651,2.651,0,0,1-2.689,2.278H203.3a3.224,3.224,0,0,1-3.1-2.353,35.775,35.775,0,0,0-6.224-12.672,34.306,34.306,0,0,1-7.245-17.676,19.444,19.444,0,0,1,19.655-21.161Z" transform="translate(3681.779 -5780.721)" fill="#ec7a49"/>
      <path id="Path_9019" data-name="Path 9019" d="M192.537,269.633c.7-.261,1.817-.149,3.3,2.091A35.687,35.687,0,0,1,199.694,281a8.712,8.712,0,0,0,1.618,0,5.054,5.054,0,0,0,3.834-1.83c-1.133-1.568-1.967-4.257-2.054-8.614-.075-3.834.411-5.626,1.581-5.614,1.668,0,2.838,4.195,3.1,7a11.713,11.713,0,0,1-1.245,7.232,3.585,3.585,0,0,0,2.49,1.083,5.415,5.415,0,0,0,1.469-.125c.261-4.581,1.158-7.743,2.689-9.448a4.369,4.369,0,0,1,3.734-1.544c2.49.149,2.826,1.867,2.826,2.577,0,2.9-4,7.867-8.228,9.274-.261,5.851.436,14.788,2.9,28.419l.087.51h-1.108v-.373c-2.2-12.124-3.2-21.572-2.95-28.269a7.47,7.47,0,0,1-1.394.087,4.643,4.643,0,0,1-3.075-1.307,6.062,6.062,0,0,1-4.444,2.054,9.172,9.172,0,0,1-1.431,0c2.639,9.7,3.921,22.232,1.83,27.809h-1.245c2.278-5.041.9-18.124-1.817-27.945a9.274,9.274,0,0,1-7.182-6.709C190.881,272.583,191.255,270.168,192.537,269.633Zm26.141,2.017c0-.56-.187-1.319-1.718-1.419h-.286a3.324,3.324,0,0,0-2.651,1.245c-1.083,1.245-2.066,3.66-2.4,8.328,3.461-1.506,7.008-5.776,7-8.153ZM205.843,278.2a9.821,9.821,0,0,0,.934-3.672c.274-4.158-1.307-8.228-1.929-8.477,0,0-.66.436-.585,4.568a16.7,16.7,0,0,0,1.519,7.581Zm-13.17-3.224a8.153,8.153,0,0,0,5.776,5.8,33.448,33.448,0,0,0-3.573-8.514c-.822-1.245-1.444-1.656-1.78-1.656h-.137C192.45,270.89,192.039,272.708,192.674,274.973Z" transform="translate(3684.921 -5777.081)" fill="#ec7a49"/>
      <path id="Path_9020" data-name="Path 9020" d="M195.658,303.473H210.6a1.544,1.544,0,0,0,1.568-1.668l-.124-1.8a1.842,1.842,0,0,0-1.793-1.681H195.309a1.556,1.556,0,0,0-1.568,1.68l.124,1.8a1.83,1.83,0,0,0,1.792,1.668Z" transform="translate(3689.406 -5768.91)" fill="#ec7a49"/>
      <path id="Path_9021" data-name="Path 9021" d="M195.779,304.258h14.937a2.141,2.141,0,0,0,1.606-.685,2.166,2.166,0,0,0,.573-1.656l-.124-1.8a2.49,2.49,0,0,0-2.4-2.253H195.43a2.154,2.154,0,0,0-1.606.7,2.129,2.129,0,0,0-.573,1.643l.124,1.8A2.49,2.49,0,0,0,195.779,304.258ZM210.43,299.1a1.245,1.245,0,0,1,1.17,1.1l.125,1.8a1.008,1.008,0,0,1-.249.722.934.934,0,0,1-.7.286H195.841a1.245,1.245,0,0,1-1.17-1.1l-.124-1.8a.971.971,0,0,1,.249-.71.946.946,0,0,1,.7-.3Z" transform="translate(3689.285 -5769.022)" fill="#ec7a49"/>
      <path id="Path_9022" data-name="Path 9022" d="M350.731,231.775l14.639-15.722-8.353-5.153L345.03,223.784Z" transform="translate(3347.876 -5790.309)" fill="#ec7a49"/>
      <path id="Path_9023" data-name="Path 9023" d="M353.923,229.568l9.523-10.232-9.311-7-7.8,8.377Z" transform="translate(3348.182 -5789.957)" fill="#ec7a49"/>
      <path id="Path_9024" data-name="Path 9024" d="M342.92,199.75l10.967,9.6a5.9,5.9,0,0,0,4.792,1.531c2.863-.548,8.564,1.419,8.564,1.419C362.588,207.5,356.862,195.443,342.92,199.75Z" transform="translate(3348.629 -5793.262)" fill="#ec7a49"/>
      <path id="Path_9025" data-name="Path 9025" d="M362.558,211.32s5.539,5.514,10.307,10.294a5.888,5.888,0,0,1,1.855,4.68c-.349,2.9,2.017,8.477,2.017,8.477C371.645,230.452,359.234,225.548,362.558,211.32Z" transform="translate(3315.386 -5790.207)" fill="#ec7a49"/>
      <path id="Path_9026" data-name="Path 9026" d="M359.132,209.661c-8.091-8.427-11.2-17.589-7.643-21.348s12.821-1.332,21.771,6.224l22.195,18.672a4.083,4.083,0,0,1,.573,5.863L385.111,230.81a4.058,4.058,0,0,1-5.888-.174Z" transform="translate(3310.01 -5796.265)" fill="#fff"/>
      <path id="Path_9027" data-name="Path 9027" d="M382.421,232.66h0a4.357,4.357,0,0,0,3.187-1.382l10.954-11.689a4.357,4.357,0,0,0,1.158-3.286,4.979,4.979,0,0,0-1.78-3.485l-22.195-18.672c-9.062-7.618-18.8-10.245-22.63-6.124s-.548,13.693,7.655,22.207l20.091,20.9A4.979,4.979,0,0,0,382.421,232.66ZM356.368,187.3c4.369,0,10.668,2.826,16.581,7.78l22.182,18.672a3.734,3.734,0,0,1,1.344,2.614,3.1,3.1,0,0,1-.822,2.353l-10.917,11.738a3.162,3.162,0,0,1-2.29.983,3.859,3.859,0,0,1-2.689-1.158L359.667,209.37c-7.606-7.917-10.967-16.917-7.643-20.489a5.714,5.714,0,0,1,4.344-1.581Z" transform="translate(3309.924 -5796.385)" fill="#ec7a49"/>
      <path id="Path_9028" data-name="Path 9028" d="M370.737,206.655a7.008,7.008,0,1,0-.672-10.22,7.232,7.232,0,0,0,.672,10.22Z" transform="translate(3302.14 -5794.392)" fill="#ec7a49"/>
      <path id="Path_9029" data-name="Path 9029" d="M371.672,204.632a4.842,4.842,0,1,0-.486-7.07,4.979,4.979,0,0,0,.486,7.07Z" transform="translate(3302.674 -5793.95)" fill="#fff" opacity="0.3"/>
      <ellipse id="Ellipse_1032" data-name="Ellipse 1032" cx="24.149" cy="22.531" rx="24.149" ry="22.531" transform="matrix(-0.719, -0.695, 0.695, -0.719, 3747.587, -5458.688)" fill="#ec7a49"/>
      <path id="Path_9030" data-name="Path 9030" d="M302.016,285.5a22.108,22.108,0,0,0,3.224,9.958,22.73,22.73,0,0,0,19.182,10.979,19.244,19.244,0,0,0,17.664-10.979,19.916,19.916,0,0,0,1.842-9.958,22.8,22.8,0,0,0-22.406-20.962A19.319,19.319,0,0,0,302.016,285.5Z" transform="translate(3422.893 -5777.179)" fill="#fff"/>
      <path id="Path_9031" data-name="Path 9031" d="M303.47,290.487a22.73,22.73,0,0,0,19.182,10.979,19.244,19.244,0,0,0,17.664-10.979,34.916,34.916,0,0,0-18.809-5.577,31.269,31.269,0,0,0-18.037,5.577Z" transform="translate(3424.663 -5772.192)" fill="#ec7a49" opacity="0.6"/>
      <path id="Path_9032" data-name="Path 9032" d="M311.726,277.456a10.17,10.17,0,0,0,9.958,9.336,8.6,8.6,0,0,0,8.713-9.336,10.17,10.17,0,0,0-9.958-9.336,8.6,8.6,0,0,0-8.714,9.336Z" transform="translate(3424.312 -5776.303)" fill="#ec7a49" opacity="0.6"/>
      <path id="Path_9033" data-name="Path 9033" d="M262.322,213.326a23.651,23.651,0,0,1,3.261-16.406l21.348,14.24-4.768,23.987a26.6,26.6,0,0,1-6.162-2.49,27.533,27.533,0,0,1-5.415-3.946,26.875,26.875,0,0,1-8.265-15.386Z" transform="translate(3529.669 -5793.731)" fill="#fff"/>
      <path id="Path_9034" data-name="Path 9034" d="M265.957,198.693a22.73,22.73,0,0,0-2.49,14.452,25.717,25.717,0,0,0,7.867,14.676,26.455,26.455,0,0,0,5.178,3.734,25.432,25.432,0,0,0,4.593,2l4.344-21.846-19.543-13.045m-.4-1.768,21.4,14.265-4.768,23.987a26.6,26.6,0,0,1-6.162-2.49,27.532,27.532,0,0,1-5.415-3.946,26.875,26.875,0,0,1-8.241-15.4,23.651,23.651,0,0,1,3.261-16.406Z" transform="translate(3529.694 -5793.736)" fill="#ec7a49"/>
      <path id="Path_9035" data-name="Path 9035" d="M265.761,213.233l21.784-10.494a27.236,27.236,0,0,0-5.44-7.058c-10.294-9.635-26.141-9.635-35.115,0a21.922,21.922,0,0,0-2.49,3.311Z" transform="translate(3550.839 -5795.804)" fill="#ec7a49"/>
      <path id="Path_9036" data-name="Path 9036" d="M246.777,210.424l-4.768,23.987a23.651,23.651,0,0,0,23.539-6.423c6.859-7.369,8.066-18.672,3.012-28.058Z" transform="translate(3569.824 -5792.995)" fill="#e0e0e0"/>
      <path id="Path_9037" data-name="Path 9037" d="M205.747,243.937a17.566,17.566,0,0,0,0-2.577H204.5a16.918,16.918,0,0,1,0,2.4Z" transform="translate(3682.379 -5782.853)" fill="#ec7a49"/>
      <path id="Path_9038" data-name="Path 9038" d="M235.087,244.516l1.245-.324a40.293,40.293,0,0,0-1.8-5.129l-1.145.5A38.8,38.8,0,0,1,235.087,244.516Zm-4.07-9.7,1.083-.61c-.846-1.531-1.792-3.075-2.813-4.606l-1.033.7c1,1.494,1.929,3.012,2.763,4.519Zm-5.875-8.813.983-.772c-1.108-1.407-2.278-2.788-3.485-4.108l-.921.834c1.17,1.295,2.34,2.664,3.423,4.046Zm-7.133-7.83.859-.909c-1.332-1.245-2.7-2.49-4.07-3.548l-.772.971c1.394,1.07,2.639,2.241,3.983,3.485Zm-8.253-6.6.685-1.046a44.385,44.385,0,0,0-4.68-2.714l-.56,1.108a48.237,48.237,0,0,1,4.556,2.651Z" transform="translate(3650.972 -5791.063)" fill="#ec7a49"/>
      <path id="Path_9039" data-name="Path 9039" d="M236.2,207.5l.373-1.245a25.479,25.479,0,0,0-2.49-.685l-.274,1.245C234.607,207.026,235.4,207.238,236.2,207.5Z" transform="translate(3615.117 -5791.614)" fill="#ec7a49"/>
      <path id="Path_9040" data-name="Path 9040" d="M372.33,235.377c.075-.834.187-1.643.324-2.415l-1.245-.212c-.149.8-.261,1.643-.349,2.49Z" transform="translate(3308.19 -5784.96)" fill="#ec7a49"/>
      <path id="Path_9041" data-name="Path 9041" d="M376.909,281.954l.635-1.07c-1.32-.784-2.627-1.656-3.859-2.564l-.734,1.008C374.22,280.261,375.552,281.144,376.909,281.954Zm-7.668-5.614.834-.934c-1.145-1.021-2.266-2.116-3.324-3.249l-.909.846c1.108,1.158,2.228,2.278,3.4,3.336Zm-6.473-6.958.983-.759c-.934-1.245-1.83-2.49-2.664-3.8l-1.058.672c.859,1.332,1.78,2.639,2.739,3.884Zm-5.116-8,1.108-.573c-.71-1.369-1.382-2.788-1.979-4.207l-1.145.473C356.245,258.539,356.93,259.983,357.652,261.377Zm-3.66-8.714,1.245-.373c-.473-1.481-.884-2.987-1.245-4.481l-1.245.274c.336,1.481.759,3.025,1.245,4.531Zm-2.116-9.261,1.245-.174a45.884,45.884,0,0,1-.386-4.618H351.49a45.3,45.3,0,0,0,.386,4.743Z" transform="translate(3327.661 -5783.526)" fill="#ec7a49"/>
      <path id="Path_9042" data-name="Path 9042" d="M348.683,276.5l.486-1.145c-.772-.324-1.519-.66-2.253-1.008l-.535,1.12C347.152,275.831,347.9,276.167,348.683,276.5Z" transform="translate(3362.397 -5774.777)" fill="#ec7a49"/>
      <path id="Path_9043" data-name="Path 9043" d="M289.951,206.023c.8-.2,1.593-.373,2.378-.5l-.2-1.245c-.822.137-1.656.311-2.49.523Z" transform="translate(3489.866 -5791.93)" fill="#ec7a49"/>
      <path id="Path_9044" data-name="Path 9044" d="M295.495,261.871l1.245-.075c0-.71-.062-1.444-.062-2.178a28.721,28.721,0,0,1,.1-2.913l-1.245-.087c-.075,1.008-.112,2.017-.112,3C295.432,260.378,295.457,261.137,295.495,261.871Zm1.892-10.257c.286-1.643.647-3.324,1.083-4.979l-1.245-.311c-.448,1.705-.822,3.436-1.108,5.116Zm2.577-9.958c.56-1.606,1.183-3.212,1.855-4.78l-1.133-.5c-.7,1.606-1.332,3.236-1.892,4.88Zm4.058-9.423c.8-1.519,1.643-3.025,2.49-4.469l-1.058-.66c-.909,1.469-1.78,3-2.577,4.556Zm5.39-8.714c1.021-1.394,2.091-2.751,3.187-4.021l-.946-.809a51.612,51.612,0,0,0-3.249,4.1Zm6.7-7.743a50.35,50.35,0,0,1,3.859-3.361l-.759-.971a50.392,50.392,0,0,0-3.958,3.436Zm8.066-6.224a36.1,36.1,0,0,1,4.519-2.328l-.486-1.145a38.72,38.72,0,0,0-4.68,2.4Z" transform="translate(3446.306 -5791.489)" fill="#ec7a49"/>
      <path id="Path_9045" data-name="Path 9045" d="M320.735,257.626l1.183-.386c-.237-.747-.448-1.544-.622-2.34l-1.245.261C320.274,256.008,320.5,256.842,320.735,257.626Z" transform="translate(3422.423 -5779.539)" fill="#ec7a49"/>
    </g>
  </g>
</svg>
