<svg xmlns="http://www.w3.org/2000/svg" width="471.339" height="543.924" viewBox="0 0 471.339 543.924">
  <g id="Design_community-pana_1_" data-name="Design community-pana (1)" transform="translate(-112.3 -75.52)">
    <g id="freepik--character-2--inject-3" transform="translate(368.572 152.668)">
      <path id="Path_6673" data-name="Path 6673" d="M347.637,350.439c-1.384-.3-12.537,52.167-11.07,72.578s11.07,91.327,11.07,91.327H462.391s14.349-68.98,11.789-89.875-16.19-75.829-16.19-75.829Z" transform="translate(-282.561 -47.858)" fill="#2f3640"/>
      <path id="Path_6674" data-name="Path 6674" d="M347.91,311.493l-16.4-73.823-.955-12.232s-3.75-27.4-3.778-30.069c0-3.1-1.522-3.833-2.671-3.736-1.771.138-3,2.339-3.072,5,0,.913.263,15.415.263,15.415a35.163,35.163,0,0,0-2.851-3.888C316.277,205.47,311.226,204,306,204.2s-6.587.733-6.6,2.768a2.56,2.56,0,0,0,1.038,1.937,5.009,5.009,0,0,0,3.418,1.135c8.3-.235,10.558,4.151,10.558,4.151l.125,1.591s-5.078-3.542-9.064-1.979a5.063,5.063,0,0,0-1.591,1.01,6.49,6.49,0,0,0-5.535,9.686,2.767,2.767,0,0,0,2.629,1.591,3.446,3.446,0,0,0,1.453-.913,5.975,5.975,0,0,1,.733-.553l.969,4.442s2.768,9.825,3.418,14.239l4.483,73.214a18.183,18.183,0,0,0,19.552,17.034h0a18.169,18.169,0,0,0,16.328-22.057Z" transform="translate(-297.501 -108.113)" fill="#ffbe9d"/>
      <path id="Path_6675" data-name="Path 6675" d="M324.663,229.374a3.736,3.736,0,0,1-3.916-1.993c-.844-1.384-1.2-2.92-1.937-4.3-2.2-4.151-7.445-6.116-9.437-10.378-.277-.6-.443-1.384.083-1.813s1.176-.1,1.7.194L324.9,218.5" transform="translate(-293.046 -100.8)" fill="#ffbe9d"/>
      <path id="Path_6683" data-name="Path 6683" d="M453.867,232.94c6.005,0,20.438,17.062,22.956,42.979,1.148,11.873,7.1,60.484,9.977,83.855a23.316,23.316,0,0,1-9.492,21.725c-15.54,11.277-46.632,29.059-88.007,28.533l-25.1-21.019,81.364-34.22v-1.854l3.542-3.888L438.95,286.782S429.513,232.94,453.867,232.94Z" transform="translate(-271.906 -92.258)" fill="#ec7a49"/>
      <path id="Path_6684" data-name="Path 6684" d="M421.832,153.79c.3,8.427,11.527,13.519,11.388,21.946,0,3.625-2.311,6.919-2.768,10.461-.595,4.815,2.1,9.368,3.1,14.128,2.062,9.811-3.639,20.147-12.094,25.516s-19.082,6.393-29.059,5.023" transform="translate(-261.084 -122.632)" fill="#263238"/>
      <path id="Path_6685" data-name="Path 6685" d="M368.227,152.3c.332,4.525-2.657,8.552-5.66,11.942s-6.365,6.919-7.016,11.416c-1.148,7.957,6.642,15.332,5.037,23.205-.872,4.22-4.317,7.611-4.94,11.873s1.619,8.15,4.359,11.291,5.909,2.671,8.3,6.061a33.957,33.957,0,0,0,10.5,9.34c8.731,4.774,19.193-2.131,23.4-3.376" transform="translate(-275.269 -123.204)" fill="#263238"/>
      <path id="Path_6686" data-name="Path 6686" d="M434.209,165.179c.111-4.151-3.681-7.265-7.5-8.759s-8.053-2.076-11.457-4.359c-3.017-2.034-5.037-5.189-7.583-7.777a25.24,25.24,0,0,0-42.495,11.582c-1.467,5.839-.47,12.744,4.151,16.6,5.341,4.511,13.256,3.5,20.092,2.1s14.6-2.768,20.313,1.245c3.446,2.422,5.424,6.365,7.528,10S422,193.2,425.99,194.57s9.4-1,9.548-5.2" transform="translate(-271.773 -129.178)" fill="#263238"/>
      <path id="Path_6687" data-name="Path 6687" d="M380.786,255.155c0-9.409-.111-18.584-.111-18.528s-14.944-2.518-17.989-22.029c-1.508-9.686-1-25.6-.138-38.607.761-11.693,8.538-26.028,20.2-24.769l36.379,9.271a6.919,6.919,0,0,1,6.13,6.919h0l-3.335,88.339a20.563,20.563,0,0,1-20.964,19.788h0a20.563,20.563,0,0,1-20.175-20.383Z" transform="translate(-272.855 -123.647)" fill="#ffbe9d"/>
      <path id="Path_6688" data-name="Path 6688" d="M366.78,177.787a2.518,2.518,0,0,0,2.408,2.532,2.394,2.394,0,0,0,2.588-2.255,2.518,2.518,0,0,0-2.408-2.532,2.408,2.408,0,0,0-2.588,2.256Z" transform="translate(-270.916 -114.291)" fill="#263238"/>
      <path id="Path_6689" data-name="Path 6689" d="M364.8,175.827c.3.318,2.2-1.079,4.9-1.065s4.663,1.384,4.954,1.038-.18-.733-1.038-1.384a6.78,6.78,0,0,0-3.957-1.245,6.628,6.628,0,0,0-3.9,1.259C364.926,175.093,364.649,175.7,364.8,175.827Z" transform="translate(-271.69 -115.195)" fill="#263238"/>
      <path id="Path_6690" data-name="Path 6690" d="M385.67,178.278a2.491,2.491,0,0,0,2.408,2.518,2.394,2.394,0,0,0,2.588-2.242,2.518,2.518,0,0,0-2.408-2.532,2.394,2.394,0,0,0-2.588,2.256Z" transform="translate(-263.667 -114.104)" fill="#263238"/>
      <path id="Path_6691" data-name="Path 6691" d="M383.921,176.219c.3.332,2.2-1.065,4.9-1.052s4.663,1.384,4.954,1.038-.166-.747-1.038-1.384a6.919,6.919,0,0,0-3.958-1.232,6.628,6.628,0,0,0-3.9,1.245C384.046,175.541,383.769,176.081,383.921,176.219Z" transform="translate(-264.353 -115.034)" fill="#263238"/>
      <path id="Path_6692" data-name="Path 6692" d="M378.7,196.117a17.809,17.809,0,0,0-4.373-.789c-.692-.083-1.384-.221-1.453-.678a3.5,3.5,0,0,1,.457-2.048l2.048-5.231c2.837-7.445,4.9-13.561,4.594-13.671s-2.851,5.826-5.687,13.27l-1.951,5.272a3.957,3.957,0,0,0-.3,2.629,1.7,1.7,0,0,0,1.135,1.01,4.262,4.262,0,0,0,1.162.166A17.6,17.6,0,0,0,378.7,196.117Z" transform="translate(-268.94 -114.992)" fill="#263238"/>
      <path id="Path_6693" data-name="Path 6693" d="M375.42,214.839a49.691,49.691,0,0,0,26.139-6.919c-.221,0-7.2,13.547-25.89,11.513Z" transform="translate(-267.6 -101.86)" fill="#eb996e"/>
      <path id="Path_6694" data-name="Path 6694" d="M377.708,195.094a4.829,4.829,0,0,1,4.345-1.785,4.4,4.4,0,0,1,3.058,1.647,2.767,2.767,0,0,1,.208,3.21,3.279,3.279,0,0,1-3.529.886,10.157,10.157,0,0,1-3.432-2.006,3.044,3.044,0,0,1-.775-.8.872.872,0,0,1,0-1" transform="translate(-266.83 -107.479)" fill="#ec7a49"/>
      <path id="Path_6695" data-name="Path 6695" d="M384.923,191.26c-.443,0-.457,2.892-2.961,4.968s-5.618,1.744-5.632,2.145c0,.18.692.567,2.006.609a7.279,7.279,0,0,0,4.7-1.633,6.31,6.31,0,0,0,2.283-4.151C385.449,191.966,385.117,191.246,384.923,191.26Z" transform="translate(-267.251 -108.253)" fill="#263238"/>
      <path id="Path_6696" data-name="Path 6696" d="M383,172.646c.263.72,2.947.387,6.1.775s5.715,1.245,6.144.6c.18-.318-.263-1-1.287-1.716a10.807,10.807,0,0,0-9.326-1.052C383.526,171.719,383,172.286,383,172.646Z" transform="translate(-264.691 -116.165)" fill="#263238"/>
      <path id="Path_6697" data-name="Path 6697" d="M365.529,170.221c.484.609,2.339,0,4.566,0s4.151.415,4.553-.221c.194-.3-.111-.927-.927-1.508a6.421,6.421,0,0,0-3.708-1.01,6.282,6.282,0,0,0-3.639,1.232C365.584,169.294,365.321,169.917,365.529,170.221Z" transform="translate(-271.422 -117.38)" fill="#263238"/>
      <path id="Path_6698" data-name="Path 6698" d="M422.8,226.911c-5.369,1.079-5.839-1.647-9.852-5.369a17.6,17.6,0,0,1-5.383-14.861c.6-4.8,3.183-9.686,1.522-14.2-2.2-6.005-10.6-7.846-12.827-13.837-1.3-3.473-.138-7.541-1.605-10.959-1.384-3.2-4.746-5.051-8.026-6.227s-6.808-2.006-9.562-4.151-4.469-6.185-2.7-9.188a184.384,184.384,0,0,1,42.619,10.364c3.2,1.19,6.531,2.615,8.413,5.438s1.9,6.919,1.73,10.461l-2.449,52.582" transform="translate(-268.28 -124.808)" fill="#263238"/>
      <path id="Path_6699" data-name="Path 6699" d="M419.244,180.049a14.972,14.972,0,0,1,28.325-5.175c2.768,5.535,1.771,12.2-.761,17.809-3,6.642-9.16,12.717-16.453,12.385-6.919-.3-12.385-6.338-14.363-12.91s-1.176-13.616-.36-20.438" transform="translate(-252.504 -117.743)" fill="#263238"/>
      <path id="Path_6705" data-name="Path 6705" d="M479.065,235.581l-34.594-8.8H403.236s-21.379,1.232-33.21,11.734a26.139,26.139,0,0,0-6.49,10.613l-18.321,41.941-9.409-52.582L302.9,243.164l5.258,90.47a44.46,44.46,0,0,0,35.009,39.077l18.75-21.088c2.172,17.172,4.082,31.9,4.276,31.7.457-.457,102.508-6.642,102.508-6.642l-10.337-34.926Z" transform="translate(-295.429 -94.622)" fill="#ec7a49"/>
      <path id="Path_6706" data-name="Path 6706" d="M348.8,155.111A23.593,23.593,0,1,0,314.922,176.1c0,2.767,0,5.95,0,5.95l20.673.221s.166-3.349.235-6.324A23.524,23.524,0,0,0,348.8,155.111Z" transform="translate(-295.925 -131.273)" fill="#ec7a49"/>
      <path id="Path_6708" data-name="Path 6708" d="M330.288,171.7l-17.754-.18a1.384,1.384,0,0,1-1.315-1.384h0a1.384,1.384,0,0,1,1.384-1.384l17.684.346a1.384,1.384,0,0,1,1.384,1.384h0A1.384,1.384,0,0,1,330.288,171.7Z" transform="translate(-292.237 -116.891)" fill="#263238"/>
      <path id="Path_6709" data-name="Path 6709" d="M330.351,171.785l-17.74-.18a1.384,1.384,0,1,0,0,2.657h1.951l2.532,4.94a1.73,1.73,0,0,0,1.508.941l6.351.069a1.688,1.688,0,0,0,1.522-.927l2.574-4.871h1.315a1.384,1.384,0,1,0,0-2.671Z" transform="translate(-292.383 -115.817)" fill="#263238"/>
      <path id="Path_6721" data-name="Path 6721" d="M313.25,284.25s19.871,94.635,19.871,93.389,100.266,4.3,118.214,5.092l3.736-.913,28.312-26.056-32.56-2.671-11.651-66.6Z" transform="translate(-291.458 -72.568)" fill="#e0e0e0"/>
      <path id="Path_6726" data-name="Path 6726" d="M349.917,359.408h0l-1.287-15.4a4.8,4.8,0,0,1,5.535,4.954v-9.548s5.867-1.287,7.154,6.421a54.918,54.918,0,0,0,3.113,11.873l3.127,1.7L364.6,341.64s6.227.553,7.334,6.421a57.077,57.077,0,0,0,2.768,9.991l9.852,2.767s-5.646-5.051-5.106-6.7.194-1.55,1.287-1.785a10.42,10.42,0,0,1,5.258,1.384c1.8.955,12.177,7.1,12.177,7.1v7.611s-24.16,1.744-29.612.72l-10.572-2.435A11.222,11.222,0,0,1,349.917,359.408Z" transform="translate(-277.881 -51.43)" fill="#ffbe9d"/>
      <path id="Path_6727" data-name="Path 6727" d="M369.952,319a6.7,6.7,0,1,1-7.791-6.241A7.071,7.071,0,0,1,369.952,319Z" transform="translate(-274.835 -61.643)" fill="#fafafa"/>
      <path id="Path_6729" data-name="Path 6729" d="M373.1,236.016c.816-2.6.083-5.4-.374-8.095s-.526-5.77,1.3-7.79,4.843-2.256,7.555-2.38l33.487-1.453c2.283-.1,4.94,0,6.365,1.744a4.885,4.885,0,0,1,1.176,4.151c-1.716,6.379-1.176,11.748,1.384,16.245" transform="translate(-268.738 -98.655)" fill="#ec7a49"/>
    </g>
    <g id="freepik--character-1--inject-3" transform="translate(112.3 150.46)">
      <path id="Path_6734" data-name="Path 6734" d="M314.076,366.554c0,7.126,4.151,143.7,4.151,143.7l-58.117-.3L249.953,449.26l-2.684,60.691H191.42l6.061-149.9Z" transform="translate(-81.938 -41.272)" fill="#535353"/>
      <path id="Path_6735" data-name="Path 6735" d="M164.475,357.98l-29.7-44.28,22.029-17.906,37.264,34.594s16.038-89.944,31.826-95.368L224.668,374.5h0a47.726,47.726,0,0,1-60.193-16.522Z" transform="translate(-103.673 -89.252)" fill="#1a2026"/>
      <path id="Path_6736" data-name="Path 6736" d="M112.3,173.19l6.31,86.208L222.087,457.744l59.819-34.635L179.938,229.26Z" transform="translate(-112.3 -112.98)" fill="#ec7a49"/>
      <g id="Group_8767" data-name="Group 8767" transform="translate(0 60.252)" opacity="0.7">
        <path id="Path_6737" data-name="Path 6737" d="M180.948,229.649a6.075,6.075,0,0,1-8.842,1.744,15.373,15.373,0,0,1-24.589,15.636,17.989,17.989,0,0,1-28.948,11.762L112.3,173.22Z" transform="translate(-112.3 -173.22)" fill="#fff"/>
      </g>
      <path id="Path_6738" data-name="Path 6738" d="M114.825,207.867s14.031,8.8,25.17-11.707L112.32,173.19Z" transform="translate(-112.292 -112.98)" fill="#ec7a49"/>
      <path id="Path_6741" data-name="Path 6741" d="M142.687,256.65l-13.422,5.369L126.4,272.826l4.622,17.989,10.835,11.5,7.32-6.047.457-11.07.886-6.185s6.614-2.076,6.78-3.086-.816-4.414-1.827-4.566-7.957,2.422-7.957,2.422,8.206-6.5,7.984-7.555-1.121-3.708-2.768-4.013-14.889,5.95-14.889,5.95l-2.159,4.912-1.882-7.846S145.606,262.005,142.687,256.65Z" transform="translate(-106.889 -80.952)" fill="#b78876"/>
      <path id="Path_6742" data-name="Path 6742" d="M139.529,277.314a3.346,3.346,0,0,1-.457-1.384,7.375,7.375,0,0,1,2.311-6.227c.664-.581,1.162-.789,1.218-.72a10.337,10.337,0,0,0-3.072,8.3Z" transform="translate(-102.044 -76.224)" fill="#aa6550"/>
      <path id="Path_6743" data-name="Path 6743" d="M134.78,277.329a26.731,26.731,0,0,0,.54-3.515,14.834,14.834,0,0,1,.678-3.888,5.715,5.715,0,0,1,1.232-2.089,6.1,6.1,0,0,1,2.186-1.384c3.21-1.162,6.1-2.1,8.219-2.767a18.653,18.653,0,0,1,3.473-.955,19.15,19.15,0,0,1-3.307,1.384c-2.062.789-4.968,1.827-8.123,2.961a5.438,5.438,0,0,0-1.965,1.218,5.092,5.092,0,0,0-1.121,1.827,16.492,16.492,0,0,0-.789,3.722,7.1,7.1,0,0,1-1.024,3.487Z" transform="translate(-103.673 -78.619)" fill="#aa6550"/>
      <path id="Path_6744" data-name="Path 6744" d="M132.594,272.966c-.194,0-.152-1.218.083-2.643s.581-2.574.775-2.532a5.535,5.535,0,0,1-.1,2.643C133.12,271.859,132.774,272.993,132.594,272.966Z" transform="translate(-104.559 -76.677)" fill="#aa6550"/>
      <path id="Path_6745" data-name="Path 6745" d="M286.694,217.479l-11.762-4-43.976,10.088-3.9,3.238L203.78,442.283c9.991,10.309,41.512,12.357,59.4,9.313Z" transform="translate(-77.195 -97.518)" fill="#ec7a49"/>
      <path id="Path_6746" data-name="Path 6746" d="M271.485,217.437l-5.66-2.767s-12.454,54.852-12.454,91.092-7.832,167.586-7.832,167.586l59.321-1.536V326.643Z" transform="translate(-61.169 -97.062)" fill="#1a2026"/>
      <path id="Path_6747" data-name="Path 6747" d="M210.016,472.445l-22.486-6.573,7.846-106.2L193.9,282.678l11.762-42.9,27.9-17.242S211.552,459.659,210.016,472.445Z" transform="translate(-83.431 -94.042)" fill="#1a2026"/>
      <path id="Path_6748" data-name="Path 6748" d="M248.123,270.245h0a21.656,21.656,0,0,1-19.732-21.656V229.328s-17.809-2.767-17.989-20.576,2.878-58.657,2.878-58.657h0a61.854,61.854,0,0,1,62.144,7.8l2.643,2.034-6.448,90.29a21.656,21.656,0,0,1-23.5,20.023Z" transform="translate(-74.656 -123.772)" fill="#b78876"/>
      <path id="Path_6749" data-name="Path 6749" d="M223.441,207.6a41.512,41.512,0,0,0,23.206-6.6s-5.535,12.8-23.247,11.195Z" transform="translate(-69.665 -102.307)" fill="#aa6550"/>
      <path id="Path_6750" data-name="Path 6750" d="M257.936,169.284c.3-.125,12.218-3.612,11.831,8.552s-12.523,9.271-12.537,8.925S257.936,169.284,257.936,169.284Z" transform="translate(-56.683 -114.692)" fill="#b78876"/>
      <path id="Path_6751" data-name="Path 6751" d="M260,181.161a4.66,4.66,0,0,0,.553.332,2.076,2.076,0,0,0,1.591.083c1.3-.429,2.449-2.435,2.574-4.622a7.044,7.044,0,0,0-.5-3.058,2.463,2.463,0,0,0-1.536-1.674,1.052,1.052,0,0,0-1.273.54c-.18.332-.111.581-.166.6s-.263-.208-.152-.706a1.384,1.384,0,0,1,.512-.747,1.522,1.522,0,0,1,1.176-.277,2.975,2.975,0,0,1,2.2,1.91,7.4,7.4,0,0,1,.623,3.418c-.152,2.449-1.481,4.7-3.266,5.161a2.255,2.255,0,0,1-1.923-.387C260,181.465,260,181.188,260,181.161Z" transform="translate(-55.62 -113.589)" fill="#aa6550"/>
      <path id="Path_6752" data-name="Path 6752" d="M216.71,169.129a2.532,2.532,0,0,0,2.449,2.56,2.449,2.449,0,0,0,2.629-2.3,2.532,2.532,0,0,0-2.449-2.56,2.449,2.449,0,0,0-2.629,2.3Z" transform="translate(-72.233 -115.422)" fill="#263238"/>
      <path id="Path_6753" data-name="Path 6753" d="M214.942,167.531c.318.332,2.242-1.093,4.982-1.079s4.732,1.384,5.037,1.038-.18-.747-1.052-1.384a6.919,6.919,0,0,0-4.041-1.245,6.78,6.78,0,0,0-3.958,1.273C215.038,166.784,214.789,167.379,214.942,167.531Z" transform="translate(-72.927 -116.176)" fill="#263238"/>
      <path id="Path_6754" data-name="Path 6754" d="M236.14,169.959a2.532,2.532,0,0,0,2.449,2.56,2.435,2.435,0,0,0,2.629-2.283,2.56,2.56,0,0,0-2.449-2.574,2.449,2.449,0,0,0-2.629,2.3Z" transform="translate(-64.777 -115.104)" fill="#263238"/>
      <path id="Path_6755" data-name="Path 6755" d="M234.371,167.9c.318.332,2.242-1.093,4.982-1.093s4.732,1.384,5.037,1.052-.18-.747-1.052-1.384a6.919,6.919,0,0,0-4.041-1.245,6.78,6.78,0,0,0-3.958,1.273C234.509,167.154,234.219,167.749,234.371,167.9Z" transform="translate(-65.47 -116.034)" fill="#263238"/>
      <path id="Path_6756" data-name="Path 6756" d="M229.115,188.141a18.072,18.072,0,0,0-4.442-.8c-.706-.069-1.384-.208-1.481-.692a3.543,3.543,0,0,1,.457-2.062c.664-1.688,1.384-3.473,2.076-5.327,2.864-7.569,4.94-13.837,4.636-13.907s-2.878,5.936-5.743,13.505c-.692,1.868-1.384,3.653-1.979,5.355a4.151,4.151,0,0,0-.374,2.768,1.757,1.757,0,0,0,1.149,1.01,4.442,4.442,0,0,0,1.19.166,18.154,18.154,0,0,0,4.511-.014Z" transform="translate(-70.136 -115.988)" fill="#263238"/>
      <path id="Path_6757" data-name="Path 6757" d="M233.854,159.977c.263.747,3,.4,6.213.789s5.8,1.259,6.227.6c.194-.332-.263-1.024-1.384-1.744a10.849,10.849,0,0,0-9.465-1.052C234.324,159.05,233.743,159.631,233.854,159.977Z" transform="translate(-65.659 -118.835)" fill="#263238"/>
      <path id="Path_6758" data-name="Path 6758" d="M215.681,161.842c.47.623,2.366,0,4.622,0s4.151.415,4.636-.235c.194-.3-.111-.927-.955-1.522a6.67,6.67,0,0,0-7.458.235C215.722,160.9,215.459,161.538,215.681,161.842Z" transform="translate(-72.657 -118.403)" fill="#263238"/>
      <path id="Path_6759" data-name="Path 6759" d="M206.242,144.764a6.573,6.573,0,0,1,2.422-5.881,4.691,4.691,0,0,1,6.047.457,5.438,5.438,0,0,1,4.663-6.6c2.906-.18,5.383,2.006,8.192,2.768a13.27,13.27,0,0,0,8.3-.955c2.643-1.066,5.106-2.532,7.763-3.5a22.749,22.749,0,0,1,29.059,13.367c3.888-1.218,8.3.761,10.724,4.054a16.605,16.605,0,0,1,2.532,11.679,36.367,36.367,0,0,1-2.034,7.984v.678c-.18,9.8-1.287,21.282-5.535,21.351-7.279.111-5.535-13.6-5.535-13.6-8.939-3.446-5.6-16.826-7.846-18.861s-6.919-6.753-25.6,2.767c-7.265,3.708-16.923,3.6-22.14,2.394l-.47-.083h-.111l-.152-.069a16.454,16.454,0,0,1-4.8-2.034,9.465,9.465,0,0,1-3.944-4.386,5.175,5.175,0,0,1,1.024-5.535,11.4,11.4,0,0,1-2.56-5.992Z" transform="translate(-76.266 -129.677)" fill="#263238"/>
      <path id="Path_6760" data-name="Path 6760" d="M225.625,188.749a12.924,12.924,0,0,0,1.577,3.113,4.151,4.151,0,0,0,2.947,1.7,3.708,3.708,0,0,0,3.127-1.715,5.909,5.909,0,0,0,.872-3.557c0-1.135-.567-2.477-1.674-2.6a2.768,2.768,0,0,0-1.384.3l-5.881,2.38" transform="translate(-68.971 -108.183)" fill="#aa6550"/>
      <path id="Path_6761" data-name="Path 6761" d="M228.282,193.752a8.3,8.3,0,0,0,3.141-.387,4.566,4.566,0,0,0,2.366-2.145,4.76,4.76,0,0,0,0-3.847,3.9,3.9,0,0,0-.512-.872c-.235-.249-.18-.235-.443-.208a4.9,4.9,0,0,0-.941.374l-.955.4c-1.259.5-2.394.941-3.363,1.3a10.615,10.615,0,0,1-3.2.969,10.613,10.613,0,0,1,2.906-1.647l3.266-1.522.955-.415a7.306,7.306,0,0,1,1.066-.443,1.273,1.273,0,0,1,.872,0,1.578,1.578,0,0,1,.65.5,5.383,5.383,0,0,1,.484,5.812,5.065,5.065,0,0,1-2.989,2.422,4.871,4.871,0,0,1-2.532.1C228.531,194.015,228.268,193.808,228.282,193.752Z" transform="translate(-69.289 -108.358)" fill="#263238"/>
      <path id="Path_6765" data-name="Path 6765" d="M271.232,216.67s42.495,13.575,45.262,20.936c2.117,5.535,24.423,72.453,29.225,116.083a32.034,32.034,0,0,1-29.059,35.272c-28.74,2.643-70.46,6.075-70.46,3.708V356.484l54.118-7.9L280.3,289.732Z" transform="translate(-60.916 -96.294)" fill="#1a2026"/>
      <path id="Path_6766" data-name="Path 6766" d="M228.208,352.974c5.535,1.384,29.5,1.384,29.5,1.384V325.978s-10.433-4.442-13.312-7.043-11.07-17.864-11.07-17.864a8.178,8.178,0,0,0-3.764,8.745c1.384,6.241,3.93,7,4.151,9.479,0,0,.221.65.221.678.567,3.459-2.767,6.517-2.767,6.517a11.9,11.9,0,0,0-3.639-1.868c-5.037-.6-11.07,3.017-11.07,5.037,0,0-.166,5.438,0,6.255s2.767,1.882,2.767,1.882-.8,3.625,0,5.244a8.621,8.621,0,0,0,3.5,2.767S225.081,352.172,228.208,352.974Z" transform="translate(-72.357 -63.906)" fill="#b78876"/>
      <path id="Path_6767" data-name="Path 6767" d="M232.223,335.962a17.864,17.864,0,0,1-11.153-2.435c.083-.194,2.463.761,5.535,1.384S232.223,335.755,232.223,335.962Z" transform="translate(-70.56 -51.46)" fill="#aa6550"/>
      <path id="Path_6768" data-name="Path 6768" d="M231.648,329.612a14.031,14.031,0,0,1-6.545.346,13.713,13.713,0,0,1-6.213-2.062c.083-.194,2.768.886,6.31,1.384S231.62,329.432,231.648,329.612Z" transform="translate(-71.396 -53.62)" fill="#aa6550"/>
      <path id="Path_6769" data-name="Path 6769" d="M231.5,311.49a10.724,10.724,0,0,1,1.923,3.473,12.652,12.652,0,0,1,.623,1.965,4.8,4.8,0,0,1,0,2.422,7.223,7.223,0,0,1-3.432,4.151,8.911,8.911,0,0,1-2.643,1.038,14.54,14.54,0,0,1-2.6.263c-1.633,0-3.1,0-4.317.069-2.449,0-3.916.36-3.958.263a9.893,9.893,0,0,1,3.93-.775c1.232-.1,2.767-.125,4.317-.221a15.464,15.464,0,0,0,2.477-.291,8.454,8.454,0,0,0,2.435-.969,6.739,6.739,0,0,0,3.155-3.764,4.152,4.152,0,0,0,0-2.131,13.008,13.008,0,0,0-.5-1.9C232.183,312.874,231.408,311.545,231.5,311.49Z" transform="translate(-72.083 -59.907)" fill="#aa6550"/>
      <path id="Path_6775" data-name="Path 6775" d="M192.548,253.87a8.935,8.935,0,0,1,.083.969c0,.706,0,1.619.083,2.768,0,2.477.125,5.922.208,10.143.111,8.648.249,20.452.4,33.487s.152,24.908.208,33.473v12.91a3.983,3.983,0,0,1,0,.955,4.36,4.36,0,0,1-.083-.955c0-.706,0-1.619-.083-2.767,0-2.491-.125-5.936-.208-10.157-.111-8.635-.249-20.438-.415-33.473s-.138-24.838-.194-33.487v-12.91a4.055,4.055,0,0,1,0-.955Z" transform="translate(-81.516 -82.019)" fill="#455a64"/>
      <path id="Path_6777" data-name="Path 6777" d="M316.511,341.191c0,.194-15.595,1.384-34.857,2.657s-34.87,2.145-34.884,1.937,15.581-1.384,34.843-2.657S316.5,340.942,316.511,341.191Z" transform="translate(-60.697 -48.525)" fill="#455a64"/>
    </g>
    <g id="freepik--Arrow--inject-3" transform="translate(275.472 75.52)">
      <path id="Path_6859" data-name="Path 6859" d="M230.22,75.52l4.345,23.012,3.556-6.421,7.666,11.471,3.819-2.574-7.652-11.471,7.029-1.079Z" transform="translate(-230.22 -75.52)" fill="#263238"/>
    </g>
  </g>
</svg>
