<svg xmlns="http://www.w3.org/2000/svg" width="322.51" height="422.362" viewBox="0 0 322.51 422.362">
  <g id="Book_lover-pana" data-name="Book lover-pana" transform="translate(0 0)">
    <g id="freepik--big-books--inject-23" transform="translate(17.69 236.161)">
      <rect id="Rectangle_5606" data-name="Rectangle 5606" width="43.84" height="52.12" transform="translate(208.56 3.39)" fill="#f1f2f2"/>
      <rect id="Rectangle_5607" data-name="Rectangle 5607" width="198.13" height="58.8" transform="translate(11.94 0)" fill="#ec7a49"/>
      <path id="Path_8000" data-name="Path 8000" d="M377.47,296.14h-49V291.2h49a2.46,2.46,0,0,1,2.47,2.47h0a2.47,2.47,0,0,1-2.47,2.47Z" transform="translate(-123.74 -291.2)" fill="#ec7a49"/>
      <path id="Path_8001" data-name="Path 8001" d="M377.47,350h-49v-4.94h49a2.47,2.47,0,0,1,2.47,2.47h0a2.46,2.46,0,0,1-2.47,2.47Z" transform="translate(-123.74 -291.2)" fill="#ec7a49"/>
      <g id="Group_8810" data-name="Group 8810" transform="translate(171.09 0)" opacity="0.4">
        <rect id="Rectangle_5608" data-name="Rectangle 5608" width="23.41" height="58.8" transform="translate(0)"/>
      </g>
      <g id="Group_8811" data-name="Group 8811" transform="translate(29.52 0)" opacity="0.4">
        <rect id="Rectangle_5609" data-name="Rectangle 5609" width="23.41" height="58.8" transform="translate(0)"/>
      </g>
      <path id="Path_8002" data-name="Path 8002" d="M376.14,303.22c0,.14-9.49.26-21.19.26s-21.19-.12-21.19-.26S343.25,303,355,303,376.14,303.07,376.14,303.22Z" transform="translate(-123.74 -291.2)" fill="#e0e0e0"/>
      <path id="Path_8003" data-name="Path 8003" d="M376.14,311c0,.15-9.49.26-21.19.26s-21.19-.11-21.19-.26,9.49-.26,21.19-.26S376.14,310.89,376.14,311Z" transform="translate(-123.74 -291.2)" fill="#e0e0e0"/>
      <path id="Path_8004" data-name="Path 8004" d="M376.14,320.65c0,.15-9.49.27-21.19.27s-21.19-.12-21.19-.27,9.49-.26,21.19-.26S376.14,320.51,376.14,320.65Z" transform="translate(-123.74 -291.2)" fill="#e0e0e0"/>
      <path id="Path_8005" data-name="Path 8005" d="M376.14,330.28c0,.14-9.49.26-21.19.26s-21.19-.12-21.19-.26S343.25,330,355,330,376.14,330.13,376.14,330.28Z" transform="translate(-123.74 -291.2)" fill="#e0e0e0"/>
      <path id="Path_8006" data-name="Path 8006" d="M376.14,339.9c0,.15-9.49.26-21.19.26s-21.19-.11-21.19-.26,9.49-.26,21.19-.26S376.14,339.76,376.14,339.9Z" transform="translate(-123.74 -291.2)" fill="#e0e0e0"/>
      <g id="Group_8812" data-name="Group 8812" transform="translate(69.36 24.16)" opacity="0.2">
        <rect id="Rectangle_5610" data-name="Rectangle 5610" width="89.14" height="10.59" transform="translate(0)"/>
      </g>
      <rect id="Rectangle_5611" data-name="Rectangle 5611" width="44.51" height="31.76" transform="translate(207.44 59.95)" fill="#f1f2f2"/>
      <rect id="Rectangle_5612" data-name="Rectangle 5612" width="189.44" height="34.06" transform="translate(18.5 58.79)" fill="#80848f"/>
      <path id="Path_8007" data-name="Path 8007" d="M330.3,352.3h47.85a1.15,1.15,0,0,0,1.15-1.15h0a1.15,1.15,0,0,0-1.15-1.16H330.3Z" transform="translate(-123.74 -291.2)" fill="#455a64"/>
      <path id="Path_8008" data-name="Path 8008" d="M330.3,381.75h47.85a1.15,1.15,0,0,1,1.15,1.15h0a1.15,1.15,0,0,1-1.15,1.15H330.3Z" transform="translate(-123.74 -291.2)" fill="#455a64"/>
      <path id="Path_8009" data-name="Path 8009" d="M375.7,357.18c0,.14-9.86.26-22,.26s-22-.12-22-.26,9.85-.26,22-.26S375.7,357,375.7,357.18Z" transform="translate(-123.74 -291.2)" fill="#e0e0e0"/>
      <path id="Path_8010" data-name="Path 8010" d="M375.7,363.19c0,.14-9.86.26-22,.26s-22-.12-22-.26,9.85-.26,22-.26S375.7,363,375.7,363.19Z" transform="translate(-123.74 -291.2)" fill="#e0e0e0"/>
      <path id="Path_8011" data-name="Path 8011" d="M375.7,369.19c0,.15-9.86.26-22,.26s-22-.11-22-.26,9.85-.26,22-.26S375.7,369.05,375.7,369.19Z" transform="translate(-123.74 -291.2)" fill="#e0e0e0"/>
      <path id="Path_8012" data-name="Path 8012" d="M375.7,375.2c0,.15-9.86.26-22,.26s-22-.11-22-.26,9.85-.26,22-.26S375.7,375.06,375.7,375.2Z" transform="translate(-123.74 -291.2)" fill="#e0e0e0"/>
      <rect id="Rectangle_5613" data-name="Rectangle 5613" width="130.64" height="8.89" transform="translate(48.03 70.99)" fill="#292d36"/>
      <rect id="Rectangle_5614" data-name="Rectangle 5614" width="45.44" height="86.09" transform="translate(213.27 95.88)" fill="#f1f2f2"/>
      <rect id="Rectangle_5615" data-name="Rectangle 5615" width="213.27" height="93.34" transform="translate(0 92.86)" fill="#ec7a49"/>
      <path id="Path_8013" data-name="Path 8013" d="M386,477.4H331.18v-6H386a3,3,0,0,1,3,3h0A3,3,0,0,1,386,477.4Z" transform="translate(-123.74 -291.2)" fill="#ec7a49"/>
      <path id="Path_8014" data-name="Path 8014" d="M331.18,384.06H386a3,3,0,0,1,3,3h0a3,3,0,0,1-3,3H331.18v-6Z" transform="translate(-123.74 -291.2)" fill="#ec7a49"/>
      <g id="Group_8813" data-name="Group 8813" transform="translate(122.54 92.86)" opacity="0.4">
        <path id="Path_8015" data-name="Path 8015" d="M291.14,384.06,246.28,477.4h37.9l42.53-93.34Z" transform="translate(-246.28 -384.06)" fill="#fff"/>
      </g>
      <g id="Group_8814" data-name="Group 8814" transform="translate(51.78 92.86)" opacity="0.4">
        <path id="Path_8016" data-name="Path 8016" d="M220.38,384.06,175.52,477.4h37.89l42.54-93.34Z" transform="translate(-175.52 -384.06)" fill="#fff"/>
      </g>
      <path id="Path_8017" data-name="Path 8017" d="M382.45,398.62c0,.15-10.17.26-22.72.26s-22.72-.11-22.72-.26,10.17-.26,22.72-.26S382.45,398.48,382.45,398.62Z" transform="translate(-123.74 -291.2)" fill="#e0e0e0"/>
      <path id="Path_8018" data-name="Path 8018" d="M382.45,409.66c0,.15-10.17.26-22.72.26s-22.72-.11-22.72-.26,10.17-.26,22.72-.26S382.45,409.52,382.45,409.66Z" transform="translate(-123.74 -291.2)" fill="#e0e0e0"/>
      <path id="Path_8019" data-name="Path 8019" d="M382.45,420.71c0,.14-10.17.26-22.72.26s-22.72-.12-22.72-.26,10.17-.26,22.72-.26S382.45,420.56,382.45,420.71Z" transform="translate(-123.74 -291.2)" fill="#e0e0e0"/>
      <path id="Path_8020" data-name="Path 8020" d="M382.45,431.75c0,.14-10.17.26-22.72.26s-22.72-.12-22.72-.26,10.17-.26,22.72-.26S382.45,431.6,382.45,431.75Z" transform="translate(-123.74 -291.2)" fill="#e0e0e0"/>
      <path id="Path_8021" data-name="Path 8021" d="M382.45,442.79c0,.14-10.17.26-22.72.26s-22.72-.12-22.72-.26,10.17-.26,22.72-.26S382.45,442.65,382.45,442.79Z" transform="translate(-123.74 -291.2)" fill="#e0e0e0"/>
      <path id="Path_8022" data-name="Path 8022" d="M382.45,453.83c0,.14-10.17.26-22.72.26S337,454,337,453.83s10.17-.26,22.72-.26S382.45,453.69,382.45,453.83Z" transform="translate(-123.74 -291.2)" fill="#e0e0e0"/>
      <path id="Path_8023" data-name="Path 8023" d="M382.45,464.87c0,.15-10.17.26-22.72.26S337,465,337,464.87s10.17-.26,22.72-.26S382.45,464.73,382.45,464.87Z" transform="translate(-123.74 -291.2)" fill="#e0e0e0"/>
    </g>
    <g id="freepik--Character--inject-23" transform="translate(78.1 26.612)">
      <path id="Path_8024" data-name="Path 8024" d="M355.41,133.27l-13.92-22.34a.79.79,0,0,0-1.34,0l-13.66,23.62Z" transform="translate(-184.15 -81.651)" fill="#ec7a49"/>
      <g id="Group_8815" data-name="Group 8815" transform="translate(142.34 28.908)" opacity="0.3">
        <path id="Path_8025" data-name="Path 8025" d="M355.41,133.27l-13.92-22.34a.79.79,0,0,0-1.34,0l-13.66,23.62Z" transform="translate(-326.49 -110.559)"/>
      </g>
      <path id="Path_8026" data-name="Path 8026" d="M341.49,111.99l13.01,21.19-3.31-.52-21.25-3.35,7.92-16.66Z" transform="translate(-184.15 -81.651)" fill="#ebebeb"/>
      <path id="Path_8027" data-name="Path 8027" d="M342.88,153.65l12.53-20.38-32.45-6a2.55,2.55,0,0,0-2.67,1.22l-18.3,31a1.59,1.59,0,0,0,1.09,2.37l30.5,5.41Z" transform="translate(-184.15 -81.651)" fill="#ec7a49"/>
      <path id="Path_8028" data-name="Path 8028" d="M334.22,113.27l18.01,19.5-26.15-4.9Z" transform="translate(-184.15 -81.651)" fill="#ebebeb"/>
      <g id="Group_8816" data-name="Group 8816" transform="translate(131.37 54.699)" opacity="0.3">
        <path id="Path_8030" data-name="Path 8030" d="M326.44,136.35c-.28.42-10.92,18.15-10.92,18.15l17.34,3.24,11.51-18.39Z" transform="translate(-315.52 -136.35)" fill="#fff"/>
      </g>
      <path id="Path_8031" data-name="Path 8031" d="M196,438.8l9.53-12.45.5-.64,16.24,12.08-15,16.52.55,16.72c8.37,2.17,9.63,6.35,9.63,6.35H200.04L184.15,446.9Z" transform="translate(-184.15 -81.65)" fill="#cfd8de"/>
      <path id="Path_8032" data-name="Path 8032" d="M184.15,446.9,200,477.36h17.41a7.19,7.19,0,0,0-2-2.62L201.25,474l-14.59-28.79Z" transform="translate(-184.15 -81.65)" fill="#ebebeb"/>
      <g id="Group_8817" data-name="Group 8817" transform="translate(19.16 345)" opacity="0.3">
        <path id="Path_8040" data-name="Path 8040" d="M220.71,439.45l-3.34,3.67L203.31,429.2l1.96-2.55Z" transform="translate(-203.31 -426.65)"/>
      </g>
      <path id="Path_8041" data-name="Path 8041" d="M264.11,445.13l-1.78,21.17s20.92,7.14,21,11.08l-41.17-.19,1.42-33.1Z" transform="translate(-184.15 -81.65)" fill="#cfd8de"/>
      <path id="Path_8043" data-name="Path 8043" d="M242.13,477.19l.14-3.3,39,.93s2.07,1.66,2.05,2.56Z" transform="translate(-184.15 -81.65)" fill="#ebebeb"/>
      <path id="Path_8050" data-name="Path 8050" d="M347.6,160.31a5.1,5.1,0,0,0-.14-3.63c-1.7-4-5.7-13-7.15-12.75-1.28.23-2.22,2.67-.76,5.36l-4.71-4a1.36,1.36,0,0,0-2.23,1.24,7.258,7.258,0,0,0,.58,1.75c1.46,3.1,5.52,6,5.52,6l-8.2.05s-1.53,2.14,1.28,3.58a5.74,5.74,0,0,0,2,.56l4.24.43s-7.66,8.47-7.92,9.26a17.313,17.313,0,0,0-.68,3.9l-14.7,16.35,3.93,24.86,26.56-46Z" transform="translate(-184.15 -81.651)" fill="#febe9d"/>
      <path id="Path_8053" data-name="Path 8053" d="M273.1,276.6c.22,0,1,49,1.32,71.07a38.36,38.36,0,0,1-5.18,19.81l-47.85,84.06L193.9,428.67l44.45-75.12L222,274.37l32.4-27.86Z" transform="translate(-184.15 -81.651)" fill="#292d36"/>
      <path id="Path_8054" data-name="Path 8054" d="M296.35,266.59c-.14,2.82-26,184.54-26,184.54l-32-2.28,11.74-183.39Z" transform="translate(-184.15 -81.651)" fill="#292d36"/>
      <path id="Path_8060" data-name="Path 8060" d="M296.35,266.59s-24.7,11.53-33.56,7.56-14.66-13.13-21.07-11-16.19,4-19.55,13.13a8,8,0,0,1-2.13-5.75c0-3.56,3-8.39,3-8.39l-4-41.26.17-69.38s6.88-10.25,25.51-9.64l25.73,3.7s13.13,4,16.79,10.69,2.14,54.48,2.14,54.48,8.14,46.36,8.14,50a13.929,13.929,0,0,1-1.15,5.87" transform="translate(-184.15 -81.651)" fill="#ec7a49"/>
      <path id="Path_8061" data-name="Path 8061" d="M311,187.73l-10.61,9.46-13.14-40.93-11,24.65,4.44,40a15.34,15.34,0,0,0,11.62,13.21h0a15.36,15.36,0,0,0,13.79-3.43l11.2-9.58a6,6,0,0,0,2.05-5.55l-4.17-26.32a2.52,2.52,0,0,0-4.18-1.51Z" transform="translate(-184.15 -81.651)" fill="#ec7a49"/>
      <path id="Path_8062" data-name="Path 8062" d="M230.64,176.65c0,.91-4.93,45.59-4.93,45.59l20.89,45.19c-2,4.26-5.92,8.13-10.23,11.91,0,0-5.34-4.88-5.65-15.27,0,0-23.74-27.89-26.18-35.22s4.28-57.39,4.28-57.39Z" transform="translate(-184.15 -81.651)" fill="#febe9d"/>
      <path id="Path_8068" data-name="Path 8068" d="M223.49,148S202,158.86,199,216.94a6.18,6.18,0,0,0,7.31,6.4c8.83-1.68,22.21-4.28,22.12-4.64-.12-.53,5-51.11,5-51.11Z" transform="translate(-184.15 -81.651)" fill="#ec7a49"/>
      <path id="Path_8085" data-name="Path 8085" d="M249,103.13a35,35,0,0,1-1.14-6.95,11.91,11.91,0,0,1,1.6-6.77,7.26,7.26,0,0,1,5.78-3.53c1.45,0,2.91.47,4.34.21,1.65-.3,2.94-1.55,4.35-2.46a12.16,12.16,0,0,1,7.49-1.95A7.17,7.17,0,0,1,275.24,83,4.07,4.07,0,0,1,277,86.5a19.64,19.64,0,0,1,5.07-.32,6.57,6.57,0,0,1,4.44,2.21,4,4,0,0,1,.29,4.72A3.24,3.24,0,0,1,290.68,95a4.21,4.21,0,0,1-1,4.41,7.87,7.87,0,0,1-5.06,1.84,11.42,11.42,0,0,1-4.85-1" transform="translate(-184.15 -81.651)" fill="#263238"/>
      <path id="Path_8086" data-name="Path 8086" d="M254.55,156.12h0A11.83,11.83,0,0,0,269,145.76c.38-3.81.71-7,.78-7.51,0,0,9.57.18,11.32-9.11s3.88-31,3.88-31h0a32.86,32.86,0,0,0-33.24-1.61l-1.57.82-4.71,46A11.83,11.83,0,0,0,254.55,156.12Z" transform="translate(-184.15 -81.651)" fill="#febe9d"/>
      <path id="Path_8087" data-name="Path 8087" d="M269.79,138.12a21.93,21.93,0,0,1-11.53-5.58s1.69,7.21,11.13,8Z" transform="translate(-184.15 -81.651)" fill="#aa6550"/>
      <path id="Path_8088" data-name="Path 8088" d="M249.6,107.24c-.15-.1-6.07-3-7,3.39s5.7,6,5.74,5.81S249.6,107.24,249.6,107.24Z" transform="translate(-184.15 -81.651)" fill="#b78876"/>
      <path id="Path_8089" data-name="Path 8089" d="M246.75,113.74a2.2,2.2,0,0,1-.32.12,1.14,1.14,0,0,1-.84-.1,2.78,2.78,0,0,1-.92-2.66,3.54,3.54,0,0,1,.54-1.55,1.3,1.3,0,0,1,1-.74.57.57,0,0,1,.61.4.519.519,0,0,1,0,.33c0,.01.15-.09.13-.36a.7.7,0,0,0-.19-.44.89.89,0,0,0-.59-.25,1.61,1.61,0,0,0-1.31.83,3.71,3.71,0,0,0-.64,1.73,2.93,2.93,0,0,0,1.23,3,1.2,1.2,0,0,0,1.05,0C246.72,113.89,246.77,113.75,246.75,113.74Z" transform="translate(-184.15 -81.651)" fill="#aa6550"/>
      <path id="Path_8090" data-name="Path 8090" d="M280.27,112.45a1.35,1.35,0,0,1-1.52,1.11,1.28,1.28,0,0,1-1.16-1.43A1.35,1.35,0,0,1,279.1,111a1.3,1.3,0,0,1,1.17,1.45Z" transform="translate(-184.15 -81.651)" fill="#263238"/>
      <path id="Path_8091" data-name="Path 8091" d="M280.89,111c-.2.15-1.07-.78-2.51-1s-2.6.28-2.73.08.16-.38.68-.63a3.72,3.72,0,0,1,2.22-.28,3.57,3.57,0,0,1,2,1C280.89,110.57,281,110.91,280.89,111Z" transform="translate(-184.15 -81.651)" fill="#263238"/>
      <path id="Path_8092" data-name="Path 8092" d="M266.39,110a1.36,1.36,0,0,1-1.52,1.12,1.29,1.29,0,0,1-1.16-1.44,1.35,1.35,0,0,1,1.51-1.12,1.3,1.3,0,0,1,1.17,1.44Z" transform="translate(-184.15 -81.651)" fill="#263238"/>
      <path id="Path_8093" data-name="Path 8093" d="M266.77,108.77c-.19.15-1.07-.77-2.5-1s-2.61.28-2.73.08.16-.37.67-.62a3.67,3.67,0,0,1,2.23-.29,3.54,3.54,0,0,1,1.95,1C266.77,108.37,266.87,108.71,266.77,108.77Z" transform="translate(-184.15 -81.651)" fill="#263238"/>
      <path id="Path_8094" data-name="Path 8094" d="M270.11,120.3a9.169,9.169,0,0,1,2.4,0c.37,0,.73,0,.83-.23a1.82,1.82,0,0,0,0-1.12c-.19-1-.39-1.94-.59-3-.81-4.22-1.33-7.67-1.16-7.7s1,3.37,1.77,7.59c.19,1,.38,2,.55,3a2.2,2.2,0,0,1-.06,1.47.92.92,0,0,1-.7.43,2.531,2.531,0,0,1-.63,0,9.76,9.76,0,0,1-2.41-.44Z" transform="translate(-184.15 -81.651)" fill="#263238"/>
      <path id="Path_8095" data-name="Path 8095" d="M265.72,120.55c.24,0,0,1.58,1.11,2.92s2.82,1.45,2.79,1.67-.42.24-1.12.13a3.87,3.87,0,0,1-2.35-1.31,3.46,3.46,0,0,1-.83-2.42C265.38,120.88,265.62,120.52,265.72,120.55Z" transform="translate(-184.15 -81.651)" fill="#263238"/>
      <path id="Path_8096" data-name="Path 8096" d="M280.8,108.36c-.31.28-1.23-.23-2.41-.45s-2.23-.17-2.4-.55c-.08-.18.14-.48.63-.71a3.56,3.56,0,0,1,3.88.8C280.86,107.86,280.94,108.22,280.8,108.36Z" transform="translate(-184.15 -81.651)" fill="#263238"/>
      <path id="Path_8097" data-name="Path 8097" d="M265.82,103.27c-.19.15-.55,0-1-.16a11.692,11.692,0,0,0-1.72-.55,12.139,12.139,0,0,0-1.8-.19c-.49,0-.87,0-1-.25s.1-.58.67-.9a3.83,3.83,0,0,1,4.6,1C266,102.7,266,103.14,265.82,103.27Z" transform="translate(-184.15 -81.651)" fill="#263238"/>
      <path id="Path_8098" data-name="Path 8098" d="M284.91,101.12a22.26,22.26,0,0,1-13.47-3.07c-4.5-2.67-9.87-4.21-11.14-3.36s-1.87,5.65-6.6,6.72c0,0-.35,9.21-4,8.62s-.32-14.66-.32-14.66l9.28-3.73,9.92-1.13,9.16.67,8.33,3.24Z" transform="translate(-184.15 -81.651)" fill="#263238"/>
    </g>
    <g id="freepik--Books--inject-23" transform="translate(0 0)">
      <path id="Path_8118" data-name="Path 8118" d="M137,213l1.94,2.47s9.6-15.37,20.74-16.95h0a2.19,2.19,0,0,0,2-.07l3.6-2.09a2.18,2.18,0,0,0,1-2.25h0s5.37-9.53,16.82-11l4.18-.79L158.55,156l-44.73,18.19Z" transform="translate(-106.05 -55.039)" fill="#ec7a49"/>
      <path id="Path_8119" data-name="Path 8119" d="M132.23,210.94l3.39,4.53s7.81-17.61,27.24-18.85l-19.12-19.76S129.94,205.51,132.23,210.94Z" transform="translate(-106.05 -55.039)" fill="#ebebeb"/>
      <path id="Path_8120" data-name="Path 8120" d="M106.05,179.3s7.41-23.91,32-15.17l24.85,32.49S137.41,192,131.42,213Z" transform="translate(-106.05 -55.039)" fill="#f5f5f5"/>
      <path id="Path_8121" data-name="Path 8121" d="M162.86,196.62s7.68-18.78,24.45-16.47l-24.45-28.42-24,13.52Z" transform="translate(-106.05 -55.039)" fill="#ebebeb"/>
      <path id="Path_8122" data-name="Path 8122" d="M138,164.17s-2.79-14.2,8.18-20.39l7.19-3.74,25.15,28.16s-17.37,9.49-15.67,28.46Z" transform="translate(-106.05 -55.039)" fill="#f5f5f5"/>
      <path id="Path_8123" data-name="Path 8123" d="M162.86,196.62a8.152,8.152,0,0,1-1-1.22c-.7-.88-1.6-2-2.7-3.44-2.3-3-5.39-7-8.8-11.4l-8.83-11.39-2.69-3.44a9.2,9.2,0,0,1-.94-1.3,12.452,12.452,0,0,1,1.1,1.17c.68.77,1.64,1.92,2.82,3.34,2.35,2.84,5.52,6.84,8.95,11.3s6.5,8.53,8.69,11.5l2.56,3.54a9.7,9.7,0,0,1,.84,1.34Z" transform="translate(-106.05 -55.039)" fill="#263238"/>
      <path id="Path_8124" data-name="Path 8124" d="M153.92,148.32a25.7,25.7,0,0,0-2.88,1.34,19.52,19.52,0,0,0-5.55,5.18,19,19,0,0,0-3.27,6.86c-.43,1.91-.37,3.15-.48,3.15a3.22,3.22,0,0,1-.08-.87,10.63,10.63,0,0,1,.2-2.36,17.57,17.57,0,0,1,3.21-7.09,17.92,17.92,0,0,1,5.79-5.19,10,10,0,0,1,2.2-.89A2.89,2.89,0,0,1,153.92,148.32Z" transform="translate(-106.05 -55.039)" fill="#263238"/>
      <path id="Path_8125" data-name="Path 8125" d="M166.31,160.2c0,.1-1.13.61-2.79,1.81a20.419,20.419,0,0,0-2.69,2.34,22.18,22.18,0,0,0-2.69,3.45,22.709,22.709,0,0,0-1.9,3.93,20.831,20.831,0,0,0-.9,3.45c-.34,2-.29,3.3-.39,3.3a3.311,3.311,0,0,1-.1-.9,9.4,9.4,0,0,1,0-1.05,10.59,10.59,0,0,1,.11-1.4,18.55,18.55,0,0,1,.82-3.56,21.66,21.66,0,0,1,1.91-4,21.091,21.091,0,0,1,2.78-3.5,18.35,18.35,0,0,1,2.83-2.31,13.374,13.374,0,0,1,1.2-.73,7.481,7.481,0,0,1,1-.47,3.07,3.07,0,0,1,.81-.36Z" transform="translate(-106.05 -55.039)" fill="#263238"/>
      <path id="Path_8126" data-name="Path 8126" d="M170.32,163.59c0,.1-1.24.66-3,2a24.47,24.47,0,0,0-2.92,2.58,30.738,30.738,0,0,0-3,3.71,29.062,29.062,0,0,0-2.28,4.18,21,21,0,0,0-1.2,3.7c-.48,2.16-.41,3.56-.51,3.56a3.13,3.13,0,0,1-.09-1,7.872,7.872,0,0,1,0-1.15,10.15,10.15,0,0,1,.2-1.51,19.2,19.2,0,0,1,1.11-3.81,26.551,26.551,0,0,1,2.3-4.29A27.741,27.741,0,0,1,164,167.8a22.561,22.561,0,0,1,3-2.54,13.785,13.785,0,0,1,1.29-.81,8.489,8.489,0,0,1,1-.53,4,4,0,0,1,1.03-.33Z" transform="translate(-106.05 -55.039)" fill="#263238"/>
      <path id="Path_8127" data-name="Path 8127" d="M172.83,166.81c0,.09-1.24.65-3,2a23.258,23.258,0,0,0-2.86,2.66,29.173,29.173,0,0,0-2.87,3.83,29.56,29.56,0,0,0-2.16,4.27,23.381,23.381,0,0,0-1.12,3.74c-.45,2.18-.38,3.58-.49,3.58a4,4,0,0,1-.08-1,6.611,6.611,0,0,1,0-1.15,10.2,10.2,0,0,1,.18-1.52,20.829,20.829,0,0,1,1-3.85,28.479,28.479,0,0,1,2.16-4.37,27.318,27.318,0,0,1,3-3.87,20,20,0,0,1,3-2.63,10.29,10.29,0,0,1,1.28-.84,7.39,7.39,0,0,1,1-.54,3.08,3.08,0,0,1,.96-.31Z" transform="translate(-106.05 -55.039)" fill="#263238"/>
      <path id="Path_8128" data-name="Path 8128" d="M152.08,191.37c0,.09-1.39-.39-3.68-.59a19.26,19.26,0,0,0-8.75,1.31,19.06,19.06,0,0,0-7.15,5.21c-1.49,1.75-2.13,3-2.22,3a3.14,3.14,0,0,1,.41-.93,15.271,15.271,0,0,1,1.52-2.3,17.82,17.82,0,0,1,16.23-6.65,15.539,15.539,0,0,1,2.7.57,3.39,3.39,0,0,1,.94.38Z" transform="translate(-106.05 -55.039)" fill="#263238"/>
      <path id="Path_8129" data-name="Path 8129" d="M148.79,187.27c0,.09-1.39-.39-3.68-.59a18.6,18.6,0,0,0-15.91,6.52c-1.49,1.75-2.13,3.05-2.21,3a3.139,3.139,0,0,1,.41-.93,15.271,15.271,0,0,1,1.52-2.3,17.82,17.82,0,0,1,16.23-6.65,15.539,15.539,0,0,1,2.7.57A3.39,3.39,0,0,1,148.79,187.27Z" transform="translate(-106.05 -55.039)" fill="#263238"/>
      <path id="Path_8130" data-name="Path 8130" d="M145.5,183.16c0,.1-1.39-.38-3.68-.58a18.6,18.6,0,0,0-15.91,6.52c-1.49,1.75-2.13,3-2.21,3a3.12,3.12,0,0,1,.4-.93,15.48,15.48,0,0,1,1.53-2.31,17.84,17.84,0,0,1,16.23-6.64,15.54,15.54,0,0,1,2.7.57A3.62,3.62,0,0,1,145.5,183.16Z" transform="translate(-106.05 -55.039)" fill="#263238"/>
      <path id="Path_8131" data-name="Path 8131" d="M142.21,179.06c0,.1-1.4-.38-3.68-.58A18.57,18.57,0,0,0,122.62,185c-1.49,1.75-2.13,3-2.22,3a4.08,4.08,0,0,1,.41-.92,14.719,14.719,0,0,1,1.53-2.31,17.84,17.84,0,0,1,16.22-6.64,14.792,14.792,0,0,1,2.71.57A3.619,3.619,0,0,1,142.21,179.06Z" transform="translate(-106.05 -55.039)" fill="#263238"/>
      <path id="Path_8132" data-name="Path 8132" d="M138.91,175c0,.1-1.39-.38-3.68-.58a18.57,18.57,0,0,0-15.9,6.52c-1.49,1.74-2.13,3-2.22,3a3.559,3.559,0,0,1,.41-.92,15.272,15.272,0,0,1,1.52-2.31A17.88,17.88,0,0,1,135.27,174a15.392,15.392,0,0,1,2.7.58,3.07,3.07,0,0,1,.94.42Z" transform="translate(-106.05 -55.039)" fill="#263238"/>
      <path id="Path_8133" data-name="Path 8133" d="M135.62,170.86c0,.09-1.39-.38-3.68-.58A18.57,18.57,0,0,0,116,176.8c-1.49,1.74-2.13,3-2.22,3a3.26,3.26,0,0,1,.41-.93,15.8,15.8,0,0,1,1.52-2.3A17.82,17.82,0,0,1,132,169.91a15.389,15.389,0,0,1,2.7.58A3.23,3.23,0,0,1,135.62,170.86Z" transform="translate(-106.05 -55.039)" fill="#263238"/>
      <path id="Path_8134" data-name="Path 8134" d="M144.76,165.83l6.86,7.62s2.14-10.54,11.47-14.54l-7.25-7.73a18,18,0,0,0-11.08,14.65Z" transform="translate(-106.05 -55.039)" fill="#ebebeb"/>
      <path id="Path_8135" data-name="Path 8135" d="M169.4,88.76l-1,2.23s14.09,1.15,19.18,8.31h0a1.68,1.68,0,0,0,.78,1.39l2.74,1.75a1.69,1.69,0,0,0,1.92-.11h0a18.78,18.78,0,0,1,13.66,7.72l2.05,2.61,9.09-30.34L188,58.81Z" transform="translate(-106.05 -55.039)" fill="#ec7a49"/>
      <path id="Path_8136" data-name="Path 8136" d="M169.13,84.73l-1.93,4s15-.89,22.82,12.13l6.86-20.33S172.07,81.2,169.13,84.73Z" transform="translate(-106.05 -55.039)" fill="#ebebeb"/>
      <path id="Path_8137" data-name="Path 8137" d="M181.69,55.26s19.23-3.43,22,16.72L190,100.84s-5.93-19.28-22.61-15.93Z" transform="translate(-106.05 -55.039)" fill="#f5f5f5"/>
      <path id="Path_8138" data-name="Path 8138" d="M190,100.84s15.78-1.4,20.18,11l11-27.13L203.18,73Z" transform="translate(-106.05 -55.039)" fill="#ebebeb"/>
      <path id="Path_8139" data-name="Path 8139" d="M203.62,72s8.85-7,17.07-1.63L225.85,74l-10.51,27.51s-12.8-8.63-25.34-.66Z" transform="translate(-106.05 -55.039)" fill="#f5f5f5"/>
      <path id="Path_8140" data-name="Path 8140" d="M190,100.84a6,6,0,0,1,.46-1.17c.37-.83.84-1.87,1.4-3.1l4.74-10.2,4.75-10.19,1.43-3.09a5.551,5.551,0,0,1,.59-1.11,6,6,0,0,1-.4,1.19c-.28.76-.73,1.83-1.29,3.16-1.12,2.65-2.75,6.28-4.61,10.26s-3.59,7.56-4.88,10.14c-.64,1.28-1.17,2.32-1.55,3a5.109,5.109,0,0,1-.64,1.11Z" transform="translate(-106.05 -55.039)" fill="#263238"/>
      <path id="Path_8141" data-name="Path 8141" d="M220.67,76.76c-.06.07-.84-.54-2.27-1.25a16.29,16.29,0,0,0-12-1,25.223,25.223,0,0,1-2.43.87c-.04-.13.18-.17.57-.41a10.89,10.89,0,0,1,1.74-.81,14.64,14.64,0,0,1,6.27-.85,14.93,14.93,0,0,1,6.06,1.82,10.868,10.868,0,0,1,1.59,1.08C220.51,76.56,220.69,76.73,220.67,76.76Z" transform="translate(-106.05 -55.039)" fill="#263238"/>
      <path id="Path_8142" data-name="Path 8142" d="M219.87,80.08c-.06.07-.85-.54-2.27-1.25a16.29,16.29,0,0,0-12-1,24.725,24.725,0,0,1-2.44.87c-.05-.13.19-.17.58-.41a10.48,10.48,0,0,1,1.74-.81,14.59,14.59,0,0,1,6.27-.85,14.83,14.83,0,0,1,6.05,1.82,10.34,10.34,0,0,1,1.59,1.08C219.71,79.88,219.89,80.05,219.87,80.08Z" transform="translate(-106.05 -55.039)" fill="#263238"/>
      <path id="Path_8143" data-name="Path 8143" d="M218.37,83.38c-.05.08-.84-.54-2.26-1.25a16.69,16.69,0,0,0-5.93-1.63,16.44,16.44,0,0,0-6.11.68c-1.51.48-2.39,1-2.43.88s.19-.18.58-.41a9.631,9.631,0,0,1,1.74-.82,14.88,14.88,0,0,1,6.26-.85,14.72,14.72,0,0,1,6.06,1.83,10.13,10.13,0,0,1,1.59,1.08C218.22,83.18,218.4,83.35,218.37,83.38Z" transform="translate(-106.05 -55.039)" fill="#263238"/>
      <path id="Path_8144" data-name="Path 8144" d="M217.44,86.68c-.06.08-.85-.54-2.27-1.25a16.29,16.29,0,0,0-12-1c-1.52.48-2.39,1-2.44.88s.19-.18.58-.41a9.632,9.632,0,0,1,1.74-.82,14.9,14.9,0,0,1,6.27-.85,14.67,14.67,0,0,1,6.05,1.83,9.67,9.67,0,0,1,1.59,1.08C217.28,86.48,217.46,86.65,217.44,86.68Z" transform="translate(-106.05 -55.039)" fill="#263238"/>
      <path id="Path_8145" data-name="Path 8145" d="M216.5,90.19c-.05.07-.84-.54-2.26-1.25a16.63,16.63,0,0,0-5.93-1.63,16.36,16.36,0,0,0-6.1.68,24.724,24.724,0,0,1-2.44.87c-.05-.13.19-.17.58-.41a10.481,10.481,0,0,1,1.74-.81,14.9,14.9,0,0,1,6.27-.85,14.67,14.67,0,0,1,6,1.83A9.67,9.67,0,0,1,216,89.7C216.35,90,216.53,90.16,216.5,90.19Z" transform="translate(-106.05 -55.039)" fill="#263238"/>
      <path id="Path_8146" data-name="Path 8146" d="M215.59,94.18c-.06.08-.91-.59-2.47-1.33a19.34,19.34,0,0,0-2.83-1.09,24.512,24.512,0,0,0-3.63-.73,22.32,22.32,0,0,0-3.71-.09,17.2,17.2,0,0,0-3,.48c-1.67.43-2.62,1-2.67.88a2.46,2.46,0,0,1,.64-.43,5.142,5.142,0,0,1,.81-.39,8.363,8.363,0,0,1,1.12-.41,15.229,15.229,0,0,1,3-.61,21.16,21.16,0,0,1,3.8.05,21.55,21.55,0,0,1,3.72.79,16.561,16.561,0,0,1,2.85,1.22,8.5,8.5,0,0,1,1,.61,5.4,5.4,0,0,1,.72.53C215.42,94,215.61,94.16,215.59,94.18Z" transform="translate(-106.05 -55.039)" fill="#263238"/>
      <path id="Path_8147" data-name="Path 8147" d="M214.26,97.07c-.06.08-.91-.6-2.49-1.31a18.83,18.83,0,0,0-2.87-1,24,24,0,0,0-3.67-.61,22.91,22.91,0,0,0-3.72,0,17.83,17.83,0,0,0-3,.55c-1.67.45-2.62,1-2.67.9s.21-.18.64-.43a6.107,6.107,0,0,1,.81-.4,9.806,9.806,0,0,1,1.12-.43,16.27,16.27,0,0,1,3-.67,20.771,20.771,0,0,1,3.81-.07,20.51,20.51,0,0,1,3.76.67,15.49,15.49,0,0,1,2.9,1.15,9.637,9.637,0,0,1,1,.59,5.571,5.571,0,0,1,.73.53C214.09,96.86,214.29,97.05,214.26,97.07Z" transform="translate(-106.05 -55.039)" fill="#263238"/>
      <path id="Path_8148" data-name="Path 8148" d="M189.81,91.49c-.09,0-.27-1.1-.95-2.75a15.21,15.21,0,0,0-4-5.57,14.92,14.92,0,0,0-6.15-3.09c-1.74-.42-2.86-.42-2.86-.51a2.18,2.18,0,0,1,.79-.07,11.82,11.82,0,0,1,2.15.22,13.86,13.86,0,0,1,10.45,8.89,10.7,10.7,0,0,1,.55,2.09,2.27,2.27,0,0,1,.02.79Z" transform="translate(-106.05 -55.039)" fill="#263238"/>
      <path id="Path_8149" data-name="Path 8149" d="M191.47,87.74c-.09,0-.26-1.1-.95-2.75a14.6,14.6,0,0,0-10.18-8.67c-1.74-.41-2.87-.41-2.87-.5a2.18,2.18,0,0,1,.79-.07,12.59,12.59,0,0,1,2.15.21,13.86,13.86,0,0,1,10.45,8.9,11.658,11.658,0,0,1,.56,2.09A2.09,2.09,0,0,1,191.47,87.74Z" transform="translate(-106.05 -55.039)" fill="#263238"/>
      <path id="Path_8150" data-name="Path 8150" d="M193.14,84c-.09,0-.27-1.1-1-2.75A14.6,14.6,0,0,0,182,72.57c-1.74-.41-2.87-.41-2.86-.5a2.18,2.18,0,0,1,.79-.07,12.59,12.59,0,0,1,2.15.21,13.91,13.91,0,0,1,6.4,3.07,14.06,14.06,0,0,1,4.05,5.83,11.48,11.48,0,0,1,.55,2.09A2.27,2.27,0,0,1,193.14,84Z" transform="translate(-106.05 -55.039)" fill="#263238"/>
      <path id="Path_8151" data-name="Path 8151" d="M194.8,80.24c-.09,0-.26-1.1-1-2.75a14.59,14.59,0,0,0-10.19-8.67c-1.73-.41-2.86-.41-2.86-.5a2.18,2.18,0,0,1,.79-.07,11.64,11.64,0,0,1,2.15.21,13.81,13.81,0,0,1,10.45,8.9,11.82,11.82,0,0,1,.56,2.08,2.14,2.14,0,0,1,.1.8Z" transform="translate(-106.05 -55.039)" fill="#263238"/>
      <path id="Path_8152" data-name="Path 8152" d="M196.47,76.49c-.09,0-.27-1.1-1-2.75a14.6,14.6,0,0,0-10.18-8.67c-1.74-.41-2.87-.41-2.86-.5a2.18,2.18,0,0,1,.79-.07,10.82,10.82,0,0,1,2.15.21,13.85,13.85,0,0,1,10.45,8.9,12.561,12.561,0,0,1,.55,2.08,2.32,2.32,0,0,1,.1.8Z" transform="translate(-106.05 -55.039)" fill="#263238"/>
      <path id="Path_8153" data-name="Path 8153" d="M198.13,72.73c-.09,0-.26-1.09-.95-2.74A14.59,14.59,0,0,0,187,61.32c-1.74-.42-2.86-.41-2.86-.5a2.18,2.18,0,0,1,.79-.07,10.82,10.82,0,0,1,2.15.21,13.85,13.85,0,0,1,10.45,8.9,10.819,10.819,0,0,1,.55,2.08A2.26,2.26,0,0,1,198.13,72.73Z" transform="translate(-106.05 -55.039)" fill="#263238"/>
      <path id="Path_8154" data-name="Path 8154" d="M354.3,183.7l-1.68,2.66s17.68,3.93,22.89,13.91h0a2.2,2.2,0,0,0,.75,1.91l3.17,2.7a2.16,2.16,0,0,0,2.45.2h0s10.77,1.89,16,12.19L400,221l16.88-37L383.2,149Z" transform="translate(-106.05 -55.039)" fill="#ec7a49"/>
      <path id="Path_8155" data-name="Path 8155" d="M354.67,178.55l-3.15,4.71s19.21,1.5,26.85,19.4l12.26-24.61S359,174.58,354.67,178.55Z" transform="translate(-106.05 -55.039)" fill="#ebebeb"/>
      <path id="Path_8156" data-name="Path 8156" d="M375.78,143.33s25-1,25,25.08l-22.36,34.25s-4.16-25.52-25.91-24.18Z" transform="translate(-106.05 -55.039)" fill="#f5f5f5"/>
      <path id="Path_8157" data-name="Path 8157" d="M378.37,202.66s20.27,1,23.67,17.57l18.66-32.52L400,169.59Z" transform="translate(-106.05 -55.039)" fill="#ebebeb"/>
      <path id="Path_8158" data-name="Path 8158" d="M400.69,168.43s12.46-7.37,21.95.92l5.92,5.53L410.39,208s-14.74-13.21-32.06-5.29Z" transform="translate(-106.05 -55.039)" fill="#f5f5f5"/>
      <path id="Path_8159" data-name="Path 8159" d="M378.37,202.66a8.93,8.93,0,0,1,.8-1.39l2.34-3.68c2.06-3.17,4.8-7.41,7.83-12.1l7.8-12.12,2.34-3.68a9.56,9.56,0,0,1,.91-1.32,9.48,9.48,0,0,1-.73,1.42c-.5.91-1.26,2.19-2.21,3.78-1.9,3.16-4.61,7.48-7.67,12.2s-5.88,9-8,12l-2.48,3.6a9.482,9.482,0,0,1-.93,1.29Z" transform="translate(-106.05 -55.039)" fill="#263238"/>
      <path id="Path_8160" data-name="Path 8160" d="M421.5,177.46c-.07.07-.95-.86-2.63-2a20.262,20.262,0,0,0-3.11-1.76,22.579,22.579,0,0,0-4.14-1.38,22.811,22.811,0,0,0-4.34-.49,20.407,20.407,0,0,0-3.56.3c-2,.35-3.2.83-3.23.73a2.88,2.88,0,0,1,.81-.39,8.656,8.656,0,0,1,1-.35,13.065,13.065,0,0,1,1.35-.35,18.411,18.411,0,0,1,3.63-.42,21.57,21.57,0,0,1,4.45.46,21.082,21.082,0,0,1,4.24,1.45,19,19,0,0,1,3.12,1.9c.42.3.76.62,1.08.89a7.551,7.551,0,0,1,.75.74,3.27,3.27,0,0,1,.58.67Z" transform="translate(-106.05 -55.039)" fill="#263238"/>
      <path id="Path_8161" data-name="Path 8161" d="M419.9,181.54c-.08.07-1-.86-2.63-2a20.259,20.259,0,0,0-3.11-1.76,20.67,20.67,0,0,0-8.48-1.86,20.4,20.4,0,0,0-3.56.29c-2,.35-3.2.83-3.24.74a2.909,2.909,0,0,1,.82-.39,5.579,5.579,0,0,1,1-.35,11.521,11.521,0,0,1,1.36-.36,18.471,18.471,0,0,1,3.63-.41,20.92,20.92,0,0,1,4.45.45,21.2,21.2,0,0,1,4.23,1.46,17.58,17.58,0,0,1,3.12,1.89,12.213,12.213,0,0,1,1.08.9,6.809,6.809,0,0,1,.76.73,3.15,3.15,0,0,1,.57.67Z" transform="translate(-106.05 -55.039)" fill="#263238"/>
      <path id="Path_8162" data-name="Path 8162" d="M417.42,185.47c-.07.07-.95-.86-2.63-2a21.13,21.13,0,0,0-3.11-1.76,23.362,23.362,0,0,0-4.14-1.38,22.76,22.76,0,0,0-4.34-.48,21.609,21.609,0,0,0-3.56.29c-2,.36-3.2.83-3.23.74a3.09,3.09,0,0,1,.81-.39,7.1,7.1,0,0,1,1-.35,12.91,12.91,0,0,1,1.35-.36,18.561,18.561,0,0,1,3.63-.41,21.46,21.46,0,0,1,4.45.45,21.731,21.731,0,0,1,4.24,1.46,18.58,18.58,0,0,1,3.12,1.9,10.7,10.7,0,0,1,1.08.89,7.824,7.824,0,0,1,.76.73C417.24,185.2,417.45,185.44,417.42,185.47Z" transform="translate(-106.05 -55.039)" fill="#263238"/>
      <path id="Path_8163" data-name="Path 8163" d="M379.73,190.75c-.09,0-.1-1.44-.67-3.66a18.57,18.57,0,0,0-11.45-12.83c-2.14-.82-3.58-1-3.56-1.09a3.51,3.51,0,0,1,1,.07,16.619,16.619,0,0,1,2.68.67A17.8,17.8,0,0,1,379.41,187a14.372,14.372,0,0,1,.36,2.74A3.081,3.081,0,0,1,379.73,190.75Z" transform="translate(-106.05 -55.039)" fill="#263238"/>
      <path id="Path_8164" data-name="Path 8164" d="M382.5,186.28c-.09,0-.1-1.44-.67-3.66a18.58,18.58,0,0,0-11.44-12.83c-2.15-.82-3.59-1-3.57-1.09a3.51,3.51,0,0,1,1,.07,16.621,16.621,0,0,1,2.68.67,17.8,17.8,0,0,1,11.67,13.09,14.372,14.372,0,0,1,.36,2.74,2.771,2.771,0,0,1-.03,1.01Z" transform="translate(-106.05 -55.039)" fill="#263238"/>
      <path id="Path_8165" data-name="Path 8165" d="M385.27,181.81c-.09,0-.1-1.44-.67-3.66a18.58,18.58,0,0,0-11.44-12.83c-2.15-.82-3.59-1-3.57-1.09a3.51,3.51,0,0,1,1,.07,16.619,16.619,0,0,1,2.68.67A17.84,17.84,0,0,1,385,178.06a16.209,16.209,0,0,1,.36,2.74A2.88,2.88,0,0,1,385.27,181.81Z" transform="translate(-106.05 -55.039)" fill="#263238"/>
      <path id="Path_8166" data-name="Path 8166" d="M388.05,177.34c-.1,0-.11-1.44-.68-3.66a18.58,18.58,0,0,0-11.44-12.83c-2.15-.82-3.58-1-3.57-1.09a3.51,3.51,0,0,1,1,.07,16.62,16.62,0,0,1,2.68.67,17.84,17.84,0,0,1,11.68,13.09,16.209,16.209,0,0,1,.36,2.74,3.479,3.479,0,0,1-.03,1.01Z" transform="translate(-106.05 -55.039)" fill="#263238"/>
      <path id="Path_8167" data-name="Path 8167" d="M390.82,172.87c-.1,0-.11-1.44-.68-3.66a18.58,18.58,0,0,0-11.44-12.83c-2.15-.82-3.58-1-3.57-1.09a3.51,3.51,0,0,1,1,.07,16.372,16.372,0,0,1,2.68.67,17.84,17.84,0,0,1,11.68,13.09,16.212,16.212,0,0,1,.36,2.74,3.48,3.48,0,0,1-.03,1.01Z" transform="translate(-106.05 -55.039)" fill="#263238"/>
      <path id="Path_8168" data-name="Path 8168" d="M393.59,168.4c-.1,0-.11-1.44-.68-3.66a18.58,18.58,0,0,0-11.44-12.83c-2.15-.82-3.58-1-3.57-1.09a3.51,3.51,0,0,1,1,.07,16.368,16.368,0,0,1,2.68.67,17.84,17.84,0,0,1,11.68,13.09,16.2,16.2,0,0,1,.36,2.74A3.48,3.48,0,0,1,393.59,168.4Z" transform="translate(-106.05 -55.039)" fill="#263238"/>
      <path id="Path_8169" data-name="Path 8169" d="M395.63,185.47l-6.52,9.44s10-1.17,18.7,4.37l6-10.11s-9.24-7.26-18.22-3.7" transform="translate(-106.05 -55.039)" fill="#ebebeb"/>
    </g>
  </g>
</svg>
