<svg xmlns="http://www.w3.org/2000/svg" width="59.833" height="87.032" viewBox="0 0 59.833 87.032">
  <path id="Icon_awesome-lightbulb" data-name="Icon awesome-lightbulb" d="M16.328,77.231a5.442,5.442,0,0,0,.911,3.007l2.9,4.367a5.438,5.438,0,0,0,4.528,2.427h10.49A5.438,5.438,0,0,0,39.69,84.6L42.6,80.238a5.438,5.438,0,0,0,.911-3.007l.007-6.519H16.32ZM0,29.917A29.75,29.75,0,0,0,7.4,49.6c2.808,3.2,7.2,9.9,8.875,15.545.007.044.012.088.019.133H43.535c.007-.044.012-.087.019-.133C45.228,59.5,49.621,52.8,52.429,49.6A29.911,29.911,0,1,0,0,29.917Zm29.917-13.6a13.614,13.614,0,0,0-13.6,13.6,2.72,2.72,0,0,1-5.439,0A19.059,19.059,0,0,1,29.917,10.879a2.72,2.72,0,1,1,0,5.439Z" fill="#ec7a49"/>
</svg>
