<svg xmlns="http://www.w3.org/2000/svg" width="57.8" height="72.25" viewBox="0 0 57.8 72.25">
  <path id="d6ad548f-5ea6-4a1f-aeb3-f0980a824d1f" d="M99.969,5.416H91.834A4.516,4.516,0,0,0,88.228,3.61H85.21a5.419,5.419,0,0,0-10.218,0h-3.02a4.516,4.516,0,0,0-3.605,1.806H60.231A9.058,9.058,0,0,0,51.2,14.447V63.216a9.058,9.058,0,0,0,9.031,9.031H99.969A9.058,9.058,0,0,0,109,63.216V14.447A9.058,9.058,0,0,0,99.969,5.416ZM80.1,3.61a1.806,1.806,0,1,1-1.806,1.806A1.806,1.806,0,0,1,80.1,3.61ZM74.99,7.222a5.419,5.419,0,0,0,10.218,0h3.02a.916.916,0,0,1,.9.9v5.419a.916.916,0,0,1-.9.9H71.972a.916.916,0,0,1-.9-.9V8.125a.916.916,0,0,1,.9-.9ZM74.378,53.38,70.765,58.8a1.806,1.806,0,0,1-2.311.607L64.841,57.6a1.806,1.806,0,1,1,1.616-3.231l2.186,1.094,2.728-4.092a1.806,1.806,0,1,1,3.006,2Zm0-12.644-3.613,5.419a1.806,1.806,0,0,1-2.31.614l-3.613-1.806a1.806,1.806,0,0,1,1.616-3.231l2.186,1.094,2.728-4.092a1.806,1.806,0,1,1,3.006,2Zm0-12.644-3.613,5.419a1.806,1.806,0,0,1-2.31.614l-3.612-1.813a1.806,1.806,0,1,1,1.616-3.231l2.186,1.094,2.728-4.092a1.806,1.806,0,1,1,3.006,2ZM94.557,57.8H80.1a1.806,1.806,0,0,1,0-3.612H94.55a1.806,1.806,0,0,1,0,3.612Zm0-12.644H80.1a1.806,1.806,0,0,1,0-3.612H94.55a1.806,1.806,0,0,1,0,3.612Zm0-12.644H80.1a1.806,1.806,0,0,1,0-3.613H94.55a1.806,1.806,0,0,1,0,3.613Z" transform="translate(-51.2 0.003)" fill="#ec7a49"/>
</svg>
