<svg id="prototype" xmlns="http://www.w3.org/2000/svg" width="92.922" height="92.922" viewBox="0 0 92.922 92.922">
  <path id="Path_4131" data-name="Path 4131" d="M166.917,119.67h5.95a1.659,1.659,0,0,0,1.66-1.659v-6.638a1.659,1.659,0,0,0-1.66-1.659H166.23a1.659,1.659,0,0,0-1.66,1.659v5.951l3.8-3.8a1.659,1.659,0,0,1,2.347,2.346Zm0,0" transform="translate(-134.703 -89.803)" fill="#ec7a49"/>
  <path id="Path_4132" data-name="Path 4132" d="M172.8,493.715H129.66a1.659,1.659,0,0,0-1.66,1.659v1.66h46.461v-1.66A1.659,1.659,0,0,0,172.8,493.715Zm0,0" transform="translate(-104.77 -404.112)" fill="#ec7a49"/>
  <path id="Path_4133" data-name="Path 4133" d="M182.855,438.855h26.55v6.638h-26.55Zm0,0" transform="translate(-149.669 -359.208)" fill="#ec7a49"/>
  <path id="Path_4134" data-name="Path 4134" d="M174.461,73.145H128V91.4h2.632l1.187-1.187a4.919,4.919,0,0,1-.5-2.132V81.441a4.978,4.978,0,0,1,4.978-4.977h6.637a4.978,4.978,0,0,1,4.978,4.977v6.638a4.978,4.978,0,0,1-4.978,4.977H136.3a4.918,4.918,0,0,1-2.132-.5l-1.672,1.673a1.66,1.66,0,0,1-1.173.484H128v21.571h46.461ZM147.912,107.99a4.978,4.978,0,0,1-4.978,4.977H136.3a4.978,4.978,0,0,1-4.978-4.977v-6.638a4.978,4.978,0,0,1,4.978-4.977h6.637a4.978,4.978,0,0,1,4.978,4.977Zm4.978-31.527h1.659a1.659,1.659,0,1,1,0,3.319H152.89a1.659,1.659,0,1,1,0-3.319Zm0,19.912h1.659a1.659,1.659,0,1,1,0,3.319H152.89a1.659,1.659,0,1,1,0-3.319ZM151.23,91.4a1.66,1.66,0,0,1,1.66-1.66h8.3a1.659,1.659,0,1,1,0,3.319h-8.3A1.659,1.659,0,0,1,151.23,91.4Zm9.956,21.571h-8.3a1.659,1.659,0,1,1,0-3.319h8.3a1.659,1.659,0,1,1,0,3.319Zm8.3,0h-1.659a1.659,1.659,0,1,1,0-3.319h1.659a1.659,1.659,0,1,1,0,3.319Zm0-6.637H152.89a1.659,1.659,0,1,1,0-3.319h16.593a1.659,1.659,0,1,1,0,3.319Zm0-6.637h-8.3a1.659,1.659,0,0,1,0-3.319h8.3a1.659,1.659,0,1,1,0,3.319Zm0-6.638h-1.659a1.659,1.659,0,1,1,0-3.319h1.659a1.659,1.659,0,1,1,0,3.319Zm0-6.637H152.89a1.659,1.659,0,1,1,0-3.319h16.593a1.659,1.659,0,1,1,0,3.319Zm0-6.637h-8.3a1.659,1.659,0,0,1,0-3.319h8.3a1.659,1.659,0,1,1,0,3.319Zm0,0" transform="translate(-104.77 -59.87)" fill="#ec7a49"/>
  <path id="Path_4135" data-name="Path 4135" d="M166.23,219.43h6.637a1.659,1.659,0,0,1,1.66,1.659v6.638a1.659,1.659,0,0,1-1.66,1.659H166.23a1.659,1.659,0,0,1-1.66-1.659v-6.638A1.659,1.659,0,0,1,166.23,219.43Zm0,0" transform="translate(-134.703 -179.606)" fill="#ec7a49"/>
  <path id="Path_4136" data-name="Path 4136" d="M174.461,4.978A4.978,4.978,0,0,0,169.483,0h-36.5A4.978,4.978,0,0,0,128,4.978V9.956h46.461ZM156.209,6.637h-9.956a1.659,1.659,0,0,1,0-3.319h9.956a1.659,1.659,0,0,1,0,3.319Zm9.823-1.029a1.747,1.747,0,0,1-.349.548,1.746,1.746,0,0,1-1.178.481,1.652,1.652,0,0,1-.631-.133,1.494,1.494,0,0,1-.9-.9,1.574,1.574,0,0,1,0-1.261,1.913,1.913,0,0,1,.349-.547,1.737,1.737,0,0,1,2.356,0,1.923,1.923,0,0,1,.349.547A1.562,1.562,0,0,1,166.032,5.608Zm4.978,0a1.747,1.747,0,0,1-.349.548,1.746,1.746,0,0,1-1.178.481,1.646,1.646,0,0,1-.63-.133,1.494,1.494,0,0,1-.9-.9,1.574,1.574,0,0,1,0-1.261A1.925,1.925,0,0,1,168.3,3.8a1.738,1.738,0,0,1,2.357,0,1.938,1.938,0,0,1,.349.547A1.568,1.568,0,0,1,171.01,5.608Zm0,0" transform="translate(-104.77)" fill="#ec7a49"/>
  <path id="Path_4137" data-name="Path 4137" d="M87.944,64H73.01v44.8h6.637a1.66,1.66,0,1,1,0,3.319H13.275a1.66,1.66,0,1,1,0-3.319h6.637V87.23H4.978a1.659,1.659,0,1,1,0-3.319H19.912V64H4.978A4.978,4.978,0,0,0,0,68.978V117.1H92.922V68.978A4.978,4.978,0,0,0,87.944,64ZM11.615,70.637h3.319a1.659,1.659,0,1,1,0,3.319H11.615a1.659,1.659,0,1,1,0-3.319Zm-6.637,0H6.637a1.659,1.659,0,1,1,0,3.319H4.978a1.659,1.659,0,1,1,0-3.319Zm0,4.978h9.956a1.659,1.659,0,1,1,0,3.319H4.978a1.659,1.659,0,1,1,0-3.319Zm0,0" transform="translate(0 -52.385)" fill="#ec7a49"/>
  <path id="Path_4138" data-name="Path 4138" d="M0,378.175a4.978,4.978,0,0,0,4.978,4.977H87.944a4.978,4.978,0,0,0,4.978-4.977v-3.319H0Zm0,0" transform="translate(0 -306.824)" fill="#ec7a49"/>
</svg>
