<?xml version="1.0" encoding="utf-8"?>
<!-- Generator: Adobe Illustrator 24.0.1, SVG Export Plug-In . SVG Version: 6.00 Build 0)  -->
<svg version="1.1" id="Layer_1" xmlns="http://www.w3.org/2000/svg" xmlns:xlink="http://www.w3.org/1999/xlink" x="0px" y="0px"
	 viewBox="0 0 594.2 594.2" style="enable-background:new 0 0 594.2 594.2;" xml:space="preserve">
<style type="text/css">
	.st0{fill:#2F3847;}
	.st1{fill:#FFFFFF;}
	.st2{fill:#E68F57;}
</style>
<path class="st0" d="M109.1,364c-1.4-2-3.6-2.3-5.4-3.2c-28.2-14.1-56.3-28.2-84.5-42.3c-2-1-4.1-2.1-5.9-3.5
	c-12.7-9.6-11.9-29.1,1.7-37.5c3.2-1.9,6.6-3.5,9.9-5.2c26.3-13.2,52.6-26.3,79-39.5c1.8-0.9,3.9-1.5,5.4-3.3
	c-2.1-2.2-4.9-3.2-7.4-4.5c-27.1-13.5-54.2-27-81.3-40.5c-2.8-1.4-5.5-2.8-8-4.8c-11.3-9.4-11-26.8,0.7-35.6
	c1.8-1.4,3.8-2.5,5.8-3.5C72.7,114,126.4,87.3,179.9,60.5c33.6-16.7,67.1-33.4,100.6-50.5c11.3-5.8,21.9-5.8,33.2-0.1
	c85.9,43.1,172,86,258,129c2,1,4.1,2,6.1,3.1c8.1,4.6,12.2,11.6,12,21c-0.3,9.1-4.6,15.7-12.7,19.8c-18.1,9.1-36.3,18.2-54.5,27.3
	c-10.7,5.4-21.5,10.7-32.2,16.1c-1.8,0.9-3.9,1.4-5.2,3.2c0.8,1.7,2.5,2.1,4,2.9c28.4,14.2,56.7,28.3,85.1,42.5
	c1.7,0.8,3.4,1.7,4.9,2.7c14.6,9.3,14.5,29.7-0.1,38.9c-3.9,2.4-8.1,4.2-12.2,6.2c-26.1,13.1-52.3,26.1-78.4,39.2
	c-1.1,0.6-2.3,1-3,2.2c0.3,2.1,2.3,2.2,3.7,2.9c28.7,14.4,57.5,28.7,86.2,43c6.2,3.1,11,7.3,13.4,14c3.7,10.5-0.4,21.7-10.1,27.4
	c-4.1,2.4-8.5,4.4-12.7,6.5c-83.8,41.9-167.6,83.7-251.4,125.6c-0.7,0.4-1.5,0.7-2.2,1.1c-10.1,5.6-20,5.2-30.2,0
	c-18.4-9.5-37-18.7-55.5-27.9c-67.7-33.7-135.4-67.4-203-101.2c-3.1-1.6-6.3-3.2-9.2-5.2c-13.6-9.6-12.9-29.4,1.3-38.2
	c3.2-1.9,6.6-3.5,9.9-5.2c26.7-13.3,53.4-26.6,80.1-39.9C106.6,366.2,108.2,366,109.1,364z"/>
<path class="st1" d="M79.7,161.8c9.3-4.7,18.1-9.1,27-13.6c60.4-30.2,120.9-60.2,181.2-90.6c6.7-3.4,11.9-3.3,18.6,0.1
	c67,33.7,134.2,67.2,201.3,100.7c2.2,1.1,4.7,1.8,6.3,3.7c-0.6,1.9-2.4,2.2-3.8,2.9c-68.4,34.2-136.8,68.2-205.2,102.5
	c-5.6,2.8-10.2,2.9-15.8,0.1c-68.3-34.3-136.8-68.3-205.2-102.5C82.6,164.4,81,163.9,79.7,161.8z"/>
<path class="st1" d="M80.3,431.5c0.7-1.7,2.2-2,3.4-2.6c23.7-11.9,47.5-23.6,71.1-35.7c5.1-2.6,9.4-2.6,14.6,0
	c37.5,19,75.2,37.6,112.8,56.6c10.1,5.1,19.6,5.1,29.7,0c37-18.7,74.2-37,111.1-55.8c6.4-3.3,11.6-3.3,18,0
	c23.2,12,46.6,23.5,70,35.2c1.1,0.6,2.3,1,3.1,2.4c-1.3,2.3-3.9,2.8-6,3.8c-59.9,29.9-119.8,59.8-179.7,89.7
	c-8.2,4.1-16.4,8.1-24.4,12.3c-4.6,2.4-8.9,2.5-13.6,0.1C221.7,503,152.9,468.6,84.1,434.2C82.7,433.5,80.9,433.1,80.3,431.5z"/>
<path class="st2" d="M80.5,297.2c1.2-2.5,3.6-2.9,5.6-3.9c23.3-11.7,46.8-23.3,70.1-35.2c4.4-2.2,8-1.9,12.3,0.2
	c38,19.1,76.2,37.8,114.1,57.1c10,5.1,19,5.1,29,0.1c32.2-16.4,64.5-32.3,96.8-48.5c6.3-3.1,12.6-6.3,18.9-9.5
	c2.9-1.5,5.8-1.9,8.9-0.3c25.4,12.7,50.8,25.4,76.2,38.2c0.5,0.3,0.9,0.8,1.6,1.3c-0.8,2.5-3.3,2.9-5.2,3.8
	c-53.6,26.8-107.2,53.6-160.9,80.4c-14.5,7.2-29,14.3-43.4,21.8c-5.1,2.7-9.5,2.5-14.6-0.1c-68.1-34.1-136.2-68.1-204.3-102.1
	C83.7,299.6,81.7,299.1,80.5,297.2z"/>
</svg>
