<svg xmlns="http://www.w3.org/2000/svg" width="74.991" height="117.262" viewBox="0 0 74.991 117.262">
  <g id="Group_8743" data-name="Group 8743" transform="translate(-1039.255 -2209)">
    <path id="Path_6451" data-name="Path 6451" d="M346.4,147.32c-.426,0-16.3,7.331-17.254,25.389-.862,16.6,10.612,32.362,12.1,31.316,1.814-1.278-1.273-11.617,2.256-23.449,1.252-4.207,6.721-7.92,6.721-7.92Z" transform="translate(710.153 2122.15)" fill="#ec7a49"/>
    <path id="Path_6452" data-name="Path 6452" d="M356.677,172.68a25.16,25.16,0,0,0-4.349,3.944c-2.361-5.259-6.768-15.119-9.618-21.5a29.068,29.068,0,0,1,10.144-7.751Z" transform="translate(703.701 2122.127)" opacity="0.1"/>
    <path id="Path_6453" data-name="Path 6453" d="M435.4,147.38c.426,0,16.3,7.362,17.217,25.41.841,16.6-10.659,32.347-12.142,31.3-1.809-1.278,1.288-11.617-2.219-23.454-1.246-4.207-6.71-7.925-6.71-7.925Z" transform="translate(661.58 2122.122)" fill="#ec7a49"/>
    <path id="Path_6454" data-name="Path 6454" d="M445.6,155.206c-2.877,6.431-7.289,16.3-9.624,21.508a25.17,25.17,0,0,0-4.423-4.007L435.4,147.37A29.1,29.1,0,0,1,445.6,155.206Z" transform="translate(661.58 2122.126)" opacity="0.1"/>
    <path id="Path_6455" data-name="Path 6455" d="M392.6,134.339H368.636s-11.291-20.188-9.955-44.258a117.959,117.959,0,0,1,7.594-34.124c5.2-13.825,11.632-23.633,14.419-23.628s9.2,9.818,14.388,23.628a118.242,118.242,0,0,1,7.536,34.135C403.922,114.161,392.6,134.339,392.6,134.339Z" transform="translate(696.181 2176.67)" fill="#ebebeb"/>
    <path id="Path_6456" data-name="Path 6456" d="M402.911,123.771A13.825,13.825,0,1,1,389.1,109.94a13.825,13.825,0,0,1,13.815,13.831Z" transform="translate(688.269 2139.873)" fill="#c7c7c7"/>
    <path id="Path_6457" data-name="Path 6457" d="M401.981,121.091a13.825,13.825,0,1,1-13.815-13.831A13.825,13.825,0,0,1,401.981,121.091Z" transform="translate(688.71 2141.144)" fill="#ec7a49"/>
    <path id="Path_6458" data-name="Path 6458" d="M401.563,124.907a9.587,9.587,0,1,1-9.587-9.587A9.587,9.587,0,0,1,401.563,124.907Z" transform="translate(684.888 2137.322)" fill="#fff"/>
    <path id="Path_6459" data-name="Path 6459" d="M407.9,131.231a9.546,9.546,0,0,1-.652,3.476l-5.464,5.464a9.587,9.587,0,0,1-6.037.294l11.8-11.8A9.561,9.561,0,0,1,407.9,131.231Z" transform="translate(678.554 2130.993)" fill="#ebebeb"/>
    <path id="Path_6460" data-name="Path 6460" d="M393.386,115.439,382.5,126.325a9.459,9.459,0,0,1-.105-1.4,9.581,9.581,0,0,1,11-9.466Z" transform="translate(684.888 2137.308)" fill="#ebebeb"/>
    <path id="Path_6461" data-name="Path 6461" d="M404.167,124.056l-13.031,13.026a7.686,7.686,0,0,1-.736-.452l13.315-13.31C403.862,123.557,404.02,123.8,404.167,124.056Z" transform="translate(681.09 2133.529)" fill="#ebebeb"/>
    <path id="Path_6462" data-name="Path 6462" d="M402.023,55.958H373.21c5.2-13.825,11.632-23.633,14.42-23.628S396.838,42.148,402.023,55.958Z" transform="translate(689.241 2176.67)" fill="#ec7a49"/>
    <path id="Path_6463" data-name="Path 6463" d="M381.2,70.826a.8.8,0,1,1-.228-.583A.8.8,0,0,1,381.2,70.826Z" transform="translate(686.216 2158.81)" fill="#fff"/>
    <path id="Path_6464" data-name="Path 6464" d="M390.94,70.826a.81.81,0,1,1-.23-.581.81.81,0,0,1,.23.581Z" transform="translate(681.602 2158.81)" fill="#fff"/>
    <path id="Path_6465" data-name="Path 6465" d="M400.69,70.855a.81.81,0,1,1-.8-.8A.81.81,0,0,1,400.69,70.855Z" transform="translate(676.98 2158.786)" fill="#fff"/>
    <path id="Path_6466" data-name="Path 6466" d="M410.44,70.86a.8.8,0,1,1-.236-.574A.81.81,0,0,1,410.44,70.86Z" transform="translate(672.357 2158.786)" fill="#fff"/>
    <path id="Path_6467" data-name="Path 6467" d="M420.18,70.865a.81.81,0,1,1-.8-.8A.81.81,0,0,1,420.18,70.865Z" transform="translate(667.739 2158.781)" fill="#fff"/>
    <path id="Path_6468" data-name="Path 6468" d="M381.13,218.54a.81.81,0,1,1-.8-.81A.81.81,0,0,1,381.13,218.54Z" transform="translate(686.254 2088.767)" fill="#c7c7c7"/>
    <path id="Path_6469" data-name="Path 6469" d="M390.88,218.545a.81.81,0,1,1-.81-.8.81.81,0,0,1,.81.8Z" transform="translate(681.631 2088.763)" fill="#c7c7c7"/>
    <path id="Path_6470" data-name="Path 6470" d="M400.63,218.55a.81.81,0,1,1-.81-.81.81.81,0,0,1,.81.81Z" transform="translate(677.008 2088.763)" fill="#c7c7c7"/>
    <path id="Path_6471" data-name="Path 6471" d="M410.37,218.56a.81.81,0,1,1-.8-.81A.81.81,0,0,1,410.37,218.56Z" transform="translate(672.39 2088.758)" fill="#c7c7c7"/>
    <path id="Path_6472" data-name="Path 6472" d="M420.12,218.565a.81.81,0,1,1-.8-.8A.81.81,0,0,1,420.12,218.565Z" transform="translate(667.768 2088.753)" fill="#c7c7c7"/>
    <path id="Path_6473" data-name="Path 6473" d="M400.684,233.5l-19.494-.016-.91-7.2,21.324.016Z" transform="translate(685.889 2084.714)" fill="#ec7a49"/>
    <path id="Path_6474" data-name="Path 6474" d="M401.609,226.3l-.452,3.508-20.525-.768-.342-2.756Z" transform="translate(685.884 2084.714)" opacity="0.1"/>
  </g>
</svg>
