<svg xmlns="http://www.w3.org/2000/svg" width="71.433" height="76.354" viewBox="0 0 71.433 76.354">
  <g id="task" transform="translate(-16.5)">
    <path id="Path_4139" data-name="Path 4139" d="M274.246,274a17.747,17.747,0,1,0,17.9,17.746A17.767,17.767,0,0,0,274.246,274Zm5.447,15.6-5.965,7.158a2.237,2.237,0,0,1-3.719-.432l-2.386-4.772a2.237,2.237,0,0,1,4-2l.856,1.713,3.776-4.531a2.237,2.237,0,1,1,3.437,2.864Z" transform="translate(-204.209 -233.138)" fill="#ec7a49"/>
    <path id="Path_4140" data-name="Path 4140" d="M69.074,12.744,60,3.358l-.013-.014A11.257,11.257,0,0,0,52.006,0h-28.8A6.718,6.718,0,0,0,16.5,6.711V64.722a6.718,6.718,0,0,0,6.711,6.711H51.9A22.21,22.21,0,0,1,70.038,36.388q1.132,0,2.237.111V20.577a11.121,11.121,0,0,0-3.2-7.833ZM40.212,49.959H28.281a2.237,2.237,0,1,1,0-4.474h11.93a2.237,2.237,0,0,1,0,4.474Zm0-11.93H28.281a2.237,2.237,0,0,1,0-4.474h11.93a2.237,2.237,0,0,1,0,4.474Zm0-11.93H28.281a2.237,2.237,0,0,1,0-4.474h11.93a2.237,2.237,0,0,1,0,4.474Zm14.316,11.93H52.142a2.237,2.237,0,0,1,0-4.474h2.386a2.237,2.237,0,1,1,0,4.474Zm0-11.93H52.142a2.237,2.237,0,0,1,0-4.474h2.386a2.237,2.237,0,1,1,0,4.474Z" fill="#ec7a49"/>
  </g>
</svg>
